<?xml version="1.0" encoding="UTF-8"?>
<svg xmlns="http://www.w3.org/2000/svg" xmlns:rdf="http://www.w3.org/1999/02/22-rdf-syntax-ns#" xmlns:dc="http://purl.org/dc/elements/1.1/" xmlns:cc="http://creativecommons.org/ns#" width="320px" height="256px" viewBox="0 0 320 256">
  <title>TRTA Emblem Design Analysis</title>
  <metadata>
    <rdf:RDF>
      <cc:Work rdf:about="">
        <cc:format>image/svg+xml</cc:format>
      </cc:Work>
      <dc:type rdf:resource="http://purl.org/dc/dcmitype/StillImage" />
      <dc:title>TRTA Emblem Design Analysis</dc:title>
      <dc:description>
        Note that: the original TRTA (Teito Rapid Transit Authority; 帝都高速度交通営団) Emblem, a.k.a. S mark is a registered trademark of Tokyo Metro Co., Ltd.
      </dc:description>
    </rdf:RDF>
  </metadata>
  <g>
  <circle id="trta-emblem-outer-circle" cx="160" cy="128" r="85" style="fill: #e70012;"></circle>
  <circle id="trta-emblem-inner-circle" cx="160" cy="128" r="55" style="fill: #fff;"></circle>
  <polygon id="trta-emblem-polygon" points="99.89592359914346,67.89592359914346 24.791847198286916,143 222.78174593052023,143 198.89087296526012,188.10407640085654 220.10407640085654,188.10407640085654 295.2081528017131,113 97.21825406947977,113 121.10912703473988,67.89592359914346" style="fill: #e70012;"></polygon>
  <rect id="trta-emblem-blank-topright" x="160" y="99" width="160" height="14" style="fill: #fff;"></rect>
  <rect id="trta-emblem-blank-bottomleft" x="0" y="143" width="160" height="14" style="fill: #fff;"></rect>
  </g>
  <g>
    <polygon points="99.89592359914346,67.89592359914346 24.791847198286916,143 175,143" style="fill: #0ff; opacity: 0.5;"/>
    <polygon points="220.10407640085654,188.10407640085654 295.2081528017131,113 145,113" style="fill: #f0f; opacity: 0.5;"/>

    <text x="77" y="62" style="font-size:14px;font-family:serif;fill:#000000">A</text>
    <circle cx="99.89592359914346" cy="67.89592359914346" r="4" style="fill: #000;"/>
    <text x="226" y="207" style="font-size:14px;font-family:serif;fill:#000000">A′</text>
    <circle cx="220.10407640085654" cy="188.10407640085654" r="4" style="fill: #000;"/>

    <text x="25" y="164" style="font-size:14px;font-family:serif;fill:#000000">B</text>
    <circle cx="24.791847198286916" cy="143" r="4" style="fill: #000;"/>
    <text x="290" y="97" style="font-size:14px;font-family:serif;fill:#000000">B′</text>
    <circle cx="295.2081528017131" cy="113" r="4" style="fill: #000;"/>

    <text x="159" y="158" style="font-size:14px;font-family:serif;fill:#000000">C</text>
    <circle cx="175" cy="143" r="4" style="fill: #000;"/>
    <text x="140" y="102" style="font-size:14px;font-family:serif;fill:#000000">C′</text>
    <circle cx="145" cy="113" r="4" style="fill: #000;"/>
  </g>
</svg>
