<?xml version='1.0' encoding='UTF-8' standalone='no'?>
<svg xmlns:cc="http://creativecommons.org/ns#" xmlns:dc="http://purl.org/dc/elements/1.1/" sodipodi:docname="201610_opticalanlyartaquarium_bowl_diagram.svg" height="228.50029" xmlns:inkscape="http://www.inkscape.org/namespaces/inkscape" xmlns:rdf="http://www.w3.org/1999/02/22-rdf-syntax-ns#" xmlns:sodipodi="http://sodipodi.sourceforge.net/DTD/sodipodi-0.dtd" xmlns:svg="http://www.w3.org/2000/svg" version="1.1" inkscape:version="0.91 r13725" viewBox="0 0 296.33365 228.5003" width="296.33365" xmlns:xlink="http://www.w3.org/1999/xlink" xmlns="http://www.w3.org/2000/svg">
  <metadata>
    <rdf:RDF>
      <cc:Work rdf:about="">
        <dc:format>image/svg+xml</dc:format>
        <dc:type rdf:resource="http://purl.org/dc/dcmitype/StillImage"/>
        <dc:title/>
        <cc:license rdf:resource="http://creativecommons.org/licenses/by-nc-sa/3.0/"/>
        <dc:creator>
          <cc:Agent>
            <dc:title>@cat_in_136</dc:title>
          </cc:Agent>
        </dc:creator>
      </cc:Work>
      <cc:License rdf:about="http://creativecommons.org/licenses/by-nc-sa/3.0/">
        <cc:permits rdf:resource="http://creativecommons.org/ns#Reproduction"/>
        <cc:permits rdf:resource="http://creativecommons.org/ns#Distribution"/>
        <cc:requires rdf:resource="http://creativecommons.org/ns#Notice"/>
        <cc:requires rdf:resource="http://creativecommons.org/ns#Attribution"/>
        <cc:prohibits rdf:resource="http://creativecommons.org/ns#CommercialUse"/>
        <cc:permits rdf:resource="http://creativecommons.org/ns#DerivativeWorks"/>
        <cc:requires rdf:resource="http://creativecommons.org/ns#ShareAlike"/>
      </cc:License>
    </rdf:RDF>
  </metadata>
  <sodipodi:namedview bordercolor="#666666" borderopacity="1" inkscape:current-layer="svg13824" inkscape:cx="320.03877" inkscape:cy="45.55637" fit-margin-bottom="5" fit-margin-left="5" fit-margin-right="5" fit-margin-top="5" gridtolerance="10" guidetolerance="10" objecttolerance="10" pagecolor="#ffffff" inkscape:pageopacity="0" inkscape:pageshadow="2" showgrid="false" inkscape:window-height="634" inkscape:window-maximized="0" inkscape:window-width="1042" inkscape:window-x="734" inkscape:window-y="356" inkscape:zoom="1"/>
  <defs>
    <marker id="marker8498" inkscape:isstock="true" orient="auto" refX="0" refY="0" inkscape:stockid="Arrow1Mend" style="overflow:visible">
      <path inkscape:connector-curvature="0" d="M 0,0 5,-5 -12.5,0 5,5 0,0 Z" style="fill:#0000ff;fill-opacity:1;fill-rule:evenodd;stroke:#0000ff;stroke-width:1pt;stroke-opacity:1" transform="matrix(-0.4,0,0,-0.4,-4,0)"/>
    </marker>
    <marker id="marker8574" inkscape:isstock="true" orient="auto" refX="0" refY="0" inkscape:stockid="Arrow1Mend" style="overflow:visible">
      <path inkscape:connector-curvature="0" d="M 0,0 5,-5 -12.5,0 5,5 0,0 Z" style="fill:#0000ff;fill-opacity:1;fill-rule:evenodd;stroke:#0000ff;stroke-width:1pt;stroke-opacity:1" transform="matrix(-0.4,0,0,-0.4,-4,0)"/>
    </marker>
    <marker id="marker8750" inkscape:isstock="true" orient="auto" refX="0" refY="0" inkscape:stockid="Arrow1Mend" style="overflow:visible">
      <path inkscape:connector-curvature="0" d="M 0,0 5,-5 -12.5,0 5,5 0,0 Z" style="fill:#0000ff;fill-opacity:1;fill-rule:evenodd;stroke:#0000ff;stroke-width:1pt;stroke-opacity:1" transform="matrix(-0.4,0,0,-0.4,-4,0)"/>
    </marker>
    <marker id="marker8662" inkscape:isstock="true" orient="auto" refX="0" refY="0" inkscape:stockid="Arrow1Mend" style="overflow:visible">
      <path inkscape:connector-curvature="0" d="M 0,0 5,-5 -12.5,0 5,5 0,0 Z" style="fill:#0000ff;fill-opacity:1;fill-rule:evenodd;stroke:#0000ff;stroke-width:1pt;stroke-opacity:1" transform="matrix(-0.4,0,0,-0.4,-4,0)"/>
    </marker>
    <marker inkscape:collect="always" id="marker9860" inkscape:isstock="true" orient="auto" refX="0" refY="0" inkscape:stockid="Arrow1Mend" style="overflow:visible">
      <path inkscape:connector-curvature="0" d="M 0,0 5,-5 -12.5,0 5,5 0,0 Z" style="fill:#0000ff;fill-opacity:1;fill-rule:evenodd;stroke:#0000ff;stroke-width:1pt;stroke-opacity:1" transform="matrix(-0.4,0,0,-0.4,-4,0)"/>
    </marker>
    <marker id="marker10310" inkscape:isstock="true" orient="auto" refX="0" refY="0" inkscape:stockid="Arrow1Mend" style="overflow:visible">
      <path inkscape:connector-curvature="0" d="M 0,0 5,-5 -12.5,0 5,5 0,0 Z" style="fill:#0000ff;fill-opacity:1;fill-rule:evenodd;stroke:#0000ff;stroke-width:1pt;stroke-opacity:1" transform="matrix(-0.4,0,0,-0.4,-4,0)"/>
    </marker>
    <marker inkscape:collect="always" id="Arrow1Mend" inkscape:isstock="true" orient="auto" refX="0" refY="0" inkscape:stockid="Arrow1Mend" style="overflow:visible">
      <path inkscape:connector-curvature="0" d="M 0,0 5,-5 -12.5,0 5,5 0,0 Z" style="fill:#0000ff;fill-opacity:1;fill-rule:evenodd;stroke:#0000ff;stroke-width:1pt;stroke-opacity:1" transform="matrix(-0.4,0,0,-0.4,-4,0)"/>
    </marker>
    <marker inkscape:collect="always" id="marker8798" inkscape:isstock="true" orient="auto" refX="0" refY="0" inkscape:stockid="Arrow1Mend" style="overflow:visible">
      <path inkscape:connector-curvature="0" d="M 0,0 5,-5 -12.5,0 5,5 0,0 Z" style="fill:#0000ff;fill-opacity:1;fill-rule:evenodd;stroke:#0000ff;stroke-width:1pt;stroke-opacity:1" transform="matrix(-0.4,0,0,-0.4,-4,0)"/>
    </marker>
    <marker inkscape:collect="always" id="marker8960" inkscape:isstock="true" orient="auto" refX="0" refY="0" inkscape:stockid="Arrow1Mend" style="overflow:visible">
      <path inkscape:connector-curvature="0" d="M 0,0 5,-5 -12.5,0 5,5 0,0 Z" style="fill:#0000ff;fill-opacity:1;fill-rule:evenodd;stroke:#0000ff;stroke-width:1pt;stroke-opacity:1" transform="matrix(-0.4,0,0,-0.4,-4,0)"/>
    </marker>
    <marker inkscape:collect="always" id="marker9632" inkscape:isstock="true" orient="auto" refX="0" refY="0" inkscape:stockid="Arrow1Mend" style="overflow:visible">
      <path inkscape:connector-curvature="0" d="M 0,0 5,-5 -12.5,0 5,5 0,0 Z" style="fill:#0000ff;fill-opacity:1;fill-rule:evenodd;stroke:#0000ff;stroke-width:1pt;stroke-opacity:1" transform="matrix(-0.4,0,0,-0.4,-4,0)"/>
    </marker>
    <marker inkscape:isstock="true" orient="auto" refX="0" refY="0" inkscape:stockid="Arrow1Mend" style="overflow:visible">
      <path inkscape:connector-curvature="0" d="M 0,0 5,-5 -12.5,0 5,5 0,0 Z" style="fill:#0000ff;fill-opacity:1;fill-rule:evenodd;stroke:#0000ff;stroke-width:1pt;stroke-opacity:1" transform="matrix(-0.4,0,0,-0.4,-4,0)"/>
    </marker>
  </defs>
  <g transform="translate(-89.211743,-289.36244)">
    <path inkscape:connector-curvature="0" d="m 227.88994,452.00104 -1e-5,49.88528 c 0,3.74268 -12.18784,7.20106 -31.97248,9.0724 -19.78464,1.87134 -44.16033,1.87134 -63.94497,0 -19.78464,-1.87134 -31.972488,-5.32972 -31.972488,-9.0724 L 100,452.00104" sodipodi:nodetypes="ccsscc" style="fill:#aaaaff;stroke:#000000;stroke-width:1"/>
    <path sodipodi:cx="163.94496" sodipodi:cy="501.88632" d="m 99.999992,501.88632 a 63.944969,10.475905 0 0 1 63.944968,-10.4759 63.944969,10.475905 0 0 1 63.94497,10.4759" sodipodi:end="0" sodipodi:open="true" sodipodi:rx="63.944969" sodipodi:ry="10.475905" sodipodi:start="3.1415927" style="fill:none;fill-rule:evenodd;stroke:#000000;stroke-width:1;stroke-dasharray:3, 3" sodipodi:type="arc"/>
    <path inkscape:connector-curvature="0" d="m 149.15203,496.23967 0,5.64717 c 0,0.86582 2.82004,1.66578 7.39696,2.09869 4.57693,0.43291 10.21503,0.43291 14.79196,0 4.57692,-0.43291 7.39695,-1.23287 7.39695,-2.09869 l 0,-5.65106" sodipodi:nodetypes="cssssc" style="fill:#ffffff;fill-opacity:0.75;stroke:#000000;stroke-width:1"/>
    <ellipse cx="163.94496" cy="488.91614" rx="47.120441" ry="7.7195954" style="fill:#ffffff;fill-opacity:0.75;stroke:#000000;stroke-width:1"/>
    <ellipse cx="163.94496" cy="488.91614" rx="14.792865" ry="2.4234691" style="fill:none;fill-rule:evenodd;stroke:#000000;stroke-width:1;stroke-dasharray:3, 3"/>
    <path sodipodi:cx="163.94496" sodipodi:cy="501.88644" d="m 149.1521,501.88644 a 14.792865,2.4234691 0 0 1 14.79286,-2.42346 14.792865,2.4234691 0 0 1 14.79287,2.42346" sodipodi:end="0" sodipodi:open="true" sodipodi:rx="14.792865" sodipodi:ry="2.4234691" sodipodi:start="3.1415927" style="fill:none;fill-rule:evenodd;stroke:#000000;stroke-width:1;stroke-dasharray:3, 3" sodipodi:type="arc"/>
    <path inkscape:connector-curvature="0" d="m 149.15203,488.9157 0,7.32397" sodipodi:nodetypes="cc" style="fill:none;fill-rule:evenodd;stroke:#000000;stroke-width:1;stroke-dasharray:3, 3"/>
    <path inkscape:connector-curvature="0" d="m 178.7379,496.23578 0,-7.32008" sodipodi:nodetypes="cc" style="fill:none;fill-rule:evenodd;stroke:#000000;stroke-width:1;stroke-dasharray:3, 3"/>
    <ellipse cx="163.94496" cy="452.00104" rx="63.944969" ry="10.475905" style="fill:#aaaaff;stroke:#000000;stroke-width:1"/>
  </g>
  <g transform="translate(-89.211743,-289.36244)">
    <rect height="49.380947" style="fill:#aaaaff;stroke:#000000;stroke-width:1" width="127.88447" x="246.97543" y="452.25592"/>
    <path inkscape:connector-curvature="0" d="m 263.54742,488.91614 94.74047,0" style="fill:none;stroke:#000000;stroke-width:1"/>
    <rect height="12.720742" style="fill:#ffffff;fill-opacity:0.75;stroke:#000000;stroke-width:1" width="29.585537" x="296.12491" y="488.91617"/>
  </g>
  <g transform="translate(-89.211743,-289.36244)">
    <ellipse cx="163.94496" cy="358.71558" rx="63.944969" ry="63.853138" style="fill:#aaaaff;stroke:#000000;stroke-width:1"/>
    <ellipse cx="163.94498" cy="358.71558" rx="47.120449" ry="47.052776" style="fill:#ffffff;fill-opacity:0.75;stroke:#000000;stroke-width:1"/>
    <ellipse cx="163.94487" cy="358.71558" rx="14.792769" ry="14.771525" style="fill:none;fill-rule:evenodd;stroke:#000000;stroke-width:1;stroke-dasharray:3, 3"/>
  </g>
  <g transform="translate(57.288257,-51.093432)">
    <path inkscape:connector-curvature="0" d="m 156.24767,257.1122 -21.75,0" style="fill:#0000ff;fill-rule:evenodd;stroke:#0000ff;stroke-width:1;stroke-linecap:butt;stroke-linejoin:miter;stroke-miterlimit:4;stroke-dasharray:none;stroke-opacity:1;marker-end:url(#Arrow1Mend)"/>
    <path inkscape:connector-curvature="0" d="m 172.58766,257.1122 21.75,0" style="fill:#0000ff;fill-rule:evenodd;stroke:#0000ff;stroke-width:1;stroke-linecap:butt;stroke-linejoin:miter;stroke-miterlimit:4;stroke-dasharray:none;stroke-opacity:1;marker-end:url(#marker8798)"/>
    <path inkscape:connector-curvature="0" d="m 119.67038,257.0497 -8,0 0,-14.8125" sodipodi:nodetypes="ccc" style="fill:none;fill-rule:evenodd;stroke:#0000ff;stroke-width:1;stroke-linecap:butt;stroke-linejoin:miter;stroke-miterlimit:4;stroke-dasharray:none;stroke-opacity:1;marker-end:url(#marker8960)"/>
    <path inkscape:connector-curvature="0" d="m 209.16495,257.0497 8,0 0,-14.8125" sodipodi:nodetypes="ccc" style="fill:none;fill-rule:evenodd;stroke:#0000ff;stroke-width:1;stroke-linecap:butt;stroke-linejoin:miter;stroke-miterlimit:4;stroke-dasharray:none;stroke-opacity:1;marker-end:url(#marker9632)"/>
    <path inkscape:connector-curvature="0" d="m 103.54538,217.7372 0,-7.5 -6.25,0 0,14.8125" sodipodi:nodetypes="cccc" style="fill:none;fill-rule:evenodd;stroke:#0000ff;stroke-width:1;stroke-linecap:butt;stroke-linejoin:miter;stroke-miterlimit:4;stroke-dasharray:none;stroke-opacity:1;marker-end:url(#marker9860)"/>
    <path inkscape:connector-curvature="0" d="m 225.28995,217.7372 0,-7.5 6.25,0 0,14.8125" sodipodi:nodetypes="cccc" style="fill:none;fill-rule:evenodd;stroke:#0000ff;stroke-width:1;stroke-linecap:butt;stroke-linejoin:miter;stroke-miterlimit:4;stroke-dasharray:none;stroke-opacity:1;marker-end:url(#marker10310)"/>
  </g>
  <g id="g10584" transform="matrix(0.03315736,0,0,0.03315736,58.635227,175.26636)">
    <g transform="matrix(0.87412378,0,0,0.85166715,-399.95285,-408.90607)"/>
    <g transform="matrix(0.58197496,0,0,0.48161861,-63.00449,186.72351)">
      <g transform="translate(2.1962227,-2.0700389)">
        <g>
          <path inkscape:connector-curvature="0" d="m 332.58986,123.87754 c 7.98827,7.42402 2.47518,22.03311 13.03583,25.44323 71.63992,23.1331 125.27629,49.46666 107.44599,88.6399 -13.75757,106.64552 -226.52991,326.85708 -426.863471,384.73841 -18.6158425,5.37858 -124.998135,74.71428 -143.529879,77.47925 -21.04038,3.13926 -1.94358,-43.8203 -17.44159,-34.40259 -108.98862,66.22938 -210.2718,73.91461 -191.81541,29.55163 -2.82607,-86.09579 55.43259,-113.69057 133.83753,-209.86117 74.25302,-91.07791 -201.18008,-31.86922 -186.11781,48.89974 19.78204,106.078 2.60044,133.58536 -66.91876,169.11146 -42.82203,-50.66568 -22.70425,-111.93112 -29.27696,-175.22396 -141.80974,13.55778 -333.22968,12.79743 -467.2957,-69.92415 -10.456,-8.14994 -84.78403,-29.82397 -70.14563,-37.97392 287.71778,-62.68886 650.87104,23.58102 580.51871,-210.77687 -21.97765,-117.153251 -100.32941,-19.64452 233.91803,-432.06469 6.82081,-8.41604 126.377855,91.64653 157.561434,252.413624 155.612236,16.135037 144.205656,49.06851 349.908066,105.139896 8.79987,2.39871 13.58854,-13.7527 23.17962,-11.18979 z" sodipodi:nodetypes="cscssscsscccccscsc" style="fill:#ff001f;fill-opacity:1;stroke:#000000;stroke-width:0;stroke-linecap:butt;stroke-linejoin:miter;stroke-miterlimit:4;stroke-dasharray:none;stroke-opacity:1"/>
          <g transform="matrix(0.51643477,0,0,0.52801224,118.00905,-205.33354)">
            <g transform="matrix(1.9179089,0,0,1.6246195,-314.61807,472.22855)">
              <g transform="matrix(4.670412,0,0,6.7083143,-358.17612,-1116.8659)" inkscape:transform-center-x="-389.56878" inkscape:transform-center-y="-484.61527"/>
            </g>
            <g transform="matrix(0.40100148,0,0,0.32595545,118.51992,449.47159)">
              <g transform="matrix(0.79809638,0,0,1.276661,157.37363,-602.70544)">
                <path sodipodi:cx="543.06378" sodipodi:cy="-191.86833" d="m 607.65727,-191.86833 a 64.593491,57.416435 0 0 1 -64.23406,57.41554 64.593491,57.416435 0 0 1 -64.94892,-56.77657 64.593491,57.416435 0 0 1 63.51125,-58.04741 64.593491,57.416435 0 0 1 65.65573,56.13057" sodipodi:end="6.2609274" sodipodi:open="true" sodipodi:rx="64.593491" sodipodi:ry="57.416435" sodipodi:start="0" style="fill:#ffffff;fill-opacity:1;fill-rule:nonzero;stroke:#ffffff;stroke-width:0;stroke-linecap:round;stroke-linejoin:round;stroke-miterlimit:4;stroke-dasharray:none;stroke-dashoffset:0;stroke-opacity:1" transform="matrix(5.3649301,0,0,5.9945337,-3035.0528,2496.6095)" sodipodi:type="arc"/>
                <path sodipodi:cx="-789.47601" sodipodi:cy="-94.978104" d="m -775.1219,-94.978104 a 14.354109,13.157933 0 0 1 -14.27424,13.15773 14.354109,13.157933 0 0 1 -14.43309,-13.011299 14.354109,13.157933 0 0 1 14.11361,-13.302527 14.354109,13.157933 0 0 1 14.59016,12.863252" sodipodi:end="6.2609274" sodipodi:open="true" sodipodi:rx="14.354109" sodipodi:ry="13.157933" sodipodi:start="0" style="fill:#000000;fill-opacity:1;fill-rule:nonzero;stroke:#ffffff;stroke-width:0;stroke-linecap:round;stroke-linejoin:round;stroke-miterlimit:4;stroke-dasharray:none;stroke-dashoffset:0;stroke-opacity:1" transform="matrix(11.617337,0,0,12.886768,9156.4246,2419.2472)" sodipodi:type="arc"/>
              </g>
            </g>
          </g>
          <path inkscape:connector-curvature="0" d="m 498.24988,847.01446 c -18.68892,44.39873 -11.64821,60.7147 -0.77212,109.00808 C 94.39544,1150.728 179.51235,572.25201 498.24988,847.01446 Z" sodipodi:nodetypes="ccc" style="fill:#ff4b4b;fill-opacity:1;stroke:#000000;stroke-width:0;stroke-linecap:butt;stroke-linejoin:miter;stroke-miterlimit:4;stroke-dasharray:none;stroke-opacity:1" transform="matrix(0.87412377,0,0,0.85166715,-399.95286,-408.90607)"/>
          <path inkscape:connector-curvature="0" d="m -382.19917,273.05282 c -9.14041,-177.923832 253.84973,-302.818458 212.24015,-422.16649 -219.52982,83.325804 -208.38499,310.5648 -212.24015,422.16649 z" sodipodi:nodetypes="ccc" style="fill:#e4ff6f;fill-opacity:1;stroke:#000000;stroke-width:0;stroke-linecap:butt;stroke-linejoin:miter;stroke-miterlimit:4;stroke-dasharray:none;stroke-opacity:1"/>
          <path inkscape:connector-curvature="0" d="m -263.31988,629.69892 -47.22595,69.80879 c 293.807555,-74.1349 179.63173,-327.8172 47.22595,-69.80879 z" sodipodi:nodetypes="ccc" style="fill:#e4ff6f;fill-opacity:1;stroke:#000000;stroke-width:0;stroke-linecap:butt;stroke-linejoin:miter;stroke-miterlimit:4;stroke-dasharray:none;stroke-opacity:1"/>
          <path inkscape:connector-curvature="0" d="m -936.33881,421.19334 c 250.1105,196.97334 620.63917,-125.3345 373.63078,-19.80965 -152.38251,30.04257 -219.78826,9.54821 -373.63078,19.80965 z" sodipodi:nodetypes="ccc" style="fill:#e4ff6f;fill-opacity:1;stroke:#000000;stroke-width:0;stroke-linecap:butt;stroke-linejoin:miter;stroke-miterlimit:4;stroke-dasharray:none;stroke-opacity:1"/>
          <path inkscape:connector-curvature="0" d="m -50.523886,628.87079 c 0,0 46.915037,-32.47964 68.568131,-50.52388 75.189002,-153.311 -29.385707,-114.91302 -68.568131,50.52388 z" sodipodi:nodetypes="ccc" style="fill:#e4ff6f;fill-opacity:1;stroke:#000000;stroke-width:0;stroke-linecap:butt;stroke-linejoin:miter;stroke-miterlimit:4;stroke-dasharray:none;stroke-opacity:1" transform="matrix(0.87412377,0,0,0.85166715,-399.95286,-23.64405)"/>
          <path inkscape:connector-curvature="0" d="M -142.90265,493.9263 C 26.445761,805.5964 369.29441,360.56735 431.98112,252.35074 311.05635,368.91939 105.79759,475.39148 -142.90265,493.9263 Z" sodipodi:nodetypes="ccc" style="fill:#e4ff6f;fill-opacity:1;stroke:#000000;stroke-width:0;stroke-linecap:butt;stroke-linejoin:miter;stroke-miterlimit:4;stroke-dasharray:none;stroke-opacity:1"/>
          <path inkscape:connector-curvature="0" d="m -460.4015,538.05161 c 21.42099,52.45583 -31.7063,149.25167 28.87079,137.13625 33.38453,-32.8225 68.74664,-145.37027 -28.87079,-137.13625 z" sodipodi:nodetypes="ccc" style="fill:#e4ff6f;fill-opacity:1;stroke:#000000;stroke-width:0;stroke-linecap:butt;stroke-linejoin:miter;stroke-miterlimit:4;stroke-dasharray:none;stroke-opacity:1"/>
          <g transform="matrix(0.33180181,0,0,0.36915251,700.30023,259.26131)">
            <g transform="matrix(1.6850057,0,0,0.9380531,450.27786,115.00626)">
              <path inkscape:connector-curvature="0" d="m -783.34257,-348.94898 c 33.38185,10.98542 76.12777,79.18502 68.0829,142.83269 -5.86097,79.88728 -173.3285,121.485417 -144.95071,60.03113 22.68658,-71.31163 48.40929,-137.48166 76.86781,-202.86382 z" sodipodi:nodetypes="cccc" style="fill:#ffffff;fill-opacity:1;stroke:#000000;stroke-width:0;stroke-linecap:butt;stroke-linejoin:miter;stroke-miterlimit:4;stroke-dasharray:none;stroke-opacity:1"/>
              <path inkscape:connector-curvature="0" d="m -809.48209,-196.8597 c 2.19619,-8.28016 29.22858,-85.145 29.22858,-85.145 18.01104,-72.89227 100.76945,119.06655 -29.22858,85.145 z" sodipodi:nodetypes="ccc" style="fill:#fd4c4c;fill-opacity:1;stroke:#000000;stroke-width:0;stroke-linecap:butt;stroke-linejoin:miter;stroke-miterlimit:4;stroke-dasharray:none;stroke-opacity:1"/>
            </g>
          </g>
        </g>
      </g>
    </g>
  </g>
  <use height="100%" xlink:href="#g10584" transform="translate(47.999997,1.4980957e-6)" width="100%" x="0" y="0"/>
  <use height="100%" xlink:href="#g10584" transform="translate(147.87258,1.4980957e-6)" width="100%" x="0" y="0"/>
  <use height="100%" xlink:href="#g10584" transform="translate(193.12741,1.4980957e-6)" width="100%" x="0" y="0"/>
  <g transform="translate(-89.789953,-51.093432)">
    <path inkscape:connector-curvature="0" d="m 156.24767,261.1122 -21.75,0" style="fill:#0000ff;fill-rule:evenodd;stroke:#0000ff;stroke-width:1;stroke-linecap:butt;stroke-linejoin:miter;stroke-miterlimit:4;stroke-dasharray:none;stroke-opacity:1;marker-end:url(#marker8498)"/>
    <path inkscape:connector-curvature="0" d="m 172.58766,261.1122 21.75,0" style="fill:#0000ff;fill-rule:evenodd;stroke:#0000ff;stroke-width:1;stroke-linecap:butt;stroke-linejoin:miter;stroke-miterlimit:4;stroke-dasharray:none;stroke-opacity:1;marker-end:url(#marker8574)"/>
    <path inkscape:connector-curvature="0" d="m 119.67038,261.0497 -8,0 0,-14.8125" sodipodi:nodetypes="ccc" style="fill:none;fill-rule:evenodd;stroke:#0000ff;stroke-width:1;stroke-linecap:butt;stroke-linejoin:miter;stroke-miterlimit:4;stroke-dasharray:none;stroke-opacity:1;marker-end:url(#marker8750)"/>
    <path inkscape:connector-curvature="0" d="m 209.16495,261.0497 8,0 0,-14.8125" sodipodi:nodetypes="ccc" style="fill:none;fill-rule:evenodd;stroke:#0000ff;stroke-width:1;stroke-linecap:butt;stroke-linejoin:miter;stroke-miterlimit:4;stroke-dasharray:none;stroke-opacity:1;marker-end:url(#marker8662)"/>
    <path inkscape:connector-curvature="0" d="m 103.54538,217.7372 0,-7.5 -6.25,0 0,14.8125" sodipodi:nodetypes="cccc" style="fill:none;fill-rule:evenodd;stroke:#0000ff;stroke-width:1;stroke-linecap:butt;stroke-linejoin:miter;stroke-miterlimit:4;stroke-dasharray:none;stroke-opacity:1;marker-end:url(#marker9860)"/>
    <path inkscape:connector-curvature="0" d="m 225.28995,217.7372 0,-7.5 6.25,0 0,14.8125" sodipodi:nodetypes="cccc" style="fill:none;fill-rule:evenodd;stroke:#0000ff;stroke-width:1;stroke-linecap:butt;stroke-linejoin:miter;stroke-miterlimit:4;stroke-dasharray:none;stroke-opacity:1;marker-end:url(#marker10310)"/>
  </g>
</svg>
