<?xml version='1.0' encoding='UTF-8' standalone='no'?>
<svg height="275.93472" xmlns:svg="http://www.w3.org/2000/svg" version="1.1" viewBox="0 0 235.35791 275.93473" width="235.35791" xmlns="http://www.w3.org/2000/svg">
  <rect height="55.93475" style="fill:#ffaaaa;fill-opacity:1" width="215.16252" x="10" y="209.99998"/>
  <rect height="68.077606" style="fill:#aaccff;fill-opacity:1" width="215.16252" x="10.195385" y="68.571426"/>
  <rect height="68.077606" style="fill:#aaccff;fill-opacity:1" width="215.16252" x="10.195383" y="139.28569"/>
  <rect height="55.93475" style="fill:#ffaaaa;fill-opacity:1" width="215.16252" x="10" y="10.000001"/>
  <path d="m 18.581261,50.567367 197.999999,0 M 18.581261,33.767379 l 197.999999,0 m -197.999999,-8.399994 197.999999,0 m -197.999999,16.799988 197.999999,0 m -197.999999,16.799988 197.999999,0 m -197.999999,-41.99997 197.999999,0" style="fill:none;fill-rule:evenodd;stroke:#000000;stroke-width:1px;stroke-linecap:butt;stroke-linejoin:miter;stroke-opacity:1"/>
  <path d="m 84.249825,41.181124 0,-6.427549 54.175045,0 -16.98709,-14.875182 3.76471,-4.407462 25.71019,22.496419 -25.71019,22.496418 -3.76471,-4.407462 16.98709,-14.875182 -54.175045,0 z" style="fill:#ff0000;fill-opacity:0.5;stroke:none"/>
  <path d="m 18.581261,250.56735 197.999999,0 m -197.999999,-16.79999 197.999999,0 m -197.999999,-8.39999 197.999999,0 m -197.999999,16.79998 197.999999,0 m -197.999999,16.79999 197.999999,0 m -197.999999,-41.99997 197.999999,0" style="fill:none;fill-rule:evenodd;stroke:#000000;stroke-width:1px;stroke-linecap:butt;stroke-linejoin:miter;stroke-opacity:1"/>
  <path d="m 84.249833,241.18113 0,-6.42754 54.175047,0 -16.98709,-14.87519 3.76471,-4.40746 25.71019,22.49642 -25.71019,22.49642 -3.76471,-4.40746 16.98709,-14.87519 -54.175047,0 z" style="fill:#ff0000;fill-opacity:0.5;stroke:none"/>
  <path d="m 61.979539,141.8245 0,62.99999 m -42.920856,-62.99999 0,62.99999 m 17.168342,-62.99999 0,62.99999 m 17.168343,-62.99999 0,62.99999 m -8.584171,-62.99999 0,62.99999 m -17.168343,-62.99999 0,62.99999 m 85.841726,-62.99999 0,62.99999 m -42.92087,-62.99999 0,62.99999 m 17.168351,-62.99999 0,62.99999 m 17.168349,-62.99999 0,62.99999 m -8.584174,-62.99999 0,62.99999 m -17.16835,-62.99999 0,62.99999 m 85.841704,-62.99999 0,62.99999 m -42.92083,-62.99999 0,62.99999 m 17.16833,-62.99999 0,62.99999 m 17.16834,-62.99999 0,62.99999 m -8.58417,-62.99999 0,62.99999 m -17.16834,-62.99999 0,62.99999 m 85.84168,-62.99999 0,62.99999 m -42.92084,-62.99999 0,62.99999 m 17.16834,-62.99999 0,62.99999 m 17.16833,-62.99999 0,62.99999 m -8.58417,-62.99999 0,62.99999 m -17.16833,-62.99999 0,62.99999" style="fill:none;fill-rule:evenodd;stroke:#000000;stroke-width:0.56407607px;stroke-linecap:butt;stroke-linejoin:miter;stroke-opacity:1"/>
  <path d="m 61.979541,71.110234 0,62.999986 m -42.920856,-62.999986 0,62.999986 m 17.168342,-62.999986 0,62.999986 m 17.168343,-62.999986 0,62.999986 m -8.584171,-62.999986 0,62.999986 m -17.168343,-62.999986 0,62.999986 m 85.841734,-62.999986 0,62.999986 m -42.920878,-62.999986 0,62.999986 m 17.168351,-62.999986 0,62.999986 m 17.168357,-62.999986 0,62.999986 m -8.584182,-62.999986 0,62.999986 m -17.16835,-62.999986 0,62.999986 m 85.841712,-62.999986 0,62.999986 m -42.92083,-62.999986 0,62.999986 m 17.16833,-62.999986 0,62.999986 m 17.16834,-62.999986 0,62.999986 m -8.58417,-62.999986 0,62.999986 m -17.16834,-62.999986 0,62.999986 m 85.84168,-62.999986 0,62.999986 m -42.92084,-62.999986 0,62.999986 m 17.16834,-62.999986 0,62.999986 m 17.16833,-62.999986 0,62.999986 m -8.58417,-62.999986 0,62.999986 m -17.16833,-62.999986 0,62.999986" style="fill:none;fill-rule:evenodd;stroke:#000000;stroke-width:0.56407607px;stroke-linecap:butt;stroke-linejoin:miter;stroke-opacity:1"/>
  <path d="m 112.35893,81.778783 10.83526,0 0,91.325777 25.07589,-28.63605 7.4299,6.34637 -37.92342,43.34105 -37.923415,-43.34105 7.429894,-6.34637 25.075891,28.63605 0,-91.325777 z" style="fill:#0000ff;fill-opacity:0.5;stroke:none"/>
</svg>
