<?xml version="1.0" encoding="UTF-8" standalone="no"?>
<svg xmlns:svg="http://www.w3.org/2000/svg" xmlns="http://www.w3.org/2000/svg" xmlns:xlink="http://www.w3.org/1999/xlink" width="314.43974" height="308.33995" version="1.1">
  <defs>
    <radialGradient r="55" gradientTransform="matrix(1.25,0,0,0.60176,-1017.4,486.88)" cx="1089.9" cy="100.51" gradientUnits="userSpaceOnUse" xlink:href="#linearGradient5654" id="radialGradient5668"/>
    <linearGradient id="linearGradient5654">
      <stop offset="0" style="stop-color:#efefef"/>
      <stop offset="1" style="stop-color:#bdbdbd"/>
    </linearGradient>
    <radialGradient r="55" gradientTransform="matrix(1.25,0,0,0.60176,-1017.4,492.07)" cx="1137.9" cy="108.51" gradientUnits="userSpaceOnUse" xlink:href="#linearGradient5654" id="radialGradient5660"/>
    <radialGradient gradientTransform="matrix(1.25,0,0,0.60176,-1017.4,466.14)" r="55" cy="68.509003" cx="1117.9" xlink:href="#linearGradient5654" gradientUnits="userSpaceOnUse" id="radialGradient6239"/>
  </defs>
  <g transform="matrix(0.41579414,0,0,0.41579414,-97.416862,-109.18706)">
    <path d="m 342.5,539.04 c 15,0 56.524,-0.0391 75,0 18.477,0.0391 30,2.5 30,-12.5 0,-15 -20,-20 -20,-20 0,0 5,-15 -10,-25 -15,-10 -35,5 -35,5 0,0 -10,-15 -25,-10 -15,5 -15,20 -15,20 0,0 -15,-2.5 -22.5,7.5 -7.5,10 -7.5,15 -7.5,25 0,10 15,10 30,10" style="fill:url(#radialGradient6239);fill-rule:evenodd;stroke:#7d7d7d;stroke-width:1.20000005;stroke-miterlimit:10"/>
    <path d="m 307.5,579.04 c 15,0 56.524,-0.039 75,0 18.477,0.039 30,2.5 30,-12.5 0,-15 -20,-20 -20,-20 0,0 5,-15 -10,-25 -15,-10 -35,5 -35,5 0,0 -10,-15 -25,-10 -15,5 -15,20 -15,20 0,0 -15,-2.5 -22.5,7.5 -7.5,10 -7.5,15 -7.5,25 0,10 15,10 30,10" style="fill:url(#radialGradient5668);fill-rule:evenodd;stroke:#7d7d7d;stroke-width:1.20000005;stroke-miterlimit:10"/>
    <path d="m 367.5,589.04 c 15,0 56.524,-0.039 75,0 18.477,0.039 30,2.5 30,-12.5 0,-15 -20,-20 -20,-20 0,0 5,-15 -10,-25 -15,-10 -35,5 -35,5 0,0 -10,-15 -25,-10 -15,5 -15,20 -15,20 0,0 -15,-2.5 -22.5,7.5 -7.5,10 -7.5,15 -7.5,25 0,10 15,10 30,10" style="fill:url(#radialGradient5660);fill-rule:evenodd;stroke:#7d7d7d;stroke-width:1.20000005;stroke-miterlimit:10"/>
  </g>
  <g transform="matrix(0.07585046,0,0,0.07585046,51.376252,198.79086)">
    <rect style="opacity:1;fill:#333333;fill-opacity:1;stroke:#000000;stroke-width:0;stroke-miterlimit:4;stroke-dasharray:none;stroke-opacity:0.84444424" width="474.7717" height="822.26416" x="147.48227" y="165.44827" ry="71.720818" rx="80.812202"/>
    <rect style="opacity:1;fill:#ffffff;fill-opacity:1;stroke:#000000;stroke-width:0;stroke-miterlimit:4;stroke-dasharray:none;stroke-opacity:0.84444424" width="454.56866" height="804.0813" x="157.58379" y="171.50919" rx="80.812202" ry="71.720802"/>
    <rect style="opacity:1;fill:#000000;fill-opacity:1;stroke:#000000;stroke-width:0;stroke-miterlimit:4;stroke-dasharray:none;stroke-opacity:0.84444424" width="428.30469" height="680.8429" x="171.72594" y="238.17924" rx="0" ry="0"/>
    <rect style="opacity:1;fill:#333333;fill-opacity:1;stroke:#000000;stroke-width:0;stroke-miterlimit:4;stroke-dasharray:none;stroke-opacity:0.84444424" width="128.5714" height="40.000008" x="324.28574" y="926.64795" ry="14.285719" rx="20"/>
    <rect style="opacity:1;fill:#ffffff;fill-opacity:1;stroke:#000000;stroke-width:0;stroke-miterlimit:4;stroke-dasharray:none;stroke-opacity:0.84444424" width="119.99998" height="32.857136" x="328.57144" y="930.93365" rx="20" ry="0"/>
    <path style="opacity:1;fill:#000000;fill-opacity:1;stroke:#000000;stroke-width:0;stroke-miterlimit:4;stroke-dasharray:none;stroke-opacity:0.84444424" d="m 537.8571,190.21938 a 13.035692,12.142811 0 0 1 -12.78384,12.14054 13.035692,12.142811 0 0 1 -13.27781,-11.67144 13.035692,12.142811 0 0 1 12.2708,-12.59152 13.035692,12.142811 0 0 1 13.75194,11.18491"/>
    <path style="opacity:1;fill:#000000;fill-opacity:1;stroke:#000000;stroke-width:0;stroke-miterlimit:4;stroke-dasharray:none;stroke-opacity:0.84444424" d="m 479.09537,185.96426 a 5,4.8214288 0 0 1 -4.9034,4.82053 5,4.8214288 0 0 1 -5.09287,-4.63426 5,4.8214288 0 0 1 4.70662,-4.9996 5,4.8214288 0 0 1 5.27472,4.44109"/>
    <path d="m 454.8508,186.03824 a 5,4.8214288 0 0 1 -4.9034,4.82053 5,4.8214288 0 0 1 -5.09287,-4.63427 5,4.8214288 0 0 1 4.70662,-4.99959 5,4.8214288 0 0 1 5.27473,4.44108" style="opacity:1;fill:#000000;fill-opacity:1;stroke:#000000;stroke-width:0;stroke-miterlimit:4;stroke-dasharray:none;stroke-opacity:0.84444424"/>
    <rect style="opacity:1;fill:#808080;fill-opacity:1;stroke:#000000;stroke-width:0;stroke-miterlimit:4;stroke-dasharray:none;stroke-opacity:0.84444424" width="110.71429" height="15.231549" x="319.28574" y="185.70209" ry="7.6157746" rx="9.9999952"/>
    <path style="opacity:1;fill:#000000;fill-opacity:1;stroke:#000000;stroke-width:0;stroke-miterlimit:4;stroke-dasharray:none;stroke-opacity:0.84444424" d="m 334.36049,193.48 a 2.9041886,2.7779195 0 0 1 -2.84808,2.7774 2.9041886,2.7779195 0 0 1 -2.95813,-2.67009 2.9041886,2.7779195 0 0 1 2.73378,-2.88057 2.9041886,2.7779195 0 0 1 3.06376,2.55878"/>
    <path d="m 341.93663,193.22746 a 2.9041886,2.7779195 0 0 1 -2.84808,2.7774 2.9041886,2.7779195 0 0 1 -2.95813,-2.67008 2.9041886,2.7779195 0 0 1 2.73378,-2.88057 2.9041886,2.7779195 0 0 1 3.06376,2.55878" style="opacity:1;fill:#000000;fill-opacity:1;stroke:#000000;stroke-width:0;stroke-miterlimit:4;stroke-dasharray:none;stroke-opacity:0.84444424"/>
    <path style="opacity:1;fill:#000000;fill-opacity:1;stroke:#000000;stroke-width:0;stroke-miterlimit:4;stroke-dasharray:none;stroke-opacity:0.84444424" d="m 349.51277,193.48 a 2.9041886,2.7779195 0 0 1 -2.84808,2.7774 2.9041886,2.7779195 0 0 1 -2.95813,-2.67009 2.9041886,2.7779195 0 0 1 2.73378,-2.88057 2.9041886,2.7779195 0 0 1 3.06376,2.55878"/>
    <path d="m 356.83638,193.73253 a 2.9041886,2.7779195 0 0 1 -2.84808,2.7774 2.9041886,2.7779195 0 0 1 -2.95813,-2.67008 2.9041886,2.7779195 0 0 1 2.73378,-2.88058 2.9041886,2.7779195 0 0 1 3.06376,2.55879" style="opacity:1;fill:#000000;fill-opacity:1;stroke:#000000;stroke-width:0;stroke-miterlimit:4;stroke-dasharray:none;stroke-opacity:0.84444424"/>
    <path style="opacity:1;fill:#000000;fill-opacity:1;stroke:#000000;stroke-width:0;stroke-miterlimit:4;stroke-dasharray:none;stroke-opacity:0.84444424" d="m 364.15999,193.48 a 2.9041886,2.7779195 0 0 1 -2.84808,2.7774 2.9041886,2.7779195 0 0 1 -2.95813,-2.67009 2.9041886,2.7779195 0 0 1 2.73378,-2.88057 2.9041886,2.7779195 0 0 1 3.06376,2.55878"/>
    <path d="m 370.97853,193.48 a 2.9041886,2.7779195 0 0 1 -2.84808,2.7774 2.9041886,2.7779195 0 0 1 -2.95813,-2.67009 2.9041886,2.7779195 0 0 1 2.73378,-2.88057 2.9041886,2.7779195 0 0 1 3.06376,2.55878" style="opacity:1;fill:#000000;fill-opacity:1;stroke:#000000;stroke-width:0;stroke-miterlimit:4;stroke-dasharray:none;stroke-opacity:0.84444424"/>
    <path style="opacity:1;fill:#000000;fill-opacity:1;stroke:#000000;stroke-width:0;stroke-miterlimit:4;stroke-dasharray:none;stroke-opacity:0.84444424" d="m 377.79707,193.22746 a 2.9041886,2.7779195 0 0 1 -2.84808,2.7774 2.9041886,2.7779195 0 0 1 -2.95813,-2.67008 2.9041886,2.7779195 0 0 1 2.73378,-2.88057 2.9041886,2.7779195 0 0 1 3.06376,2.55878"/>
    <path d="m 384.61561,193.22746 a 2.9041886,2.7779195 0 0 1 -2.84808,2.7774 2.9041886,2.7779195 0 0 1 -2.95812,-2.67008 2.9041886,2.7779195 0 0 1 2.73378,-2.88057 2.9041886,2.7779195 0 0 1 3.06376,2.55878" style="opacity:1;fill:#000000;fill-opacity:1;stroke:#000000;stroke-width:0;stroke-miterlimit:4;stroke-dasharray:none;stroke-opacity:0.84444424"/>
    <path style="opacity:1;fill:#000000;fill-opacity:1;stroke:#000000;stroke-width:0;stroke-miterlimit:4;stroke-dasharray:none;stroke-opacity:0.84444424" d="m 391.68669,193.22746 a 2.9041886,2.7779195 0 0 1 -2.84808,2.7774 2.9041886,2.7779195 0 0 1 -2.95813,-2.67008 2.9041886,2.7779195 0 0 1 2.73378,-2.88057 2.9041886,2.7779195 0 0 1 3.06376,2.55878"/>
    <path d="m 399.51539,192.97491 a 2.9041886,2.7779195 0 0 1 -2.84808,2.77741 2.9041886,2.7779195 0 0 1 -2.95812,-2.67009 2.9041886,2.7779195 0 0 1 2.73378,-2.88057 2.9041886,2.7779195 0 0 1 3.06376,2.55878" style="opacity:1;fill:#000000;fill-opacity:1;stroke:#000000;stroke-width:0;stroke-miterlimit:4;stroke-dasharray:none;stroke-opacity:0.84444424"/>
    <path style="opacity:1;fill:#000000;fill-opacity:1;stroke:#000000;stroke-width:0;stroke-miterlimit:4;stroke-dasharray:none;stroke-opacity:0.84444424" d="m 406.58647,193.22745 a 2.9041886,2.7779195 0 0 1 -2.84808,2.7774 2.9041886,2.7779195 0 0 1 -2.95813,-2.67009 2.9041886,2.7779195 0 0 1 2.73378,-2.88057 2.9041886,2.7779195 0 0 1 3.06376,2.55878"/>
    <path d="m 413.15245,193.22745 a 2.9041886,2.7779195 0 0 1 -2.84808,2.7774 2.9041886,2.7779195 0 0 1 -2.95813,-2.67009 2.9041886,2.7779195 0 0 1 2.73378,-2.88057 2.9041886,2.7779195 0 0 1 3.06376,2.55878" style="opacity:1;fill:#000000;fill-opacity:1;stroke:#000000;stroke-width:0;stroke-miterlimit:4;stroke-dasharray:none;stroke-opacity:0.84444424"/>
    <path style="opacity:1;fill:#000000;fill-opacity:1;stroke:#000000;stroke-width:0;stroke-miterlimit:4;stroke-dasharray:none;stroke-opacity:0.84444424" d="m 419.97099,192.97491 a 2.9041886,2.7779195 0 0 1 -2.84808,2.77741 2.9041886,2.7779195 0 0 1 -2.95813,-2.67009 2.9041886,2.7779195 0 0 1 2.73378,-2.88057 2.9041886,2.7779195 0 0 1 3.06376,2.55878"/>
    <flowRoot xml:space="preserve" id="flowRoot4813" style="font-style:normal;font-weight:normal;font-size:40px;line-height:125%;font-family:Sans;letter-spacing:0px;word-spacing:0px;fill:#000000;fill-opacity:1;stroke:none;stroke-width:1px;stroke-linecap:butt;stroke-linejoin:miter;stroke-opacity:1"><flowRegion id="flowRegion4815"><rect width="217.14285" height="92.85714" x="304.28571" y="172.3622"/></flowRegion><flowPara id="flowPara4819"/></flowRoot>  </g>
  <g transform="matrix(0.41579414,0,0,0.41579414,-79.300712,-55.91255)">
    <path d="m 562.9,349.39 c 2.0165,0 3.6474,1.631 3.6474,3.6475 l 0,51.87 c 0,2.0165 -1.6308,3.6474 -3.6474,3.6474 -2.0118,0 -3.6475,-1.6308 -3.6475,-3.6474 l 0,-51.87 c 0,-2.0165 1.6358,-3.6475 3.6475,-3.6475" style="fill:#7d7d7d;fill-rule:evenodd;stroke:#7d7d7d;stroke-width:1.25;stroke-linejoin:round;stroke-miterlimit:10"/>
    <path d="m 531.43,414.29 15,-15 90,0 15,15 0,35 -120,0 z" style="fill:#e1e1e1;fill-rule:evenodd;stroke:#7d7d7d;stroke-width:3.75;stroke-miterlimit:10"/>
    <path d="m 537.68,419.29 107.5,0 c 0.69325,0 1.25,0.5615 1.25,1.25 l 0,22.5 c 0,0.68849 -0.5565,1.25 -1.25,1.25 l -107.5,0 c -0.6885,0 -1.25,-0.56151 -1.25,-1.25 l 0,-22.5 c 0,-0.6885 0.5615,-1.25 1.25,-1.25" style="fill:#bdbdbd;fill-rule:evenodd;stroke:#9c9c9c;stroke-width:1.25;stroke-linejoin:round;stroke-miterlimit:10"/>
    <path d="m 617.68,429.29 c 0,1.665 -2.5,1.665 -2.5,0 0,-1.665 2.5,-1.665 2.5,0" style="fill:#c51900;fill-rule:evenodd;stroke:#7d7d7d;stroke-width:1.25;stroke-linejoin:round;stroke-miterlimit:10"/>
    <path d="m 628.93,421.79 2.5,0 0,20 -2.5,0 z" style="fill:#9c9c9c;fill-rule:evenodd;stroke:#7d7d7d;stroke-width:1.25;stroke-miterlimit:10"/>
    <path d="m 541.43,414.29 10,-10 82.5,0 10,10 z" style="fill:#bdbdbd;fill-rule:evenodd;stroke:#9c9c9c;stroke-width:1.25;stroke-miterlimit:10"/>
    <path d="m 617.68,424.29 c 0,1.665 -2.5,1.665 -2.5,0 0,-1.665 2.5,-1.665 2.5,0" style="fill:#00c700;fill-rule:evenodd;stroke:#7d7d7d;stroke-width:1.25;stroke-miterlimit:10"/>
    <path d="m 633.93,421.79 2.5,0 0,20 -2.5,0 z" style="fill:#9c9c9c;fill-rule:evenodd;stroke:#7d7d7d;stroke-width:1.25;stroke-miterlimit:10"/>
    <path d="m 638.93,421.79 2.5,0 0,20 -2.5,0 z" style="fill:#9c9c9c;fill-rule:evenodd;stroke:#7d7d7d;stroke-width:1.25;stroke-miterlimit:10"/>
    <path d="m 617.68,434.29 c 0,1.665 -2.5,1.665 -2.5,0 0,-1.665 2.5,-1.665 2.5,0" style="fill:#00c700;fill-rule:evenodd;stroke:#7d7d7d;stroke-width:1.25;stroke-miterlimit:10"/>
    <path d="m 617.68,439.29 c 0,1.665 -2.5,1.665 -2.5,0 0,-1.665 2.5,-1.665 2.5,0" style="fill:#00c700;fill-rule:evenodd;stroke:#7d7d7d;stroke-width:1.25;stroke-miterlimit:10"/>
    <path d="m 579.11,369.97 c 2.2558,-1.4842 3.6426,-3.9795 3.711,-6.6797 0.0725,-2.6953 -1.1818,-5.2588 -3.3545,-6.8604" style="fill:none;stroke:#00c700;stroke-width:3.75;stroke-miterlimit:10"/>
    <path d="m 592.19,373.77 c 3.1102,-2.8613 4.8438,-6.914 4.7754,-11.138 -0.0725,-4.2236 -1.9432,-8.2178 -5.1465,-10.972" style="fill:none;stroke:#00c700;stroke-width:3.75;stroke-miterlimit:10"/>
    <path d="m 604.64,378.23 c 6.582,-9.5068 6.5479,-22.114 -0.0925,-31.587" style="fill:none;stroke:#00c700;stroke-width:3.75;stroke-miterlimit:10"/>
    <path d="m 618.24,382.89 c 7.0215,-12.959 7.3242,-28.52 0.8105,-41.743" style="fill:none;stroke:#00c700;stroke-width:3.75;stroke-miterlimit:10"/>
    <path d="m 540.35,439.12 52.222,0 0,2.6953 -52.222,0 z" style="fill:#9c9c9c;fill-rule:evenodd;stroke:#7d7d7d;stroke-width:1.25;stroke-miterlimit:10"/>
    <path d="m 540.32,433.68 52.222,0 0,2.6953 -52.222,0 z" style="fill:#9c9c9c;fill-rule:evenodd;stroke:#7d7d7d;stroke-width:1.25;stroke-miterlimit:10"/>
    <path d="m 540.32,427.98 52.222,0 0,2.6953 -52.222,0 z" style="fill:#9c9c9c;fill-rule:evenodd;stroke:#7d7d7d;stroke-width:1.25;stroke-miterlimit:10"/>
    <path d="m 540.31,422.26 52.222,0 0,2.6953 -52.222,0 z" style="fill:#9c9c9c;fill-rule:evenodd;stroke:#7d7d7d;stroke-width:1.25;stroke-miterlimit:10"/>
  </g>
  <path d="m 145.84149,112.17007 -57.534685,0" style="fill:none;fill-rule:evenodd;stroke:#000000;stroke-width:1;stroke-linecap:butt;stroke-linejoin:miter;stroke-miterlimit:4;stroke-dasharray:none;stroke-opacity:1"/>
  <path d="m 166.61241,130.8996 0,111.62514 -68.037905,0" style="fill:none;fill-rule:evenodd;stroke:#000000;stroke-width:1;stroke-linecap:butt;stroke-linejoin:miter;stroke-miterlimit:4;stroke-dasharray:4, 4;stroke-dashoffset:0;stroke-opacity:1"/>
  <text y="157.15366" x="34.358002" style="font-size:12px;font-family:sans-serif;fill:#000000;fill-opacity:1;stroke:none" xml:space="preserve"><tspan y="157.15366" x="34.358002">internet</tspan></text>
  <text xml:space="preserve" style="font-size:14px;font-family:sans-serif;fill:#000000;fill-opacity:1;stroke:none" x="36.631535" y="290.47342"><tspan x="36.631535" y="290.47342">192.168.11.1</tspan></text>
  <text y="290.47342" x="204.89607" style="font-size:14px;font-family:sans-serif;fill:#000000;fill-opacity:1;stroke:none" xml:space="preserve"><tspan y="290.47342" x="204.89607">192.168.11.2</tspan></text>
  <g transform="matrix(0.41579414,0,0,0.41579414,-35.098717,-105.88867)" id="server">
    <path d="m 180,314.15 15,-15 50,0 15,15 0,120 -80,0 z" style="fill:#e1e1e1;fill-rule:evenodd;stroke:#7d7d7d;stroke-width:3.75;stroke-miterlimit:10"/>
    <path d="m 187.5,316.65 12.5,-12.5 40,0 12.5,12.5 z" style="fill:#bdbdbd;fill-rule:evenodd;stroke:#9c9c9c;stroke-width:1.25;stroke-miterlimit:10"/>
    <path d="m 188.75,319.15 62.5,0 c 0.6885,0 1.25,0.56152 1.25,1.25 l 0,107.5 c 0,0.6885 -0.5615,1.25 -1.25,1.25 l -62.5,0 c -0.69325,0 -1.25,-0.5615 -1.25,-1.25 l 0,-107.5 c 0,-0.68848 0.55675,-1.25 1.25,-1.25" style="fill:#bdbdbd;fill-rule:evenodd;stroke:#9c9c9c;stroke-width:1.25;stroke-linejoin:round;stroke-miterlimit:10"/>
    <path d="m 193.75,326.65 52.5,0 c 0.6885,0 1.25,0.56152 1.25,1.25 l 0,12.5 c 0,0.68847 -0.5615,1.25 -1.25,1.25 l -52.5,0 c -0.69325,0 -1.25,-0.56153 -1.25,-1.25 l 0,-12.5 c 0,-0.68848 0.55675,-1.25 1.25,-1.25" style="fill:#9c9c9c;fill-rule:evenodd;stroke:#7d7d7d;stroke-width:3.75;stroke-linejoin:round;stroke-miterlimit:10"/>
    <path d="m 193.75,349.15 52.5,0 c 0.6885,0 1.25,0.56152 1.25,1.25 l 0,12.5 c 0,0.68847 -0.5615,1.25 -1.25,1.25 l -52.5,0 c -0.69325,0 -1.25,-0.56153 -1.25,-1.25 l 0,-12.5 c 0,-0.68848 0.55675,-1.25 1.25,-1.25" style="fill:#9c9c9c;fill-rule:evenodd;stroke:#7d7d7d;stroke-width:3.75;stroke-linejoin:round;stroke-miterlimit:10"/>
    <path d="m 216.25,376.65 30,0 c 0.6885,0 1.25,0.56152 1.25,1.25 l 0,10 c 0,0.69325 -0.5615,1.25 -1.25,1.25 l -30,0 c -0.69325,0 -1.25,-0.55675 -1.25,-1.25 l 0,-10 c 0,-0.68848 0.55675,-1.25 1.25,-1.25" style="fill:#9c9c9c;fill-rule:evenodd;stroke:#7d7d7d;stroke-width:3.75;stroke-linejoin:round;stroke-miterlimit:10"/>
    <path d="m 207.5,382.9 c 0,8.335 -12.5,8.335 -12.5,0 0,-8.3301 12.5,-8.3301 12.5,0" style="fill:#c51900;fill-rule:evenodd;stroke:#7d7d7d;stroke-width:2.5;stroke-linejoin:round;stroke-miterlimit:10"/>
    <path d="m 205,400.46 5,0 0,27.5 -5,0 z" style="fill:#9c9c9c;fill-rule:evenodd;stroke:#7d7d7d;stroke-width:2.5;stroke-miterlimit:10"/>
    <path d="m 215,400.46 5,0 0,27.5 -5,0 z" style="fill:#9c9c9c;fill-rule:evenodd;stroke:#7d7d7d;stroke-width:2.5;stroke-miterlimit:10"/>
    <path d="m 225,400.46 5,0 0,27.5 -5,0 z" style="fill:#9c9c9c;fill-rule:evenodd;stroke:#7d7d7d;stroke-width:2.5;stroke-miterlimit:10"/>
    <path d="m 235,400.46 5,0 0,27.5 -5,0 z" style="fill:#9c9c9c;fill-rule:evenodd;stroke:#7d7d7d;stroke-width:2.5;stroke-miterlimit:10"/>
    <path d="m 245,400.51 5,0 0,27.5 -5,0 z" style="fill:#9c9c9c;fill-rule:evenodd;stroke:#7d7d7d;stroke-width:2.5;stroke-miterlimit:10"/>
  </g>
  <path d="m 249.82021,243.542 0,-134.90747 -83.20779,0" style="fill:none;fill-rule:evenodd;stroke:#000000;stroke-width:1px;stroke-linecap:butt;stroke-linejoin:miter;stroke-opacity:1"/>
  <path d="m 58.505941,74.62836 0,15.44636" style="fill:none;fill-rule:evenodd;stroke:#000000;stroke-width:1px;stroke-linecap:butt;stroke-linejoin:miter;stroke-opacity:1"/>
  <text xml:space="preserve" style="font-size:12px;font-family:sans-serif;fill:#000000;fill-opacity:1;stroke:none" x="79.132385" y="42.182247"><tspan x="79.132385" y="42.182247">genuine</tspan><tspan x="79.132385" y="57.182247">connectivitycheck.gstatic.com</tspan></text>
  <use height="100%" width="100%" transform="translate(193.44421,196.97975)" y="0" x="0" xlink:href="#server"/>
  <text xml:space="preserve" style="font-size:12px;font-family:sans-serif;fill:#000000;fill-opacity:1;stroke:none" x="135.33627" y="191.46216"><tspan x="135.33627" y="191.46216">WiFi</tspan></text>
  <text y="101.59528" x="189.44035" style="font-size:12px;font-family:sans-serif;fill:#000000;fill-opacity:1;stroke:none" xml:space="preserve"><tspan y="101.59528" x="189.44035">Router/Hub</tspan></text>
</svg>
