<?xml version="1.0" encoding="UTF-8" standalone="no"?>
<svg xmlns:svg="http://www.w3.org/2000/svg" xmlns="http://www.w3.org/2000/svg" width="99.201691" height="426.35135" viewBox="0 0 99.20169 426.35136" version="1.1">
  <path d="m 55.65604,22.69704 -2.6855,0 -0.24375,-0.48825 3.07625,0 0.05,-0.19538 c 0.24375,-1.123 0.5375,-2.58789 0.87875,-4.29687 1.22,0.24412 1.85537,0.48825 1.85537,0.78125 0,0.19537 -0.24375,0.34175 -0.83,0.4395 -0.34125,1.51367 -0.5375,2.53906 -0.68375,3.07617 l -0.05,0.19538 2.73438,0 0.78125,-1.02538 c 0.87875,0.68363 1.26962,1.17188 1.26962,1.36719 0,0.0975 -0.05,0.19537 -0.14625,0.24412 l -0.5375,0.293 c -0.44,2.9297 -1.1225,5.46875 -2.002,7.56837 1.80663,1.17187 2.68563,2.09961 2.68563,2.73437 0,0.4395 -0.195,0.68363 -0.58625,0.68363 -0.195,0 -0.48875,-0.24413 -0.83,-0.68363 -0.48875,-0.53712 -1.025,-1.123 -1.66025,-1.66015 -1.17125,1.90429 -2.92963,3.32031 -5.32225,4.19921 l -0.34125,-0.39062 c 2.00187,-1.02538 3.56437,-2.53906 4.6875,-4.63868 -0.97625,-0.68362 -1.90438,-1.22075 -2.73438,-1.66015 -0.14625,0.39063 -0.2925,0.87888 -0.44,1.41602 l -1.17125,-0.34175 c 0.87875,-2.49024 1.61138,-5.0293 2.24613,-7.6172 z m 1.2695,0 -0.05,0.24412 c -0.44,1.5625 -0.97625,3.4668 -1.66025,5.76171 1.07375,0.4395 2.05087,0.87888 2.9785,1.41602 0,0 0,-0.0487 0,-0.0975 0,0 0,-0.0487 0,-0.0487 0.78125,-2.09962 1.36725,-4.49219 1.709,-7.2754 z m 7.5195,-2.24609 4.05275,0 0.83,-1.02538 c 0.83,0.73238 1.22125,1.17188 1.22125,1.36719 0,0.0975 -0.05,0.19538 -0.14625,0.24413 l -0.48875,0.293 0,13.47655 -1.2695,0 0,-1.85547 -4.49213,0 0,2.24609 -1.17125,0 0,-15.47851 c 0.635,0.293 1.1225,0.53712 1.46475,0.73237 z m -0.2925,0.48825 0,11.52342 4.49212,0 0,-11.52342 z m 0,0" style="fill:#000000;fill-opacity:1;fill-rule:nonzero;stroke:none"/>
  <path d="m 60.53879,44.52321 3.02737,0 0.78125,-0.97663 c 0.78125,0.63475 1.17125,1.07425 1.17125,1.26954 0,0.0487 -0.05,0.1465 -0.14625,0.24413 l -0.48875,0.34175 0,6.20116 -1.1225,0 0,-1.31835 -3.46687,0 0,1.5625 -1.1225,0 0,-8.05665 c 0.48875,0.19537 0.9275,0.4395 1.36712,0.73237 z m -0.24375,0.48825 0,4.73632 3.46687,0 0,-4.73632 z m 8.78912,-3.95509 0,13.28125 c 0,1.17188 -0.68375,1.75783 -2.05075,1.70899 -0.05,-0.34175 -0.2925,-0.63475 -0.83,-0.78125 -0.39,-0.1465 -1.1225,-0.293 -2.29487,-0.48825 l 0,-0.53713 c 1.1225,0.0975 2.246,0.19538 3.22262,0.19538 0.48875,0 0.78125,-0.24413 0.78125,-0.63475 l 0,-12.74415 -9.47262,0 -0.195,-0.48825 10.83987,0 1.025,-1.41601 c 0.48875,0.4395 0.97625,0.92775 1.46488,1.51366 l -0.24375,0.39062 z m -12.89062,2.9297 c 0.68375,0.1465 1.025,0.293 1.025,0.48825 0,0.19538 -0.24375,0.39063 -0.78125,0.58588 l 0,11.2793 -1.22125,0 0,-10.40039 c -0.78125,1.36717 -1.61125,2.63671 -2.539,3.80859 l -0.39,-0.293 c 2.05075,-3.07618 3.61325,-6.9336 4.6875,-11.47462 1.2695,0.34175 1.90425,0.63475 1.90425,0.92775 0,0.1465 -0.34125,0.293 -0.9275,0.39063 -0.48875,1.61132 -1.07375,3.17382 -1.75775,4.6875 z m 0,0" style="fill:#000000;fill-opacity:1;fill-rule:nonzero;stroke:none"/>
  <path d="m 74.25954,58.24391 c 0.24375,0.19537 0.68375,0.34175 1.22125,0.34175 1.75775,0 2.9785,-0.1465 3.56437,-0.34175 0.14625,-0.0487 0.24375,-0.0975 0.2925,-0.0975 0.05,0 0.14625,0.0487 0.24375,0.0975 0.3425,0.1465 0.5375,0.34175 0.5375,0.48825 0,0.1465 -0.14625,0.24412 -0.39,0.24412 -0.1,0 -0.195,0 -0.39,-0.0487 -0.195,0 -0.44,0 -0.78125,0 -1.1225,0 -2.14837,0.0487 -3.07612,0.24413 -0.1,0 -0.195,0.0487 -0.2925,0.0487 -0.44,0 -0.7325,-0.24413 -1.025,-0.78125 z m -1.2695,3.85742 c 0.2925,0.24413 0.87875,0.39063 1.709,0.39063 1.416,0 2.9785,-0.0488 4.63862,-0.19538 0.39,-0.0488 0.7325,-0.0975 1.07375,-0.19537 0.05,-0.0487 0.14625,-0.0487 0.195,-0.0487 0.195,0 0.44,0.0975 0.68375,0.34175 0.1,0.0975 0.195,0.19537 0.195,0.293 0,0.1465 -0.14625,0.24412 -0.3425,0.24412 0,0 -0.1,0 -0.195,-0.0488 -0.5375,-0.0487 -1.17125,-0.0487 -2.002,-0.0487 -1.5625,0 -3.07612,0.0975 -4.63862,0.293 -0.14625,0 -0.24375,0 -0.3425,0 -0.43875,0 -0.83,-0.293 -1.1225,-0.87887 z m 0,0" style="fill:#000000;fill-opacity:1;fill-rule:nonzero;stroke:none"/>
  <path d="m 74.79666,65.03102 c 0.83,0.1465 1.46488,0.34175 1.95313,0.68363 0.2925,0.19537 0.44,0.4395 0.44,0.73237 0,0.293 -0.14625,0.4395 -0.39,0.4395 -0.14625,0 -0.24375,-0.0487 -0.2925,-0.19537 -0.39,-0.63475 -0.97625,-1.123 -1.80663,-1.46485 z m -1.416,1.9043 c 1.66013,0.293 2.49025,0.78125 2.49025,1.46484 0,0.293 -0.14625,0.4395 -0.44,0.4395 -0.1,0 -0.24375,-0.0975 -0.34125,-0.293 -0.39,-0.58588 -0.97625,-1.02538 -1.80662,-1.41601 z m 0.9275,4.44336 c 0.195,0.24413 0.39,0.39063 0.5375,0.39063 0.48875,0 1.2695,-0.39063 2.34375,-1.123 1.61125,-1.07425 2.92963,-2.49024 3.90625,-4.3457 l 0.24375,0.19537 c -1.22125,2.49024 -3.07625,4.44336 -5.5665,5.76171 -0.1,0.0488 -0.14625,0.0975 -0.14625,0.0975 -0.1,0.0487 -0.24375,0.1465 -0.44,0.19538 -0.1,0.0487 -0.14625,0.0487 -0.195,0.0487 -0.2925,0 -0.58625,-0.34175 -0.83,-1.02538 z m 0,0" style="fill:#000000;fill-opacity:1;fill-rule:nonzero;stroke:none"/>
  <path d="m 77.77516,77.38453 c -0.05,1.31836 -0.24375,2.29493 -0.58625,2.97853 -0.39,0.78125 -1.17125,1.41601 -2.295,1.9043 l -0.14625,-0.19538 c 0.9275,-0.53712 1.5625,-1.17187 1.90438,-1.90429 0.24375,-0.63475 0.39,-1.5625 0.43875,-2.73437 -0.9275,0.0487 -1.75775,0.1465 -2.49025,0.293 -0.195,0.0487 -0.39,0.0487 -0.48875,0.0487 -0.43875,0 -0.78125,-0.24413 -1.07375,-0.73238 l 0.14625,-0.19537 c 0.24375,0.24412 0.68375,0.34175 1.22125,0.34175 0.87875,0 2.29487,-0.0975 4.248,-0.293 0.635,-0.0488 1.12375,-0.0975 1.46487,-0.24413 0.195,-0.0487 0.2925,-0.0975 0.34125,-0.0975 0.195,0 0.44,0.0975 0.68375,0.293 0.1,0.0975 0.14625,0.19538 0.14625,0.24413 0,0.19537 -0.1,0.24412 -0.39,0.24412 -0.1,0 -0.24375,0 -0.2925,0 -0.34125,0 -0.58625,0 -0.78125,0 -0.39,0 -1.07375,0 -2.05075,0.0487 z m -3.17387,-3.22265 c 0.24375,0.24413 0.68375,0.34175 1.17125,0.34175 1.31837,0 2.24612,-0.1465 2.88087,-0.39062 0.1,0 0.195,-0.0487 0.24375,-0.0487 0.14625,0 0.34125,0.0487 0.5375,0.19525 0.195,0.1465 0.2925,0.24412 0.2925,0.293 0,0.0975 -0.05,0.1465 -0.14625,0.19537 -0.05,0 -0.24375,0 -0.635,0 -1.2695,0 -2.34375,0.0975 -3.17387,0.24413 -0.14625,0.0487 -0.2925,0.0487 -0.39,0.0487 -0.34125,0 -0.68375,-0.24413 -0.9275,-0.68363 z m 0,0" style="fill:#000000;fill-opacity:1;fill-rule:nonzero;stroke:none"/>
  <path d="m 56.68141,91.34938 11.084,0 0.87875,-1.02537 c 0.87875,0.68362 1.31838,1.123 1.31838,1.31836 0,0.0975 -0.1,0.19525 -0.195,0.293 l -0.5375,0.34175 0,13.62303 c 0,1.17188 -0.7325,1.70899 -2.1485,1.70899 0,-0.4395 -0.195,-0.68362 -0.58625,-0.87887 -0.3425,-0.0975 -1.025,-0.24413 -2.05088,-0.39063 l 0,-0.53712 c 0.9275,0.0975 1.80675,0.1465 2.63675,0.1465 0.635,0 0.9275,-0.19538 0.9275,-0.63475 l 0,-4.4922 -5.51762,0 0,5.85937 -1.1225,0 0,-5.85937 -4.9805,0 c -0.2925,3.17383 -1.416,5.56641 -3.36913,7.08008 l -0.39,-0.39062 c 1.709,-1.9043 2.58788,-4.58985 2.58788,-8.05664 l 0,-8.78907 c 0.48875,0.19537 0.97625,0.39062 1.46487,0.68362 z m 11.32813,4.93164 -5.51763,0 0,4.05273 5.51763,0 z m 0,-0.53713 0,-3.90625 -5.51763,0 0,3.90625 z m -6.64063,-3.90625 -4.93162,0 0,3.90625 4.93162,0 z m -4.9805,8.49611 4.9805,0 0,-4.05273 -4.93162,0 0,3.17383 c 0,0.39063 -0.05,0.68363 -0.05,0.87888 z m 0,0" style="fill:#000000;fill-opacity:1;fill-rule:nonzero;stroke:none"/>
  <path d="m 53.40991,110.8318 0,0.78125 8.78913,0 0,-1.07425 -8.78913,0 z m -0.97625,6.7871 0,0.83013 10.74213,0 0,-1.07425 -10.74213,0 z m 0,0" style="fill:#000000;fill-opacity:1;fill-rule:nonzero;stroke:none"/>
  <path d="m 75.08966,113.17555 c 1.46475,-0.48825 2.63663,-1.02537 3.56438,-1.66016 0.24375,-0.1465 0.39,-0.293 0.39,-0.4395 0,-0.0975 -0.1,-0.24412 -0.24375,-0.39062 l 0.195,-0.1465 c 0.68375,0.293 1.025,0.53712 1.025,0.83012 0,0.1465 -0.24375,0.293 -0.68375,0.53713 -1.025,0.53712 -2.39263,1.07425 -4.1015,1.5625 l -0.14625,0.0487 0,0.68362 c 0,0.78125 0,1.26954 0.05,1.36719 0.14625,0.53712 0.83,0.78125 2.002,0.78125 1.07375,0 1.90425,-0.0975 2.58787,-0.293 0.1,-0.0488 0.195,-0.0488 0.195,-0.0488 0.14625,0 0.2925,0.0488 0.48875,0.1465 0.14625,0.0975 0.195,0.19537 0.195,0.24412 0,0.34175 -0.97625,0.48825 -2.9785,0.48825 -1.36712,0 -2.19725,-0.1465 -2.58787,-0.48825 -0.34125,-0.34175 -0.5375,-0.87887 -0.5375,-1.70897 -0.05,-1.75783 -0.05,-3.17384 -0.1,-4.24805 -0.05,-0.4395 -0.2925,-0.68363 -0.68375,-0.83013 l 0.14625,-0.19537 c 0.44,0 0.7325,0.0975 0.9275,0.1465 0.24375,0.1465 0.34125,0.39062 0.34125,0.83012 0,0 0,0.0975 -0.05,0.24413 0,0.1465 0,0.293 0,0.39062 0,0.53713 0,1.123 0,1.80664 z m 0,0" style="fill:#000000;fill-opacity:1;fill-rule:nonzero;stroke:none"/>
  <path d="m 77.77516,121.81813 c -0.05,1.31836 -0.24375,2.34375 -0.58625,2.97851 -0.39,0.78125 -1.17125,1.41602 -2.295,1.9043 l -0.14625,-0.19537 c 0.9275,-0.53713 1.5625,-1.17188 1.90438,-1.9043 0.24375,-0.63475 0.39,-1.5625 0.43875,-2.73438 -0.9275,0.0487 -1.75775,0.1465 -2.49025,0.293 -0.195,0.0487 -0.39,0.0975 -0.48875,0.0975 -0.43875,0 -0.78125,-0.24412 -1.07375,-0.78125 l 0.14625,-0.19537 c 0.24375,0.24412 0.68375,0.34175 1.22125,0.34175 0.87875,0 2.29487,-0.0975 4.248,-0.24413 0.635,-0.0975 1.12375,-0.1465 1.46487,-0.293 0.195,-0.0487 0.2925,-0.0975 0.34125,-0.0975 0.195,0 0.44,0.0975 0.68375,0.293 0.1,0.0975 0.14625,0.19538 0.14625,0.24413 0,0.19537 -0.1,0.24412 -0.39,0.24412 -0.1,0 -0.24375,0 -0.2925,0 -0.34125,0 -0.58625,0 -0.78125,0 -0.39,0 -1.07375,0 -2.05075,0.0487 z m -3.17387,-3.22265 c 0.24375,0.24413 0.68375,0.34175 1.17125,0.34175 1.31837,0 2.24612,-0.1465 2.88087,-0.39062 0.1,0 0.195,-0.0488 0.24375,-0.0488 0.14625,0 0.34125,0.0975 0.5375,0.19537 0.195,0.1465 0.2925,0.24413 0.2925,0.34175 0,0.0487 -0.05,0.0975 -0.14625,0.1465 -0.05,0 -0.24375,0 -0.635,0 -1.2695,0 -2.34375,0.0975 -3.17387,0.24413 -0.14625,0.0487 -0.2925,0.0487 -0.39,0.0487 -0.34125,0 -0.68375,-0.24413 -0.9275,-0.68363 z m 0,0" style="fill:#000000;fill-opacity:1;fill-rule:nonzero;stroke:none"/>
  <path d="m 53.94704,148.77125 0,-5.66406 0.58625,0 c 0.05,0.78125 0.14625,1.26954 0.24375,1.51368 0.195,0.39062 0.635,0.58587 1.36712,0.58587 l 4.88288,0 0,-7.71485 -4.88288,0 c -0.7325,0 -1.17125,0.19538 -1.31837,0.53713 -0.14625,0.24412 -0.24375,0.78125 -0.2925,1.5625 l -0.58625,0 0,-5.56641 0.58625,0 c 0.05,0.68362 0.14625,1.17187 0.24375,1.46485 0.195,0.39062 0.635,0.58587 1.36712,0.58587 l 10.00975,0 c 0.7325,0 1.17125,-0.1465 1.31838,-0.48825 0.14625,-0.293 0.24375,-0.83012 0.3425,-1.5625 l 0.5375,0 0,5.56641 -0.5375,0 c -0.05,-0.68362 -0.14625,-1.17187 -0.2925,-1.46483 -0.14625,-0.4395 -0.58625,-0.63475 -1.36725,-0.63475 l -4.34563,0 0,7.71484 4.34563,0 c 0.68375,0 1.12375,-0.19537 1.31837,-0.63475 0.14625,-0.293 0.24375,-0.78125 0.3425,-1.51366 l 0.5375,0 0,5.71289 -0.5375,0 c -0.1,-0.78125 -0.195,-1.36719 -0.3425,-1.66015 -0.195,-0.34175 -0.635,-0.48825 -1.31837,-0.48825 l -10.00975,0 c -0.68375,0 -1.1225,0.19537 -1.31838,0.53712 -0.14625,0.293 -0.24375,0.83013 -0.2925,1.61133 z m 0,0" style="fill:#000000;fill-opacity:1;fill-rule:nonzero;stroke:none"/>
  <path d="m 64.59154,162.24782 0,-0.58588 c 0.68375,-0.0488 1.31837,-0.19537 1.8555,-0.48825 0.83,-0.39062 1.2695,-1.31836 1.2695,-2.83204 l 0,-1.66016 -11.57225,0 c -0.68375,0 -1.1225,0.1465 -1.31838,0.53713 -0.14625,0.293 -0.24375,0.83012 -0.2925,1.61133 l -0.58625,0 0,-5.7129 0.58625,0 c 0.05,0.73238 0.14625,1.26954 0.24375,1.61133 0.14625,0.34175 0.58625,0.53712 1.36713,0.53712 l 11.57225,0 0,-1.5625 c 0,-1.41601 -0.39,-2.34375 -1.17125,-2.7832 -0.48875,-0.293 -1.1225,-0.48825 -1.95313,-0.58587 l 0,-0.58588 3.75975,0.293 0,12.06055 z m 0,0" style="fill:#000000;fill-opacity:1;fill-rule:nonzero;stroke:none"/>
  <path d="m 53.94704,180.85133 0,-5.51758 0.58625,0 c 0.05,0.68363 0.14625,1.22075 0.24375,1.46485 0.14625,0.39063 0.635,0.58588 1.36712,0.58588 l 11.2305,0 0,-0.0487 -13.42775,-5.17578 0,-0.68362 13.42775,-5.17578 0,-0.0488 -11.2305,0 c -0.68375,0 -1.17125,0.1465 -1.31837,0.48825 -0.14625,0.34175 -0.24375,0.83013 -0.2925,1.51368 l -0.58625,0 0,-5.07813 0.58625,0 c 0.05,0.68363 0.14625,1.17188 0.24375,1.46484 0.195,0.39063 0.635,0.58588 1.36712,0.58588 l 10.00975,0 c 0.68375,0 1.17125,-0.1465 1.36725,-0.53713 0.1,-0.19537 0.195,-0.73237 0.2925,-1.5625 l 0.5375,0 0,4.29688 -12.207,4.63866 12.207,4.6875 0,4.10156 -0.5375,0 c -0.05,-0.63475 -0.14625,-1.123 -0.2925,-1.46484 -0.195,-0.4395 -0.68375,-0.63475 -1.36725,-0.63475 l -10.00975,0 c -0.68375,0 -1.17125,0.19525 -1.31837,0.53713 -0.14625,0.293 -0.24375,0.83012 -0.2925,1.5625 z m 0,0" style="fill:#000000;fill-opacity:1;fill-rule:nonzero;stroke:none"/>
  <path d="m 58.34154,194.13258 -4.3945,-0.293 0,-11.03517 0.58625,0 c 0.05,0.68363 0.14625,1.17188 0.24375,1.46485 0.195,0.4395 0.635,0.63475 1.36712,0.63475 l 10.00975,0 c 0.68375,0 1.12375,-0.19537 1.31838,-0.58587 0.14625,-0.293 0.24375,-0.83013 0.3425,-1.61133 l 0.5375,0 0,5.71289 -0.5375,0 c -0.1,-0.78125 -0.195,-1.31836 -0.3425,-1.61132 -0.195,-0.34175 -0.635,-0.48825 -1.31838,-0.48825 l -10.00975,0 c -0.58625,0 -0.97625,0.0975 -1.17125,0.34175 -0.24375,0.24412 -0.34125,0.73237 -0.34125,1.36718 l 0,1.26954 c 0,1.66015 0.34125,2.7832 0.97625,3.36914 0.58625,0.4395 1.46488,0.73237 2.73438,0.87887 z m 0,0" style="fill:#000000;fill-opacity:1;fill-rule:nonzero;stroke:none"/>
  <path d="m 61.90604,197.40406 c 0.83,0.83013 1.2695,1.9043 1.2695,3.22267 0,1.5625 -0.58625,2.7832 -1.709,3.6621 -0.83,0.63475 -1.80663,0.97662 -2.92963,0.97662 -1.90437,0 -3.32037,-0.68362 -4.29687,-2.05077 -0.5375,-0.83013 -0.78125,-1.80664 -0.78125,-2.88087 0,-0.87887 0.195,-1.70898 0.58625,-2.49023 0.68375,-1.26953 1.5625,-1.90429 2.73437,-1.90429 0.87875,0 1.31838,0.4395 1.31838,1.26952 0,0.68363 -0.2925,1.02538 -0.97625,1.02538 -0.2925,0 -0.48875,-0.0975 -0.68375,-0.293 -0.195,-0.19538 -0.2925,-0.39063 -0.2925,-0.58588 0,-0.0975 0,-0.19537 0,-0.24412 -0.48875,0.0487 -0.87875,0.39062 -1.2695,0.92775 -0.44,0.63475 -0.635,1.31836 -0.635,2.14844 0,0.97662 0.34125,1.75781 0.9275,2.34375 0.7325,0.78125 1.80662,1.123 3.17375,1.123 1.07375,0 2.002,-0.24413 2.68562,-0.73238 0.9275,-0.68362 1.36713,-1.51366 1.36713,-2.58789 0,-1.41601 -0.78125,-2.49023 -2.24613,-3.22265 l 0.1,-0.83012 8.10538,0.78125 0,7.51954 -1.2695,-0.293 0,-6.34765 z m 0,0" style="fill:#000000;fill-opacity:1;fill-rule:nonzero;stroke:none"/>
  <path d="m 58.48804,226.74976 c -1.61125,-0.4395 -2.88088,-1.17187 -3.71088,-2.24609 -0.87875,-1.07425 -1.31837,-2.34375 -1.31837,-3.8086 0,-1.95312 0.635,-3.51562 1.90425,-4.78515 1.416,-1.46485 3.32037,-2.19727 5.76175,-2.19727 2.39262,0 4.29687,0.73237 5.8105,2.19727 1.26962,1.31835 1.95312,2.88085 1.95312,4.78515 0,1.51368 -0.39,2.83204 -1.22,3.95508 -0.195,0.293 -0.2925,0.48825 -0.2925,0.586 0,0.19525 0.2925,0.293 0.87875,0.34175 l 0,0.63475 -4.15037,0 0,-0.63475 c 0.97625,-0.1465 1.80662,-0.58588 2.49025,-1.17188 1.025,-0.92775 1.51362,-2.09961 1.51362,-3.56445 0,-2.00195 -0.83,-3.4668 -2.539,-4.44336 -1.22125,-0.68362 -2.68562,-1.02537 -4.29687,-1.02537 -2.002,0 -3.61325,0.48825 -4.834,1.51367 -1.2695,1.07425 -1.95313,2.4414 -1.95313,4.05274 0,2.53905 1.416,4.24804 4.29688,5.07812 z m 0,0" style="fill:#000000;fill-opacity:1;fill-rule:nonzero;stroke:none"/>
  <path d="m 64.20091,233.34156 c 0,1.36719 -0.43875,2.49024 -1.36712,3.41796 -0.97625,0.97663 -2.24613,1.46485 -3.8575,1.46485 -1.70888,0 -3.02725,-0.48825 -4.00388,-1.46485 -0.87875,-0.92775 -1.36712,-2.05077 -1.36712,-3.41796 0,-1.31836 0.48875,-2.44141 1.36712,-3.36914 0.97625,-0.97662 2.295,-1.46485 3.95513,-1.46485 1.61125,0 2.92962,0.48825 3.955,1.51368 0.87875,0.87887 1.31837,2.00195 1.31837,3.32031 z m -0.68375,0 c 0,-0.97662 -0.44,-1.80664 -1.31837,-2.39257 -0.83,-0.63475 -1.90438,-0.92775 -3.2715,-0.92775 -1.416,0 -2.53913,0.34175 -3.36913,0.97662 -0.78125,0.58588 -1.17125,1.36719 -1.17125,2.34375 0,1.22075 0.5375,2.09961 1.61125,2.68555 0.83,0.4395 1.80663,0.68362 2.92975,0.68362 1.416,0 2.539,-0.34174 3.418,-0.97662 0.78125,-0.63475 1.17125,-1.41601 1.17125,-2.39257 z m 0,0" style="fill:#000000;fill-opacity:1;fill-rule:nonzero;stroke:none"/>
  <path d="m 53.94704,257.31617 0,-4.93165 0.58625,0 c 0,0.53713 0.05,0.92775 0.14625,1.26954 0.1,0.34175 0.48875,0.53712 1.17125,0.53712 l 4.19925,0 c 1.07375,0 1.8555,-0.1465 2.295,-0.34175 0.58625,-0.39062 0.87875,-0.92775 0.87875,-1.66015 0,-1.31836 -0.83,-2.2461 -2.49025,-2.78321 l -4.88288,0 c -0.635,0 -1.025,0.1465 -1.1225,0.4395 -0.14625,0.293 -0.195,0.73238 -0.195,1.31835 l -0.58625,0 0,-4.93164 0.58625,0 c 0,0.48825 0.05,0.83013 0.14625,1.123 0.1,0.4395 0.48875,0.63475 1.17125,0.63475 l 4.24813,0 c 1.1225,0 1.90425,-0.0975 2.24612,-0.293 0.58625,-0.34175 0.87875,-0.87887 0.87875,-1.61132 0,-1.36719 -0.83,-2.29493 -2.44137,-2.83203 l -4.93175,0 c -0.635,0 -1.025,0.1465 -1.1225,0.4395 -0.14625,0.293 -0.195,0.73238 -0.195,1.31837 l -0.58625,0 0,-4.93164 0.58625,0 c 0,0.48825 0.05,0.83012 0.14625,1.123 0.1,0.4395 0.48875,0.68362 1.17125,0.68362 l 6.05475,0 c 0.68375,0 1.07375,-0.19537 1.17125,-0.53712 0.1,-0.19538 0.14625,-0.63475 0.14625,-1.26953 l 0.58625,0 c 0,1.17188 0.14625,2.24609 0.3425,3.125 l -2.05088,0 c 1.31838,0.73238 2.002,1.80664 2.002,3.125 0,1.61133 -0.78125,2.53905 -2.24612,2.83203 1.46487,0.73237 2.24612,1.85547 2.24612,3.32031 0,2.05079 -1.22125,3.07618 -3.71087,3.07618 l -4.54113,0 c -0.68375,0 -1.07375,0.19537 -1.17125,0.58587 -0.1,0.24413 -0.14625,0.63475 -0.14625,1.17188 z m 0,0" style="fill:#000000;fill-opacity:1;fill-rule:nonzero;stroke:none"/>
  <path d="m 62.15016,261.27125 c 1.31838,0.83012 1.95313,1.95312 1.95313,3.36913 0,1.123 -0.39,2.09962 -1.17125,2.92969 -0.9275,0.92775 -2.29488,1.41602 -3.95513,1.41602 -1.66012,0 -2.9785,-0.48825 -3.955,-1.46484 -0.87875,-0.83013 -1.2695,-1.80664 -1.2695,-2.92969 0,-1.41601 0.58625,-2.53906 1.75775,-3.32031 l -3.418,0 c -0.5375,0 -0.9275,0.1465 -1.07375,0.4395 -0.14625,0.24412 -0.195,0.73237 -0.195,1.41602 l -0.58625,0 0,-5.0293 0.58625,0 c 0,0.58588 0.1,0.97663 0.14625,1.26953 0.1,0.39062 0.48875,0.53712 1.1225,0.53712 l 9.8145,0 c 0.68375,0 1.07375,-0.1465 1.17125,-0.4395 0.1,-0.24412 0.14625,-0.68362 0.14625,-1.31836 l 0.58625,0 c 0,1.22075 0.14625,2.2461 0.3425,3.125 z m -1.8555,0 -3.17375,0 c -0.635,0 -1.26962,0.39062 -1.8555,1.22075 -0.44,0.58587 -0.68375,1.22075 -0.68375,1.95312 0,1.02538 0.48875,1.85548 1.46488,2.44141 0.78125,0.4395 1.75775,0.63475 2.88087,0.63475 1.5625,0 2.73438,-0.39062 3.51563,-1.17187 0.5375,-0.53713 0.83,-1.22075 0.83,-2.00195 0,-0.97663 -0.48875,-1.80665 -1.36713,-2.44141 -0.58625,-0.39063 -1.1225,-0.63475 -1.61137,-0.63475 z m 0,0" style="fill:#000000;fill-opacity:1;fill-rule:nonzero;stroke:none"/>
  <path d="m 53.94704,275.57788 0,-4.98046 0.58625,0 c 0,0.4395 0.05,0.83012 0.14625,1.123 0.05,0.48825 0.44,0.68362 1.1225,0.68362 l 10.69337,0 c 0.58625,0 0.97625,-0.1465 1.1225,-0.48825 0.05,-0.19525 0.1,-0.63475 0.1,-1.31835 l 0.635,0 c 0.05,1.123 0.14625,2.14844 0.34125,3.17383 l -12.89062,0 c -0.635,0 -0.97625,0.19537 -1.1225,0.53712 -0.1,0.24413 -0.14625,0.68363 -0.14625,1.26953 z m 0,0" style="fill:#000000;fill-opacity:1;fill-rule:nonzero;stroke:none"/>
  <path d="m 59.17166,286.27124 0,-7.66601 -0.34125,0 c -1.31837,0 -2.4415,0.39063 -3.2715,1.22075 -0.68375,0.68363 -1.025,1.46484 -1.025,2.49024 0,1.46484 0.68375,2.58789 2.0995,3.36914 l -0.39,0.58587 c -1.75775,-0.92775 -2.63662,-2.29492 -2.63662,-4.19922 0,-1.46484 0.48875,-2.63672 1.416,-3.51563 0.9275,-0.92775 2.19725,-1.41601 3.80862,-1.41601 1.70888,0 3.02725,0.48825 4.05263,1.46485 0.83,0.87887 1.26962,1.95312 1.26962,3.27149 0,1.26952 -0.39,2.29491 -1.22125,3.125 -0.87875,0.83012 -2.002,1.26952 -3.36912,1.26952 z m 0.78125,-1.36718 c 1.17125,-0.0487 2.09963,-0.39063 2.73438,-1.02538 0.5375,-0.53712 0.78125,-1.22075 0.78125,-2.00195 0,-0.97662 -0.44,-1.75782 -1.2695,-2.39259 -0.58625,-0.4395 -1.31838,-0.73237 -2.24613,-0.83012 z m 0,0" style="fill:#000000;fill-opacity:1;fill-rule:nonzero;stroke:none"/>
  <path d="m 53.94704,298.03882 0,-4.39453 0.58625,0 c 0,0.83013 0.14625,1.26953 0.39,1.26953 0.1,0 0.39,-0.19538 0.87875,-0.53713 l 2.58787,-1.85547 -2.78325,-2.29493 c -0.2925,-0.24412 -0.5375,-0.34175 -0.68375,-0.34175 -0.24375,0 -0.39,0.4395 -0.39,1.3672 l -0.58625,0 0,-3.90625 0.58625,0 c 0,0.73238 0.43875,1.46484 1.31825,2.19727 l 3.07625,2.49023 2.92963,-2.2461 c 0.48875,-0.39062 0.83,-0.68362 1.07375,-0.97662 0.14625,-0.24413 0.24375,-0.63475 0.2925,-1.22075 l 0.58625,0 0,4.3457 -0.58625,0 c -0.05,-0.78125 -0.195,-1.17188 -0.44,-1.17188 -0.14625,0 -0.43875,0.1465 -0.87875,0.48825 l -2.19725,1.66015 2.49025,2.00195 c 0.2925,0.24413 0.48875,0.34175 0.635,0.34175 0.24375,0 0.34125,-0.48825 0.39,-1.46485 l 0.58625,0 0,3.95509 -0.58625,0 c 0,-0.39062 -0.05,-0.68362 -0.195,-0.92775 -0.14625,-0.293 -0.48875,-0.68362 -1.1225,-1.22075 l -2.73438,-2.2461 -3.2715,2.49024 c -0.87875,0.63475 -1.36712,1.36719 -1.36712,2.19726 z m 0,0" style="fill:#000000;fill-opacity:1;fill-rule:nonzero;stroke:none"/>
  <path d="m 53.94704,318.20484 0,-2.9297 c 2.19725,-0.87887 4.00387,-1.80664 5.32225,-2.68554 1.025,-0.78125 1.5625,-1.70898 1.5625,-2.83203 l 0,-1.41602 -4.6875,0 c -0.68375,0 -1.1225,0.19538 -1.36713,0.58588 -0.1,0.24412 -0.195,0.78125 -0.24375,1.5625 l -0.58625,0 0,-5.66406 0.58625,0 c 0.05,0.73237 0.14625,1.22075 0.24375,1.46483 0.195,0.4395 0.635,0.63475 1.36713,0.63475 l 10.00975,0 c 0.635,0 1.07375,-0.1465 1.26962,-0.39062 0.195,-0.24413 0.2925,-0.83013 0.39,-1.70899 l 0.5375,0 0,6.49414 c 0,1.41602 -0.195,2.49024 -0.68375,3.32031 -0.68375,1.17188 -1.61137,1.80664 -2.88087,1.80664 -1.416,0 -2.44138,-0.58588 -3.07625,-1.70898 -0.44,-0.73237 -0.635,-1.5625 -0.68375,-2.49023 l -0.1,0 c -0.2925,0.78125 -0.97625,1.5625 -2.14838,2.29492 -0.5375,0.34175 -1.5625,0.87888 -3.07612,1.66015 -0.78125,0.4395 -1.17125,1.07425 -1.17125,2.00196 z m 7.56837,-9.86329 0,1.80664 c 0,3.17383 1.025,4.73633 3.07613,4.73633 2.09962,0 3.125,-1.31835 3.125,-3.95508 l 0,-0.78125 c 0,-0.34175 -0.05,-0.68362 -0.1,-0.97662 -0.14625,-0.58588 -0.635,-0.83013 -1.46488,-0.83013 z m 0,0" style="fill:#000000;fill-opacity:1;fill-rule:nonzero;stroke:none"/>
  <path d="m 53.94704,330.07007 0,-3.02734 1.66012,-0.0975 c -1.36712,-0.83013 -2.05075,-1.95313 -2.05075,-3.4668 0,-2.24609 1.22125,-3.36914 3.66213,-3.36914 l 4.6875,0 c 0.68375,0 1.07375,-0.1465 1.17125,-0.4395 0.05,-0.24412 0.1,-0.68362 0.14625,-1.31836 l 0.58625,0 c 0,1.17187 0.14625,2.19727 0.3425,3.125 l -6.64063,0 c -2.05087,0 -3.07625,0.73237 -3.07625,2.2461 0,0.73237 0.195,1.36719 0.68375,1.95312 0.48875,0.58588 1.17125,1.02538 2.002,1.22075 l 4.834,0 c 0.58625,0 0.97625,-0.1465 1.1225,-0.4395 0.1,-0.19537 0.14625,-0.63475 0.14625,-1.31836 l 0.58625,0 c 0,1.02538 0.14625,2.05079 0.3425,3.125 l -8.30087,0 c -0.635,0 -1.025,0.19538 -1.17125,0.58588 -0.1,0.24412 -0.14625,0.68362 -0.14625,1.22075 z m 0,0" style="fill:#000000;fill-opacity:1;fill-rule:nonzero;stroke:none"/>
  <path d="m 62.10129,333.68335 c 1.31837,0.83013 2.002,1.95313 2.002,3.41796 0,1.123 -0.39,2.09962 -1.17125,2.92969 -0.97625,0.92775 -2.29488,1.41601 -3.95513,1.41601 -1.70887,0 -3.02725,-0.48825 -4.00387,-1.46483 -0.83,-0.83013 -1.22,-1.80664 -1.22,-2.92969 0,-1.41601 0.5375,-2.53906 1.70887,-3.32031 l -1.66012,-0.68363 0,-0.68362 12.69537,0 c 0.635,0 1.025,-0.1465 1.1225,-0.48825 0.05,-0.19538 0.1,-0.63475 0.1,-1.26954 l 0.635,0 c 0.05,1.123 0.14625,2.14844 0.34125,3.07617 z m -1.95313,0 -2.6855,0 c -0.83,0 -1.5625,0.4395 -2.19725,1.31836 -0.44,0.58588 -0.68375,1.26953 -0.68375,1.90429 0,1.02538 0.48875,1.85548 1.46488,2.44141 0.78125,0.4395 1.709,0.68363 2.88087,0.68363 1.51363,0 2.6855,-0.39063 3.51563,-1.22075 0.5375,-0.58588 0.83,-1.22075 0.83,-2.00195 0,-0.97663 -0.44,-1.85548 -1.416,-2.49024 -0.5375,-0.4395 -1.1225,-0.63475 -1.709,-0.63475 z m 0,0" style="fill:#000000;fill-opacity:1;fill-rule:nonzero;stroke:none"/>
  <path d="m 63.27316,353.55639 c -0.05,-0.83013 -0.44,-1.41601 -1.17125,-1.70898 l -10.54687,-4.24805 c -1.17125,-0.48825 -1.80663,-1.17187 -1.80663,-2.14843 0,-0.97663 0.39,-1.46484 1.17125,-1.46484 0.68375,0 0.97625,0.34175 0.97625,0.9765 0,0.586 -0.2925,0.87887 -0.87875,0.87887 -0.05,0 -0.14625,0 -0.195,0 l -0.195,-0.0487 c 0.05,0.48825 0.43875,0.87888 1.2695,1.17188 l 2.14838,0.78125 7.8125,-3.4668 c 0.5375,-0.24413 0.9275,-0.48825 1.12375,-0.73238 0.14625,-0.19537 0.24375,-0.58587 0.2925,-1.07425 l 0.5375,0 0,4.3457 -0.5375,0 c -0.05,-0.87887 -0.2925,-1.31836 -0.68375,-1.31836 -0.14625,0 -0.3425,0.0487 -0.635,0.1465 l -6.3965,2.73438 6.34762,2.49023 c 0.24375,0.0975 0.44,0.1465 0.58625,0.1465 0.48875,0 0.7325,-0.4395 0.78125,-1.41602 l 0.5375,0 0,3.95507 z m 0,0" style="fill:#000000;fill-opacity:1;fill-rule:nonzero;stroke:none"/>
  <path d="m 52.33566,358.58569 0,0.83012 10.98638,0 0,-1.123 -10.98638,0 z m 0,0" style="fill:#000000;fill-opacity:1;fill-rule:nonzero;stroke:none"/>
  <path d="m 79.04466,358.58569 -2.09962,0.24412 c -0.9275,0.1465 -1.51363,0.19525 -1.61125,0.24413 -0.14625,0 -0.2925,0 -0.39,0 -0.34125,0 -0.68375,-0.24413 -0.97625,-0.73238 l 0.195,-0.1465 c 0.24375,0.19538 0.635,0.293 1.17125,0.293 0.34125,0 1.2695,-0.0975 2.78312,-0.19537 0.24375,0 0.48875,-0.0487 0.78125,-0.0487 0.195,0 0.2925,-0.0487 0.2925,-0.0487 0.195,-0.53713 0.3425,-1.123 0.44,-1.75781 l -0.9275,0.0975 c -1.8555,0.1465 -2.9785,0.293 -3.32037,0.34175 -0.14625,0 -0.2925,0.0487 -0.39,0.0487 -0.48875,0 -0.83,-0.293 -1.07375,-0.87888 l 0.1,-0.19537 c 0.34125,0.293 0.83,0.39062 1.46487,0.39062 1.1225,0 2.34375,-0.0488 3.71088,-0.1465 0.14625,0 0.3425,-0.0975 0.58625,-0.24412 0.05,-0.0487 0.14625,-0.0487 0.195,-0.0487 0.1,0 0.195,0.0487 0.3425,0.19537 0.195,0.24413 0.2925,0.48825 0.2925,0.68363 0,0.0975 -0.05,0.1465 -0.14625,0.19537 -0.1,0.0487 -0.195,0.19525 -0.24375,0.4395 -0.5375,1.80664 -1.2695,3.22265 -2.19725,4.15039 -0.68375,0.78125 -1.61125,1.41601 -2.6855,1.95312 l -0.195,-0.19537 c 1.90437,-1.123 3.22275,-2.68555 3.90625,-4.63868 z m 0,0" style="fill:#000000;fill-opacity:1;fill-rule:nonzero;stroke:none"/>
  <path d="m 61.27129,374.21069 0,-2.39258 c 1.36712,0.0488 2.05075,0.24413 2.05075,0.48825 0,0.19538 -0.2925,0.39063 -0.87875,0.63475 l 0,1.26953 6.25,0 0.78125,-0.92775 c 1.025,0.92775 1.51362,1.46483 1.51362,1.7578 0,0.1465 -0.1,0.24412 -0.34125,0.24412 l -0.7325,0.19538 c -0.5375,0.39062 -1.025,0.73237 -1.46475,1.02537 l -0.44,-0.293 c 0.34125,-0.53712 0.635,-1.02537 0.78125,-1.46484 l -13.4765,0 c 0,0.73238 -0.14625,1.36719 -0.3425,1.85547 -0.34125,0.63475 -0.68375,0.92775 -1.1225,0.92775 -0.5375,0 -0.83,-0.24413 -0.83,-0.68363 0,-0.19537 0.1,-0.34175 0.2925,-0.48825 0.83,-0.73237 1.31838,-1.66015 1.416,-2.92969 l 0.5375,0.0975 c 0,0.0975 0,0.34175 0.05,0.68363 z m -2.53913,9.52148 9.668,0 0.78125,-0.87887 c 0.78125,0.63475 1.17125,1.02537 1.17125,1.22075 0,0.0975 -0.05,0.19537 -0.14625,0.24412 l -0.5375,0.34175 c -0.1,1.9043 -0.39,3.32032 -0.87875,4.24805 -0.44,0.83013 -1.22125,1.22075 -2.29487,1.26953 0,-0.39063 -0.195,-0.68363 -0.635,-0.83013 -0.3425,-0.1465 -1.025,-0.293 -2.002,-0.4395 l 0,-0.53712 c 1.1225,0.1465 2.002,0.19537 2.63675,0.19537 0.7325,0 1.22,-0.293 1.46475,-0.97662 0.2925,-0.78125 0.48875,-1.9043 0.5375,-3.32031 l -10.40038,0 c -1.36712,1.02537 -3.02737,1.85546 -4.93162,2.4414 l -0.2925,-0.4395 c 2.53912,-0.97663 4.541,-2.39258 6.00587,-4.29688 l -1.75775,0 0,0.83013 -1.17125,0 0,-6.68945 c 0.68375,0.293 1.1225,0.48825 1.36713,0.58587 1.22125,-0.39062 2.34375,-0.92775 3.2715,-1.61132 0.83,0.53712 1.22125,0.92775 1.22125,1.17187 0,0.1465 -0.1,0.24413 -0.3425,0.24413 -0.14625,0 -0.34125,-0.0487 -0.58625,-0.1465 -1.07375,0.4395 -2.295,0.73237 -3.75975,0.97662 l 0,1.66016 2.49025,0 0.87875,-1.17187 c 0.44,0.4395 0.83,0.87887 1.1225,1.26952 l -0.195,0.39063 -4.29688,0 0,2.00196 9.17963,0 0,-2.00196 -3.66213,0 -0.24375,-0.48825 3.90625,0 0,-1.9043 -3.85737,0 -0.2925,-0.48825 3.95512,0 0.78125,-0.92775 c 0.83,0.63475 1.22,1.02537 1.22,1.17187 0,0.0975 -0.05,0.19538 -0.195,0.293 l -0.48875,0.34175 0,5.22462 -1.12375,0 0,-0.73238 -5.90812,0 -0.1,0.1465 c -0.48875,0.58588 -0.97625,1.123 -1.5625,1.61133 z m 5.02938,0.87888 c 1.90425,0.53712 2.88087,1.22075 2.88087,2.05077 0,0.4395 -0.195,0.68363 -0.635,0.68363 -0.2925,0 -0.48875,-0.19538 -0.635,-0.586 -0.24375,-0.58588 -0.83,-1.17188 -1.80662,-1.80664 z m -2.63675,0.293 c 1.51362,0.83012 2.29487,1.70899 2.29487,2.63671 0,0.53713 -0.24375,0.78125 -0.7325,0.78125 -0.2925,0 -0.48875,-0.24412 -0.5375,-0.73237 -0.14625,-0.68363 -0.58625,-1.51368 -1.36712,-2.44142 z m -2.39263,0.4395 c 1.025,1.123 1.5625,2.09961 1.5625,2.97851 0,0.63475 -0.24375,0.97663 -0.7325,0.97663 -0.39,0 -0.58625,-0.24413 -0.58625,-0.68363 l 0.05,-0.48825 c 0,-0.83012 -0.24375,-1.66016 -0.68375,-2.53907 z m -2.246,0.39062 0.48875,0.0975 c 0,1.41602 -0.34125,2.49023 -0.97625,3.27148 -0.43875,0.4395 -0.83,0.68362 -1.22,0.68362 -0.44,0 -0.68375,-0.24412 -0.68375,-0.73237 0,-0.19538 0.14625,-0.39063 0.39,-0.58588 1.07375,-0.58587 1.709,-1.46483 2.002,-2.73437 z m 0,0" style="fill:#000000;fill-opacity:1;fill-rule:nonzero;stroke:none"/>
  <path d="m 53.40991,393.156 0,0.83012 8.78913,0 0,-1.123 -8.78913,0 z m -0.97625,6.83593 0,0.83013 10.74213,0 0,-1.123 -10.74213,0 z m 0,0" style="fill:#000000;fill-opacity:1;fill-rule:nonzero;stroke:none"/>
  <path d="m 77.72629,395.64623 0.195,0.0487 c 1.17125,0.48825 2.09962,1.07425 2.6855,1.66017 0.2925,0.293 0.44,0.53712 0.44,0.78125 0,0.34175 -0.14625,0.48825 -0.39,0.48825 -0.1,0 -0.195,-0.0975 -0.2925,-0.24413 -0.58625,-1.02537 -1.5625,-1.85547 -2.832,-2.53906 -1.1225,1.46484 -2.58788,2.49024 -4.3945,3.22266 l -0.14625,-0.19532 c 2.6855,-1.31835 4.541,-3.41797 5.56637,-6.34765 -1.07375,0.1465 -1.75775,0.293 -2.09962,0.34175 -0.78125,0.19537 -1.17125,0.24412 -1.2695,0.24412 -0.39,0 -0.68375,-0.24412 -0.87875,-0.83012 l 0.195,-0.1465 c 0.14625,0.24412 0.44,0.34175 0.87875,0.34175 0.635,0 1.61137,-0.0975 2.88087,-0.293 0.14625,0 0.2925,-0.0487 0.39,-0.0975 0.1,-0.0975 0.195,-0.1465 0.24375,-0.1465 0.1,0 0.24375,0.1465 0.39,0.34175 0.1,0.19537 0.195,0.34175 0.195,0.4395 0,0.0975 -0.05,0.1465 -0.14625,0.19537 -0.1,0.0487 -0.24375,0.24413 -0.39,0.48825 -0.48875,0.97663 -0.87875,1.75783 -1.22125,2.2461 z m 0,0" style="fill:#000000;fill-opacity:1;fill-rule:nonzero;stroke:none"/>
  <path d="m 76.84741,402.67748 c 0.1,-0.63475 0.195,-1.17187 0.195,-1.51367 0,-0.39063 -0.195,-0.68363 -0.58625,-0.83013 l 0.14625,-0.24412 c 0.78125,0.0975 1.22125,0.34175 1.22125,0.78125 0,0.0487 0,0.1465 -0.05,0.19537 -0.05,0.19538 -0.1,0.4395 -0.14625,0.73238 l -0.05,0.24412 -0.1,0.58588 0.635,-0.0975 c 1.07375,-0.0975 1.709,-0.19538 1.90438,-0.39063 0.1,-0.0487 0.195,-0.0975 0.24375,-0.0975 0.14625,0 0.2925,0.1465 0.48875,0.39063 0.1,0.19537 0.195,0.34175 0.195,0.48825 0,0.0488 -0.05,0.0975 -0.14625,0.1465 -0.1,0.0975 -0.195,0.293 -0.24375,0.58587 -0.2925,1.95312 -0.68375,3.32031 -1.26963,4.10156 -0.24375,0.39062 -0.48875,0.58587 -0.7325,0.58587 -0.195,0 -0.2925,-0.0975 -0.2925,-0.34175 l 0,-0.0487 c 0,-0.39062 -0.2925,-0.87887 -0.87875,-1.46484 l 0.1,-0.24412 c 0.68375,0.48825 1.07375,0.73237 1.17125,0.83012 l 0.05,0 c 0.05,0.0487 0.1,0.0487 0.14625,0.0487 0.05,0 0.195,-0.19537 0.39,-0.58587 0.39,-0.97663 0.68375,-2.2461 0.83,-3.85742 l -1.22125,0.1465 c -0.9275,0.1465 -1.46487,0.19538 -1.46487,0.19538 -0.2925,1.22074 -0.7325,2.24608 -1.22125,3.07616 -0.68375,1.02538 -1.61125,1.85547 -2.832,2.53905 l -0.14625,-0.19525 c 1.80662,-1.22075 2.9785,-2.97852 3.5645,-5.32226 -0.1,0 -0.195,0 -0.2925,0 -0.39,0.0975 -0.78125,0.1465 -1.22,0.19537 -0.195,0.0487 -0.3425,0.0487 -0.44,0.0487 -0.48875,0 -0.83,-0.293 -1.1225,-0.87887 l 0.195,-0.1465 c 0.24375,0.24412 0.68375,0.39062 1.2695,0.39062 0.48875,0 1.07375,0 1.709,-0.0487 z m 0,0" style="fill:#000000;fill-opacity:1;fill-rule:nonzero;stroke:none"/>
  <path d="m 30.07004,160.63649 0,2.00195 3.22275,0 0.9275,-1.17187 c 0.43875,0.4395 0.87875,0.83012 1.2695,1.26953 l -0.195,0.39063 -5.22463,0 0,0.39062 c 0,0.58588 -0.05,1.123 -0.14625,1.61133 l 4.248,0 1.025,-1.17188 c 0.5375,0.4395 0.97625,0.87888 1.2695,1.22075 l -0.195,0.4395 -6.15237,0 c 0.97625,1.22075 2.1485,2.05079 3.51562,2.53907 0.83,0.34175 1.95313,0.58587 3.32038,0.78125 -0.44,0.4395 -0.7325,0.87887 -0.87875,1.26953 -2.29488,-0.53712 -3.955,-1.36718 -5.02925,-2.49023 -0.5375,-0.58588 -0.97625,-1.17188 -1.31838,-1.75782 -0.87875,2.49024 -3.22262,4.05274 -7.03125,4.58985 l -0.2925,-0.53712 c 3.36913,-0.63475 5.42,-2.09961 6.20125,-4.39454 l -5.66412,0 -0.14625,-0.48825 5.95712,0 c 0.1,-0.53712 0.14625,-1.02537 0.14625,-1.51367 l 0,-0.48825 -4.93162,0 -0.195,-0.48825 5.12687,0 0,-2.00195 -3.22262,0 0,0.78125 -1.1225,0 0,-5.0293 c 0.34125,0.1465 0.78125,0.34175 1.36712,0.63475 l 7.37313,0 0.68375,-0.83013 c 0.83,0.63475 1.26962,1.07425 1.26962,1.22075 0,0.0975 -0.05,0.1465 -0.195,0.19538 l -0.48875,0.34175 0,3.32031 -1.07375,0 0,-0.63475 z m -1.17125,-3.07617 -3.22263,0 0,2.58788 3.22263,0 z m 1.17125,0 0,2.58788 3.418,0 0,-2.58788 z m 0.9275,-2.7832 -2.92963,0 0,1.66015 -1.1225,0 0,-1.66015 -3.56437,0 -0.195,-0.53713 3.75975,0 0,-2.05077 c 1.31837,0.0975 1.95312,0.24412 1.95312,0.53712 0,0.1465 -0.24375,0.34175 -0.83,0.53713 l 0,0.97662 2.92963,0 0,-2.00195 c 1.31837,0.0487 2.002,0.24413 2.002,0.48825 0,0.1465 -0.2925,0.34175 -0.9275,0.58588 l 0,0.92775 2.24612,0 0.9275,-1.22075 c 0.5375,0.48825 0.97625,0.92775 1.2695,1.31835 l -0.195,0.4395 -4.248,0 0,1.61132 -1.07375,0 z m -12.69525,2.19726 c 1.75775,0.58587 2.58787,1.36719 2.58787,2.29492 0,0.53713 -0.195,0.78125 -0.635,0.78125 -0.34125,0 -0.58625,-0.24412 -0.68375,-0.73237 -0.14625,-0.73238 -0.635,-1.36719 -1.46487,-2.00195 z m 1.31837,-4.39453 c 1.80663,0.58588 2.73438,1.31835 2.73438,2.24609 0,0.53713 -0.24375,0.78125 -0.68375,0.78125 -0.2925,0 -0.48875,-0.19537 -0.635,-0.63475 -0.195,-0.68362 -0.78125,-1.36719 -1.66013,-2.00195 z m 4.3945,3.51563 -2.88087,9.0332 c -0.24375,0.63475 -0.34125,1.123 -0.34125,1.46484 0,0.0975 0,0.34175 0.1,0.68362 0.195,0.87888 0.2925,1.5625 0.2925,2.05078 0,0.78125 -0.2925,1.22075 -0.9275,1.22075 -0.48875,0 -0.7325,-0.24413 -0.7325,-0.73238 0,-0.0488 0.05,-0.39062 0.14625,-1.02537 0.05,-0.48825 0.1,-0.92775 0.1,-1.41602 0,-0.83012 -0.195,-1.36718 -0.58625,-1.66015 -0.195,-0.19537 -0.48875,-0.34175 -0.97625,-0.39062 l 0,-0.53713 c 0.2925,0.0488 0.5375,0.0975 0.78125,0.0975 0.5375,0 0.9275,-0.24412 1.17125,-0.68362 1.07375,-2.19726 2.19725,-4.98046 3.36912,-8.44726 z m 0,0" style="fill:#000000;fill-opacity:1;fill-rule:nonzero;stroke:none"/>
  <path d="m 22.64816,177.3357 -3.61325,0 -0.24375,-0.53712 7.91013,0 0,-4.00391 c 1.36725,0.0488 2.09962,0.24412 2.09962,0.53712 0,0.1465 -0.34125,0.34175 -0.9275,0.58588 l 0,2.88086 5.61525,0 1.12375,-1.51368 c 0.58625,0.53713 1.1225,1.07425 1.61125,1.66015 l -0.2925,0.39063 -3.75975,0 c -0.87875,3.125 -2.14837,5.7129 -3.71087,7.61718 2.00187,1.85548 4.63862,3.32032 7.91012,4.34572 -0.44,0.34175 -0.7325,0.78125 -0.97625,1.22075 -3.22275,-1.26954 -5.76175,-2.83204 -7.66612,-4.6875 -2.3925,2.4414 -5.46875,4.10156 -9.082,5.0293 l -0.2925,-0.48825 c 3.2715,-1.02538 6.15237,-2.83204 8.59375,-5.41993 -1.70888,-1.95312 -3.17375,-4.49219 -4.29688,-7.61719 z m 0.78125,0 c 1.07375,2.68555 2.49025,4.98048 4.19925,6.83594 1.416,-1.95313 2.49025,-4.19921 3.125,-6.83594 z m 0,0" style="fill:#000000;fill-opacity:1;fill-rule:nonzero;stroke:none"/>
  <path d="m 20.49979,204.77711 2.78325,0 0.7325,-0.87887 c 0.83,0.63475 1.22125,1.02537 1.22125,1.22075 0,0.0975 -0.05,0.1465 -0.195,0.24412 l -0.44,0.293 0,5.12696 -1.17125,0 0,-1.07425 -3.125,0 0,1.51368 -1.17125,0 0,-7.12891 c 0.44,0.19537 0.87875,0.4395 1.36725,0.68362 z m -0.195,0.53713 0,3.85741 3.125,0 0,-3.85741 z m 2.83212,-5.7129 0.9275,-1.17188 c 0.24375,0.24413 0.68375,0.68363 1.17125,1.31837 l -0.24375,0.34175 -5.76162,0 -0.195,-0.48825 z m -0.195,-5.12695 0.9275,-1.17188 c 0.39,0.34175 0.78125,0.78125 1.22125,1.31837 l -0.195,0.39062 -5.37112,0 -0.1,-0.53712 z m 0.195,7.66601 0.9275,-1.17187 c 0.43875,0.39062 0.83,0.78125 1.17125,1.31836 l -0.24375,0.39062 -5.8105,0 -0.1,-0.53712 z m 0.83,-5.07812 0.97625,-1.26953 c 0.48875,0.4395 0.9275,0.87888 1.31838,1.36719 l -0.195,0.39062 -7.86125,0 -0.1,-0.48825 z m 6.64063,11.08398 0,-12.98827 c 1.31837,0.0487 1.95312,0.19525 1.95312,0.48825 0,0.19537 -0.24375,0.39062 -0.78125,0.63475 l 0,11.86523 z m 3.711,2.73438 0,-17.77344 c 1.31837,0.0975 1.95312,0.293 1.95312,0.53713 0,0.24412 -0.24375,0.4395 -0.78125,0.63475 l 0,16.60156 z m -9.32625,0 c 1.41612,-1.85548 2.09962,-4.78515 2.09962,-8.74024 l 0,-8.74024 c 1.36725,0 2.05088,0.19538 2.05088,0.48825 0,0.19538 -0.24375,0.39063 -0.83,0.58588 l 0,7.71485 c 0,2.14842 -0.195,3.95507 -0.635,5.32226 -0.44,1.46484 -1.22125,2.68554 -2.295,3.75976 z m 0,0" style="fill:#000000;fill-opacity:1;fill-rule:nonzero;stroke:none"/>
  <path d="m 27.43341,223.23414 6.00588,0 0.68375,-0.68363 c 0.78125,0.53713 1.17125,0.87888 1.17125,1.07425 0,0.0488 -0.05,0.1465 -0.14625,0.19538 l -0.48875,0.293 0,4.73632 -1.1225,0 0,-0.4395 -6.15238,0 0,0.63475 -1.1225,0 0,-6.25 c 0.5375,0.19538 0.9275,0.34175 1.17125,0.4395 z m -0.05,0.48825 0,1.02537 6.15238,0 0,-1.02537 z m 6.15238,4.19921 0,-1.123 -6.15238,0 0,1.123 z m 0,-1.61133 0,-1.07425 -6.15238,0 0,1.07425 z m -13.52538,-1.17187 2.3925,0 0.68375,-0.83013 c 0.78125,0.63475 1.17125,1.02538 1.17125,1.22075 0,0.0975 -0.05,0.1465 -0.14625,0.19538 l -0.43875,0.293 0,5.27342 -1.07375,0 0,-1.02537 -2.68562,0 0,1.31836 -1.1225,0 0,-7.03125 c 0.2925,0.0975 0.7325,0.293 1.22125,0.58588 z m -0.1,0.53712 0,4.10157 2.68563,0 0,-4.10157 z m 6.6895,-7.51953 7.86138,0 0.68375,-0.73238 c 0.78125,0.58588 1.1225,0.9765 1.1225,1.17188 0,0.0487 -0.05,0.1465 -0.14625,0.19525 l -0.44,0.24412 0,3.56445 -1.07375,0 0,-0.4395 -8.1055,0 0,0.53713 -1.1225,0 0,-5.17578 c 0.44,0.24413 0.87875,0.4395 1.22125,0.63475 z m -0.1,0.48825 0,2.97851 8.1055,0 0,-2.97851 -2.73437,0 0,0.92775 c 0,0.34175 0.24375,0.48825 0.68375,0.48825 0.44,0 0.68375,-0.0975 0.7325,-0.34175 0.1,-0.1465 0.14625,-0.4395 0.195,-0.73238 l 0.44525,0.0976 c 0,0.53712 0.14625,0.83012 0.48875,0.83012 -0.05,0.4395 -0.14625,0.68363 -0.39,0.83013 -0.24375,0.0975 -0.7325,0.1465 -1.51363,0.1465 -0.68375,0 -1.12375,-0.0975 -1.31837,-0.24413 -0.195,-0.0975 -0.24375,-0.34175 -0.24375,-0.73237 l 0,-1.26953 -1.22125,0 c -0.14625,1.41601 -1.025,2.29493 -2.63675,2.68555 l -0.195,-0.4395 c 1.1225,-0.4395 1.709,-1.17187 1.75775,-2.24609 z m 3.46675,-2.00195 0,-1.3672 -4.9805,0 -0.24375,-0.48825 5.22463,0 0,-1.70899 c 1.2695,0.0487 1.90437,0.19537 1.90437,0.4395 0,0.1465 -0.24375,0.34175 -0.78125,0.53712 l 0,0.73238 3.17375,0 0.87875,-1.07425 c 0.48875,0.39062 0.87875,0.78125 1.26963,1.17187 l -0.195,0.39063 -5.12688,0 0,1.3672 2.44138,0 0.87875,-0.97663 c 0.48875,0.39063 0.83,0.78125 1.1225,1.07425 l -0.195,0.39063 -9.47263,0 -0.195,-0.48825 z m -7.91012,3.3203 0.87875,-1.02538 c 0.39,0.34175 0.7325,0.73238 1.12375,1.17188 l -0.24375,0.34175 -4.88275,0 -0.14625,-0.48825 z m 0.14625,-5.12695 0.83,-1.07425 c 0.39,0.34175 0.78125,0.78125 1.17125,1.22075 l -0.195,0.39062 -4.93163,0 -0.195,-0.53712 z m -0.14625,7.66602 0.87875,-1.02537 1.12375,1.17187 -0.24375,0.39063 -4.83388,0 -0.195,-0.53713 z m 1.8555,8.78905 c 1.75775,-0.53712 3.22262,-1.36717 4.44337,-2.49022 0.97625,0.48825 1.416,0.78125 1.416,1.02537 0,0.1465 -0.195,0.19538 -0.58625,0.19538 -0.14625,0 -0.2925,0 -0.39,0 -1.31837,0.73237 -2.832,1.31836 -4.58987,1.70898 z m -1.22125,-13.86717 0.9275,-1.123 c 0.34125,0.34175 0.7325,0.73237 1.22125,1.22075 l -0.195,0.39062 -6.44525,0 -0.195,-0.48825 z m 9.03325,11.57226 c 1.61125,0.1465 2.832,0.4395 3.66212,0.87887 0.7325,0.34175 1.1225,0.68363 1.1225,1.02538 0,0.4395 -0.24375,0.68362 -0.635,0.68362 -0.195,0 -0.39,-0.1465 -0.7325,-0.4395 -0.78125,-0.63475 -2.00187,-1.17187 -3.662,-1.70898 z m 0,0" style="fill:#000000;fill-opacity:1;fill-rule:nonzero;stroke:none"/>
  <path d="m 22.64816,238.32202 -3.61325,0 -0.24375,-0.48825 7.91013,0 0,-4.0039 c 1.36725,0.0488 2.09962,0.24413 2.09962,0.53713 0,0.1465 -0.34125,0.34175 -0.9275,0.58587 l 0,2.88086 5.61525,0 1.12375,-1.51367 c 0.58625,0.53712 1.1225,1.07425 1.61125,1.61132 l -0.2925,0.39063 -3.75975,0 c -0.87875,3.17384 -2.14837,5.7129 -3.71087,7.66602 2.00187,1.85547 4.63862,3.27148 7.91012,4.29688 -0.44,0.39062 -0.7325,0.78125 -0.97625,1.26952 -3.22275,-1.26952 -5.76175,-2.83202 -7.66612,-4.6875 -2.3925,2.44142 -5.46875,4.10157 -9.082,5.0293 l -0.2925,-0.48825 c 3.2715,-1.02537 6.15237,-2.83203 8.59375,-5.46875 -1.70888,-1.9043 -3.17375,-4.44336 -4.29688,-7.6172 z m 0.78125,0 c 1.07375,2.73438 2.49025,4.98048 4.19925,6.88478 1.416,-1.95313 2.49025,-4.24805 3.125,-6.88478 z m 0,0" style="fill:#000000;fill-opacity:1;fill-rule:nonzero;stroke:none"/>
  <path d="m 17.71654,257.90211 0,0.87887 11.03525,0 0,-1.17187 -11.03525,0 z m 0,0" style="fill:#000000;fill-opacity:1;fill-rule:nonzero;stroke:none"/>
  <path d="m 44.47441,257.95093 -2.09962,0.24413 c -0.97625,0.1465 -1.51363,0.19537 -1.66013,0.24412 -0.14625,0 -0.24375,0 -0.3425,0 -0.39,0 -0.68375,-0.24412 -0.97625,-0.73237 l 0.14625,-0.1465 c 0.24375,0.19537 0.635,0.293 1.17125,0.293 0.39,0 1.31838,-0.0488 2.832,-0.19525 0.24375,0 0.48875,-0.0487 0.7325,-0.0487 0.195,0 0.2925,-0.0488 0.3425,-0.0488 0.14625,-0.53713 0.34125,-1.123 0.43875,-1.75781 l -0.9275,0.0975 c -1.90425,0.1465 -2.9785,0.293 -3.36912,0.34175 -0.14625,0 -0.24375,0.0487 -0.39,0.0487 -0.43875,0 -0.78125,-0.293 -1.07375,-0.87888 l 0.14625,-0.19537 c 0.34125,0.293 0.83,0.39062 1.46487,0.39062 1.12375,0 2.34375,-0.0488 3.66213,-0.1465 0.195,0 0.39,-0.0975 0.58625,-0.24412 0.1,-0.0487 0.195,-0.0487 0.24375,-0.0487 0.05,0 0.195,0.0487 0.2925,0.19537 0.24375,0.24413 0.34125,0.48825 0.34125,0.68363 0,0.0975 -0.05,0.1465 -0.14625,0.19537 -0.1,0.0488 -0.195,0.19538 -0.24375,0.4395 -0.58625,1.80665 -1.31838,3.22266 -2.19725,4.1504 -0.7325,0.78125 -1.61138,1.41601 -2.68563,1.95313 l -0.195,-0.19538 c 1.90425,-1.123 3.17375,-2.68555 3.90625,-4.63867 z m 0,0" style="fill:#000000;fill-opacity:1;fill-rule:nonzero;stroke:none"/>
  <path d="m 33.78104,265.12867 c 0.44,0 0.87875,0.0975 1.31837,0.39063 0.83,0.48825 1.2695,1.17187 1.2695,2.14843 0,0.68363 -0.24375,1.26953 -0.7325,1.75781 -0.5375,0.53713 -1.12375,0.78125 -1.8555,0.78125 -0.39,0 -0.78125,-0.0488 -1.1225,-0.24412 -0.9275,-0.4395 -1.41612,-1.22075 -1.41612,-2.29491 0,-0.87888 0.39,-1.61134 1.17125,-2.14844 0.44,-0.24412 0.87875,-0.39062 1.36725,-0.39062 z m 0,0.68363 c -0.48875,0 -0.97625,0.24412 -1.36725,0.63475 -0.2925,0.34175 -0.44,0.73237 -0.44,1.22075 0,0.34174 0.05,0.68362 0.24375,0.97662 0.39,0.58587 0.87875,0.87887 1.5625,0.87887 0.44,0 0.83,-0.1465 1.17125,-0.4395 0.44,-0.39062 0.68375,-0.83012 0.68375,-1.41601 0,-0.58587 -0.2925,-1.07425 -0.83,-1.46485 -0.2925,-0.24412 -0.635,-0.39062 -1.025,-0.39062 z m 0,0" style="fill:#000000;fill-opacity:1;fill-rule:nonzero;stroke:none"/>
</svg>
