<?xml version="1.0" encoding="UTF-8" standalone="no"?>
<svg xmlns:svg="http://www.w3.org/2000/svg" xmlns="http://www.w3.org/2000/svg" version="1.1" viewBox="0 0 130.82134 155.70585" height="54.929562mm" width="46.15086mm">
  <rect style="fill:#85ff85;fill-opacity:1;stroke:none" width="62.367188" height="127.35938" x="18.638071" y="14.173229"/>
  <path style="fill:#007d00;fill-opacity:1;fill-rule:nonzero;stroke:none" d="m 14.173228,14.173228 0,71.291016 71.291016,0 0,-4.464844 -66.832032,0 0,-62.367186 62.373048,0 0,-4.458986 z m 0,0"/>
  <path style="fill:#007d00;fill-opacity:1;fill-rule:nonzero;stroke:none" d="m 81.00526,14.173228 4.458984,0 0,66.826172 -4.458984,0 z m 0,0"/>
  <path style="fill:#000000;fill-opacity:1;fill-rule:nonzero;stroke:none" d="m 61.206432,57.907603 c 4.617187,3.181641 7.974609,6.298829 10.072264,9.375 1.347657,2.009766 2.033204,3.621095 2.033204,4.828125 0,1.541016 -0.667968,2.308595 -1.96289,2.308595 -0.94336,0 -1.587891,-0.527345 -1.957032,-1.541016 C 67.850962,68.313853 64.932994,63.854869 60.649791,59.518932 57.151744,67.8744 49.839244,73.546275 38.747446,76.587291 L 37.839244,75.327525 C 49.3119,71.044323 56.237682,64.065807 58.616587,54.409557 c 1.400391,-5.630859 2.115234,-14.449218 2.16797,-26.443359 3.919921,0.246093 5.876953,0.820312 5.876953,1.746093 0,0.527344 -0.767578,1.03125 -2.308594,1.541016 -0.275391,12.222657 -1.330079,21.111328 -3.146484,26.654296 z M 30.702524,64.481823 29.513071,28.8744 c 3.955079,0.105464 5.947266,0.556641 5.947266,1.400391 0,0.521484 -0.802734,1.083984 -2.378906,1.675781 L 34.13026,63.08729 c 5.736327,-2.466796 11.162109,-5.074218 16.30078,-7.839843 l 0.632813,1.400391 c -8.958984,5.560547 -17.244141,10.042968 -24.837891,13.435547 -0.05274,1.67578 -0.351563,2.513671 -0.908202,2.513671 -0.802736,0 -1.822266,-1.640625 -3.082032,-4.962891 3.257812,-1.066405 6.087891,-2.115234 8.466796,-3.152343 z m 9.867188,-32.806641 c 3.94922,2.34375 6.925782,4.875 8.882812,7.623046 1.259766,1.816407 1.88672,3.410157 1.88672,4.757813 0,1.541016 -0.697266,2.308594 -2.097657,2.308594 -0.802734,0 -1.464843,-0.837891 -2.027343,-2.519532 -1.505859,-4.089843 -3.972657,-7.833984 -7.41797,-11.191405 z m 0,0"/>
  <path style="fill:#007d00;fill-opacity:1;fill-rule:nonzero;stroke:none" d="m 19.962291,102.55018 0,38.98242 35.648437,0 0,-38.98242 z m 4.464844,4.45899 26.724609,0 0,30.06446 -26.724609,0 z m 0,0"/>
  <path style="fill:#000000;fill-opacity:1;fill-rule:nonzero;stroke:none" d="m 51.878307,111.32752 0,-2.16796 -28.265626,0 0,2.87109 11.964844,0 0,23.57812 3.216796,0 0,-16.16601 c 2.238282,1.11914 6.580079,3.70898 9.65625,6.01758 l 1.816407,-2.44922 c -2.865234,-2.16797 -8.255859,-5.17383 -12.380859,-7.13672 l -0.556641,0.77344 1.464843,0.48633 0,-5.10352 13.083986,0 z m 0,0"/>
  <rect y="14.173229" x="81.005264" height="127.35938" width="35.642586" style="fill:#85ffff;fill-opacity:1;stroke:none"/>
  <path style="fill:#0000ff;fill-opacity:1;fill-rule:nonzero;stroke:none" d="m 81.00526,14.173228 0,71.291016 35.625,0 0.0175,-71.291016 z m 4.458984,4.458986 26.724606,0 0,62.367186 -26.724606,0 z m 0,0"/>
  <path style="fill:#000000;fill-opacity:1;fill-rule:nonzero;stroke:none" d="m 92.600962,38.454478 c -1.259766,-0.08788 -2.238281,-0.298828 -2.941406,-0.632812 -0.75,-0.416016 -1.359375,-1.119141 -1.816407,-2.097656 l 0.626954,-0.486328 c 0.878907,1.259766 2.208984,1.886718 3.990234,1.886718 l 0.351562,0 c 0.140625,-1.013672 0.380861,-2.378906 0.767579,-4.054686 l 0.28125,-1.681641 c -0.333984,0.05274 -0.808593,0.0703 -1.400391,0.0703 -2.625,0 -4.335938,-0.785157 -5.179688,-2.378907 l 0.632813,-0.492188 c 0.873048,1.037109 2.167969,1.541016 3.849609,1.541016 0.732423,0 1.535157,-0.03516 2.378907,-0.140625 0.13476,-0.644532 0.292968,-1.400391 0.486328,-2.238282 0.28125,-1.623046 0.421875,-2.660155 0.421875,-3.076171 0,-0.791015 -0.47461,-1.330079 -1.400391,-1.611329 l 0.351563,-0.767569 c 2.273437,0.333984 3.427734,1.03125 3.427734,2.097655 0,0.246095 -0.140625,0.802736 -0.421875,1.681641 -0.193359,0.609375 -0.539063,1.851563 -1.048827,3.703125 1.904296,-0.275391 3.322264,-0.626953 4.265625,-1.048828 0.42187,-0.228516 0.77344,-0.345702 1.04883,-0.345702 0.36914,0 0.79101,0.13476 1.25976,0.416014 0.42188,0.246095 0.63282,0.457032 0.63282,0.632813 0,0.890625 -2.43165,1.517578 -7.277349,1.886719 l -0.28125,0 c -0.55664,2.15039 -0.978515,4.060547 -1.259765,5.736329 2.326172,-0.175782 4.130859,-0.521486 5.390625,-1.048829 0.451169,-0.175782 0.802739,-0.28125 1.048829,-0.28125 0.31641,0 0.66211,0.123045 1.04883,0.351563 0.42187,0.28125 0.62695,0.527343 0.62695,0.697266 0,1.03125 -2.759766,1.59375 -8.255859,1.681639 -0.134759,1.083986 -0.205078,1.921875 -0.205078,2.519532 0,3.878906 1.921875,5.80664 5.806641,5.80664 2.466796,0 4.300776,-0.65039 5.525386,-1.96289 1.11914,-1.154296 1.68164,-2.742187 1.68164,-4.751953 0,-1.072266 -0.21093,-2.326172 -0.63281,-3.779297 l 0.83789,-0.0703 c 0.84375,1.675781 1.25977,3.269531 1.25977,4.757813 0,2.431639 -0.94336,4.388671 -2.79492,5.876953 -1.59375,1.259765 -3.49805,1.886718 -5.736331,1.886718 -2.572266,0 -4.517579,-0.767578 -5.806641,-2.308593 -1.171875,-1.294923 -1.751954,-3.076173 -1.751954,-5.314453 0,-0.738282 0.07031,-1.628907 0.210938,-2.660157 z m 0,0"/>
  <path style="fill:#000000;fill-opacity:1;fill-rule:nonzero;stroke:none" d="m 86.583385,61.575573 c 0.421875,0.474609 0.855468,0.703125 1.330077,0.703125 0.556641,0 1.435548,-0.228516 2.660157,-0.703125 5.630859,-1.992188 9.650391,-3.005859 12.029301,-3.005859 2.46679,0 4.42382,0.597655 5.87695,1.751952 1.7168,1.359375 2.58984,3.111328 2.58984,5.244141 0,3.128907 -1.57617,5.648437 -4.6875,7.558593 -2.85351,1.728516 -6.767575,2.777344 -11.753903,3.146485 l -0.140625,-0.767578 c 9.550778,-1.400391 14.343748,-4.705079 14.343748,-9.9375 0,-1.904297 -0.66211,-3.375 -1.95703,-4.40625 -1.08398,-0.873047 -2.50195,-1.330079 -4.27148,-1.330079 -2.794926,0 -6.97852,1.470704 -12.521488,4.40625 -0.474611,0.246095 -0.837891,0.351563 -1.119141,0.351563 -1.119141,0 -2.132813,-0.837891 -3.005859,-2.519531 z m 0,0"/>
  <path style="fill:#0000ff;fill-opacity:1;fill-rule:nonzero;stroke:none" d="m 81.00526,102.55018 0,38.98242 35.63085,0 0,-4.45897 0.012,-34.52345 z m 4.458984,4.45899 26.724606,0 0,30.06446 -26.724606,0 z m 0,0"/>
  <path style="fill:#000000;fill-opacity:1;fill-rule:nonzero;stroke:none" d="m 100.85682,120.23964 c -0.14062,4.05468 -0.75586,7.10155 -1.822264,9.09375 -1.22461,2.37891 -3.550782,4.33593 -6.996094,5.87695 l -0.486327,-0.63282 c 2.830077,-1.67577 4.757811,-3.6328 5.736327,-5.87695 0.873048,-1.99218 1.347657,-4.76953 1.400391,-8.32031 -2.712891,0.14063 -5.25,0.45117 -7.628907,0.9082 -0.662109,0.14063 -1.154297,0.21094 -1.470702,0.21094 -1.359375,0 -2.443359,-0.77344 -3.287109,-2.30859 l 0.421875,-0.5625 c 0.837889,0.66796 2.0625,0.97851 3.708984,0.97851 2.689452,0 7.083984,-0.27539 13.148436,-0.83789 1.82227,-0.14062 3.29297,-0.38672 4.41211,-0.76758 0.5918,-0.14062 0.97852,-0.21093 1.11914,-0.21093 0.5918,0 1.27734,0.26367 2.02734,0.76757 0.31641,0.28125 0.49219,0.54493 0.49219,0.77344 0,0.52149 -0.42187,0.76758 -1.25976,0.76758 -0.38672,0 -0.68555,-0.0176 -0.91407,-0.0703 -0.94336,-0.0352 -1.71093,-0.0703 -2.30859,-0.0703 -1.30664,0 -3.41016,0.10547 -6.29297,0.28125 z m -9.796874,-9.86719 c 0.791016,0.66797 2.027344,0.97851 3.708985,0.97851 3.955079,0 6.855469,-0.36328 8.677739,-1.11914 0.31054,-0.14062 0.59179,-0.20508 0.83789,-0.20508 0.5039,0 1.04882,0.20508 1.60546,0.62696 0.5625,0.38672 0.84375,0.67969 0.84375,0.9082 0,0.19336 -0.12304,0.35156 -0.35156,0.49219 -0.14062,0.10546 -0.80273,0.14062 -1.95703,0.14062 -3.88476,0 -7.136718,0.24024 -9.796874,0.69727 -0.421875,0.10546 -0.802735,0.14062 -1.119141,0.14062 -1.171875,0 -2.150391,-0.71484 -2.935546,-2.16796 z m 0,0"/>
</svg>
