<?xml version='1.0' encoding='UTF-8' standalone='no'?>
<svg height="46.599834mm" xmlns:rdf="http://www.w3.org/1999/02/22-rdf-syntax-ns#" xmlns:svg="http://www.w3.org/2000/svg" version="1.1" viewBox="0 0 168.19571 165.11752" width="47.468567mm" xmlns="http://www.w3.org/2000/svg">
  <rect height="36" style="fill:#81e0ff;stroke:none;stroke-width:2" width="36" x="17.716536" y="111.40099"/>
  <rect height="90" style="fill:#81e0ff;stroke:none;stroke-width:2" width="90" x="21.868338" y="17.716536"/>
  <rect height="108" style="fill:#81e0ff;stroke:none;stroke-width:2" width="36" x="114.47917" y="19.746931"/>
  <path d="m 47.912589,104.4057 c 10.940734,-3.2284 17.28547,-6.143001 24.01136,-11.322001 6.165378,-4.596 10.738936,-9.7524 14.953838,-16.7024 6.725832,6.6584 11.523626,13.474 15.021053,21.4778 0.98648,2.242001 1.47973,2.847201 2.35407,2.847201 1.74874,0 3.51986,-4.102801 3.51986,-8.115801 0,-2.1522 -1.36759,-4.2822 -4.3942,-6.838 -4.887507,-3.9906 -10.559643,-7.8916 -15.626443,-10.9182 2.623078,-4.6858 4.28211,-8.9006 5.761842,-14.057 2.241926,-8.116 3.116324,-15.42474 3.990664,-34.86248 2.936967,-0.58294 4.102757,-1.2555 4.214847,-2.24198 0,-0.98644 -1.27788,-1.27788 -11.725371,-2.64552 0.201454,3.13876 0.201454,4.6857 0.201454,7.24152 0,17.17338 -3.318064,34.45886 -8.586662,44.79426 -6.255086,12.5102 -17.487268,22.2626 -34.279494,29.975001 z M 42.442251,27.080619 c 2.533428,-0.67262 3.721656,-1.3676 3.721656,-2.15228 0,-0.96406 -1.569382,-1.36758 -6.344736,-1.8384 -1.076138,-0.112 -2.735168,-0.20202 -4.887444,-0.493 0.582894,4.77534 0.784634,7.12942 0.87434,10.04394 l 1.457292,52.64102 c -6.524092,1.9506 -7.51058,2.1524 -11.299446,2.825 3.318062,9.6628 3.788866,10.8286 4.95471,10.8286 0.694984,0 1.188228,-0.7848 1.277878,-2.1524 0,-0.5828 0.08954,-1.4572 0.202026,-2.5332 11.411538,-4.5738 15.805796,-6.5466 22.352272,-9.7526 10.043952,-5.179 15.42464,-8.3176 21.074392,-12.4876 l -0.47063,-1.278 c -9.169556,4.596 -20.513826,9.0798 -31.544268,12.4876 z m 10.268132,4.59598 c 6.524094,6.34474 12.98092,15.1332 15.716088,21.5677 1.076138,2.7352 1.457292,3.2284 2.42134,3.2284 1.771122,0 3.318062,-3.52 3.318062,-7.51062 0,-2.26436 -1.255494,-4.10276 -5.268598,-7.62262 -3.900956,-3.51986 -8.003768,-6.25508 -15.424642,-10.44754" style="fill:#000000"/>
  <path d="m 135.99897,37.617799 c 1.56938,1.09858 2.21954,1.68148 2.89214,2.57826 1.12097,1.45724 1.77113,3.36294 1.77113,5.24616 0,3.69922 -2.48855,5.96368 -6.5241,5.96368 -3.63195,0 -5.35824,-1.6143 -5.35824,-5.0669 0,-0.26918 0.0459,-0.85196 0.11192,-1.56938 1.16578,0.20202 1.90565,0.26918 3.00423,0.26918 1.97292,0 2.82482,-0.33634 2.82482,-1.16584 0,-1.00888 -0.8519,-1.79358 -1.97292,-1.79358 l -0.91917,0.0896 -0.96404,0.0896 -1.52456,-0.0896 c 0.40348,-2.46616 0.58295,-3.0715 1.59182,-6.72588 l 1.30032,0.0896 c 1.09858,0 1.70391,-0.33632 1.70391,-0.9416 0,-1.03132 -0.47063,-1.43484 -2.21954,-1.9281 0.78469,-2.1971 1.23306,-3.20602 1.61421,-3.47502 l 0.73981,-1.30032 c 0,-1.23312 -2.08501,-2.511 -4.01311,-2.511 -1.27787,0 -1.79356,0.1342 -2.21948,0.67254 l 0.56017,0.179 c 1.41246,0.40348 1.816,0.80712 1.816,1.79356 0,0.82958 -0.1343,1.68148 -0.53778,3.45266 -0.0672,0.26916 -0.0672,0.26916 -0.2468,1.09852 -2.69034,-0.179 -3.87857,-0.40348 -4.97715,-1.03126 -0.89678,-0.5154 -1.34514,-1.00894 -2.01774,-2.21954 l -0.89644,0.56096 c 0.29156,1.12102 0.56074,1.6591 1.16579,2.42134 0.85195,0.94162 1.70391,1.50212 3.34056,2.08502 -2.75761,1.56938 -3.78892,2.84726 -3.78892,4.77534 0,2.48856 1.63664,4.25974 4.86506,5.1789 -0.0671,0.96404 -0.11192,1.816 -0.11192,2.1299 0,1.81594 0.53778,3.6095 1.47973,4.7753 1.23305,1.5694 3.22841,2.354 6.00841,2.354 2.04018,0 4.23728,-0.5378 5.62731,-1.3676 2.26436,-1.3676 3.56468,-3.54216 3.56468,-6.00834 0,-1.59176 -0.35871,-2.9594 -1.07614,-4.25972 -1.05369,-1.95048 -2.48854,-3.20596 -5.94114,-5.2686 z m -7.21907,-2.5558 c -0.71743,3.43014 -0.78469,3.85612 -1.32276,6.86036 -2.64552,-0.60534 -3.83375,-1.52456 -3.83375,-2.89214 0,-1.18824 0.78469,-2.3989 2.28681,-3.43016 0.76225,-0.5154 1.1434,-0.65016 1.74873,-0.65016 z m -1.36759,50.2197 c 12.98092,-0.8968 19.6171,-5.0668 19.6171,-12.3308 0,-5.1564 -4.05798,-8.7436 -9.93186,-8.7436 -3.18359,0 -7.10698,0.9866 -10.73899,2.6904 -2.73517,1.3004 -4.23729,1.816 -5.29098,1.816 -1.03132,0 -1.74874,-0.5378 -2.73517,-2.1522 l -0.40348,1.233 c 0,0.8968 0.53778,1.973 1.43485,2.937 1.03131,1.121 2.08501,1.771 2.82487,1.771 l 1.54694,-0.6724 c 2.17472,-1.7488 3.13877,-2.3766 5.24616,-3.4976 3.09394,-1.659 5.91876,-2.5782 7.86929,-2.5782 2.15228,0 3.60951,0.493 4.84262,1.659 1.27788,1.2332 1.95048,2.937 1.95048,4.9996 0,6.0308 -5.76178,10.1786 -16.32142,11.7478 z m -3.09394,11.0752 c 0.71743,1.0538 1.09858,1.5022 1.70392,1.973 0.98643,0.7846 2.15227,1.1434 3.72165,1.1434 1.77113,0 7.68988,-0.6278 9.90942,-1.0312 1.43485,-0.2692 1.9281,-0.6054 1.9281,-1.3228 0,-0.9416 -1.2555,-1.704 -2.82488,-1.704 l -1.59176,0.4706 c -1.45729,0.852 -4.61844,1.3902 -7.82447,1.3902 -1.9953,0 -3.11627,-0.4484 -4.10275,-1.5694 z m 1.59183,25.760201 c 2.80243,-1.7488 5.02197,-3.9234 6.72583,-6.5914 0.96405,-1.4796 1.6142,-2.8696 2.71278,-5.874 l 0.40348,-0.9416 0.33633,-1.1208 c 0,-0.6504 -0.62777,-1.3228 -2.17471,-2.1748 2.75761,-0.2468 4.50634,-0.314 6.32229,-0.314 1.18823,0 2.06263,0.024 2.8697,0.134 1.43485,0.18 1.86083,0.202 2.44372,0.202 0.71743,0 1.14341,-0.3364 1.14341,-0.9866 l -0.82952,-1.3226 c -0.78469,-0.5608 -1.88321,-0.9642 -2.62308,-0.9642 l -1.03131,0.134 c -0.78469,0.381 -0.96405,0.4034 -2.44372,0.5828 -7.06216,0.8968 -7.06216,0.8968 -11.14253,1.435 -3.81131,0.5154 -4.14758,0.5378 -5.15645,0.5378 -1.68148,0 -2.44373,-0.5154 -3.04906,-1.9954 l -0.65016,1.5918 c 0,0.6052 0.5154,1.3676 1.54694,2.2868 0.67254,0.6502 1.45723,1.0312 2.04019,1.0312 l 1.23305,-0.3362 c 0.58289,-0.314 0.58289,-0.314 2.04018,-0.7174 1.77113,-0.493 2.21954,-0.5608 5.13407,-1.009 0.53778,0.2244 0.78469,0.695 0.78469,1.5918 0,1.1434 -0.3811,2.9594 -0.96405,4.5736 -1.18822,3.3854 -3.8113,7.1968 -6.38956,9.349" style="fill:#000000"/>
  <path d="m 35.918157,117.3845 15.06593,0 0.336328,-0.202 -0.15668,-0.314 c -1.614206,-1.39 -2.129834,-1.8158 -3.811306,-3.1162 -1.031314,1.233 -1.3452,1.6142 -2.376456,2.892 l -20.37941,0 c -1.883212,0 -3.161148,-0.112 -4.483906,-0.381 l 0.202026,1.3226 c 1.43485,-0.134 2.690344,-0.202 4.28211,-0.202 l 8.452186,0 0,16.3214 c 0,1.0314 -0.06716,7.6226 -0.08954,10.739 0,0.493 0.15668,0.6054 0.8519,0.6054 0.717424,0 1.569382,-0.112 1.838444,-0.202 l 0.40348,-0.5378 c -0.06716,-2.242 -0.06716,-2.242 -0.1343,-10.6492 l 0,-10.4476 c 1.546942,0.9416 2.219542,1.4796 3.85619,3.0042 2.062568,1.9504 3.564684,3.6544 4.483906,5.1788 l 0.605278,0.426 c 0.6726,0 1.143404,-1.121 1.143404,-2.6456 0,-1.502 -0.560166,-2.1746 -2.712728,-3.3628 -2.600696,-1.4574 -3.878574,-2.0178 -7.37605,-3.206" style="fill:#000000"/>
</svg>
