<?xml version="1.0" encoding="UTF-8"?>
<svg xmlns="http://www.w3.org/2000/svg" xmlns:xlink="http://www.w3.org/1999/xlink" version="1.1" width="575.16846" height="188.59464">
 <defs>
  <linearGradient id="a">
   <stop stop-color="#42ff42" offset="0"/>
   <stop stop-color="#00bd00" offset="1"/>
  </linearGradient>
  <linearGradient id="o" x1="-23.971" x2="148.23" y1="654.33" y2="825.21" gradientTransform="matrix(-.12045 .25073 .25071 .12044 53.404 -14.898)" gradientUnits="userSpaceOnUse" xlink:href="#a"/>
  <linearGradient id="n" x1="-23.971" x2="148.23" y1="654.33" y2="825.21" gradientTransform="matrix(-.33154 -.12627 -.12627 .33153 280.56 -139.05)" gradientUnits="userSpaceOnUse" xlink:href="#a"/>
  <linearGradient id="m" x1="-23.971" x2="148.23" y1="654.33" y2="825.21" gradientTransform="matrix(-.1384 -.040882 -.04088 .13839 521.36 16.466)" gradientUnits="userSpaceOnUse" xlink:href="#a"/>
  <linearGradient id="l" x1="-23.971" x2="148.23" y1="654.33" y2="825.21" gradientTransform="matrix(.091248 -.1842 .18419 .091243 311.85 53.816)" gradientUnits="userSpaceOnUse" xlink:href="#a"/>
  <linearGradient id="k" x1="-23.971" x2="148.23" y1="654.33" y2="825.21" gradientTransform="matrix(-.14232 .29216 .29214 .14231 123.98 -20.021)" gradientUnits="userSpaceOnUse" xlink:href="#a"/>
  <linearGradient id="j" x1="-23.971" x2="148.23" y1="654.33" y2="825.21" gradientTransform="matrix(.31835 .23411 .2341 -.31833 -29.888 341.63)" gradientUnits="userSpaceOnUse" xlink:href="#a"/>
  <linearGradient id="i" x1="-23.971" x2="148.23" y1="654.33" y2="825.21" gradientTransform="matrix(-.20321 -.19717 -.19716 .2032 249.85 -37.011)" gradientUnits="userSpaceOnUse" xlink:href="#a"/>
  <linearGradient id="h" x1="-23.971" x2="148.23" y1="654.33" y2="825.21" gradientTransform="matrix(.020009 -.38811 -.38809 -.020008 556.98 142.19)" gradientUnits="userSpaceOnUse" xlink:href="#a"/>
  <linearGradient id="g" x1="-23.971" x2="148.23" y1="654.33" y2="825.21" gradientTransform="matrix(.2968 -.045413 -.045411 -.29679 413.56 312.07)" gradientUnits="userSpaceOnUse" xlink:href="#a"/>
  <linearGradient id="f" x1="-23.971" x2="148.23" y1="654.33" y2="825.21" gradientTransform="matrix(.63977 0 0 .63974 18.671 -297.79)" gradientUnits="userSpaceOnUse" xlink:href="#a"/>
  <linearGradient id="e" x1="-23.971" x2="148.23" y1="654.33" y2="825.21" gradientTransform="matrix(.065974 .12835 .12834 -.06597 412.63 134.37)" gradientUnits="userSpaceOnUse" xlink:href="#a"/>
  <linearGradient id="d" x1="-23.971" x2="148.23" y1="654.33" y2="825.21" gradientTransform="matrix(.076416 -.12242 -.12241 -.076412 621.22 178.88)" gradientUnits="userSpaceOnUse" xlink:href="#a"/>
  <linearGradient id="c" x1="-23.971" x2="148.23" y1="654.33" y2="825.21" gradientTransform="matrix(.037683 -.060369 -.060366 -.037681 607.19 145.36)" gradientUnits="userSpaceOnUse" xlink:href="#a"/>
  <linearGradient id="b" x1="-23.971" x2="148.23" y1="654.33" y2="825.21" gradientTransform="matrix(-.13935 -.23347 -.23345 .13934 543.25 36.409)" gradientUnits="userSpaceOnUse" xlink:href="#a"/>
 </defs>
 <g transform="translate(0 -45.737)" stroke="#008000" stroke-linecap="round">
  <path d="m193.59 77.243c0.30583-0.64107 0.62947-1.2747 0.95456-1.9015 1.6007-2.7023 3.3646-5.9511 6.6651-6.7374 3.4438-0.7771 7.3158 2.1062 7.1439 5.7332 0.15704 0.8396-0.53961 2.2398 0.6335 2.4941 0.49768 0.23908 0.99535 0.47815 1.493 0.71724l9.686-20.163 14.019 6.7346-1.203 2.5043c-0.4575 0.95234-5.564 0.63234-6.8472 3.3035-1.2832 2.6712 0.48092 7.0646 6.9681 10.181s11.334 4.2705 13.534-0.30866c2.1998-4.5792-2.5836-6.7206-2.1261-7.6729l1.1893-2.4756 18.341 8.8107-9.9816 20.778-2.6855-1.2901c-0.95236-0.45751 1.4433-5.1187-3.1358-7.3185-4.5792-2.1998-7.6413 1.7303-10.758 8.2175-3.1164 6.4872-1.7477 11.019 0.92352 12.303 2.6712 1.2832 6.4598-2.1629 7.4121-1.7054l2.7141 1.3038-5.5659 11.586-17.763-8.5334c-0.37255 0.79809-0.75912 1.5885-1.1005 2.4008 1.5456 1.7705 3.2698 4.0517 2.4466 6.5412-0.64354 2.8911-3.5968 5.2004-6.5997 4.5848-3.9141-0.40158-7.5121-2.2516-10.866-4.1927-2.7488-1.8274-5.4702-4.7311-5.0801-8.2819 0.075-0.65644 0.34112-1.2724 0.67629-1.8356 1.5624-2.0221 4.313-2.0434 6.5225-2.8842 0.4355-0.81094 0.83039-1.639 1.2368-2.4646l-13.346-6.4115 5.252-10.933c-0.76329-0.35414-1.5147-0.73356-2.2822-1.0787-2.3276 0.71195-4.6813 2.6512-7.2114 1.6785-2.891-1.2249-3.6289-4.8195-3.2262-7.6437 0.27987-2.1218 1.0509-4.1174 1.9684-6.0406z" display="block" fill="url(#o)" opacity=".73898" stroke-width="2.1273"/>
  <path d="m135.63 170.16c-0.81454-0.5956-1.614-1.2141-2.4035-1.8329-3.3516-2.9456-7.4231-6.2628-7.6525-11.077-0.17893-5.0122 4.8649-9.6593 9.8834-8.4652 1.2134 2e-3 2.985 1.3426 3.6487-0.22831 0.4647-0.63189 0.92939-1.2638 1.3941-1.8957l-25.601-18.827 13.09-17.8 3.1796 2.3383c1.2092 0.88923-0.58091 7.9341 2.8107 10.428 3.3916 2.4942 9.9893 1.1871 16.047-7.0497 6.0573-8.2368 8.9436-14.7 3.1294-18.975-5.8142-4.2757-10.062 1.8389-11.271 0.94963l-3.1433-2.3116 17.125-23.287 26.382 19.401-2.5076 3.4098c-0.88925 1.2092-6.7664-3.3616-11.042 2.4526-4.2757 5.8142 0.40541 11.123 8.6422 17.18 8.2368 6.0573 14.924 5.3388 17.418 1.9472 2.4942-3.3916-1.3201-9.5874-0.43089-10.797l2.5343-3.4461 14.711 10.819-16.586 22.554c1.0162 0.73006 2.018 1.4777 3.0622 2.168 2.8784-1.692 6.5167-3.499 9.7757-1.6949 3.867 1.659 6.314 6.3895 4.6646 10.42-1.5903 5.3588-5.1196 9.8951-8.712 14.067-3.2743 3.3569-8.044 6.3922-12.899 4.9135-0.8967-0.27742-1.6866-0.81096-2.3847-1.4271-2.4119-2.7132-1.7182-6.5588-2.3107-9.8646-1.0176-0.82133-2.0698-1.5905-3.1153-2.375l-12.462 16.946-13.881-10.208c-0.69517 0.97246-1.4225 1.9216-2.1063 2.9023 0.38162 3.4368 2.4697 7.2329 0.44626 10.509-2.4706 3.7138-7.6831 3.7983-11.52 2.4932-2.8886-0.94888-5.4717-2.5503-7.9154-4.3372z" display="block" fill="url(#j)" opacity=".9322" stroke-width="3.0221"/>
  <path d="m287.17 88.524c0.3614-0.74702 0.74355-1.4852 1.1274-2.2154 1.8873-3.147 3.9688-6.9313 7.8299-7.8288 4.0283-0.88589 8.5336 2.5073 8.3097 6.7438 0.17811 0.9819-0.64474 2.6133 0.7242 2.918 0.57993 0.2825 1.1598 0.56498 1.7397 0.84748l11.445-23.494 16.336 7.9576-1.4215 2.918c-0.54058 1.1097-6.5045 0.70325-8.0207 3.8158-1.5162 3.1126 0.51678 8.2567 8.0759 11.939 7.5591 3.6823 13.214 5.0616 15.813-0.27421 2.5993-5.3359-2.9755-7.8682-2.4349-8.9779l1.4052-2.8847 21.371 10.411-11.794 24.211-3.1292-1.5244c-1.1097-0.54058 1.7189-5.971-3.6169-8.5703-5.3358-2.5993-8.9385 1.9727-12.621 9.5319-3.6823 7.5591-2.1122 12.863 1.0004 14.379 3.1126 1.5162 7.5608-2.4856 8.6705-1.9451l3.1626 1.5406-6.5767 13.501-20.699-10.083c-0.44035 0.93004-0.89703 1.851-1.3011 2.7979 1.7944 2.0784 3.7942 4.7546 2.8167 7.6578-0.77032 3.3736-4.2354 6.0528-7.7398 5.3144-4.5703-0.49414-8.7621-2.6785-12.668-4.9678-3.1998-2.1525-6.3606-5.5623-5.8822-9.7082 0.0918-0.76645 0.40665-1.4844 0.80185-2.1402 1.8383-2.3524 5.0519-2.3598 7.6387-3.328 0.51397-0.94462 0.98062-1.9096 1.4607-2.8714l-15.552-7.5758 6.2058-12.739c-0.88949-0.41859-1.7649-0.86666-2.6594-1.2748-2.7239 0.8169-5.4861 3.0675-8.4358 1.915-3.3697-1.4496-4.2089-5.6539-3.7204-8.9508 0.34052-2.4771 1.2541-4.8037 2.3383-7.0447z" display="block" fill="url(#k)" opacity=".82373" stroke-width="2.4854"/>
  <path d="m429.28 93.553c-0.23427 0.46973-0.45614 0.94646-0.67332 1.4209-0.8459 2.1615-1.9358 4.6667-0.89243 6.9468 1.1139 2.3593 4.5545 3.303 6.5889 1.5531 0.56045-0.29042 1.0591-1.3331 1.7409-0.76552 0.36563 0.18113 0.73126 0.36224 1.0969 0.54336l-7.3379 14.813 10.299 5.102 0.9114-1.8398c0.34659-0.69966-2.1626-3.5284-1.1905-5.4909 0.97215-1.9624 4.3336-2.9334 9.0996-0.57246 4.766 2.3609 7.6429 4.6589 5.9763 8.0231-1.6665 3.3642-5.0896 1.5522-5.4362 2.2519l-0.90097 1.8188 13.474 6.6748 7.5619-15.265-1.973-0.97735c-0.69967-0.34661-2.3249 3.169-5.6891 1.5025-3.3642-1.6665-2.468-5.2378-0.1071-10.004s5.6233-6.0304 7.5858-5.0582c1.9625 0.97214 1.6786 4.7463 2.3783 5.0929l1.994 0.98779 4.2166-8.5122-13.05-6.4647c0.29538-0.58002 0.57992-1.1647 0.89778-1.7331 1.7343 0.09487 3.8473 0.06145 4.9229-1.5504 1.3912-1.6899 1.393-4.4605-0.33159-5.9296-2.0143-2.0971-4.7285-3.3512-7.3849-4.422-2.3147-0.76984-5.2438-1.0341-7.1346 0.80828-0.34823 0.34229-0.58595 0.77747-0.76149 1.2289-0.46707 1.8298 0.77164 3.4416 1.287 5.111-0.27422 0.62251-0.57693 1.2292-0.87289 1.8414l-9.8053-4.8572-3.9788 8.0321c-0.55347-0.28352-1.1162-0.54856-1.6664-0.83858-0.64409-1.6796-0.58522-3.9326-2.3026-4.9638-2.0285-1.1266-4.4578 0.07861-5.9196 1.5978-1.1085 1.1282-1.9202 2.485-2.623 3.8942z" display="block" fill="url(#l)" opacity=".55932" stroke-width="1.5721"/>
  <path d="m485.81 95.905c0.3537 0.10344 0.70507 0.21661 1.053 0.33109 1.5168 0.59554 3.327 1.2293 4.0035 2.8544 0.68371 1.6992-0.47163 3.9214-2.3435 4.1344-0.41695 0.1501-1.1918-0.0905-1.2248 0.5314-0.0812 0.27471-0.16231 0.54943-0.24345 0.82414l11.13 3.2876-2.2859 7.7384-1.3823-0.40833c-0.5257-0.15528-0.7855-2.7971-2.26-3.2326-1.4745-0.43556-3.5782 0.83246-4.6359 4.4134-1.0578 3.5809-1.2467 6.1588 1.281 6.9055 2.5277 0.74667 3.2275-1.8808 3.7532-1.7255l1.3665 0.40366-2.9905 10.124-11.469-3.388 0.43788-1.4824c0.15529-0.52569 2.7412 0.31449 3.4879-2.2132 0.74665-2.5277-1.5202-3.7698-5.1011-4.8276-3.5809-1.0578-5.7885 0.0193-6.224 1.4937-0.43555 1.4745 1.6437 3.1288 1.4884 3.6546l-0.44255 1.4982-6.3956-1.8892 2.8964-9.8054c-0.43965-0.12457-0.87652-0.25697-1.3209-0.3644-0.77852 0.93846-1.8038 2.0107-3.147 1.7957-1.5341-0.0897-2.9618-1.4106-2.8957-2.9996-0.1191-2.0379 0.52984-4.034 1.2456-5.913 0.7078-1.5594 1.9691-3.194 3.82-3.2889 0.34241-0.0161 0.67996 0.0691 0.99617 0.19405 1.1652 0.63241 1.4044 2.0393 2.0183 3.1011 0.45144 0.15576 0.9083 0.28928 1.3648 0.42892l2.1762-7.3672 6.0349 1.7826c0.11803-0.42029 0.25-0.83658 0.3631-1.2583-0.55774-1.133-1.7462-2.1775-1.458-3.5539 0.38746-1.5822 2.1672-2.2584 3.647-2.2865 1.1099-0.03271 2.1959 0.1966 3.257 0.5069z" display="block" fill="url(#m)" opacity=".4339" stroke-width="1.1037"/>
  <path d="m178.44 48.971c0.84749 0.32015 1.6874 0.66372 2.5188 1.0099 3.6057 1.7454 7.9234 3.6398 9.2756 7.7506 1.3559 4.2938-1.8945 9.5232-6.5228 9.6927-1.0503 0.28938-2.9044-0.44632-3.1022 1.0719-0.25063 0.65809-0.50126 1.3162-0.7519 1.9742l26.662 10.154-7.0603 18.538-3.3114-1.2612c-1.2593-0.47963-1.3987-7.004-4.9309-8.3492-3.5322-1.3453-8.9274 1.3667-12.194 9.9449-3.2671 8.5782-4.2157 14.862 1.8395 17.168 6.0552 2.3062 8.2653-4.0022 9.5246-3.5226l3.2736 1.2468-9.2367 24.252-27.475-10.464 1.3525-3.5511c0.47963-1.2593 6.66 1.287 8.9662-4.7681 2.3062-6.0552-3.0162-9.5268-11.594-12.794-8.5782-3.2671-14.192-1.0429-15.537 2.4893-1.3453 3.5322 3.4397 7.9788 2.96 9.2381l-1.3669 3.589-15.321-5.8351 8.9461-23.489c-1.0542-0.38815-2.1001-0.79493-3.1691-1.142-2.085 2.1537-4.7999 4.589-8.052 3.809-3.7434-0.50875-6.9942-4.0152-6.5329-7.8977 0.0918-5.0176 2.0584-9.7883 4.1668-14.259 2.0286-3.6891 5.428-7.4583 9.9826-7.3422 0.84232 0.02515 1.6536 0.29748 2.4052 0.66328 2.7371 1.7695 3.0583 5.2631 4.3632 7.9814 1.0772 0.46678 2.1719 0.88012 3.2646 1.3084l6.7216-17.648 14.457 5.506c0.36844-1.008 0.77032-2.0035 1.127-3.0159-1.1538-2.8821-3.8701-5.6662-2.9045-8.9859 1.2477-3.8053 5.7374-5.1275 9.3698-4.9177 2.7266 0.12881 5.3454 0.89538 7.8878 1.8558z" display="block" fill="url(#n)" opacity=".85763" stroke-width="2.7132"/>
  <path d="m410.27 131.01c-0.75758 0.11801-1.5194 0.21563-2.276 0.30778-3.3832 0.21994-7.3528 0.62731-10.064-1.8348-2.7904-2.5954-2.58-7.8022 0.75678-9.8588 0.65249-0.65143 2.3246-0.88366 1.8366-2.084-0.0901-0.58913-0.18029-1.1783-0.27043-1.7674l-23.868 3.652-2.5392-16.595 2.9644-0.45358c1.1274-0.1725 3.9531 4.5729 7.1152 4.0891 3.1621-0.48383 6.0024-4.7324 4.8274-12.412-1.175-7.6793-3.0992-12.701-8.5199-11.872-5.4207 0.82941-4.4148 6.3965-5.5422 6.569l-2.9306 0.4484-3.322-21.711 24.596-3.7635 0.48642 3.179c0.17251 1.1274-5.4406 1.8322-4.6112 7.2529 0.82941 5.4207 6.197 5.7551 13.876 4.5801 7.6793-1.175 10.884-5.1557 10.4-8.3178-0.48383-3.1621-5.8627-4.4387-6.0352-5.5661l-0.49161-3.2129 13.715-2.0986 3.2174 21.028c0.93815-0.15423 1.878-0.2913 2.8098-0.48194 0.63616-2.4559 1.6186-5.3821 4.3384-6.1652 2.9684-1.1879 6.8254 0.03696 8.1062 3.0879 2.0267 3.7326 2.57 8.0658 2.8837 12.237 0.0462 3.5628-0.88341 7.7567-4.2852 9.5723-0.63066 0.33306-1.3417 0.4712-2.0477 0.51557-2.7538-0.1604-4.4484-2.5984-6.5437-4.0552-0.98793 0.10594-1.9664 0.25853-2.9496 0.39932l2.4174 15.799-12.942 1.9802c0.14944 0.8959 0.26908 1.7966 0.42905 2.6908 2.0524 1.6404 5.2144 2.5564 5.889 5.4036 0.66965 3.3224-2.084 6.1698-4.846 7.5315-2.0612 1.0432-4.3093 1.5719-6.582 1.9259z" display="block" fill="url(#g)" opacity=".64407" stroke-width="2.2963"/>
  <path d="m392.51 100.94c0.35745 0.59521 0.69923 1.2009 1.0346 1.8041 1.3387 2.7628 3.0347 5.9536 1.8944 9.0679-1.225 3.2261-5.6644 4.8259-8.5278 2.7286-0.76902-0.32508-1.5343-1.6485-2.3746-0.82958-0.46343 0.2766-0.92683 0.5532-1.3902 0.82979l11.206 18.775-13.054 7.7916-1.3918-2.3318c-0.52931-0.8868 2.4871-4.876 1.0025-7.3633s-6.0173-3.4203-12.058 0.18517c-6.0406 3.6055-9.5967 6.9328-7.0516 11.197 2.545 4.2639 6.8716 1.521 7.4009 2.4078l1.3759 2.3052-17.078 10.194-11.548-19.348 2.5006-1.4926c0.8868-0.5293 3.393 3.9386 7.657 1.3935 4.264-2.545 2.7133-7.1616-0.89222-13.202-3.6055-6.0406-8.038-7.3708-10.525-5.8862s-1.7231 6.432-2.6099 6.9613l-2.5273 1.5085-6.4395-10.789 16.541-9.8727c-0.44941-0.73431-0.88502-1.4759-1.3629-2.1925-2.2771 0.30426-5.0667 0.47848-6.6515-1.5358-2.0091-2.0846-2.2976-5.7378-0.17535-7.8531 2.4395-2.9734 5.8889-4.9075 9.281-6.5938 2.9727-1.2543 6.8078-1.9053 9.4913 0.32876 0.49452 0.41538 0.85296 0.96464 1.1311 1.5417 0.80492 2.3646-0.66196 4.6179-1.169 6.8724 0.42589 0.79253 0.88772 1.5612 1.3412 2.3379l12.428-7.4178 6.0763 10.18c0.70051-0.43101 1.4152-0.83863 2.1107-1.2779 0.67579-2.2812 0.36541-5.246 2.5234-6.7832 2.5584-1.6952 5.8863-0.35687 7.9708 1.4954 1.5783 1.3731 2.7887 3.0784 3.861 4.864z" display="block" fill="url(#b)" opacity=".62034" stroke-width="2.0794"/>
  <path d="m326.61 99.044c-0.0484 0.9912-0.12379 1.9824-0.20472 2.9655-0.60549 4.3462-1.1267 9.4847-4.9565 12.278-4.0193 2.8589-10.565 1.2312-12.3-3.5362-0.65522-0.9974-0.51256-3.1778-2.1617-2.8729-0.77038-0.0398-1.5407-0.0795-2.3111-0.11916l-1.6091 31.211-21.7-1.1188 0.19985-3.8764c0.0759-1.4742 6.83-3.8159 7.0432-7.9507 0.21318-4.1348-4.4301-8.8458-14.472-9.3635-10.042-0.5177-16.911 0.60881-17.276 7.6971-0.36544 7.0883 6.9545 7.2683 6.8785 8.7425l-0.19756 3.8321-28.39-1.4637 1.6582-32.163 4.157 0.21431c1.4742 0.076 0.9005 7.3756 7.9888 7.7411 7.0883 0.36544 8.9152-6.3514 9.4329-16.393 0.51769-10.042-3.6908-15.145-7.8256-15.358s-7.1591 6.2716-8.6333 6.1956l-4.2013-0.2166 0.92464-17.935 27.497 1.4176c0.0497-1.2295 0.12163-2.4568 0.12351-3.6878-2.947-1.4483-6.3995-3.4585-6.6813-7.111-0.72991-4.0733 1.8308-8.6425 6.0332-9.4687 5.2612-1.5935 10.896-1.1496 16.266-0.45696 4.5284 0.87264 9.6018 3.1473 11.014 7.9341 0.25735 0.88651 0.24662 1.8239 0.11834 2.7305-0.92311 3.4488-4.4566 4.9598-6.8509 7.2351-0.12392 1.28-0.18625 2.5603-0.26478 3.8434l20.659 1.0651-0.87248 16.923c1.1748 0.04474 2.3478 0.1285 3.5231 0.15944 2.6159-2.1729 4.6036-5.9418 8.389-6.0527 4.3867 0.01952 7.2764 4.2544 8.2806 8.1115 0.78365 2.8856 0.86621 5.8735 0.721 8.847z" display="block" fill="url(#h)" opacity=".74576" stroke-width="2.9721"/>
  <path d="m115.66 68.606c0.52026 0.50207 1.0276 1.019 1.5279 1.535 2.0926 2.4172 4.6602 5.1682 4.3545 8.6084-0.36071 3.5755-4.3935 6.3836-7.8398 5.0476-0.86126-0.11923-1.9884-1.2435-2.6124-0.19297-0.39137 0.40336-0.78274 0.80671-1.1741 1.2101l16.342 15.856-11.025 11.362-2.0296-1.9693c-0.77187-0.74893 1.1844-5.5758-0.98052-7.6764s-6.9758-1.8148-12.077 3.443c-5.1015 5.2578-7.7794 9.5647-4.068 13.166 3.7114 3.6011 7.3219-0.32625 8.0938 0.42267l2.0065 1.9468-14.423 14.865-16.84-16.34 2.1119-2.1766c0.74894-0.77187 4.4763 3.0448 8.0774-0.66657 3.6011-3.7114 0.79458-7.9356-4.4632-13.037-5.2578-5.1015-10.075-5.2422-12.176-3.0772-2.1006 2.165 0.0043 6.9344-0.74471 7.7063l-2.1344 2.1998-9.3905-9.1115 13.969-14.397c-0.65034-0.61715-1.2888-1.2454-1.9629-1.837-2.208 0.92104-4.9666 1.8497-7.1046 0.2519-2.5837-1.554-3.8605-5.1502-2.2974-7.8509 1.6504-3.6494 4.5973-6.5263 7.5534-9.1385 2.651-2.0644 6.3323-3.755 9.6346-2.2329 0.60957 0.28419 1.1184 0.73981 1.554 1.2451 1.4482 2.1608 0.58148 4.8232 0.68042 7.2277 0.64243 0.68207 1.3145 1.3305 1.9804 1.9891l10.496-10.817 8.8609 8.5976c0.58812-0.6227 1.1968-1.2257 1.7777-1.8553 0.0635-2.4769-1.0494-5.3749 0.70586-7.5038 2.1153-2.396 5.8238-1.9488 8.4205-0.6489 1.9582 0.9547 3.6362 2.3429 5.197 3.8492z" display="block" fill="url(#i)" opacity=".88475" stroke-width="2.1654"/>
  <path d="m70.083 84.61c-1.6337-0.0045-3.2697 0.03547-4.8929 0.08521-7.1967 0.62709-15.689 1.0484-20.606 7.1081-5.0409 6.3657-2.9196 17.265 4.7712 20.521 1.5842 1.1618 5.181 1.112 4.5399 3.7975v3.8096h-51.449v35.772h6.39c2.4301-2e-5 6.8525-10.906 13.668-10.906 6.816 0 14.168 8.0331 14.168 24.586s-2.4343 27.751-14.119 27.751c-11.685 0-11.36-12.05-13.79-12.05h-6.317v46.799h53.019v-6.8525c0-2.4301-12.05-2.1057-12.05-13.79 0-11.685 11.198-14.119 27.751-14.119 16.553 0 24.586 7.3515 24.586 14.168 0 6.816-10.918 11.238-10.918 13.668v6.9255h29.564v-45.326c2.0256 0.0225 4.0494 9e-3 6.0735 0.10954 2.1314 4.9677 5.1436 10.814 11.125 11.587 6.6349 1.5452 14.364-2.2775 16.078-9.1164 3.0658-8.5148 2.8136-17.817 2.13-26.704-1.0508-7.519-4.3605-16.053-12.111-18.78-1.4356-0.49824-2.9777-0.56003-4.4791-0.42599-5.7483 1.2253-8.532 6.9066-12.476 10.65-2.115 0.0953-4.2251 0.0892-6.3413 0.10955v-34.056h-27.897c0.02604-1.9352-0.01225-3.8708 0.03651-5.8058 3.7942-4.1165 10.159-7.0649 10.662-13.279 0.33972-7.2136-6.3777-12.324-12.634-14.301-4.6776-1.533-9.5829-1.922-14.484-1.9353z" display="block" fill="url(#f)" stroke-width="4.8928"/>
  <path d="m494.65 105.25c-0.16936-0.32729-0.33006-0.65962-0.48747-0.9904-0.61633-1.5085-1.4075-3.2556-0.6989-4.8669 0.75726-1.6677 3.1625-2.3661 4.6089-1.1589 0.39644 0.19802 0.75736 0.92472 1.23 0.51918 0.25476-0.13094 0.50953-0.2619 0.76429-0.39284l-5.3054-10.321 7.1764-3.6888 0.65894 1.2819c0.25059 0.48752-1.4812 2.4993-0.77836 3.8667 0.70286 1.3674 3.0726 2.0139 6.3934 0.30691 3.3208-1.707 5.3163-3.35 4.1114-5.6942-1.2049-2.3441-3.5888-1.0365-3.8394-1.524l-0.65142-1.2673 9.3887-4.8259 5.4673 10.636-1.3747 0.70664c-0.48752 0.25059-1.665-2.2002-4.0091-0.99533-2.3441 1.2049-1.6778 3.7024 0.0292 7.0232 1.707 3.3209 4.0102 4.1743 5.3776 3.4715 1.3674-0.70287 1.1288-3.3492 1.6163-3.5998l1.3894-0.71417 3.0487 5.9311-9.0933 4.6741c0.2134 0.40406 0.41923 0.81152 0.64828 1.2072 1.2164-0.0847 2.6999-0.0833 3.4718 1.0369 0.99421 1.1717 1.0243 3.1165-0.17089 4.1657-1.3921 1.4931-3.2842 2.4017-5.1377 3.181-1.6168 0.56454-3.6701 0.78057-5.0165-0.49294-0.24801-0.23664-0.41943-0.53964-0.54735-0.85466-0.34695-1.2796 0.50575-2.4239 0.85008-3.6011-0.19898-0.43413-0.4178-0.85683-0.63194-1.2835l-6.8322 3.5118-2.8767-5.5966c-0.38554 0.20477-0.77781 0.39669-1.161 0.60602-0.43458 1.1857-0.36977 2.7666-1.5645 3.5083-1.4121 0.81202-3.13-9e-3 -4.1719-1.0598-0.78989-0.78034-1.3738-1.7243-1.8818-2.7062z" display="block" fill="url(#e)" opacity=".44407" stroke-width="1.1037"/>
  <path d="m554.18 123.36c-0.19428 0.31314-0.39733 0.62143-0.60073 0.92609-0.97958 1.3022-2.0745 2.8769-3.8214 3.094-1.8202 0.20425-3.6524-1.5034-3.3568-3.364-0.0331-0.44191 0.40605-1.1242-0.1844-1.3223-0.24298-0.15168-0.48599-0.30337-0.72897-0.45504l-6.1451 9.8447-6.8449-4.2727 0.76324-1.2227c0.29025-0.46499 2.9052-9e-3 3.7194-1.3129 0.81411-1.3042 0.15505-3.6704-3.0124-5.6476-3.1674-1.9772-5.6009-2.8488-6.9965-0.61298-1.3956 2.2358 0.94882 3.613 0.65857 4.078l-0.7545 1.2088-8.955-5.5898 6.3327-10.145 1.3112 0.81847c0.46499 0.29025-1.0363 2.5572 1.1995 3.9528 2.2358 1.3956 4.0391-0.45629 6.0163-3.6237 1.9771-3.1674 1.5299-5.5826 0.22568-6.3968-1.3042-0.81411-3.4545 0.74678-3.9195 0.45651l-1.3252-0.8272 3.5312-5.6571 8.6732 5.4139c0.23765-0.39029 0.48208-0.77584 0.70448-1.1752-0.696-1.0012-1.455-2.2759-0.88846-3.5127 0.49681-1.4542 2.1514-2.4765 3.6649-1.9877 1.9955 0.43039 3.7453 1.5897 5.3642 2.782 1.3132 1.0992 2.5509 2.7518 2.1471 4.5605-0.0762 0.33424-0.2485 0.6367-0.45347 0.90796-0.92107 0.9536-2.3407 0.80767-3.528 1.1152-0.27084 0.39332-0.52172 0.79781-0.77838 1.2003l6.5165 4.0677-3.3321 5.3381c0.3734 0.22616 0.73921 0.46468 1.1153 0.68647 1.2409-0.23434 2.5653-1.1 3.8144-0.45412 1.4209 0.79659 1.5963 2.6923 1.2276 4.1257-0.26539 1.0782-0.77685 2.0633-1.3597 3.0026z" display="block" fill="url(#d)" opacity=".27119" stroke-width="1.1037"/>
  <path d="m574.14 117.99c-0.0958 0.15442-0.19593 0.30645-0.29623 0.45668-0.48306 0.64216-1.023 1.4187-1.8844 1.5257-0.89759 0.10069-1.8011-0.7414-1.6554-1.6589-0.0163-0.21792 0.20023-0.55438-0.091-0.65207-0.11982-0.0748-0.23966-0.1496-0.35947-0.22439l-3.0304 4.8547-3.3754-2.107 0.37638-0.60296c0.14312-0.2293 1.4327-4e-3 1.8341-0.64743 0.40147-0.64314 0.0765-1.81-1.4855-2.785-1.562-0.97499-2.762-1.4048-3.4502-0.30227-0.68823 1.1026 0.46789 1.7817 0.32476 2.011l-0.37207 0.59609-4.416-2.7565 3.1228-5.0029 0.64661 0.40362c0.22931 0.14313-0.51105 1.261 0.59152 1.9493 1.1026 0.68823 1.9918-0.22501 2.9668-1.787 0.97499-1.562 0.75444-2.753 0.11129-3.1544-0.64316-0.40147-1.7035 0.36825-1.9328 0.22512l-0.65349-0.40792 1.7414-2.7897 4.277 2.6698c0.11719-0.19246 0.23773-0.38259 0.3474-0.57955-0.34322-0.49372-0.71748-1.1223-0.43813-1.7322 0.24499-0.7171 1.061-1.2212 1.8073-0.98022 0.98404 0.21224 1.8469 0.78392 2.6453 1.3719 0.64761 0.54203 1.2579 1.357 1.0588 2.2489-0.0376 0.16483-0.12254 0.31398-0.22362 0.44774-0.45421 0.47025-1.1543 0.39828-1.7398 0.54992-0.13356 0.19396-0.25727 0.39343-0.38384 0.59193l3.2135 2.0059-1.6432 2.6324c0.18414 0.11153 0.36454 0.22915 0.54999 0.33851 0.61192-0.11555 1.265-0.54245 1.881-0.22393 0.70068 0.39282 0.7872 1.3277 0.60534 2.0345-0.13086 0.53168-0.38308 1.0174-0.6705 1.4807z" display="block" fill="url(#c)" opacity=".10508" stroke-width=".54425"/>
 </g>
</svg>
