<?xml version="1.0" encoding="UTF-8" standalone="no"?>
<!DOCTYPE svg PUBLIC "-//W3C//DTD SVG 1.1//EN"
 "http://www.w3.org/Graphics/SVG/1.1/DTD/svg11.dtd">
<!-- Generated by graphviz version 2.38.0 (20140413.2041)
 -->
<!-- Title: G Pages: 1 -->
<svg width="572pt" height="678pt"
 viewBox="0.00 0.00 572.00 678.00" xmlns="http://www.w3.org/2000/svg" xmlns:xlink="http://www.w3.org/1999/xlink">
<g id="graph0" class="graph" transform="scale(1 1) rotate(0) translate(4 674)">
<title>G</title>
<polygon fill="white" stroke="none" points="-4,4 -4,-674 568,-674 568,4 -4,4"/>
<g id="clust1" class="cluster"><title>cluster_Alice1</title>
<polygon fill="pink" stroke="pink" points="224,-515 224,-662 549,-662 549,-515 224,-515"/>
<text text-anchor="middle" x="386.5" y="-646.8" font-family="Times,serif" font-size="14.00">Sender Client</text>
</g>
<g id="clust2" class="cluster"><title>cluster_Server</title>
<polygon fill="orange" stroke="orange" points="110,-329 110,-507 556,-507 556,-329 110,-329"/>
<text text-anchor="middle" x="333" y="-491.8" font-family="Times,serif" font-size="14.00">Server</text>
</g>
<g id="clust3" class="cluster"><title>cluster_Storage</title>
<polygon fill="none" stroke="blue" stroke-dasharray="5,2" points="118,-401 118,-476 548,-476 548,-401 118,-401"/>
<text text-anchor="middle" x="333" y="-460.8" font-family="Times,serif" font-size="14.00">Storage</text>
</g>
<g id="clust4" class="cluster"><title>cluster_Alice2</title>
<polygon fill="pink" stroke="pink" points="8,-246 8,-321 341,-321 341,-246 8,-246"/>
<text text-anchor="middle" x="174.5" y="-305.8" font-family="Times,serif" font-size="14.00">Sender Client</text>
</g>
<g id="clust5" class="cluster"><title>cluster_DL</title>
<polygon fill="lightgray" stroke="lightgray" points="154,-163 154,-238 340,-238 340,-163 154,-163"/>
<text text-anchor="middle" x="247" y="-222.8" font-family="Times,serif" font-size="14.00">Download URL</text>
</g>
<g id="clust6" class="cluster"><title>cluster_Bob</title>
<polygon fill="lightblue" stroke="lightblue" points="176,-8 176,-155 546,-155 546,-8 176,-8"/>
<text text-anchor="middle" x="361" y="-139.8" font-family="Times,serif" font-size="14.00">Receiver Client</text>
</g>
<!-- iv -->
<g id="node1" class="node"><title>iv</title>
<polygon fill="white" stroke="white" points="459,-631 405,-631 405,-595 459,-595 459,-631"/>
<text text-anchor="middle" x="432" y="-609.3" font-family="Times,serif" font-size="14.00">iv</text>
</g>
<!-- encrypted -->
<g id="node5" class="node"><title>encrypted</title>
<polygon fill="white" stroke="white" points="541,-559 471,-559 471,-523 541,-523 541,-559"/>
<text text-anchor="middle" x="506" y="-537.3" font-family="Times,serif" font-size="14.00" fill="green">encrypted</text>
</g>
<!-- iv&#45;&gt;encrypted -->
<g id="edge2" class="edge"><title>iv&#45;&gt;encrypted</title>
<path fill="none" stroke="black" d="M450.292,-594.697C459.433,-586.05 470.64,-575.449 480.6,-566.027"/>
<polygon fill="black" stroke="black" points="483.059,-568.519 487.918,-559.104 478.248,-563.434 483.059,-568.519"/>
</g>
<!-- meta_id -->
<g id="node9" class="node"><title>meta_id</title>
<polygon fill="white" stroke="white" points="468,-445 410,-445 410,-409 468,-409 468,-445"/>
<text text-anchor="middle" x="439" y="-423.3" font-family="Times,serif" font-size="14.00">meta.id</text>
</g>
<!-- iv&#45;&gt;meta_id -->
<g id="edge8" class="edge"><title>iv&#45;&gt;meta_id</title>
<path fill="none" stroke="black" d="M432.659,-594.69C433.876,-562.69 436.487,-494.046 437.951,-455.576"/>
<polygon fill="black" stroke="black" points="441.466,-455.256 438.348,-445.13 434.471,-454.99 441.466,-455.256"/>
</g>
<!-- secretKey -->
<g id="node2" class="node"><title>secretKey</title>
<polygon fill="white" stroke="white" points="303.5,-631 232.5,-631 232.5,-595 303.5,-595 303.5,-631"/>
<text text-anchor="middle" x="268" y="-609.3" font-family="Times,serif" font-size="14.00" fill="red">secretKey</text>
</g>
<!-- secretKey&#45;&gt;encrypted -->
<g id="edge1" class="edge"><title>secretKey&#45;&gt;encrypted</title>
<path fill="none" stroke="black" d="M303.911,-597.782C306.636,-596.808 309.355,-595.87 312,-595 362.497,-578.395 421.546,-562.795 461.116,-552.878"/>
<polygon fill="black" stroke="black" points="462.129,-556.232 470.988,-550.42 460.438,-549.44 462.129,-556.232"/>
</g>
<!-- secretKey_alice2 -->
<g id="node14" class="node"><title>secretKey_alice2</title>
<polygon fill="white" stroke="white" points="87.5,-290 16.5,-290 16.5,-254 87.5,-254 87.5,-290"/>
<text text-anchor="middle" x="52" y="-268.3" font-family="Times,serif" font-size="14.00" fill="red">secretKey</text>
</g>
<!-- secretKey&#45;&gt;secretKey_alice2 -->
<g id="edge12" class="edge"><title>secretKey&#45;&gt;secretKey_alice2</title>
<path fill="none" stroke="black" d="M232.218,-596.767C196.912,-579.907 143.995,-549.4 114,-507 68.4981,-442.68 56.39,-347.076 53.1681,-300.5"/>
<polygon fill="black" stroke="black" points="56.6478,-300.056 52.5519,-290.285 49.6605,-300.477 56.6478,-300.056"/>
</g>
<!-- plaintext -->
<g id="node3" class="node"><title>plaintext</title>
<polygon fill="white" stroke="white" points="541,-631 477,-631 477,-595 541,-595 541,-631"/>
<text text-anchor="middle" x="509" y="-609.3" font-family="Times,serif" font-size="14.00" fill="red">plaintext</text>
</g>
<!-- plaintext&#45;&gt;encrypted -->
<g id="edge3" class="edge"><title>plaintext&#45;&gt;encrypted</title>
<path fill="none" stroke="black" d="M508.258,-594.697C507.928,-586.983 507.531,-577.712 507.162,-569.112"/>
<polygon fill="black" stroke="black" points="510.658,-568.945 506.733,-559.104 503.665,-569.245 510.658,-568.945"/>
</g>
<!-- filename -->
<g id="node4" class="node"><title>filename</title>
<polygon fill="white" stroke="white" points="386.5,-631 321.5,-631 321.5,-595 386.5,-595 386.5,-631"/>
<text text-anchor="middle" x="354" y="-609.3" font-family="Times,serif" font-size="14.00">filename</text>
</g>
<!-- meta_filename -->
<g id="node10" class="node"><title>meta_filename</title>
<polygon fill="white" stroke="white" points="391.5,-445 296.5,-445 296.5,-409 391.5,-409 391.5,-445"/>
<text text-anchor="middle" x="344" y="-423.3" font-family="Times,serif" font-size="14.00">meta.filename</text>
</g>
<!-- filename&#45;&gt;meta_filename -->
<g id="edge9" class="edge"><title>filename&#45;&gt;meta_filename</title>
<path fill="none" stroke="black" d="M353.059,-594.69C351.32,-562.69 347.589,-494.046 345.499,-455.576"/>
<polygon fill="black" stroke="black" points="348.969,-454.926 344.931,-445.13 341.979,-455.305 348.969,-454.926"/>
</g>
<!-- file -->
<g id="node8" class="node"><title>file</title>
<polygon fill="white" stroke="white" points="540,-445 486,-445 486,-409 540,-409 540,-445"/>
<text text-anchor="middle" x="513" y="-423.3" font-family="Times,serif" font-size="14.00" fill="green">file</text>
</g>
<!-- encrypted&#45;&gt;file -->
<g id="edge7" class="edge"><title>encrypted&#45;&gt;file</title>
<path fill="none" stroke="black" d="M507.063,-522.99C508.189,-504.981 509.982,-476.293 511.303,-455.152"/>
<polygon fill="black" stroke="black" points="514.796,-455.369 511.927,-445.17 507.81,-454.933 514.796,-455.369"/>
</g>
<!-- url -->
<g id="node6" class="node"><title>url</title>
<polygon fill="white" stroke="white" points="329,-373 275,-373 275,-337 329,-337 329,-373"/>
<text text-anchor="middle" x="302" y="-351.3" font-family="Times,serif" font-size="14.00">url</text>
</g>
<!-- url_alice2 -->
<g id="node12" class="node"><title>url_alice2</title>
<polygon fill="white" stroke="white" points="333,-290 279,-290 279,-254 333,-254 333,-290"/>
<text text-anchor="middle" x="306" y="-268.3" font-family="Times,serif" font-size="14.00">url</text>
</g>
<!-- url&#45;&gt;url_alice2 -->
<g id="edge11" class="edge"><title>url&#45;&gt;url_alice2</title>
<path fill="none" stroke="black" d="M302.848,-336.822C303.373,-326.19 304.059,-312.306 304.657,-300.204"/>
<polygon fill="black" stroke="black" points="308.155,-300.314 305.153,-290.153 301.164,-299.968 308.155,-300.314"/>
</g>
<!-- newId -->
<g id="node7" class="node"><title>newId</title>
<polygon fill="white" stroke="white" points="278,-445 224,-445 224,-409 278,-409 278,-445"/>
<text text-anchor="middle" x="251" y="-423.3" font-family="Times,serif" font-size="14.00">newId</text>
</g>
<!-- newId&#45;&gt;url -->
<g id="edge10" class="edge"><title>newId&#45;&gt;url</title>
<path fill="none" stroke="black" d="M263.607,-408.697C269.597,-400.474 276.876,-390.483 283.479,-381.421"/>
<polygon fill="black" stroke="black" points="286.478,-383.248 289.538,-373.104 280.821,-379.126 286.478,-383.248"/>
</g>
<!-- fileId -->
<g id="node13" class="node"><title>fileId</title>
<polygon fill="white" stroke="white" points="261,-290 207,-290 207,-254 261,-254 261,-290"/>
<text text-anchor="middle" x="234" y="-268.3" font-family="Times,serif" font-size="14.00">fileId</text>
</g>
<!-- newId&#45;&gt;fileId -->
<g id="edge14" class="edge"><title>newId&#45;&gt;fileId</title>
<path fill="none" stroke="black" d="M249.083,-408.746C246.162,-382.461 240.57,-332.13 237.076,-300.688"/>
<polygon fill="black" stroke="black" points="240.519,-299.978 235.936,-290.425 233.562,-300.751 240.519,-299.978"/>
</g>
<!-- data -->
<g id="node20" class="node"><title>data</title>
<polygon fill="white" stroke="white" points="538,-124 484,-124 484,-88 538,-88 538,-124"/>
<text text-anchor="middle" x="511" y="-102.3" font-family="Times,serif" font-size="14.00" fill="green">data</text>
</g>
<!-- file&#45;&gt;data -->
<g id="edge19" class="edge"><title>file&#45;&gt;data</title>
<path fill="none" stroke="black" d="M512.892,-408.849C512.564,-356.489 511.573,-198.391 511.172,-134.365"/>
<polygon fill="black" stroke="black" points="514.671,-134.213 511.108,-124.236 507.671,-134.257 514.671,-134.213"/>
</g>
<!-- iv_bob -->
<g id="node22" class="node"><title>iv_bob</title>
<polygon fill="white" stroke="white" points="466,-124 412,-124 412,-88 466,-88 466,-124"/>
<text text-anchor="middle" x="439" y="-102.3" font-family="Times,serif" font-size="14.00">iv</text>
</g>
<!-- meta_id&#45;&gt;iv_bob -->
<g id="edge20" class="edge"><title>meta_id&#45;&gt;iv_bob</title>
<path fill="none" stroke="black" d="M439,-408.849C439,-356.489 439,-198.391 439,-134.365"/>
<polygon fill="black" stroke="black" points="442.5,-134.236 439,-124.236 435.5,-134.236 442.5,-134.236"/>
</g>
<!-- filename_bob -->
<g id="node23" class="node"><title>filename_bob</title>
<polygon fill="white" stroke="white" points="393.5,-124 328.5,-124 328.5,-88 393.5,-88 393.5,-124"/>
<text text-anchor="middle" x="361" y="-102.3" font-family="Times,serif" font-size="14.00">filename</text>
</g>
<!-- meta_filename&#45;&gt;filename_bob -->
<g id="edge21" class="edge"><title>meta_filename&#45;&gt;filename_bob</title>
<path fill="none" stroke="black" d="M344.99,-408.815C345.583,-398.443 346.347,-384.963 347,-373 351.761,-285.823 357.114,-182.558 359.596,-134.347"/>
<polygon fill="black" stroke="black" points="363.104,-134.284 360.123,-124.117 356.114,-133.924 363.104,-134.284"/>
</g>
<!-- meta_delete -->
<g id="node11" class="node"><title>meta_delete</title>
<polygon fill="white" stroke="white" points="206,-445 126,-445 126,-409 206,-409 206,-445"/>
<text text-anchor="middle" x="166" y="-423.3" font-family="Times,serif" font-size="14.00">meta.delete</text>
</g>
<!-- deleteToken -->
<g id="node15" class="node"><title>deleteToken</title>
<polygon fill="white" stroke="white" points="188.5,-290 105.5,-290 105.5,-254 188.5,-254 188.5,-290"/>
<text text-anchor="middle" x="147" y="-268.3" font-family="Times,serif" font-size="14.00">deleteToken</text>
</g>
<!-- meta_delete&#45;&gt;deleteToken -->
<g id="edge13" class="edge"><title>meta_delete&#45;&gt;deleteToken</title>
<path fill="none" stroke="black" d="M163.857,-408.746C160.593,-382.461 154.343,-332.13 150.438,-300.688"/>
<polygon fill="black" stroke="black" points="153.87,-299.918 149.164,-290.425 146.923,-300.78 153.87,-299.918"/>
</g>
<!-- DL_path -->
<g id="node16" class="node"><title>DL_path</title>
<polygon fill="white" stroke="white" points="332,-207 234,-207 234,-171 332,-171 332,-207"/>
<text text-anchor="middle" x="283" y="-185.3" font-family="Times,serif" font-size="14.00">https://xxx/yyy</text>
</g>
<!-- url_alice2&#45;&gt;DL_path -->
<g id="edge15" class="edge"><title>url_alice2&#45;&gt;DL_path</title>
<path fill="none" stroke="black" d="M301.122,-253.822C298.073,-243.083 294.081,-229.025 290.62,-216.837"/>
<polygon fill="black" stroke="black" points="293.969,-215.817 287.871,-207.153 287.235,-217.729 293.969,-215.817"/>
</g>
<!-- DL_hash -->
<g id="node17" class="node"><title>DL_hash</title>
<polygon fill="white" stroke="white" points="216,-207 162,-207 162,-171 216,-171 216,-207"/>
<text text-anchor="middle" x="189" y="-185.3" font-family="Times,serif" font-size="14.00" fill="red">#zzz</text>
</g>
<!-- secretKey_alice2&#45;&gt;DL_hash -->
<g id="edge17" class="edge"><title>secretKey_alice2&#45;&gt;DL_hash</title>
<path fill="none" stroke="black" d="M81.0542,-253.822C102.04,-241.414 130.52,-224.576 152.957,-211.31"/>
<polygon fill="black" stroke="black" points="155.025,-214.154 161.851,-206.051 151.462,-208.128 155.025,-214.154"/>
</g>
<!-- url_bob -->
<g id="node19" class="node"><title>url_bob</title>
<polygon fill="white" stroke="white" points="310,-124 256,-124 256,-88 310,-88 310,-124"/>
<text text-anchor="middle" x="283" y="-102.3" font-family="Times,serif" font-size="14.00">url</text>
</g>
<!-- DL_path&#45;&gt;url_bob -->
<g id="edge16" class="edge"><title>DL_path&#45;&gt;url_bob</title>
<path fill="none" stroke="black" d="M283,-170.822C283,-160.19 283,-146.306 283,-134.204"/>
<polygon fill="black" stroke="black" points="286.5,-134.153 283,-124.153 279.5,-134.153 286.5,-134.153"/>
</g>
<!-- key -->
<g id="node18" class="node"><title>key</title>
<polygon fill="white" stroke="white" points="238,-124 184,-124 184,-88 238,-88 238,-124"/>
<text text-anchor="middle" x="211" y="-102.3" font-family="Times,serif" font-size="14.00" fill="red">key</text>
</g>
<!-- DL_hash&#45;&gt;key -->
<g id="edge18" class="edge"><title>DL_hash&#45;&gt;key</title>
<path fill="none" stroke="black" d="M193.666,-170.822C196.582,-160.083 200.401,-146.025 203.711,-133.837"/>
<polygon fill="black" stroke="black" points="207.098,-134.721 206.341,-124.153 200.342,-132.886 207.098,-134.721"/>
</g>
<!-- decrypted -->
<g id="node21" class="node"><title>decrypted</title>
<polygon fill="white" stroke="white" points="474,-52 404,-52 404,-16 474,-16 474,-52"/>
<text text-anchor="middle" x="439" y="-30.3" font-family="Times,serif" font-size="14.00" fill="red">decrypted</text>
</g>
<!-- key&#45;&gt;decrypted -->
<g id="edge4" class="edge"><title>key&#45;&gt;decrypted</title>
<path fill="none" stroke="black" d="M238.309,-91.5103C241.214,-90.2542 244.149,-89.0578 247,-88 296.21,-69.743 354.563,-54.5036 393.917,-45.1216"/>
<polygon fill="black" stroke="black" points="394.813,-48.5065 403.744,-42.8066 393.208,-41.693 394.813,-48.5065"/>
</g>
<!-- data&#45;&gt;decrypted -->
<g id="edge6" class="edge"><title>data&#45;&gt;decrypted</title>
<path fill="none" stroke="black" d="M493.202,-87.6966C484.396,-79.135 473.618,-68.6562 463.999,-59.3045"/>
<polygon fill="black" stroke="black" points="466.203,-56.5657 456.593,-52.1043 461.323,-61.5846 466.203,-56.5657"/>
</g>
<!-- iv_bob&#45;&gt;decrypted -->
<g id="edge5" class="edge"><title>iv_bob&#45;&gt;decrypted</title>
<path fill="none" stroke="black" d="M439,-87.6966C439,-79.9827 439,-70.7125 439,-62.1124"/>
<polygon fill="black" stroke="black" points="442.5,-62.1043 439,-52.1043 435.5,-62.1044 442.5,-62.1043"/>
</g>
</g>
</svg>
