<?xml version="1.0" encoding="UTF-8"?>
<svg width="472.33" height="173" version="1.1" viewBox="0 0 472.33331 173.00001" xml:space="preserve" xmlns="http://www.w3.org/2000/svg"><g transform="matrix(1.3333 0 0 -1.3333 -72 827.33)"><g transform="translate(0,-6)"><path d="m54 626.5h777v-512.7h-777z" fill="#fff"/><path d="m81.5 627v-14" fill="none" stroke="#dfdfdf" stroke-miterlimit="10"/><path d="m82 613v-1h-1v1z" fill="#dfdfdf"/><path d="m81 612.5h-28" fill="none" stroke="#dfdfdf" stroke-miterlimit="10"/></g><g transform="translate(0,-6)"><g fill="#e1e1e1"><path d="m79 615h-11l11 11z"/><path d="m79 615v-1h-11v1z"/></g></g><g transform="translate(0,-6)"><g fill="none" stroke-miterlimit="10"><path d="m1702 612.5h-1620" stroke="#bbb"/><path d="m135.5 627v-14" stroke="#dfdfdf"/></g></g><g transform="translate(0,-6)"><text transform="matrix(1 0 0 -1 104.99 615.25)" fill="#000000" font-family="Meiryo" font-size="10px">A</text>
</g><g transform="translate(0,-6)"><path d="m189.5 627v-14" fill="none" stroke="#dfdfdf" stroke-miterlimit="10"/></g><g transform="translate(0,-6)"><text transform="matrix(1 0 0 -1 159.01 615.25)" fill="#000000" font-family="Meiryo" font-size="10px">B</text>
</g><g transform="translate(0,-6)"><path d="m243.5 627v-14" fill="none" stroke="#dfdfdf" stroke-miterlimit="10"/></g><g transform="translate(0,-6)"><text transform="matrix(1 0 0 -1 213.01 615.25)" fill="#000000" font-family="Meiryo" font-size="10px">C</text>
</g><g transform="translate(0,-6)"><path d="m297.5 627v-14" fill="none" stroke="#dfdfdf" stroke-miterlimit="10"/></g><g transform="translate(0,-6)"><text transform="matrix(1 0 0 -1 266.62 615.25)" fill="#000000" font-family="Meiryo" font-size="10px">D</text>
</g><g transform="translate(0,-6)"><path d="m351.5 627v-14" fill="none" stroke="#dfdfdf" stroke-miterlimit="10"/></g><g transform="translate(0,-6)"><text transform="matrix(1 0 0 -1 321.29 615.25)" fill="#000000" font-family="Meiryo" font-size="10px">E</text>
</g><g transform="translate(0,-6)"><path d="m405.5 627v-14" fill="none" stroke="#bfbfbf" stroke-miterlimit="10"/></g><g transform="translate(0,-6)"><text transform="matrix(1 0 0 -1 375.51 615.25)" fill="#000000" font-family="Meiryo" font-size="10px">F</text>
</g><g fill="none" stroke-miterlimit="10"><path d="m81.5 606v-525" stroke="#bbb"/><path d="m81 587.5h-28" stroke="#dfdfdf"/></g><text transform="matrix(1 0 0 -1 63.888 591.79)" fill="#000000" font-family="Meiryo" font-size="10px">1</text>
<path d="m81 568.5h-28" fill="none" stroke="#dfdfdf" stroke-miterlimit="10"/><text transform="matrix(1 0 0 -1 63.888 573.04)" fill="#000000" font-family="Meiryo" font-size="10px">2</text>
<path d="m81 550.5h-28" fill="none" stroke="#dfdfdf" stroke-miterlimit="10"/><text transform="matrix(1 0 0 -1 63.888 554.29)" fill="#000000" font-family="Meiryo" font-size="10px">3</text>
<path d="m81 531.5h-28" fill="none" stroke="#dfdfdf" stroke-miterlimit="10"/><text transform="matrix(1 0 0 -1 63.888 535.54)" fill="#000000" font-family="Meiryo" font-size="10px">4</text>
<path d="m81 512.5h-28" fill="none" stroke="#dfdfdf" stroke-miterlimit="10"/><text transform="matrix(1 0 0 -1 63.888 516.79)" fill="#000000" font-family="Meiryo" font-size="10px">5</text>
<path d="m81 493.5h-28" fill="none" stroke="#bfbfbf" stroke-miterlimit="10"/><text transform="matrix(1 0 0 -1 63.888 498.04)" fill="#000000" font-family="Meiryo" font-size="10px">6</text>
<path d="m81 606.79h54.25v-19h-54.25z" fill="#fff"/><path d="m82 606.5h53" fill="none" stroke="#000" stroke-miterlimit="10"/><path d="m81.5 588v18" fill="none" stroke="#000" stroke-miterlimit="10"/><path d="m81 606v1h1v-1z"/><text transform="matrix(1 0 0 -1 83.5 591.29)" fill="#000000" font-family="Calibri" font-size="10px">H1</text>
<path d="m135 606.79h54.25v-19h-54.25z" fill="#fff"/><path d="m136 606.5h53" fill="none" stroke="#000" stroke-miterlimit="10"/><path d="m135.5 588v18" fill="none" stroke="#000" stroke-miterlimit="10"/><path d="m135 606v1h1v-1z"/><text transform="matrix(1 0 0 -1 137.5 591.29)" fill="#000000" font-family="Calibri" font-size="10px">H2</text>
<path d="m189 606.79h54.25v-19h-54.25z" fill="#fff"/><path d="m190 606.5h53" fill="none" stroke="#000" stroke-miterlimit="10"/><path d="m189.5 588v18" fill="none" stroke="#000" stroke-miterlimit="10"/><path d="m189 606v1h1v-1z"/><text transform="matrix(1 0 0 -1 191.5 591.29)" fill="#000000" font-family="Calibri" font-size="10px">H3</text>
<path d="m243 606.79h54.25v-19h-54.25z" fill="#fff"/><path d="m244 606.5h53" fill="none" stroke="#000" stroke-miterlimit="10"/><path d="m243.5 588v18" fill="none" stroke="#000" stroke-miterlimit="10"/><path d="m243 606v1h1v-1z"/><text transform="matrix(1 0 0 -1 245.5 591.29)" fill="#000000" font-family="Calibri" font-size="10px">H(1)</text>
<path d="m297 606.79h54.25v-19h-54.25z" fill="#fff"/><path d="m298 606.5h53" fill="none" stroke="#000" stroke-miterlimit="10"/><path d="m297.5 588v18" fill="none" stroke="#000" stroke-miterlimit="10"/><path d="m297 606v1h1v-1z"/><text transform="matrix(1 0 0 -1 299.5 591.29)" fill="#000000" font-family="Calibri" font-size="10px">H(2)</text>
<path d="m351 606.79h55v-19.5h-55z" fill="#fff"/><path d="m351.5 587v20" fill="none" stroke="#000" stroke-miterlimit="10"/><g fill="#fff"><path d="m405 606.79h54.75v-19.5h-54.75z"/><path d="m459 606.79h54.75v-19.5h-54.75z"/><path d="m513 606.79h54.75v-19.5h-54.75z"/><path d="m81 588.04h55v-19.75h-55z"/></g><path d="m82 587.5h54" fill="none" stroke="#000" stroke-miterlimit="10"/><path d="m81.5 568v19" fill="none" stroke="#000" stroke-miterlimit="10"/><path d="m81 587v1h1v-1z"/><text transform="matrix(1 0 0 -1 83.5 572.54)" fill="#000000" font-family="Calibri" font-size="10px">1</text>
<path d="m135 588.04h54.75v-19h-54.75z" fill="#fff"/><path d="m135 587.5h55" fill="none" stroke="#000" stroke-miterlimit="10"/><path d="m189 588.04h54v-19h-54z" fill="#fff"/><path d="m189 587.5h54" fill="none" stroke="#000" stroke-miterlimit="10"/><path d="m243 588.04h54.25v-19h-54.25z" fill="#fff"/><path d="m244 587.5h53" fill="none" stroke="#000" stroke-miterlimit="10"/><path d="m243.5 569v18" fill="none" stroke="#000" stroke-miterlimit="10"/><path d="m243 587v1h1v-1z"/><text transform="matrix(1 0 0 -1 245.5 572.54)" fill="#000000" font-family="Calibri" font-size="10px">1(1)</text>
<path d="m297 588.04h54.25v-19h-54.25z" fill="#fff"/><path d="m298 587.5h53" fill="none" stroke="#000" stroke-miterlimit="10"/><path d="m297.5 569v18" fill="none" stroke="#000" stroke-miterlimit="10"/><path d="m297 587v1h1v-1z"/><text transform="matrix(1 0 0 -1 299.5 572.54)" fill="#000000" font-family="Calibri" font-size="10px">1(2)</text>
<path d="m351 588.04h55v-19.5h-55z" fill="#fff"/><path d="m351.5 569v19" fill="none" stroke="#000" stroke-miterlimit="10"/><g fill="#fff"><path d="m405 588.04h54.75v-19.5h-54.75z"/><path d="m459 588.04h54.75v-19.5h-54.75z"/><path d="m513 588.04h54.75v-19.5h-54.75z"/><path d="m81 569.29h54.25v-19.5h-54.25z"/></g><path d="m81.5 550v19" fill="none" stroke="#000" stroke-miterlimit="10"/><path d="m135 569.29h55v-19h-55z" fill="#fff"/><path d="m136 568.5h54" fill="none" stroke="#000" stroke-miterlimit="10"/><path d="m135.5 550v18" fill="none" stroke="#000" stroke-miterlimit="10"/><path d="m135 568v1h1v-1z"/><text transform="matrix(1 0 0 -1 137.5 553.79)" fill="#000000" font-family="Calibri" font-size="10px">1.1</text>
<path d="m189 569.29h54v-19h-54z" fill="#fff"/><path d="m189 568.5h54" fill="none" stroke="#000" stroke-miterlimit="10"/><path d="m243 569.29h54.25v-19h-54.25z" fill="#fff"/><path d="m244 568.5h53" fill="none" stroke="#000" stroke-miterlimit="10"/><path d="m243.5 550v18" fill="none" stroke="#000" stroke-miterlimit="10"/><path d="m243 568v1h1v-1z"/><text transform="matrix(1 0 0 -1 245.5 553.79)" fill="#000000" font-family="Calibri" font-size="10px">1.1(1)</text>
<path d="m297 569.29h54.25v-19h-54.25z" fill="#fff"/><path d="m298 568.5h53" fill="none" stroke="#000" stroke-miterlimit="10"/><path d="m297.5 550v18" fill="none" stroke="#000" stroke-miterlimit="10"/><path d="m297 568v1h1v-1z"/><text transform="matrix(1 0 0 -1 299.5 553.79)" fill="#000000" font-family="Calibri" font-size="10px">1.1(2)</text>
<path d="m351 569.29h55v-19.5h-55z" fill="#fff"/><path d="m351.5 550v19" fill="none" stroke="#000" stroke-miterlimit="10"/><g fill="#fff"><path d="m405 569.29h54.75v-19.5h-54.75z"/><path d="m459 569.29h54.75v-19.5h-54.75z"/><path d="m513 569.29h54.75v-19.5h-54.75z"/><path d="m81 550.54h54.25v-19.5h-54.25z"/></g><path d="m81.5 531v20" fill="none" stroke="#000" stroke-miterlimit="10"/><path d="m135 550.54h55v-19.75h-55z" fill="#fff"/><path d="m136 550.5h54" fill="none" stroke="#000" stroke-miterlimit="10"/><path d="m135.5 531v19" fill="none" stroke="#000" stroke-miterlimit="10"/><path d="m135 550v1h1v-1z"/><text transform="matrix(1 0 0 -1 137.5 535.04)" fill="#000000" font-family="Calibri" font-size="10px">1.2</text>
<path d="m189 550.54h54v-19h-54z" fill="#fff"/><path d="m189 550.5h54" fill="none" stroke="#000" stroke-miterlimit="10"/><path d="m243 550.54h54.25v-19h-54.25z" fill="#fff"/><path d="m244 550.5h53" fill="none" stroke="#000" stroke-miterlimit="10"/><path d="m243.5 532v18" fill="none" stroke="#000" stroke-miterlimit="10"/><path d="m243 550v1h1v-1z"/><text transform="matrix(1 0 0 -1 245.5 535.04)" fill="#000000" font-family="Calibri" font-size="10px">1.2(1)</text>
<path d="m297 550.54h54.25v-19h-54.25z" fill="#fff"/><path d="m298 550.5h53" fill="none" stroke="#000" stroke-miterlimit="10"/><path d="m297.5 532v18" fill="none" stroke="#000" stroke-miterlimit="10"/><path d="m297 550v1h1v-1z"/><text transform="matrix(1 0 0 -1 299.5 535.04)" fill="#000000" font-family="Calibri" font-size="10px">1.2(2)</text>
<path d="m351 550.54h55v-19.5h-55z" fill="#fff"/><path d="m351.5 531v20" fill="none" stroke="#000" stroke-miterlimit="10"/><g fill="#fff"><path d="m405 550.54h54.75v-19.5h-54.75z"/><path d="m459 550.54h54.75v-19.5h-54.75z"/><path d="m513 550.54h54.75v-19.5h-54.75z"/><path d="m81 531.79h54.25v-18.75h-54.25z"/></g><path d="m81.5 513v19" fill="none" stroke="#000" stroke-miterlimit="10"/><path d="m135 531.79h54.25v-18.75h-54.25z" fill="#fff"/><path d="m135.5 513v19" fill="none" stroke="#000" stroke-miterlimit="10"/><path d="m189 531.79h54.25v-19h-54.25z" fill="#fff"/><path d="m190 531.5h53" fill="none" stroke="#000" stroke-miterlimit="10"/><path d="m189.5 513v18" fill="none" stroke="#000" stroke-miterlimit="10"/><path d="m189 531v1h1v-1z"/><text transform="matrix(1 0 0 -1 191.5 516.29)" fill="#000000" font-family="Calibri" font-size="10px">1.2.1</text>
<path d="m243 531.79h54.25v-19h-54.25z" fill="#fff"/><path d="m244 531.5h53" fill="none" stroke="#000" stroke-miterlimit="10"/><path d="m243.5 513v18" fill="none" stroke="#000" stroke-miterlimit="10"/><path d="m243 531v1h1v-1z"/><text transform="matrix(1 0 0 -1 245.5 516.29)" fill="#000000" font-family="Calibri" font-size="10px">1.2.1(1)</text>
<path d="m297 531.79h54.25v-19h-54.25z" fill="#fff"/><path d="m298 531.5h53" fill="none" stroke="#000" stroke-miterlimit="10"/><path d="m297.5 513v18" fill="none" stroke="#000" stroke-miterlimit="10"/><path d="m297 531v1h1v-1z"/><text transform="matrix(1 0 0 -1 299.5 516.29)" fill="#000000" font-family="Calibri" font-size="10px">1.2.1(2)</text>
<path d="m351 531.79h55v-19.5h-55z" fill="#fff"/><path d="m351.5 512v20" fill="none" stroke="#000" stroke-miterlimit="10"/><g fill="#fff"><path d="m405 531.79h54.75v-19.5h-54.75z"/><path d="m459 531.79h54.75v-19.5h-54.75z"/><path d="m513 531.79h54.75v-19.5h-54.75z"/><path d="m81 513.04h54.75v-19.75h-54.75z"/></g><path d="m81 512.5h55" fill="none" stroke="#000" stroke-miterlimit="10"/><path d="m135 513.04h54.75v-19.75h-54.75z" fill="#fff"/><path d="m135 512.5h55" fill="none" stroke="#000" stroke-miterlimit="10"/><path d="m189 513.04h54.75v-19.75h-54.75z" fill="#fff"/><path d="m189 512.5h55" fill="none" stroke="#000" stroke-miterlimit="10"/><path d="m243 513.04h54.75v-19.75h-54.75z" fill="#fff"/><path d="m243 512.5h55" fill="none" stroke="#000" stroke-miterlimit="10"/><path d="m297 513.04h54.75v-19.75h-54.75z" fill="#fff"/><path d="m297 512.5h55" fill="none" stroke="#000" stroke-miterlimit="10"/><g fill="#fff"><path d="m351 513.04h54.75v-19.5h-54.75z"/><path d="m405 513.04h54.75v-19.5h-54.75z"/><path d="m459 513.04h54.75v-19.5h-54.75z"/><path d="m513 513.04h54.75v-19.5h-54.75z"/><path d="m81 494.29h54.75v-19.5h-54.75z"/><path d="m135 494.29h54.75v-19.5h-54.75z"/><path d="m189 494.29h54.75v-19.5h-54.75z"/><path d="m243 494.29h54.75v-19.5h-54.75z"/><path d="m297 494.29h54.75v-19.5h-54.75z"/><path d="m351 494.29h54.75v-19.5h-54.75z"/><path d="m405 494.29h54.75v-19.5h-54.75z"/><path d="m459 494.29h54.75v-19.5h-54.75z"/><path d="m513 494.29h54.75v-19.5h-54.75z"/><path d="m81 475.54h54.75v-19.5h-54.75z"/><path d="m135 475.54h54.75v-19.5h-54.75z"/><path d="m189 475.54h54.75v-19.5h-54.75z"/><path d="m243 475.54h54.75v-19.5h-54.75z"/><path d="m297 475.54h54.75v-19.5h-54.75z"/><path d="m351 475.54h54.75v-19.5h-54.75z"/><path d="m405 475.54h54.75v-19.5h-54.75z"/><path d="m459 475.54h54.75v-19.5h-54.75z"/><path d="m513 475.54h54.75v-19.5h-54.75z"/><path d="m81 456.79h54.75v-19.5h-54.75z"/><path d="m135 456.79h54.75v-19.5h-54.75z"/><path d="m189 456.79h54.75v-19.5h-54.75z"/><path d="m243 456.79h54.75v-19.5h-54.75z"/><path d="m297 456.79h54.75v-19.5h-54.75z"/><path d="m351 456.79h54.75v-19.5h-54.75z"/><path d="m405 456.79h54.75v-19.5h-54.75z"/><path d="m459 456.79h54.75v-19.5h-54.75z"/><path d="m513 456.79h54.75v-19.5h-54.75z"/><path d="m81 438.04h54.75v-19.5h-54.75z"/><path d="m135 438.04h54.75v-19.5h-54.75z"/><path d="m189 438.04h54.75v-19.5h-54.75z"/><path d="m243 438.04h54.75v-19.5h-54.75z"/><path d="m297 438.04h54.75v-19.5h-54.75z"/><path d="m351 438.04h54.75v-19.5h-54.75z"/><path d="m405 438.04h54.75v-19.5h-54.75z"/><path d="m459 438.04h54.75v-19.5h-54.75z"/><path d="m513 438.04h54.75v-19.5h-54.75z"/><path d="m81 419.29h54.75v-19.5h-54.75z"/><path d="m135 419.29h54.75v-19.5h-54.75z"/><path d="m189 419.29h54.75v-19.5h-54.75z"/><path d="m243 419.29h54.75v-19.5h-54.75z"/><path d="m297 419.29h54.75v-19.5h-54.75z"/><path d="m351 419.29h54.75v-19.5h-54.75z"/><path d="m405 419.29h54.75v-19.5h-54.75z"/><path d="m459 419.29h54.75v-19.5h-54.75z"/><path d="m513 419.29h54.75v-19.5h-54.75z"/><path d="m81 400.54h54.75v-19.5h-54.75z"/><path d="m135 400.54h54.75v-19.5h-54.75z"/><path d="m189 400.54h54.75v-19.5h-54.75z"/><path d="m243 400.54h54.75v-19.5h-54.75z"/><path d="m297 400.54h54.75v-19.5h-54.75z"/><path d="m351 400.54h54.75v-19.5h-54.75z"/><path d="m405 400.54h54.75v-19.5h-54.75z"/><path d="m459 400.54h54.75v-19.5h-54.75z"/><path d="m513 400.54h54.75v-19.5h-54.75z"/><path d="m81 381.79h54.75v-19.5h-54.75z"/><path d="m135 381.79h54.75v-19.5h-54.75z"/><path d="m189 381.79h54.75v-19.5h-54.75z"/><path d="m243 381.79h54.75v-19.5h-54.75z"/><path d="m297 381.79h54.75v-19.5h-54.75z"/><path d="m351 381.79h54.75v-19.5h-54.75z"/><path d="m405 381.79h54.75v-19.5h-54.75z"/><path d="m459 381.79h54.75v-19.5h-54.75z"/><path d="m513 381.79h54.75v-19.5h-54.75z"/><path d="m81 363.04h54.75v-19.5h-54.75z"/><path d="m135 363.04h54.75v-19.5h-54.75z"/><path d="m189 363.04h54.75v-19.5h-54.75z"/><path d="m243 363.04h54.75v-19.5h-54.75z"/><path d="m297 363.04h54.75v-19.5h-54.75z"/><path d="m351 363.04h54.75v-19.5h-54.75z"/><path d="m405 363.04h54.75v-19.5h-54.75z"/><path d="m459 363.04h54.75v-19.5h-54.75z"/><path d="m513 363.04h54.75v-19.5h-54.75z"/><path d="m81 344.29h54.75v-19.5h-54.75z"/><path d="m135 344.29h54.75v-19.5h-54.75z"/><path d="m189 344.29h54.75v-19.5h-54.75z"/><path d="m243 344.29h54.75v-19.5h-54.75z"/><path d="m297 344.29h54.75v-19.5h-54.75z"/><path d="m351 344.29h54.75v-19.5h-54.75z"/><path d="m405 344.29h54.75v-19.5h-54.75z"/><path d="m459 344.29h54.75v-19.5h-54.75z"/><path d="m513 344.29h54.75v-19.5h-54.75z"/><path d="m81 325.54h54.75v-19.5h-54.75z"/><path d="m135 325.54h54.75v-19.5h-54.75z"/><path d="m189 325.54h54.75v-19.5h-54.75z"/><path d="m243 325.54h54.75v-19.5h-54.75z"/><path d="m297 325.54h54.75v-19.5h-54.75z"/><path d="m351 325.54h54.75v-19.5h-54.75z"/><path d="m405 325.54h54.75v-19.5h-54.75z"/><path d="m459 325.54h54.75v-19.5h-54.75z"/><path d="m513 325.54h54.75v-19.5h-54.75z"/><path d="m81 306.79h54.75v-19.5h-54.75z"/><path d="m135 306.79h54.75v-19.5h-54.75z"/><path d="m189 306.79h54.75v-19.5h-54.75z"/><path d="m243 306.79h54.75v-19.5h-54.75z"/><path d="m297 306.79h54.75v-19.5h-54.75z"/><path d="m351 306.79h54.75v-19.5h-54.75z"/><path d="m405 306.79h54.75v-19.5h-54.75z"/><path d="m459 306.79h54.75v-19.5h-54.75z"/><path d="m513 306.79h54.75v-19.5h-54.75z"/><path d="m81 288.04h54.75v-19.5h-54.75z"/><path d="m135 288.04h54.75v-19.5h-54.75z"/><path d="m189 288.04h54.75v-19.5h-54.75z"/><path d="m243 288.04h54.75v-19.5h-54.75z"/><path d="m297 288.04h54.75v-19.5h-54.75z"/><path d="m351 288.04h54.75v-19.5h-54.75z"/><path d="m405 288.04h54.75v-19.5h-54.75z"/><path d="m459 288.04h54.75v-19.5h-54.75z"/><path d="m513 288.04h54.75v-19.5h-54.75z"/><path d="m81 269.29h54.75v-19.5h-54.75z"/><path d="m135 269.29h54.75v-19.5h-54.75z"/><path d="m189 269.29h54.75v-19.5h-54.75z"/><path d="m243 269.29h54.75v-19.5h-54.75z"/><path d="m297 269.29h54.75v-19.5h-54.75z"/><path d="m351 269.29h54.75v-19.5h-54.75z"/><path d="m405 269.29h54.75v-19.5h-54.75z"/><path d="m459 269.29h54.75v-19.5h-54.75z"/><path d="m513 269.29h54.75v-19.5h-54.75z"/></g><path d="m54 656.5h487v-30h-487z" fill="#fff"/></g></svg>
