<?xml version="1.0" encoding="UTF-8"?>
<svg width="234.09pt" height="344.06pt" version="1.1" viewBox="0 0 234.08838 344.06302" xmlns="http://www.w3.org/2000/svg" xmlns:xlink="http://www.w3.org/1999/xlink">
 <defs>
  <symbol id="q" overflow="visible">
   <path d="m2.8125 47.234c0.17188-0.04687 0.67188-1.1562 0 0zm0.53125-0.90625c-0.14062 0.54688 0.40625-0.75 0 0zm0.25-0.4375c0.21875 0.1875 0.046875-0.35938 0 0zm0.1875-0.25c0.078125 0.25 0.14062-0.3125 0 0zm0.17188-0.25c0.26562-0.14062 0.35938-0.35938 0.51562-0.39062 1.0781-0.875 1.5469-1.5469 2.3281-2.5625 0.79688-1.0469 1.6562-2.0156 2.2344-3.2344 0.54688-1.2188 0.875-1.625 1.1875-3.1406 0.32812-1.5469 0.10938-3.8438-1.0312-6.4062-1.125-2.5469-2.2344-2.1875-2.2344-3.5938s-2.9219-1.0469-1.0469-0.5c0.5 0.14062 0.03125 1.0312-0.46875 1.2188-0.5 0.17188-1.2188 0.21875-1.7344 0.32812-0.9375 0.25-2.5156 0.85938-3.375 0.46875-0.14062-1.375-0.10938-2.7812 0-4.0781s1.7969-1.9062 2.7344-2.2344c0.89062-0.3125 1.2969-1 0.57812-1.9062-0.71875-0.85938-1.2344-1.4062-1.875-2.0781-0.6875-0.71875-1.875-1.5938-1.4062-2.4844 0.46875-0.9375-0.14062-1.4375-0.64062-1.875-0.51562-0.4375-1.1562-0.1875-1.4844 0.28125-0.35938 0.46875 0.078125 1.2344 0.21875 1.9531 0.10938 0.71875 0.10938 3.0938 0 4.7188-0.14062 1.6562-0.9375 1.5-2.1562 1.75-1.2344 0.21875-2.3438 0.04687-2.8906 0.625-0.5625 0.57812 0.71875 1.25 1.5469 1.5781s2.2812-0.60938 3.3906-0.5c-0.28125 1.9062 0 3.8438-0.5 5.7188-1.7656 1.0469-3.5625 2.2031-5.0781 3.6719-2.2344 2.1562-2.8125 6.625-2.2031 8.6719 0.79688 2.375 1.875 1.0469 2.9219 0.35938 1.0469-0.67188 2.7344-1.1875 3.7031-1.9688 0.1875 0.42188 0.32812 1.6875 0.9375 2.4062 0.60938 0.6875 2.1562 1.5469 2.125 0.10938-0.03125-1.4688-0.10938-2.8438 0-4.2812 0.10938-1.4844 1.0781-2.5156 1.9062-3.6094 0.82812-1.0781 1.875-1.9062 2.8125-3.0938 0.90625-1.1406 1.625-1.9375 2.0156-3.0938 1.0469 0.60938 1.4062 1.8438 1.6562 3.0625 0.21875 1.2656 0.64062 2.625 0.28125 4.25-0.3125 1.5781-1.3281 3.4531-2.125 5.1875-0.82812 1.6875-1.9688 3.0469-2.8438 4.6719zm-6.5469-9.6406c0.078125 1.0312-0.17188 1.4688-0.64062 1.9375-0.65625 0.71875-2.7812 2.3125-3.8906 1.9844-1.125-0.32812-0.76562-1.6875-0.6875-2.8125 0.078125-1.1562 0.75-2.4844 1.7656-3.4844 1-1.0156 2.3438-2.125 3.75-2.7812 0.09375 1.7344-0.1875 3.4219-0.29688 5.1562zm3.0938-1.8125c-0.46875 0.375-0.3125-0.64062-0.28125-1.3594 0.03125-0.75-0.14062-2.7344 0.57812-3.6719 1.4062-0.57812 2.875-0.60938 4.3438-0.82812-1.1094 2.2656-2.9844 4-4.6406 5.8594zm0.51562-13.531c-0.1875 0.07813-0.375 0.14062-0.57812 0.21875-0.10938-0.9375-0.15625-2.2031-0.046875-2.9531 0.4375 0.25 3.25 2.3438 0.625 2.7344z"/>
  </symbol>
  <symbol id="h" overflow="visible">
   <path d="m4.6094 38.656c0.85938 0.03125 1.3594-2.0938 2.0156-4.1094 0.6875-2.0156 1.0469-4.1406 1.2969-7.375 0.25-3.2031 0.03125-5-0.1875-7.3438-0.25-2.3438-0.42188-2.0938-0.5-3.5312 1.1875-0.32812 2.375-0.14062 3.6719-0.64062 1.2969-0.46875-0.39062-0.71875-1.0781-1.4375-0.64062-0.73438-1.9844-1.625-2.9219-2.375-0.9375-0.73438-1.2188-0.54688-1.8594 0.3125-0.6875 0.875-0.15625 2.3125-0.21875 3.4219-1.1875 0.32812-2.3438 0.71875-3.5 1.2656-1.1406 0.53125-2.7031 0.71875-3.5625 1.7188 0.79688-0.03125 1.8438 0.04687 2.8438-0.25 1.0469-0.28125 2.6719-0.89062 3.5-1.25 0.78125-0.32812 0.71875-0.32812 0.85938-0.10938 0.14062 0.85938 0.35938 2.7344 0.5 3.9531 0.10938 1.2656 0.1875 0.65625 0.32812 3.4219 0.10938 2.8125 0.14062 6.7031-0.39062 9.8594-0.57812 3.1719-0.76562 3.5625-0.79688 4.4688zm2.9531-23.547c-0.40625 0.10938-0.79688 0.35938-0.85938 0.25-0.10938-0.0625-0.15625-0.35938-0.35938-0.85938-0.1875-0.54688 0.20312-0.4375 0.53125-0.1875 0.35938 0.26562 1.4062 0.65625 0.6875 0.79688zm-16.703 23.109c0.5 0.32812 2.0781-0.20312 1.7969-1.3281-0.32812-1.1562-0.28125-2.6562-0.14062-3.9219 0.14062-1.2188 0.39062-2.0469 0.57812-3.0312 0.14062-0.92188 0.89062-2.0781 1.1406-3.2656 0.25-1.2344 0.32812-1.4062 0.40625-2.4219-0.6875 1.625-0.71875 2.125-1.1875 3-0.46875 0.89062-1.0156 2.2969-1.7031 2.9844-0.25-2.0156-0.3125-4.1094-0.39062-6.0938-0.03125-1.6875 0-6.6562 0-7.5938-0.03125-0.9375-0.64062-3.0938-1.375-3.6719 0.046875 1.5156-0.03125 3.0312-0.09375 4.5781-0.10938 2.5938-0.51562 5.2188-0.54688 7.7812-0.03125 2.5156 0.10938 6.25 0.07813 7.4062-0.04687 1.1562 0 2.8125 0.5625 3.8906 0.57812 1.0781 0.375 1.4062 0.875 1.6875z"/>
  </symbol>
  <symbol id="g" overflow="visible">
   <path d="m12.891 106.16c2.2969 0.98438 3.3438-0.89062 1.4375-2.9844-1.875-2.0469-1.625-6.4844-2.3438-10-0.71875-3.5 0.07813-7.1406 1.3281-10.188 1.2656-3.0938-2.7969-1.6562-4.5-0.9375-1.7188 0.71875-2.6562-0.9375-2.6875-2.625-0.046875-1.6562 0.53125-0.625-0.10938-5.0156-0.65625-4.3906-2.0938-16.203-1.2656-22.453 0.4375-3.1406 0.35938-4.5781 0.5-7.2812 0.10938-2.7344 0.65625-7.5938-0.42188-9.75-1.125-2.125-1.6562-3.0938-2.9219-3.4219-1.2656-0.29688-1.6562-1.7969-1.3281-3.1406 0.32812-1.3281 1.3281-2.0781 2.9844-1.9688s1.8438-0.76562 1.4375-1.3281c-0.35938-0.57812-1.1094-1.4062-1.9375-1.8438-0.79688-0.4375-1.4062-0.85938-1.3281-1.2969 0.10938-0.39062 0.39062-1.3594 1-1.625 0.57812-0.20312 0.90625-0.71875 1.0469-1.1094 0.10938-0.39062 0.64062-1.1875-1.0469-0.85938-1.6875 0.28125-3.0156-0.40625-2.7344-2.0156 0.28125-1.625-0.25-3.1094-1.1094-4.0781-0.875-0.96875-1.7656-0.9375-1.2344 0.4375 0.54688 1.4062 0.82812 3.1719 0.875 4.6719 0.03125 1.5156-0.76562 3-2.5312 2.2344-1.7969-0.75-2.125-0.39062-1.6562 0.4375 0.51562 0.79688 2.1719 1.4375 3.5 1.0781 1.2969-0.35938-1.8438 3.2344-3.1406 4.3906-1.3281 1.1562-0.25 2.2031 0.875 2.4219 1.1094 0.20312 2.6875 0 3.5625-0.26562 0.42188 1.625 0 2.5625-0.76562 3.3594-0.75 0.78125-1.7969 1.0312-2.6562 2.4375s2.3438 5.875 3.7344 5.5469c1.4531-0.35938 1.1562-3.9531 1.125-5.4375-0.078125-1.4375 0.0625-1 0.46875-1.0469 0.39062-0.0625 0.89062 0.04687 1.5469 0.65625 0.60938 0.64062 1.3281 0.5 1.2656 4.5312-0.078125 4.0781-1.125 13.797-0.76562 19.656 0.39062 5.9062 0.39062 9.9375 0.82812 14.109 0.4375 4.1875 0.29688 8.3281 0.60938 11.016 0.32812 2.7031 2.2031 1.5938 3.7812 1.375 1.5469-0.21875 2.9844-1.625 1.5938 1.4688-1.375 3.1406-0.82812 8.8906-0.21875 12.5 0.60938 3.5625 0.89062 7.375 3.2031 8.3438zm-14.297-70.016c-0.4375 0.65625-1.0781-0.0625-1.4688-0.57812-0.35938-0.5-0.82812-0.60938-0.15625-1.6875 0.6875-1.0469 1.8125-1.7656 2.0938-1.0781 0.25 0.71875 0 2.6562-0.46875 3.3438zm-0.89062-9.6406c-1.375 0.03125-1.5156 0.0625-1.3438-0.29688 0.15625-0.39062 0.4375-0.28125 1.0469-1.4375s1.6562-1.2656 1.875-0.32812c0.17188 0.9375-0.25 2.0156-1.5781 2.0625zm3.8125-1.0781c-0.6875 0.35938-0.71875-0.07813-0.71875-0.57812 0-0.46875 0.03125-0.29688-0.078125-1.2969-0.10938-1.0156 0.54688-1.5156 0.9375-0.71875 0.35938 0.78125 0.54688 2.2344-0.14062 2.5938z"/>
  </symbol>
  <symbol id="f" overflow="visible">
   <path d="m-6.375 36.219c0.85938 0.4375 0.90625 0.15625 1.4062-0.57812 0.54688-0.71875 0.46875-2.5156 0.46875-3.6719 0.03125-1.1875 0.10938-2.1562 0.14062-3.1562 0-0.51562 0.046875-1.2344 0-1.875-0.03125-0.60938-0.14062-1.125 0.46875-1.4844 1.2656-0.67188 1.9844-1.0312 3.7031-1.3594 1.7656-0.35938 2.5312-0.5 4.4062-0.07813 1.8594 0.4375 3.2344 0.6875 4.6719 1.6562 1.4062 1.0156 2.1562 1.7969 0.96875 4.4375 0 0-1.3594 3.3125-3.2031 2.9844-1.8281-0.35938-2.0781-1.5781-2.7031-2.9844-0.60938-1.4062-1.4375-2.3125-1.6875-3.2812-0.28125-0.9375-0.32812-0.46875-0.25 0.46875 0.10938 0.9375 0.25 2.0469 1.0469 3.7812 0.75 1.7656 1.875 3.4219 3.3438 3.9219 1.5156 0.54688 2.8438-0.71875 3.7812-1.9844 0.96875-1.2969 2.4062-4.0938 2.2969-5.9375-0.09375-1.8281-1.25-2.5938-2.6875-3.2031-1.4375-0.57812-2.8125-1.1562-4.9062-1.6562-2.0781-0.5-5.7969-0.71875-8.4844 0.85938-1.125 0.79688-1.0938 0.46875-1.1875-0.03125-0.10938-0.85938-0.15625-1.6562-0.1875-2.4062-0.03125-0.79688 0-1.5156-0.078125-2.4844-0.09375-0.9375-0.42188-2.0938 0.26562-2.4844 0.67188-0.4375 1.1094-0.4375 1.9062-0.82812 0.82812-0.4375 0.85938-0.875 0.21875-1.2969-0.65625-0.40625-1.2656-0.35938-1.9219-0.54688-0.64062-0.21875-1.1406-0.53125-1.1406-1.2969-0.046875-1.5-2.4531-1.25-2.4219 0 0.046875 1.2344 0.046875 2.125 0.46875 3.3906 0.4375 1.2188-1.5781 1.4062-2.4375 2.0938-0.875 0.67188-2.375 0.20312-3.2812 1-0.90625 0.75 0.07813 0.96875 0.57812 0.96875 0.46875 0 0.96875 0.04687 2.0469-0.21875 1.0469-0.28125 2.0156-1.1406 2.8438-1.4375 0.85938-0.25 0.71875 0.57812 0.82812 1.0781 0.078125 0.54688 0.03125 1.2344 0.078125 2.125 0.10938 1.875 0.17188 2.9219 0.10938 4.2812-1.0469 1.4531-2.5312 2.3125-3.5312 3.8906-1.0469 1.5938-0.60938 4.0781 0.79688 4.9688 1.3594 0.90625 2.4062 1.9531 3.2656 2.375zm-0.32812-3.5625c0 0.04687 0 0.04687-0.03125 0.04687 0 0-1.1094-0.32812-1.4688-0.73438-0.40625-0.35938-0.9375-0.67188-0.79688-1.5781s1.2188-2.3438 2.1562-2.7656c0.57812-0.40625 0.4375-0.40625 0.40625 0.60938-0.046875 0.96875-0.26562 2.9531-0.26562 4.4219zm1.5156-17.703c-0.39062 0.17188-0.28125-0.32812-0.35938-0.65625-0.0625-0.42188 0-0.85938 0.57812-0.60938 0.54688 0.28125 0.9375 0.4375 0.82812 0.64062-0.10938 0.1875-0.6875 0.40625-1.0469 0.625zm6.0156 5.9062c0.14062-0.57812-0.25-0.32812 0 0zm-0.078125-0.57812c0.21875 0.20312-0.0625-0.4375 0 0zm-0.0625-0.40625c0.32812-0.39062-0.25-0.71875 0 0zm5.1875-1.7969c0.35938 0.03125 0.64062-0.21875 1.3281-0.5 0.6875-0.29688 2.2344-1.6875 1.3594-2.7812-0.89062-1.0781-2.4062-1.5781-3.625-1.9688-1.1875-0.40625-3.0312-1.5469-3.4688 0.21875 1.125-0.1875 2.5938 0.42188 3.5312 1.2812 0.9375 0.875 1.4844 2.5625 0.21875 3.1094-1.2969 0.57812 0.29688 0.57812 0.65625 0.64062z"/>
  </symbol>
  <symbol id="e" overflow="visible">
   <path d="m14.875 41.219c-0.29688-0.21875-1.1562-1.5156-1.9219-2.0156-0.71875-0.54688-0.89062-1.1875-0.75-1.3438 0.1875-0.14062 0.07813-0.10938 0.25 0.15625 0.21875 0.25 0.29688 0.46875 1.125 0.53125 0.82812 0.03125 2.4844 0.85938 2.7656 1.6562s-1.2188 1.2188-1.4688 1.0156zm-4.9375 0.03125c0.25 0.32812-0.25-0.35938 0 0 0.25 0.32812 1.9062 1.875 2.375 2.0469 0.46875 0.21875 1.2969-0.21875 1.2188-0.96875-0.0625-0.75-1.3281-1.2656-1.8281-1.3594-0.5-0.10938-0.9375-0.04687-1.4375-0.26562-0.46875-0.17188-0.57812 0.1875-0.32812 0.54688zm-18.141-30.641c0.21875 0.76562 1.2969 3.5 1.7188 4.7188 0.40625 1.2188 1.2656 3.2812 1.7344 5.1562-0.46875 0.28125-1.1875 0.5-2.0156 0.78125-3.1406 0.79688-6.4844 3.0312-7.4219 5.5156s-1.4062 4.6719 0.71875 5.8594 4.3594 0.4375 6.3438-0.42188c1.9844-0.875 3.5938-2.4844 5.0781-3.4219 0.5 1.3281 1.6875 4.5312 2.625 4.4531 0.89062-0.03125 1.4062-2.0156 1.5781-3.2031 0.1875-1.1406-0.5-1.0312-0.9375-1.7188-1.0312 2.6562-1.5781-0.03125-1.7969-1.5156 1.0781-1.1094 1.875-3.6719 2.9219-5.25 1.0781-1.5938 4.3906 0.03125 5.5781 0.67188 1.2188 0.65625 0.25 4.3281-0.79688 6.2656-1.0781 1.9531-2.4062 3.7812-3.8906 5.9844-1.5 2.1875-2.9531 6.3281-3.5156 8.0938-0.54688 1.7344-0.625 3.0625-0.46875 3.8594 0.17188 0.82812-0.29688 0.85938 1.2188 0.46875 1.5156-0.40625 3.8906-0.76562 5.5469-1.875 1.1406 0.85938-0.46875 2.5469-0.57812 5.4375-0.14062 2.8438-0.35938 5.2812 0.35938 8.9531s1.875 5.4375 2.2656 6.625 1.875 2.6406 2.9844 1.125c1.0781-1.4844-1.25-4.1719-2.375-6.8438-1.1406-2.6562-1.5156-6.7656-1.1094-9.1719 0.39062-2.4219 0.32812-3.75 1.2969-5.4375 0.9375-1.7031 0.85938-1.8438 0.17188-2.4219-0.64062-0.53125-1.6562-1-2.7969-0.46875-1.125 0.54688-3.1094 1.7031-4.4688 0.625-0.14062-2.0625 1-3.8906 2.0938-5.7656 1.1094-1.8438 2.4844-3.9688 3.8125-5.7656 1.2969-1.7969 2.4062-2.7031 3.2031-4.75 0.75-2.0469 0.53125-5.0312-1.2344-6.125-1.7188-1.1094-4.1719-1.5469-6.2188-1.9375 0.0625-0.6875 0.60938-1.8438 0.9375-3.0625 0.28125-1.1875 0.14062-2.1562-1.1875-2.4844-0.25 0 0.17188 0.79688 0.14062 1.5469 0 0.76562-0.1875 1.5156-0.5 2.2344-0.32812 0.71875-0.57812 1.2969-0.90625 1.875-0.5-0.03125-1.7969 0.21875-2.625 0.35938-0.82812 0.17188-1.9844 0.39062-2.625 0.5-0.79688-2.0781-1.4844-4.1719-1.9844-5.3594s-1.6875-3.5625-2.1562-4.5-0.71875-1.1875-0.875-0.96875c-0.14062 0.17188-0.09375 0.60938 0.15625 1.3594zm8.5625 10.547c0.03125 0.15625-0.46875 1.2344-1.0781 1.9844-0.57812 0.79688-0.90625 1.4062-1.4062 0.10938-0.5-1.3281-0.53125-1.3281 0.14062-1.5469 0.65625-0.21875 1.7031-0.25 2.3438-0.54688zm-4.6094 1.2656c0.29688 0.9375 0.79688 2.125 1.1875 3.1719-0.79688 1-1.4375 1.7656-2.9844 2.7969-1.5469 1.0469-3.75 2.4531-5.4688 2.6406-1.7031 0.17188-1.375-3.3594 0.28125-5.0781 1.6875-1.7031 4.3281-3.0938 6.9844-3.5312z"/>
  </symbol>
  <symbol id="d" overflow="visible">
   <path d="m-5.9375 12.641c-0.4375 0.90625 0.39062 2.4219 0.60938 3.6406 0.25 1.2188 0.46875 1.7656 0.32812 3.75-0.14062 1.9688-0.25 2.6875 0.5 5.2812 0.39062 1.2344 0.39062 2.4844 0.6875 4-1.0781 1.625-2.125 4.6719-1.875 5.8281 0.5 2.3438 1.5469 3.5312 2.6562 4.3906 1.125 0.90625 2.0938 1.3438 3.1719 1.9531 1.0469 0.57812 3.1719 0.9375 2.9531 2.2344-0.17188 1.3281-0.82812 2.1875-0.89062 3.2344-0.078125 0.5 0 1.3594 0.3125 1.6875 0.35938 0.32812 1.0469 0.10938 1.5156 0.60938 0.9375 1.0469-0.64062 2.2031-1.4375 3.0625-0.79688 0.90625-2.0938 1.7969-1.7344 2.9219 0.32812 1.1094 1.9844 1.0469 3.0625 1.4375 1.125 0.35938 1.9844 0.21875 2.3125 2.4531 0.3125 2.2344 0.60938 6.4375-0.15625 8.8906-0.78125 2.4375-1.8594 7.8438-2.6875 10.297-0.79688 2.4375-1.6562 4.6719-0.29688 2.4375 1.375-2.2656 2.0469-4.3906 2.9844-6.3281 0.98438-1.9531 0.90625-2.9844 1.9062-5.625 1.0156-2.5781 1.7656-8.7344 0.76562-10.938-1.0156-2.1562-2.3125-3.3438-4.2188-3.1719-1.9375 0.1875-1.9062-0.53125-1.4375-1.4375 0.5-0.89062 0.85938-1.7969 2.3125-2.2969 0.71875-0.25 1.9062-1.4375 1.8281-2.2031-0.03125-0.75-1.3594-1.0781-2.2344-1.1562-1.6562-0.17188-0.6875-1.25-0.35938-2.2188 0.35938-1.0156 0.10938-1.7344 0.90625-2.8438 0.75-1.0938-1.7656-1.5156-3.4531-2.4531-1.7344-0.90625-5.875-3.5312-5.4062-6.4844 0.4375-2.9531 2.125-5.1875 3.8125-6.625 1.7031-1.4375 0.65625-4-0.75-2.0156-1.4375 2.0156-1.7969 1.7344-2.4062-0.82812-0.65625-2.5938-1.1562-5.5469-1.375-7.1562-0.1875-1.5938-0.32812-1.5469-0.71875-2.2344-0.35938-0.71875-0.79688-2.9844-1.1875-2.0938zm7.9219 70.453c-0.1875 0.46875-0.40625 1.125-0.35938 1.9844 0.0625 0.85938 0.03125 1.4062 0.35938 0.35938 0.21875-0.6875 0.39062-1.9062 0.42188-2.3125 0-1.3594-0.10938-0.78125-0.42188-0.03125z"/>
  </symbol>
  <symbol id="c" overflow="visible">
   <path d="m-0.71875 29.594c0.71875 0.60938 2.1562 0.75 3.0156 1 0.90625 0.25 1.5156-0.28125 1.875-1 0.35938-0.6875-1.8281-0.9375-2.625-1.625-0.75-0.6875-1.7969-1.5156-1.8281-1.5469-1.5938-1.875-1.9844-3.0625-2.3125-4.3125-0.32812-1.2656-0.85938-1.7031-0.89062-2.5938-0.078125-0.9375-0.046875-1.875 0.35938-2.7812 0.42188-0.89062 1.5781-1.6875 2.0156-2.125 0.46875-0.42188 1.75-0.9375 2.2969-1.7188 0.5-0.79688 1.0781-1.9844 0.14062-2.5625-0.89062-0.57812-1.7188-0.89062-2.7656-0.79688-1.0469 0.10938-2.0469-0.3125-3.0312-0.53125 0.046875 0.57812-0.10938 1.1562 0.65625 1.625 0.78125 0.5 1.9688 0.39062 2.8438 1.0312 0.89062 0.625-0.10938 1.8438-0.6875 2.6719-0.57812 0.79688-1.2188 1.4375-1.5781 2.4844-0.35938 1-0.6875 2.2969-0.76562 3.4531-0.10938 1.1562-0.42188 2.0469-0.46875 3.3125-0.0625 1.2188 1.1562 3.3438 1.6562 4.2188 0.46875 0.89062 1.375 1.2188 2.0938 1.7969zm12.922-12.891c0.28125 0.10938 0.6875 0.03125 0.75-0.28125 1.125-0.40625 0.07813-1.0938-0.35938-1.5625-0.5-1-1.7969-1.0781-2.375-1.8594-0.5-0.04687 0.15625 1.2188 0.40625 1.6094 0.39062 0.76562 0.64062 1.875 1.5781 2.0938zm-4.6406-0.96875c0.32812 0.28125 0.75 0.03125 0.96875 0.0625 0.1875-0.20312 1.2969-0.67188 0.57812-1.0781-0.75-0.60938-1.5781-1.25-2.5938-1.3594-0.39062 0.17188-1.2969-1.0781-1.0469-0.40625 0.79688 0.875 1.2969 1.9062 2.0938 2.7812z"/>
  </symbol>
  <symbol id="b" overflow="visible">
   <path d="m-2.5156 10.625c-0.46875 0.90625 0.21875 2.9844 0.14062 4.1094-0.078125 1.0781 0.46875 2.4531-0.71875 2.8438-1.2188 0.35938-2.0156 0.90625-3.3906 1.2188-1.3594 0.32812-3.0625 0.29688-4.1406 0.32812-1.1094 0.07813-1.25 0.21875-1.0312 0.35938 0.25 0.1875 0.17188 0.25 0.89062 0.28125 0.75 0.07813 2.2031 0.15625 3.5625-0.17188 1.4062-0.28125 2.9531-1.2656 4.6094-1.2969 0.21875 0.6875 0.14062 1.7969 0.35938 2.625 0.078125 1.2969 1.0156 2.8125 0.4375 3.9688-0.60938 1.1406-1.6562 2.0781-2.5625 2.7656-0.85938 0.71875-1.4062 1.4375-1.2188 2.4531 0.14062 0.96875 0.35938 1.4688 1.0469 2.9062 0.67188 1.4844 3.9531 3.1719 5.2188 3.2812 1.2969 0.078125 2.0781-0.46875 2.5469-1.1875 0.98438-1.5469-1.0781-1.6875-2.3281-1.9062-0.90625-0.14062-2.5625-1.0781-3.3125-1.9062-0.76562-0.875-2.2344-1.625-1.2344-2.6719 0.98438-1.0781 2.0156-1.4688 3.0625-2.1875s2.2656-1.5938 1.9062-3.0625c-0.3125-1.5156-0.53125-3.3906-0.60938-4.3281-0.10938-0.96875-0.10938-0.89062-0.10938-1.4375 0.03125-1.2188 2.0938-1.1094 2.7344-1.7656 0.6875-0.64062 3.7812-2.125 3-2.5469-0.76562-0.40625-2.4531 0.39062-3.2812 0.39062s-0.82812-0.03125-1.2188-0.14062c-0.40625-0.14062-1.0156-1.1875-1.2344-1.1875-0.0625 0 0.14062 0.25 0.29688 0.39062 0.39062 0.4375 0.71875 0.85938 1.1406 1.2344 0.4375 0.35938 0.60938 0.5625 0.60938 0.85938 0 0.35938-0.0625 0.39062-1.5469 1.0469-0.35938 0.17188-0.64062 0.28125-0.64062 0.28125-0.14062-0.60938-0.28125-1.0469-0.5-1.7969-0.25-0.79688-0.65625-2.1562-1.1562-2.875 0-0.04687 0-0.04687 0.078125-0.07813 0.0625-0.03125-0.10938-0.07813-0.21875-0.10938-0.25-0.28125-0.65625-0.5-1.1875-0.6875zm2.1562 1.125c-0.078125 0 0.03125 0.10938 0.10938 0.10938 0.14062 0-0.10938-0.10938-0.10938-0.10938zm0.57812 0.3125c-0.078125 0 0.17188 0.21875 0.21875 0.21875 0.03125 0-0.1875-0.21875-0.21875-0.21875zm10.156 4c0.64062 1.0156 1.4688 1.7969 2.2656 2.2656 0.78125 0.4375 1.3594 0.6875 1.9375 0.4375 0.60938-0.28125 0.71875-1.0781 0.46875-1.4062-0.25-0.35938-0.4375-0.64062-1.3281-0.57812-0.90625 0.046875-2.3438-0.21875-3.3438-0.71875zm-3.4219 2.2344c-0.29688 0.46875 1.1094 2.0156 1.7969 2.375 0.6875 0.32812 1.4688 0.28125 1.7656-0.17188 0.9375-1.6562-2.5938-1.625-3.5625-2.2031z"/>
  </symbol>
  <symbol id="a" overflow="visible">
   <path d="m-8.4219 20.828c0.28125 0.3125 0.21875 0.3125 0.53125 0.28125 0.35938 0 1.5938-0.35938 1.7344-0.60938 0.1875-0.29688 0.14062-0.21875 0.21875-0.82812 0.03125-0.60938-0.25-1.4375 0.17188-2.4531 0.4375-1 1.2344-1.4375 1.7344-2.1875-0.60938 0.35938-0.82812 0.5625-1.6562 1.0781-0.85938 0.5-1.1875 1.1875-2.0938 1.0469-0.85938-0.10938-1.5-0.51562-1.8281-1.2344-0.35938-0.75-0.32812-1.1562-0.60938-1.6875-0.10938 0.5 0 1.3281-0.10938 2.0156-0.10938 0.71875-0.21875 1.0781-0.10938 1.9062s0.75 1.2656 1.1875 1.7344c0.39062 0.46875 0.5 0.64062 0.82812 0.9375zm14.938-4.8281c0.14062-0.10938 1.1875-0.76562 1.8438-1.0781 0.60938-0.29688 1.5469-0.65625 1.6875-0.76562s0.21875-0.17188 0.17188-0.28125c-0.03125-0.07813-0.0625-0.10938-0.14062-0.1875-0.0625-0.0625-0.46875-0.57812-1.5156-1.2188 0 0-1.1094-0.4375-1.7969-0.5-0.71875-0.046875-1.5469-0.1875-1.8281-0.4375-0.29688-0.21875-0.40625-0.17188-0.32812-0.03125 0.03125 0.14062 0.28125 0.35938 0.4375 0.53125 0.28125 0.29688 1.3594 0.82812 1.8281 1.4844 0.5 0.64062 0.03125 1.5469-0.21875 1.9375-0.25 0.40625-0.53125 0.65625-0.42188 0.65625 0.0625 0 0.10938-0.04687 0.28125-0.10938z"/>
  </symbol>
  <symbol id="p" overflow="visible">
   <path d="m3.5312 83c0.46875-1.0156 0.82812-0.875 1.7969-2.9219s2.2031-6.8125 3.2031-9.5781c1.0469-2.8125 1.1094-4.8906 1.5156-7.4219 0.39062-2.5156 0.0625-4.7812 0.35938-7.0469 0.28125-2.2656-0.10938-4.3594-0.76562-6.1562 1.1562-1.4375 3.7188-2.125 4.3281-3.8906 0.57812-1.7656-3.0312-3.6719-4.5312-3.7812-1.5469-0.10938-1.7344 1.7656-1.9531 2.9844-0.21875 1.1875-0.10938 2.5312-0.03125 3.6719-2.2656 1.0469-4.4688-0.75-3.0312-3.125 1.4531-2.4062 2.8125-5.1875 3.7188-7.5625 0.89062-2.375-1.0469-5.7656-2.9531-6.1562-1.875-0.39062-1.7344-0.54688-2.5625-0.85938-0.17188-1.0156 0.25-2.9531 0.14062-4.1875-0.20312-2.4062 0.6875-2.5156 2.6719-3.8125 2.0156-1.3281 0.32812-1.9375-1.7656-2.7344s-0.39062-1.875 1.0469-2.8438c0.89062-0.46875 1.4062-1 1.2188-1.3281-0.21875-0.32812-1.1562-0.39062-1.9844-0.29688-0.60938 0.10938-1.4375 0.40625-2.1094 0.51562-0.26562-1.0156-0.51562-3.5312-0.76562-4.2812-0.25-0.79688-1.1875-0.6875-1.8281-0.29688-0.65625 0.4375-0.90625 0.76562 0.03125 1.6562 0.9375 0.90625 0.75 3.3125 0.71875 4.7969-0.39062 0.35938-2.2344 0.78125-2.9219 0.67188-0.96875-0.14062-1.1094 0.32812-0.67188 0.60938 0.25 0.10938 0.9375 0.90625 1.8594 0.875 0.46875 0 1.375-0.54688 1.7344-0.6875 0.46875-0.1875 0.14062 0.21875-0.078125 1.0156-0.17188 0.75-1.25 1.9375-2.0156 2.8438-0.71875 0.85938-1.6562 2.4844 0.40625 2.2656 1.0469-0.10938 1.3281 0.03125 1.7656-0.04687 0.03125 0.90625 0.25 2.6406 0.25 3.4219 0.25 1.1562 0 1.375-0.10938 2.2656-0.96875-0.0625-1.625 1.0156-2.8438 2.7031-1.2344 1.7344 0.10938 4.3281 2.0781 5.7656 1.9844 1.4375 3.2031-2.5625 3.1719-5.3281-0.03125-2.7812 4.0312 0.53125 3.3906 2.9844-0.65625 2.4531-2.2656 5.7969-3.8594 8.3125-1.5781 2.5312-0.3125 5.4375 2.5938 5.1875 1.0469-0.10938 1.9062-0.07813 2.4531 0 0.0625 0.6875 0.10938 2.2656 0.0625 3.3125-1.7188 0.03125-2.5156 0.35938-3.1562 3.7031-0.65625 3.3594 3.7031 3.6094 3.2344 6.2344s-1.2969 7.5156-1.8281 10.625c-0.57812 3.125-1.2031 5.3281-1.9844 7.9219zm3.8125-22.906c-0.5 0.46875-2.625-1.8281-1.4375-3.1719 1.1875-1.2969 1.2969-0.71875 1.4688 0.26562 0.1875 0.92188 0.46875 2.4062-0.03125 2.9062zm3.5938-14.391c0.54688 1.1094-0.14062 1.75-1.9062 2.2969-0.5-1.8281-0.67188-1.625-0.3125-3.2031s1.6562-0.1875 2.2188 0.90625zm-11.188-10.766c0.21875-0.1875 0.35938 0 0.39062 0.35938 0 0.39062 0.10938 1.0781-0.25 1.0781-0.32812 0-0.4375-0.5-0.4375-0.79688 0-0.25 0.078125-0.46875 0.29688-0.64062zm0.03125-10.703c-0.57812 0.21875-0.89062 0.10938-0.9375-0.10938-0.03125-0.20312 0.14062-0.20312 0.51562-0.89062 0.39062-0.6875 0.78125-0.85938 0.92188-0.4375 0.15625 0.46875 0.078125 1.2344-0.5 1.4375zm3.25-1.3906c-0.21875 0.42188-0.32812-0.375-0.375-0.9375-0.03125-0.54688 0-1.2656 0.1875-0.875 0.21875 0.40625 0.35938 1.3438 0.1875 1.8125z"/>
  </symbol>
  <symbol id="o" overflow="visible">
   <path d="m1.7344 33.641c0.0625 1.9844 0.35938 2.0156 1.5 3.9219 0.15625-2.7344 0.15625-4.2812 0.046875-6.2344-0.10938-1.9375 0.39062-3.8438 0.53125-5.3281 0.1875-1.4688 3.3125-1.5781 5.0781-2.375 1.7656-0.78125 3.8125-0.46875 5.1562-1.9375-0.46875-0.078125-1.7656 0.53125-2.9219 0.71875-1.1562 0.17188-2.875 0.71875-4.0625 0.90625-1.1875 0.17188-3.4688 1.5-3.1406-0.51562 0.29688-2.0156 1.9062-0.96875 2.8438-1.8281 0.9375-0.90625 2.0469-3.2031 1.3281-3.9219-0.71875-0.76562-2.5156-2.0938-1.75-0.82812 0.75 1.25-0.90625 2.875-1.7656 3.8906-0.82812-1.0469-1.2656-2.75-2.5625-3.3906-1.3281-0.65625-1.6562 0.46875-1-0.03125 1.4375 1 1.0312 2.9531 0.75 4.5312-0.29688 1.5469 0.25 3.8125-2.0156 3.5625-3.5312 0.54688-5.2656 1.0469-8.5 1.9375-3.2344 0.9375-3.9531 0.46875-5.9688 1.0938-2.0625 0.64062-2.6719-0.51562-2.7031 1.1094-0.03125 1.6562 1.9375 1.7344 3.1719 2.0469 1.1875 0.32812 6.1562-2.7656 9.0312-3.5156 2.9219-0.73438 3.5312-1.4062 6.6562-1.7344 0.25 2.6562 0.1875 5.9688 0.29688 7.9219zm-4.8594-11.516c1.75 0.60938 1.5-1.375 2.0781-2.1719 0.54688-0.82812 1.7969-3.1562 0.4375-2.125-1.375 1.0781-2.5156 0.21875-3.6406-0.85938-1.1094-1.0781-0.57812-0.39062-0.5 0.79688 0.0625 1.2188-0.10938 3.7031 1.625 4.3594zm0.25-6.9531c1.5781 0.53125 2.5156-0.71875 3.9219-1.1562s3.1719-1.6562 4.8281-1.4375 1.9062-1.625 0.3125-1.5469c-1.6094 0.07813-3.375 0.6875-4.9688 0.79688-1.6094 0.0625-3.3125 0.5625-4.5-0.625-0.3125 1.2344-1.1875 3.4688 0.40625 3.9688z"/>
  </symbol>
  <symbol id="n" overflow="visible">
   <path d="m-19.156 35.938c1.7031 0.35938 3.7188-3.125 4.8594-5.8281 1.1562-2.7031 3.0625-9.5 1.9844-13-1.0781-3.4844-0.75-4.6406-1.375-2.0781-0.64062 2.5156-0.35938 7.5938-1.3281 11.797-1 4.25-1.6875 6.3125-4.1406 9.1094zm28.016-3.6719c0.39062 0.875 2.0156 3.4219 3.2344 2.7031 1.2188-0.75-0.53125-1.9844-0.71875-4.3125-0.5 1.6875-1.1562-0.40625-1.4375-1.1875-0.46875-1.5938 1.0469-2.5625 2.125-3.8281 1.0469-1.25-0.9375-3.5625-1.9531-2.6562 0.875 0.6875 0.35938 1.2969-0.39062 2.8438s-1.4375-0.4375-1.9375-2.0156c-0.54688-1.5469-1.8438-3.8906-2.0625-6.0156 1.3438-0.85938 3.5625-1.5156 3.9688-2.9531 0.39062-1.4062-2.4219-2.9062-3.5625-1.7656-1.125 1.1875-0.71875 0.76562-1.5938 1.3438-0.71875-1.5938-2.125-3.25-3.3125-4.0781s-2.0156-0.14062-0.71875 0.35938c1.2969 0.51562 1.7031 2.9531 2.0625 4.3594-3.0625 1.0781-7.1406 2.2031-9.2188 3.2031-2.0938 1.0469-2.4219 0.03125-3.3594-0.03125-0.92188-0.10938-0.71875 1.1562 0.26562 1.9844 0.96875 0.8125 3.2031 0 4.6094-0.73438 1.3594-0.71875 3.2031-1.6875 4.5625-2.0156 1.3281-0.28125 3.1719-1.8594 3.6406-0.75s-0.54688 0.82812-1.9531 1.9844c-1.4375 1.1406-5.2812 3.5938-7.0469 4.6406-1.7344 1.0469-2.7344 0.71875-3.8125 1.2969-1.0938 0.57812 0.64062 3.0156 1.9688 2.2656 1.375-0.79688 2.5625-1.9062 3.9219-2.5625 1.375-0.60938 1.7344 0.32812 1.6562 1.4531 0.4375 1.5-0.78125 0.42188-1.3906-0.26562 0.5 1.2969 0.46875 4.2188 1.4375 5.2344 1 1.0312 2.2969-0.35938 2.5156-2.2031 0.21875-1.8281-0.35938-2.875-1.4688-4.6719-1.125-1.7656-0.10938-2.0938 0.82812-2.75 0.96875-0.64062 2.4844-1.8594 3.8438-2.1875 1.4844 2.875 1.9844 6.1562 3.4531 9.0312 0.875 1.1562-0.28125 1.9531-1.4688 2.9844-1.1562 1.0938 0.42188 1.2969 1.25 0.15625 0.875-1.1875 1.625 0.25 2.0625 1.1406zm9.8281-11.547c1.5469 0.60938 0.35938-1.2969-0.35938-1.7031-0.6875-0.39062-2.625-2.0469-3.3906-1.9062 1.0781 1.375 2.2344 3.0312 3.75 3.6094z"/>
  </symbol>
  <symbol id="m" overflow="visible">
   <path d="m-16.375 23.234c-1.1875 0.15625-0.10938 3 1.1406 2.7031 1.2344-0.28125 10.188-2.0469 15.375-2.9062 5.1875-0.82812 10.328-0.65625 13.141-0.71875 2.8438-0.04687 2.125 0.20312 3.5625 0.64062 1.4844 0.39062 1.4844 0.03125-0.57812-0.9375-2.0781-0.9375-9.25-0.0625-14.469 0-5.1875 0.07813-15.219 2.3438-16.125 2.0938-0.85938-0.29688-0.82812-1.0156-2.0469-0.875zm10.969-5.6406c1.8125 1.5156 5.8438-2.2031 6.9844-2.1562 1.1562 0.0625 3-1.0469 4.6094-1.2344 1.625-0.17188 0.15625-0.89062-0.85938-0.79688-1.0156 0.15625-2.2969 0.46875-4 0.73438-1.6875 0.25 0.078125-0.79688 1.1562-1.5469 1.0781-0.76562 3.6719-1.875 5.1406-2.5312 1.4844-0.6875 1.1562-0.89062-0.03125-1.7188s-1.6562 0.25-3.0625 0.39062c-1.4062 0.10938-3.625 0.21875-5.0781 0.10938-1.4375-0.078125-2.3281-0.71875-3.125-1.1562-0.79688-0.46875-0.75 1.2188-0.25 2.3125 0.46875 1.1094 2.4531 0.5 3.7812 0.5625 1.2969 0.07813 5.2812-2.0781 4.0938-0.60938-1.1875 1.4375-5.7969 4.0312-7.4062 4.2812-1.5938 0.21875-3.75 1.8438-1.9531 3.3594z"/>
  </symbol>
  <symbol id="l" overflow="visible">
   <path d="m-0.10938 29.25c0.96875 0.28125 1.625 0.25 1.7344-1.875 0.0625-2.1562-0.25-6.7656 0.0625-8.5781 0.32812-1.75-0.28125-1.6562 0.54688-1.75-0.10938-0.1875-0.1875-0.15625-0.4375-0.26562-0.46875-0.25-0.60938-1-0.96875-2.4844-0.39062-1.4688-0.39062-2.0469-0.10938-3.6719 0.29688-1.6094 0.21875-2.375-0.57812-0.78125-0.78125 1.5469-0.89062 2.4844-0.9375 4.3906-0.03125 1.9375 0.25 3.0625-0.9375 3.125-1.1406 0.078125-5.25 1.2344-7.2656 1.7344s-3.4531 1-4.7812 1.5469c-1.3438 0.57812-3.25-0.46875-3.4219 0.64062-0.21875 1.0938 1.7969 1.5156 3.125 0.875 1.3281-0.65625 2.4844-1.125 4.3906-1.7031 1.9531-0.60938 5-1.2188 7.2031-2.0156 2.1562-0.78125 1.5156 0.79688 1.5156 2.3125 0.03125 1.5156 0.53125 4.4688 0.42188 5.8594-0.09375 1.4531-0.5 2.3125 0.4375 2.6406zm2.5938-12.031c0 0.21875 0.25-0.21875 0 0zm-0.10938-0.25c0.03125 0.10938 0.9375 0 0.75-0.25 0.90625 0.0625-0.85938-0.54688-0.75 0.25zm1.875-0.32812c0.17188 0.29688 0.64062-0.14062 0.89062 0 1.5938-0.21875-0.60938-0.5-0.89062 0zm2.9531-0.35938c0.60938 0.21875 1.1562-0.32812 1.6875-0.21875-0.25-0.71875-0.96875 0.10938-1.6875 0.21875z"/>
  </symbol>
  <symbol id="k" overflow="visible">
   <path d="m-7.4844 12.906c-0.76562-0.57812 0.82812 1.3281 0.46875 2.6719-0.40625 1.2812-1.2969 3.2344-1.5156 4.6719s0.46875 2.4062 1.5781 2.375c1.125 0 2.8438-1.2969 3.8906-1.4688 1.0469-0.15625 1.7969-0.6875 2.7344-0.90625 0.35938 0.6875 0.51562 1.3281 0.57812 1.875 0.57812 1.0469 0.03125 1.4688-0.82812 1.9062-0.85938 0.5-1.3281 1.1875-2.6562 0.79688-1.5938-0.82812-1.7344 0.96875-1.1875 1.8594 0.53125 0.875 1.5 2.2344 1.1094 2.5625-2.4062 0.32812-5.1406 0.96875-7.0625 1.625-1.9062 0.6875-3.625 1.3281-4.6719 1.25-1.0156-0.10938-1.0156 0.26562-0.75 0.90625 0.20312 0.64062 0.5625 2.2969 1.75 1.7656 1.2344-0.54688 1.8438-0.21875 3.7188-1.7969 1.9062-1.5938 7.0938-2.3125 9.6094-2.8125 2.5625-0.46875 1.9062 7.5312 1.7969 8.9219-0.14062 1.4062 0.4375 1.8438 1.3281 0.98438 0.90625-0.875 0.76562-1.7031 0.79688-3.2812 0.078125-1.5469 0.25-4.1094 0.14062-6.1562 0-1.2656 0.14062-1.6562 0.4375-1.6562 0.28125-0.03125 0.64062-0.03125 1.4688-0.1875 0.82812-0.09375 2.3438-0.64062 1.3438-0.5625-1.0156 0.03125-1.375 0-1.8438 0.09375-0.46875 0.078125-1.0781 0.15625-1.2969 0.15625-0.25-1.1875-1-3.4531 1.0781-4.0781 2.125-0.60938 0.90625-0.96875 0.10938-0.9375-0.53125 0-2.2344 0.07813-1.5469-1.1094 0.65625-1.1875 3.75-2.7656 5.0781-4 1.375-1.2188 0.25-0.5-1.875-0.21875-2.1562 0.32812-4.4531 0.76562-6.5156 1.1875-2.0469 0.46875-4.3125 1.7656-5.5781 0.79688s1.0156-2.625 0.79688-4.0312c-0.1875-1.4375-1.7656-2.5938-2.4844-3.2031zm14.609 5.7656c-1.2188 1.3594-3.0625 2.5469-4.5625 3.2344-0.29688-0.5-1.2344-0.79688-1.125-2.1562 1.875-0.4375 3.8125-0.71875 5.6875-1.0781zm-6.4844 8.75c0.078125 1.1094 0.10938 1.5469-1.25 1.6562-1.3281 0.09375-0.9375-1.9219-0.078125-2.3906 0.90625-0.45312 1.2656-0.39062 1.3281 0.73438zm12.469 0.17188c-0.32812 0-0.29688 0.03125-0.4375 0.07813-0.14062 0.14062-0.10938-0.07813 0.39062 0.03125 0.51562 0.14062 0.32812-0.10938 0.04687-0.10938zm-2.2031 0.10938c-0.03125 0-0.10938 0-0.25 0.03125-0.1875 0.32812 0.5-0.0625 0.25-0.03125zm3.5625 0.03125c-0.03125 0-0.03125 0.04687-0.0625 0.07813 0.10938 0.21875 0.14062-0.07813 0.0625-0.07813zm-4.2031 0.04687c-0.90625 0.14062-2.0938-0.10938-2.7812 0.42188 0.71875 0.1875 2.4844-0.21875 2.7812-0.42188zm4.9688 0.03125c-0.07813 0-0.10938 0.03125 0 0.14062 0.96875 0.14062 0.25-0.14062 0-0.14062z"/>
  </symbol>
  <symbol id="j" overflow="visible">
   <path d="m-13.969 37.797c0.90625 0.82812 2.7031 0.5 4.7188-0.79688 2.0469-1.2969 5.9062-5.0781 7.875-6.7969 1.9844-1.7656 1.5938-0.76562 1.1875 1.4062-0.42188 2.1875-0.64062 6.9844 1.875 8.2812 2.5625 1.3281 7.0625-0.40625 8.9688-0.57812 1.9375-0.1875 3.9531-0.10938 3.2812-2.0156-0.71875-1.9531-0.57812-1.5938-1.4531-2.5312-0.85938-0.89062-1.1875-1.3594-1.6875-1.9062 0.04687 0.54688 0.1875 1.8438-0.42188 3.0938-0.65625 1.2656-2.5312 0.9375-3.8594 0.9375-1.3281-0.03125-2.7656 0.29688-4.0312-0.53125-1.2969-0.79688-1.0469-3.1406-0.96875-4.3594 0.10938-1.1875-0.078125-1.7656-0.29688-3.75 2.0938-1.9375 8.3281-5.6406 7.4219-7.4531-0.90625-1.75-3.0312-0.5-4.6406-0.3125-1.6562 0.17188-4.0312 0.96875-5.2188 0.9375-1.1562 0-3.3125 0.67188-2.0625-0.32812 1.2656-1.0156 2.8125-2.3125 4.3594-2.9844 1.5469-0.6875 6.125-3.8906 4.9688-5.125-1.1562-1.25-2.9844-0.42188-4.4688 0.07813-1.4688 0.5-2.9531-0.21875-4.4531 0.1875-1.5156 0.39062 0.25 3.2031 1.1094 3.3438 0.85938 0.17188 2.3125-0.6875 3.5625-1.2656 1.2656-0.60938 1.4062-0.14063 0.078125 0.79687-1.3281 0.90625-3.9219 2.9844-5.4688 4.25-1.5469 1.25-3.1094 1.9375-4.4688 2.125-1.3281 0.17188-4.7188-0.21875-5 1.25-0.25 1.4844-0.82812 2.8438 0.53125 3.8281 1.375 1 6.5938-2.4219 9.3594-3.25 2.8125-0.85938 3.3125-0.64062 4.5781-1.1094 1.2188-0.46875 3.6719-1.6875 2.6562 0.03125-0.96875 1.6875-5.5312 4.5312-7.4062 6.1875-1.8438 1.7031-4.6406 4.1406-6.4844 5.625-1.8281 1.4375-5 1.9375-4.1406 2.7344z"/>
  </symbol>
  <symbol id="i" overflow="visible">
   <path d="m-17.75 40.781c0.1875 1.2188-0.14062 3.875 1.625 4.0625 1.7969 0.21875 4.6719-1.7656 7.2344-2.8438 2.5156-1.0469 5.2188-2.0938 8.6406-2.4844 3.4219-0.35938 10.109-0.14062 13.172-0.29688 3.0625-0.17188 4.0312 1.2344 5-0.60938 0.9375-1.8594-0.35938-2.0156-2.9844-2.9531-2.625-0.89062-7.5938-0.14062-12.281 0.26562-4.7031 0.42188-7.7031 1.4688-11.547 2.1562-1.375 0.57812-0.60938-0.54688 0.10938-0.90625-0.85938-0.35938-2.5156 1.9062-3.9219 1.9844-1.375 0.0625-5.1875 0.39062-5.0469 1.625zm9.3906-4c1.1562-0.07813 1.5938-0.46875 3.9688-1.5469 2.4062-1.0469 8.4219-4.6406 8.6719-7.0938 0.21875-2.4531-2.375-0.82812-2.3438-2.0156 0.046875-1.1875 0.90625-2.375 1.8125-3.4219 0.85938-1.0781 0.53125-1.3281-0.98438-1.875-1.4688-0.5-2.5469 0.9375-4.1719 0.96875-1.5781 0-1 0.9375 0.25 1.4062 1.2656 0.4375 1.2344 1.7344 0.078125 2.7812-1.1562 1 0.79688 2.625 0.46875 4.1719s-2.7344 2.375-4 3.5312c-1.2188 1.1406-2.9219 1.7656-3.75 3.0938zm2.7031-6.1875c0.79688 0.89062 0.46875 1.0781 1.1875-0.625 0.71875-1.6875 0.98438-8.8125 0.9375-11.438-0.0625-2.5938 0-6.5938-1.7188-4.2188-1.7344 2.3438-0.32812 8.8281-0.82812 11.625-0.46875 2.8125-0.35938 3.75 0.42188 4.6562zm11.953-0.40625c0.90625 1.1562 0.60938 0.35938 1.9531-0.71875 1.2969-1.1094 0.78125-8.4219 0.75-10.875-0.078125-2.4375 0.1875-3.2031-1.1094-4.25-1.2969-1.0312-3.5312-1.0312-4.9688-0.03125-1.4531 0.96875-4.0781 0-4.5781 1.2969-0.54688 1.3281 2.8125 1.9062 4.1406 1.2656 1.375-0.65625 2.375-2.5312 3.7812-1.5938 1.4062 0.98438 0.6875 3.0938 0.71875 4.9375 0.078125 1.7969-0.25 4.1719-0.39062 5.9688-0.1875 1.8125-1.1875 2.8906-0.29688 4z"/>
  </symbol>
 </defs>
 <g>
  <g transform="translate(183.567 -12.70)">
   <use x="25.204102" y="10" width="100%" height="100%" xlink:href="#q"/>
   <use x="25.204102" y="46" width="100%" height="100%" xlink:href="#h"/>
   <use x="25.204102" y="82" width="100%" height="100%" xlink:href="#g"/>
  </g>
  <g transform="translate(139.15 -123.15)">
   <use x="25.204102" y="184.59961" width="100%" height="100%" xlink:href="#f"/>
   <use x="25.204102" y="220.59961" width="100%" height="100%" xlink:href="#e"/>
   <use x="25.204102" y="289" width="100%" height="100%" xlink:href="#d"/>
  </g>
  <g transform="translate(93.281 -207.14)">
   <use x="25.204102" y="368.2002" width="100%" height="100%" xlink:href="#c"/>
   <use x="25.204102" y="404.2002" width="100%" height="100%" xlink:href="#b"/>
   <use x="25.204102" y="440.2002" width="100%" height="100%" xlink:href="#a"/>
   <use x="25.204102" y="458.2002" width="100%" height="100%" xlink:href="#p"/>
  </g>
  <g transform="translate(3.9521 -432.01)">
   <use x="25.204102" y="537.40039" width="100%" height="100%" xlink:href="#o"/>
   <use x="25.204102" y="569.80078" width="100%" height="100%" xlink:href="#n"/>
   <use x="25.204102" y="598.60059" width="100%" height="100%" xlink:href="#m"/>
   <use x="25.204102" y="627.40039" width="100%" height="100%" xlink:href="#l"/>
   <use x="25.204102" y="656.41602" width="100%" height="100%" xlink:href="#k"/>
   <use x="25.204102" y="685.21582" width="100%" height="100%" xlink:href="#j"/>
   <use x="25.204102" y="721.21582" width="100%" height="100%" xlink:href="#i"/>
  </g>
 </g>
</svg>
