<?xml version="1.0" encoding="UTF-8" standalone="no"?><svg xmlns="http://www.w3.org/2000/svg" width="449" height="225.1" viewBox="0 0 118.8 59.5"><defs><marker id="a" orient="auto" refX="0" refY="0" overflow="visible"><path d="M10 0l4-4L0 0l14 4z" fill-rule="evenodd" stroke="#000" stroke-width=".8pt"/></marker><marker id="b" orient="auto" refX="0" refY="0" overflow="visible"><path d="M-10 0l-4 4L0 0l-14-4z" fill-rule="evenodd" stroke="#000" stroke-width=".8pt"/></marker></defs><path d="M10.7 20H61v28.8H10.7zm0 0" fill="none" stroke="#4a8fd9" stroke-width="1.4" stroke-miterlimit="10" stroke-opacity=".5"/><path d="M60 20.6h48.8v27.5H60zm0 0" fill="#6fc"/><path d="M60.2 20.8h48.4V48H60.2zm0 0" fill="none" stroke="#000" stroke-miterlimit="10" stroke-width=".35278"/><g fill="none" stroke="#000"><path d="M83.5 56.5h48.8" marker-start="url(#a)" marker-end="url(#b)" stroke-width=".3" transform="translate(-72.1 -41.2)"/><path d="M11.4 10v38.1M60.2 10v38.1" stroke-width=".1"/><path d="M11.4 20.6h48.8v27.5H11.4zm0 0" fill="#cf6" stroke="none"/><path d="M11.6 20.8H60V48H11.6zm0 0" stroke-miterlimit="10" stroke-width=".35278"/></g><text y="54" x="107.8" style="line-height:125%;text-align:center" font-weight="400" font-size="4" font-family="sans-serif" letter-spacing="0" word-spacing="0" text-anchor="middle" stroke-width=".3" transform="translate(-72.1 -41.2)"><tspan style="text-align:center" y="54" x="107.8">1920</tspan></text><text style="line-height:125%;text-align:center" x="108.3" y="77.8" font-weight="400" font-size="6.3" font-family="sans-serif" letter-spacing="0" word-spacing="0" text-anchor="middle" stroke-width=".3" transform="translate(-72.1 -41.2)"><tspan x="108.3" y="77.8" style="text-align:center">1</tspan></text><text y="77.8" x="156.6" style="line-height:125%;text-align:center" font-weight="400" font-size="6.3" font-family="sans-serif" letter-spacing="0" word-spacing="0" text-anchor="middle" stroke-width=".3" transform="translate(-72.1 -41.2)"><tspan style="text-align:center" y="77.8" x="156.6">2</tspan></text></svg>