<?xml version="1.0" encoding="UTF-8" standalone="no"?>
<!DOCTYPE svg PUBLIC "-//W3C//DTD SVG 1.1//EN"
 "http://www.w3.org/Graphics/SVG/1.1/DTD/svg11.dtd">
<!-- Generated by graphviz version 2.42.4 (0)
 -->
<!-- Title: G Pages: 1 -->
<svg width="328pt" height="789pt"
 viewBox="0.00 0.00 328.39 789.00" xmlns="http://www.w3.org/2000/svg" xmlns:xlink="http://www.w3.org/1999/xlink">
<g id="graph0" class="graph" transform="scale(1 1) rotate(0) translate(4 785)">
<polygon fill="white" stroke="transparent" points="-4,4 -4,-785 324.39,-785 324.39,4 -4,4"/>
<g id="clust1" class="cluster">
<title>cluster_A</title>
<polygon fill="none" stroke="black" points="8,-374 8,-665 202,-665 202,-374 8,-374"/>
<text text-anchor="middle" x="48" y="-649.8" font-family="Times,serif" font-size="14.00">PulseAudio</text>
</g>
<g id="clust2" class="cluster">
<title>cluster_B</title>
<polygon fill="none" stroke="black" points="10,-8 10,-302 188,-302 188,-8 10,-8"/>
<text text-anchor="middle" x="41" y="-286.8" font-family="Times,serif" font-size="14.00">Browser</text>
</g>
<g id="clust3" class="cluster">
<title>cluster_AC</title>
<polygon fill="none" stroke="black" points="44,-80 44,-227 163,-227 163,-80 44,-80"/>
<text text-anchor="middle" x="103.5" y="-211.8" font-family="Times,serif" font-size="14.00">WebAudio context</text>
</g>
<!-- LADSPA -->
<g id="node1" class="node">
<title>LADSPA</title>
<polygon fill="none" stroke="black" stroke-dasharray="5,2" points="195.5,-781 14.5,-781 14.5,-745 195.5,-745 195.5,-781"/>
<text text-anchor="middle" x="105" y="-759.3" font-family="Times,serif" font-size="14.00">LADSPA White Noise Source</text>
</g>
<!-- WN -->
<g id="node2" class="node">
<title>WN</title>
<polygon fill="none" stroke="black" points="199.18,-709 49.36,-709 10.82,-673 160.64,-673 199.18,-709"/>
<text text-anchor="middle" x="105" y="-687.3" font-family="Times,serif" font-size="14.00">whitenoise.flac</text>
</g>
<!-- LADSPA&#45;&gt;WN -->
<g id="edge1" class="edge">
<title>LADSPA&#45;&gt;WN</title>
<path fill="none" stroke="black" stroke-dasharray="5,2" d="M105,-744.7C105,-736.98 105,-727.71 105,-719.11"/>
<polygon fill="black" stroke="black" points="108.5,-719.1 105,-709.1 101.5,-719.1 108.5,-719.1"/>
<text text-anchor="middle" x="53.5" y="-712.9" font-family="Times,serif" font-size="14.00">(create in offline) &#160;</text>
</g>
<!-- gst -->
<g id="node3" class="node">
<title>gst</title>
<text text-anchor="middle" x="105" y="-612.3" font-family="Times,serif" font-size="14.00">gst&#45;play</text>
</g>
<!-- WN&#45;&gt;gst -->
<g id="edge2" class="edge">
<title>WN&#45;&gt;gst</title>
<path fill="none" stroke="black" d="M105,-672.7C105,-661.06 105,-645.79 105,-634.18"/>
</g>
<!-- NullSink -->
<g id="node4" class="node">
<title>NullSink</title>
<polygon fill="none" stroke="black" points="137.5,-562 72.5,-562 72.5,-526 137.5,-526 137.5,-562"/>
<text text-anchor="middle" x="105" y="-540.3" font-family="Times,serif" font-size="14.00">NullSink</text>
</g>
<!-- gst&#45;&gt;NullSink -->
<g id="edge3" class="edge">
<title>gst&#45;&gt;NullSink</title>
<path fill="none" stroke="black" d="M105,-597.7C105,-589.98 105,-580.71 105,-572.11"/>
<polygon fill="black" stroke="black" points="108.5,-572.1 105,-562.1 101.5,-572.1 108.5,-572.1"/>
</g>
<!-- PALpbk -->
<g id="node5" class="node">
<title>PALpbk</title>
<text text-anchor="middle" x="105" y="-468.3" font-family="Times,serif" font-size="14.00">PulseAudio internal loopback</text>
</g>
<!-- NullSink&#45;&gt;PALpbk -->
<g id="edge4" class="edge">
<title>NullSink&#45;&gt;PALpbk</title>
<path fill="none" stroke="black" stroke-dasharray="5,2" d="M105,-525.7C105,-514.85 105,-500.92 105,-490.1"/>
</g>
<!-- MonNullSink -->
<g id="node6" class="node">
<title>MonNullSink</title>
<polygon fill="none" stroke="black" points="169.5,-418 40.5,-418 40.5,-382 169.5,-382 169.5,-418"/>
<text text-anchor="middle" x="105" y="-396.3" font-family="Times,serif" font-size="14.00">Monitor of NullSink</text>
</g>
<!-- PALpbk&#45;&gt;MonNullSink -->
<g id="edge5" class="edge">
<title>PALpbk&#45;&gt;MonNullSink</title>
<path fill="none" stroke="black" stroke-dasharray="5,2" d="M105,-453.7C105,-445.98 105,-436.71 105,-428.11"/>
<polygon fill="black" stroke="black" points="108.5,-428.1 105,-418.1 101.5,-428.1 108.5,-428.1"/>
</g>
<!-- recordDevice -->
<g id="node7" class="node">
<title>recordDevice</title>
<text text-anchor="middle" x="105" y="-324.3" font-family="Times,serif" font-size="14.00">record device</text>
</g>
<!-- MonNullSink&#45;&gt;recordDevice -->
<g id="edge6" class="edge">
<title>MonNullSink&#45;&gt;recordDevice</title>
<path fill="none" stroke="black" d="M105,-381.7C105,-370.85 105,-356.92 105,-346.1"/>
</g>
<!-- gUM -->
<g id="node8" class="node">
<title>gUM</title>
<polygon fill="none" stroke="black" points="156.5,-271 53.5,-271 53.5,-235 156.5,-235 156.5,-271"/>
<text text-anchor="middle" x="105" y="-249.3" font-family="Times,serif" font-size="14.00">getUserMedia()</text>
</g>
<!-- recordDevice&#45;&gt;gUM -->
<g id="edge7" class="edge">
<title>recordDevice&#45;&gt;gUM</title>
<path fill="none" stroke="black" d="M105,-309.7C105,-301.25 105,-290.87 105,-281.37"/>
<polygon fill="black" stroke="black" points="108.5,-281.18 105,-271.18 101.5,-281.18 108.5,-281.18"/>
</g>
<!-- synthDelay -->
<g id="node9" class="node">
<title>synthDelay</title>
<polygon fill="none" stroke="black" points="132,-196 78,-196 78,-160 132,-160 132,-196"/>
<text text-anchor="middle" x="105" y="-174.3" font-family="Times,serif" font-size="14.00">delay</text>
</g>
<!-- gUM&#45;&gt;synthDelay -->
<g id="edge8" class="edge">
<title>gUM&#45;&gt;synthDelay</title>
<path fill="none" stroke="black" d="M105,-234.7C105,-226.25 105,-215.87 105,-206.37"/>
<polygon fill="black" stroke="black" points="108.5,-206.18 105,-196.18 101.5,-206.18 108.5,-206.18"/>
</g>
<!-- synthAnly -->
<g id="node10" class="node">
<title>synthAnly</title>
<polygon fill="none" stroke="black" points="134,-124 72,-124 72,-88 134,-88 134,-124"/>
<text text-anchor="middle" x="103" y="-102.3" font-family="Times,serif" font-size="14.00">analyser</text>
</g>
<!-- synthDelay&#45;&gt;synthAnly -->
<g id="edge10" class="edge">
<title>synthDelay&#45;&gt;synthAnly</title>
<path fill="none" stroke="black" d="M104.51,-159.7C104.29,-151.98 104.02,-142.71 103.77,-134.11"/>
<polygon fill="black" stroke="black" points="107.27,-134 103.49,-124.1 100.28,-134.2 107.27,-134"/>
</g>
<!-- synthDest -->
<g id="node12" class="node">
<title>synthDest</title>
<ellipse fill="none" stroke="black" cx="258" cy="-106" rx="62.29" ry="18"/>
<text text-anchor="middle" x="258" y="-102.3" font-family="Times,serif" font-size="14.00">speaker output</text>
</g>
<!-- synthDelay&#45;&gt;synthDest -->
<g id="edge9" class="edge">
<title>synthDelay&#45;&gt;synthDest</title>
<path fill="none" stroke="black" d="M132,-164.65C155.56,-153.87 190.1,-138.07 217.05,-125.73"/>
<polygon fill="black" stroke="black" points="218.61,-128.87 226.24,-121.53 215.69,-122.51 218.61,-128.87"/>
</g>
<!-- spectrumCanvas -->
<g id="node11" class="node">
<title>spectrumCanvas</title>
<ellipse fill="none" stroke="black" cx="99" cy="-34" rx="81.49" ry="18"/>
<text text-anchor="middle" x="99" y="-30.3" font-family="Times,serif" font-size="14.00">spectrum on canvas</text>
</g>
<!-- synthAnly&#45;&gt;spectrumCanvas -->
<g id="edge11" class="edge">
<title>synthAnly&#45;&gt;spectrumCanvas</title>
<path fill="none" stroke="black" d="M102.01,-87.7C101.57,-79.98 101.04,-70.71 100.55,-62.11"/>
<polygon fill="black" stroke="black" points="104.04,-61.89 99.98,-52.1 97.05,-62.29 104.04,-61.89"/>
</g>
</g>
</svg>
