<?xml version="1.0" encoding="UTF-8" standalone="no"?>
<!-- Created with Inkscape (http://www.inkscape.org/) -->
<svg xmlns:dc="http://purl.org/dc/elements/1.1/" xmlns:cc="http://creativecommons.org/ns#" xmlns:rdf="http://www.w3.org/1999/02/22-rdf-syntax-ns#" xmlns:svg="http://www.w3.org/2000/svg" xmlns="http://www.w3.org/2000/svg" xmlns:sodipodi="http://sodipodi.sourceforge.net/DTD/sodipodi-0.dtd" xmlns:inkscape="http://www.inkscape.org/namespaces/inkscape" width="700" height="700" id="svg2" version="1.1" inkscape:version="0.47pre3 " sodipodi:docname="btrfs_logo.svg">
  <defs id="defs4">
    <inkscape:perspective sodipodi:type="inkscape:persp3d" inkscape:vp_x="0 : 526.18109 : 1" inkscape:vp_y="0 : 1000 : 0" inkscape:vp_z="744.09448 : 526.18109 : 1" inkscape:persp3d-origin="372.04724 : 350.78739 : 1" id="perspective10"/>
    <inkscape:perspective id="perspective2826" inkscape:persp3d-origin="0.5 : 0.33333333 : 1" inkscape:vp_z="1 : 0.5 : 1" inkscape:vp_y="0 : 1000 : 0" inkscape:vp_x="0 : 0.5 : 1" sodipodi:type="inkscape:persp3d"/>
    <inkscape:perspective id="perspective2826-7" inkscape:persp3d-origin="0.5 : 0.33333333 : 1" inkscape:vp_z="1 : 0.5 : 1" inkscape:vp_y="0 : 1000 : 0" inkscape:vp_x="0 : 0.5 : 1" sodipodi:type="inkscape:persp3d"/>
    <inkscape:perspective id="perspective2857" inkscape:persp3d-origin="0.5 : 0.33333333 : 1" inkscape:vp_z="1 : 0.5 : 1" inkscape:vp_y="0 : 1000 : 0" inkscape:vp_x="0 : 0.5 : 1" sodipodi:type="inkscape:persp3d"/>
    <inkscape:perspective id="perspective2857-9" inkscape:persp3d-origin="0.5 : 0.33333333 : 1" inkscape:vp_z="1 : 0.5 : 1" inkscape:vp_y="0 : 1000 : 0" inkscape:vp_x="0 : 0.5 : 1" sodipodi:type="inkscape:persp3d"/>
    <inkscape:perspective id="perspective2888" inkscape:persp3d-origin="0.5 : 0.33333333 : 1" inkscape:vp_z="1 : 0.5 : 1" inkscape:vp_y="0 : 1000 : 0" inkscape:vp_x="0 : 0.5 : 1" sodipodi:type="inkscape:persp3d"/>
    <inkscape:perspective id="perspective2914" inkscape:persp3d-origin="0.5 : 0.33333333 : 1" inkscape:vp_z="1 : 0.5 : 1" inkscape:vp_y="0 : 1000 : 0" inkscape:vp_x="0 : 0.5 : 1" sodipodi:type="inkscape:persp3d"/>
    <inkscape:perspective id="perspective2942" inkscape:persp3d-origin="0.5 : 0.33333333 : 1" inkscape:vp_z="1 : 0.5 : 1" inkscape:vp_y="0 : 1000 : 0" inkscape:vp_x="0 : 0.5 : 1" sodipodi:type="inkscape:persp3d"/>
    <inkscape:perspective id="perspective3752" inkscape:persp3d-origin="0.5 : 0.33333333 : 1" inkscape:vp_z="1 : 0.5 : 1" inkscape:vp_y="0 : 1000 : 0" inkscape:vp_x="0 : 0.5 : 1" sodipodi:type="inkscape:persp3d"/>
    <inkscape:perspective id="perspective3780" inkscape:persp3d-origin="0.5 : 0.33333333 : 1" inkscape:vp_z="1 : 0.5 : 1" inkscape:vp_y="0 : 1000 : 0" inkscape:vp_x="0 : 0.5 : 1" sodipodi:type="inkscape:persp3d"/>
    <inkscape:perspective id="perspective3802" inkscape:persp3d-origin="0.5 : 0.33333333 : 1" inkscape:vp_z="1 : 0.5 : 1" inkscape:vp_y="0 : 1000 : 0" inkscape:vp_x="0 : 0.5 : 1" sodipodi:type="inkscape:persp3d"/>
    <inkscape:perspective id="perspective3824" inkscape:persp3d-origin="0.5 : 0.33333333 : 1" inkscape:vp_z="1 : 0.5 : 1" inkscape:vp_y="0 : 1000 : 0" inkscape:vp_x="0 : 0.5 : 1" sodipodi:type="inkscape:persp3d"/>
    <inkscape:perspective id="perspective3846" inkscape:persp3d-origin="0.5 : 0.33333333 : 1" inkscape:vp_z="1 : 0.5 : 1" inkscape:vp_y="0 : 1000 : 0" inkscape:vp_x="0 : 0.5 : 1" sodipodi:type="inkscape:persp3d"/>
    <inkscape:perspective id="perspective3868" inkscape:persp3d-origin="0.5 : 0.33333333 : 1" inkscape:vp_z="1 : 0.5 : 1" inkscape:vp_y="0 : 1000 : 0" inkscape:vp_x="0 : 0.5 : 1" sodipodi:type="inkscape:persp3d"/>
    <inkscape:perspective id="perspective3890" inkscape:persp3d-origin="0.5 : 0.33333333 : 1" inkscape:vp_z="1 : 0.5 : 1" inkscape:vp_y="0 : 1000 : 0" inkscape:vp_x="0 : 0.5 : 1" sodipodi:type="inkscape:persp3d"/>
    <inkscape:perspective id="perspective3912" inkscape:persp3d-origin="0.5 : 0.33333333 : 1" inkscape:vp_z="1 : 0.5 : 1" inkscape:vp_y="0 : 1000 : 0" inkscape:vp_x="0 : 0.5 : 1" sodipodi:type="inkscape:persp3d"/>
    <inkscape:perspective id="perspective3934" inkscape:persp3d-origin="0.5 : 0.33333333 : 1" inkscape:vp_z="1 : 0.5 : 1" inkscape:vp_y="0 : 1000 : 0" inkscape:vp_x="0 : 0.5 : 1" sodipodi:type="inkscape:persp3d"/>
    <inkscape:perspective id="perspective3956" inkscape:persp3d-origin="0.5 : 0.33333333 : 1" inkscape:vp_z="1 : 0.5 : 1" inkscape:vp_y="0 : 1000 : 0" inkscape:vp_x="0 : 0.5 : 1" sodipodi:type="inkscape:persp3d"/>
    <inkscape:perspective id="perspective3978" inkscape:persp3d-origin="0.5 : 0.33333333 : 1" inkscape:vp_z="1 : 0.5 : 1" inkscape:vp_y="0 : 1000 : 0" inkscape:vp_x="0 : 0.5 : 1" sodipodi:type="inkscape:persp3d"/>
    <inkscape:perspective id="perspective4000" inkscape:persp3d-origin="0.5 : 0.33333333 : 1" inkscape:vp_z="1 : 0.5 : 1" inkscape:vp_y="0 : 1000 : 0" inkscape:vp_x="0 : 0.5 : 1" sodipodi:type="inkscape:persp3d"/>
    <inkscape:perspective id="perspective4022" inkscape:persp3d-origin="0.5 : 0.33333333 : 1" inkscape:vp_z="1 : 0.5 : 1" inkscape:vp_y="0 : 1000 : 0" inkscape:vp_x="0 : 0.5 : 1" sodipodi:type="inkscape:persp3d"/>
    <inkscape:perspective id="perspective4044" inkscape:persp3d-origin="0.5 : 0.33333333 : 1" inkscape:vp_z="1 : 0.5 : 1" inkscape:vp_y="0 : 1000 : 0" inkscape:vp_x="0 : 0.5 : 1" sodipodi:type="inkscape:persp3d"/>
    <inkscape:perspective id="perspective4066" inkscape:persp3d-origin="0.5 : 0.33333333 : 1" inkscape:vp_z="1 : 0.5 : 1" inkscape:vp_y="0 : 1000 : 0" inkscape:vp_x="0 : 0.5 : 1" sodipodi:type="inkscape:persp3d"/>
    <inkscape:perspective id="perspective4088" inkscape:persp3d-origin="0.5 : 0.33333333 : 1" inkscape:vp_z="1 : 0.5 : 1" inkscape:vp_y="0 : 1000 : 0" inkscape:vp_x="0 : 0.5 : 1" sodipodi:type="inkscape:persp3d"/>
    <inkscape:perspective id="perspective4110" inkscape:persp3d-origin="0.5 : 0.33333333 : 1" inkscape:vp_z="1 : 0.5 : 1" inkscape:vp_y="0 : 1000 : 0" inkscape:vp_x="0 : 0.5 : 1" sodipodi:type="inkscape:persp3d"/>
    <inkscape:perspective id="perspective4132" inkscape:persp3d-origin="0.5 : 0.33333333 : 1" inkscape:vp_z="1 : 0.5 : 1" inkscape:vp_y="0 : 1000 : 0" inkscape:vp_x="0 : 0.5 : 1" sodipodi:type="inkscape:persp3d"/>
    <inkscape:perspective id="perspective4208" inkscape:persp3d-origin="0.5 : 0.33333333 : 1" inkscape:vp_z="1 : 0.5 : 1" inkscape:vp_y="0 : 1000 : 0" inkscape:vp_x="0 : 0.5 : 1" sodipodi:type="inkscape:persp3d"/>
    <inkscape:perspective id="perspective4332" inkscape:persp3d-origin="0.5 : 0.33333333 : 1" inkscape:vp_z="1 : 0.5 : 1" inkscape:vp_y="0 : 1000 : 0" inkscape:vp_x="0 : 0.5 : 1" sodipodi:type="inkscape:persp3d"/>
    <inkscape:perspective id="perspective4402" inkscape:persp3d-origin="0.5 : 0.33333333 : 1" inkscape:vp_z="1 : 0.5 : 1" inkscape:vp_y="0 : 1000 : 0" inkscape:vp_x="0 : 0.5 : 1" sodipodi:type="inkscape:persp3d"/>
    <inkscape:perspective id="perspective4556" inkscape:persp3d-origin="0.5 : 0.33333333 : 1" inkscape:vp_z="1 : 0.5 : 1" inkscape:vp_y="0 : 1000 : 0" inkscape:vp_x="0 : 0.5 : 1" sodipodi:type="inkscape:persp3d"/>
    <inkscape:perspective id="perspective4642" inkscape:persp3d-origin="0.5 : 0.33333333 : 1" inkscape:vp_z="1 : 0.5 : 1" inkscape:vp_y="0 : 1000 : 0" inkscape:vp_x="0 : 0.5 : 1" sodipodi:type="inkscape:persp3d"/>
    <inkscape:perspective id="perspective4727" inkscape:persp3d-origin="0.5 : 0.33333333 : 1" inkscape:vp_z="1 : 0.5 : 1" inkscape:vp_y="0 : 1000 : 0" inkscape:vp_x="0 : 0.5 : 1" sodipodi:type="inkscape:persp3d"/>
    <inkscape:perspective id="perspective4852" inkscape:persp3d-origin="0.5 : 0.33333333 : 1" inkscape:vp_z="1 : 0.5 : 1" inkscape:vp_y="0 : 1000 : 0" inkscape:vp_x="0 : 0.5 : 1" sodipodi:type="inkscape:persp3d"/>
    <inkscape:perspective id="perspective4880" inkscape:persp3d-origin="0.5 : 0.33333333 : 1" inkscape:vp_z="1 : 0.5 : 1" inkscape:vp_y="0 : 1000 : 0" inkscape:vp_x="0 : 0.5 : 1" sodipodi:type="inkscape:persp3d"/>
    <inkscape:perspective id="perspective4902" inkscape:persp3d-origin="0.5 : 0.33333333 : 1" inkscape:vp_z="1 : 0.5 : 1" inkscape:vp_y="0 : 1000 : 0" inkscape:vp_x="0 : 0.5 : 1" sodipodi:type="inkscape:persp3d"/>
    <inkscape:perspective id="perspective4926" inkscape:persp3d-origin="0.5 : 0.33333333 : 1" inkscape:vp_z="1 : 0.5 : 1" inkscape:vp_y="0 : 1000 : 0" inkscape:vp_x="0 : 0.5 : 1" sodipodi:type="inkscape:persp3d"/>
    <inkscape:perspective id="perspective4952" inkscape:persp3d-origin="0.5 : 0.33333333 : 1" inkscape:vp_z="1 : 0.5 : 1" inkscape:vp_y="0 : 1000 : 0" inkscape:vp_x="0 : 0.5 : 1" sodipodi:type="inkscape:persp3d"/>
    <inkscape:perspective id="perspective4974" inkscape:persp3d-origin="0.5 : 0.33333333 : 1" inkscape:vp_z="1 : 0.5 : 1" inkscape:vp_y="0 : 1000 : 0" inkscape:vp_x="0 : 0.5 : 1" sodipodi:type="inkscape:persp3d"/>
    <inkscape:perspective id="perspective4996" inkscape:persp3d-origin="0.5 : 0.33333333 : 1" inkscape:vp_z="1 : 0.5 : 1" inkscape:vp_y="0 : 1000 : 0" inkscape:vp_x="0 : 0.5 : 1" sodipodi:type="inkscape:persp3d"/>
    <inkscape:perspective id="perspective5022" inkscape:persp3d-origin="0.5 : 0.33333333 : 1" inkscape:vp_z="1 : 0.5 : 1" inkscape:vp_y="0 : 1000 : 0" inkscape:vp_x="0 : 0.5 : 1" sodipodi:type="inkscape:persp3d"/>
    <inkscape:perspective id="perspective5045" inkscape:persp3d-origin="0.5 : 0.33333333 : 1" inkscape:vp_z="1 : 0.5 : 1" inkscape:vp_y="0 : 1000 : 0" inkscape:vp_x="0 : 0.5 : 1" sodipodi:type="inkscape:persp3d"/>
    <inkscape:perspective id="perspective5045-8" inkscape:persp3d-origin="0.5 : 0.33333333 : 1" inkscape:vp_z="1 : 0.5 : 1" inkscape:vp_y="0 : 1000 : 0" inkscape:vp_x="0 : 0.5 : 1" sodipodi:type="inkscape:persp3d"/>
    <inkscape:perspective id="perspective5045-1" inkscape:persp3d-origin="0.5 : 0.33333333 : 1" inkscape:vp_z="1 : 0.5 : 1" inkscape:vp_y="0 : 1000 : 0" inkscape:vp_x="0 : 0.5 : 1" sodipodi:type="inkscape:persp3d"/>
    <inkscape:perspective id="perspective5087" inkscape:persp3d-origin="0.5 : 0.33333333 : 1" inkscape:vp_z="1 : 0.5 : 1" inkscape:vp_y="0 : 1000 : 0" inkscape:vp_x="0 : 0.5 : 1" sodipodi:type="inkscape:persp3d"/>
    <inkscape:perspective id="perspective5110" inkscape:persp3d-origin="0.5 : 0.33333333 : 1" inkscape:vp_z="1 : 0.5 : 1" inkscape:vp_y="0 : 1000 : 0" inkscape:vp_x="0 : 0.5 : 1" sodipodi:type="inkscape:persp3d"/>
    <inkscape:perspective id="perspective5168" inkscape:persp3d-origin="0.5 : 0.33333333 : 1" inkscape:vp_z="1 : 0.5 : 1" inkscape:vp_y="0 : 1000 : 0" inkscape:vp_x="0 : 0.5 : 1" sodipodi:type="inkscape:persp3d"/>
    <inkscape:perspective id="perspective5190" inkscape:persp3d-origin="0.5 : 0.33333333 : 1" inkscape:vp_z="1 : 0.5 : 1" inkscape:vp_y="0 : 1000 : 0" inkscape:vp_x="0 : 0.5 : 1" sodipodi:type="inkscape:persp3d"/>
    <inkscape:perspective id="perspective5221" inkscape:persp3d-origin="0.5 : 0.33333333 : 1" inkscape:vp_z="1 : 0.5 : 1" inkscape:vp_y="0 : 1000 : 0" inkscape:vp_x="0 : 0.5 : 1" sodipodi:type="inkscape:persp3d"/>
    <inkscape:perspective id="perspective3768" inkscape:persp3d-origin="0.5 : 0.33333333 : 1" inkscape:vp_z="1 : 0.5 : 1" inkscape:vp_y="0 : 1000 : 0" inkscape:vp_x="0 : 0.5 : 1" sodipodi:type="inkscape:persp3d"/>
  </defs>
  <sodipodi:namedview id="base" pagecolor="#ffffff" bordercolor="#666666" borderopacity="1.0" inkscape:pageopacity="0.0" inkscape:pageshadow="2" inkscape:zoom="0.73892443" inkscape:cx="554.1169" inkscape:cy="157.66382" inkscape:document-units="px" inkscape:current-layer="g5142" showgrid="false" inkscape:window-width="1024" inkscape:window-height="721" inkscape:window-x="-4" inkscape:window-y="24" inkscape:window-maximized="1" showguides="true" inkscape:guide-bbox="true"/>
  <metadata id="metadata7">
    <rdf:RDF>
      <cc:Work rdf:about="">
        <dc:format>image/svg+xml</dc:format>
        <dc:type rdf:resource="http://purl.org/dc/dcmitype/StillImage"/>
        <dc:title/>
      </cc:Work>
    </rdf:RDF>
  </metadata>
  <g inkscape:label="Layer 1" inkscape:groupmode="layer" id="layer1" transform="translate(0,-352.36218)">
    <g id="g5142" transform="translate(19.230768,-616.00002)">
      <path sodipodi:nodetypes="cccccccccccccccccccccccccccccccccccccccccccccccccccccccccccccccccccccccccccccccccccccccccccccccccccccc" id="rect2816-3-4-9" d="m 403.76923,1095.5966 c -9.15391,0 -16.65625,7.5023 -16.65625,16.6562 l 0,37.8438 c 0,4.3415 1.71768,8.3069 4.46875,11.2812 -2.76023,2.9762 -4.46875,6.9315 -4.46875,11.2813 l 0,37.8125 c 0,2.3716 0.50081,4.6362 1.40625,6.6875 l -56.90625,0 c -0.0422,-4e-4 -0.0827,0 -0.125,0 l -28.9375,0 c -9.15391,0 -16.65625,7.5335 -16.65625,16.6875 l 0,37.8125 c 0,4.3497 1.70852,8.3289 4.46875,11.3125 -2.76023,2.9835 -4.46875,6.9315 -4.46875,11.2812 l 0,37.8125 c 0,9.1539 7.50234,16.6875 16.65625,16.6875 l 28.9375,0 c 0.0423,0 0.0827,3e-4 0.125,0 l 56.59375,0 c -0.70153,1.8356 -1.09375,3.8021 -1.09375,5.875 l 0,37.8438 c 0,9.1539 7.50234,16.6562 16.65625,16.6562 l 28.9375,0 c 9.15391,0 16.6875,-7.5023 16.6875,-16.6562 l 0,-37.8438 c 0,-4.3384 -1.71385,-8.2764 -4.46875,-11.25 2.76431,-2.9829 4.46875,-6.9657 4.46875,-11.3125 l 0,-37.8125 c 0,-9.1539 -7.53359,-16.6875 -16.6875,-16.6875 l -28.9375,0 c -9.15391,0 -16.65625,7.5336 -16.65625,16.6875 l 0,37.8125 c 0,2.3717 0.50081,4.6362 1.40625,6.6875 l -41.78125,0 c 0.90544,-2.0513 1.40625,-4.3158 1.40625,-6.6875 l 0,-37.8125 c 0,-4.3497 -1.70852,-8.2977 -4.46875,-11.2812 2.76023,-2.9836 4.46875,-6.9628 4.46875,-11.3125 l 0,-37.8125 c 0,-2.3781 -0.52745,-4.6319 -1.4375,-6.6875 l 86,0 c 9.15391,0 16.6875,-7.5336 16.6875,-16.6875 l 0,-37.8125 c 0,-4.3468 -1.70444,-8.3058 -4.46875,-11.2813 2.7549,-2.9736 4.46875,-6.9428 4.46875,-11.2812 l 0,-37.8438 c 0,-9.1539 -7.53359,-16.6562 -16.6875,-16.6562 l -28.9375,0 z m 0,10 28.9375,0 c 3.78689,0 6.6875,2.8693 6.6875,6.6562 l 0,37.8438 c 0,2.8401 -1.61786,5.1717 -4.03125,6.1562 -7.68259,0 -23.07591,0 -34.21875,0 -2.4046,-0.9845 -4.03125,-3.3161 -4.03125,-6.1562 l 0,-37.8438 c 0,-3.7869 2.86936,-6.6562 6.65625,-6.6562 z m -2.65625,60.9375 c 10.65135,0 21.0594,0 34.28125,0 2.39803,0.991 4,3.2958 4,6.125 l 0,37.8125 c 0,3.7868 -2.90061,6.6875 -6.6875,6.6875 l -28.9375,0 c -3.78689,0 -6.65625,-2.9007 -6.65625,-6.6875 l 0,-37.8125 c 0,-2.8296 1.61024,-5.1343 4,-6.125 z m -98.5625,60.625 28.9375,0 c 3.78689,0 6.65625,2.9006 6.65625,6.6875 l 0,37.8125 c 0,2.815 -1.59941,5.1481 -3.96875,6.1562 -12.60602,0 -22.20604,0 -34.3125,0 -2.36934,-1.0081 -3.96875,-3.3412 -3.96875,-6.1562 l 0,-37.8125 c 0,-3.7869 2.86936,-6.6875 6.65625,-6.6875 z m 101.21875,60.4062 28.9375,0 c 3.78689,0 6.6875,2.9006 6.6875,6.6875 l 0,37.8125 c 0,2.8139 -1.59212,5.1475 -3.96875,6.1563 -4.97179,0 -22.88367,0 -34.34375,0 -2.36934,-1.0081 -3.96875,-3.3413 -3.96875,-6.1563 l 0,-37.8125 c 0,-3.7869 2.86936,-6.6875 6.65625,-6.6875 z m -103.875,0.5625 c 11.73997,0 21.26394,0 34.25,0 2.38358,1.0022 4,3.2999 4,6.125 l 0,37.8125 c 0,3.7869 -2.86936,6.6875 -6.65625,6.6875 l -28.9375,0 c -3.78689,0 -6.65625,-2.9006 -6.65625,-6.6875 l 0,-37.8125 c 0,-2.8251 1.61642,-5.1228 4,-6.125 z m 135.5,60.4063 c 2.3912,0.9938 4,3.2694 4,6.0937 l 0,37.8438 c 0,3.7869 -2.90061,6.6562 -6.6875,6.6562 l -28.9375,0 c -3.78689,0 -6.65625,-2.8693 -6.65625,-6.6562 l 0,-37.8438 c 0,-2.6035 1.35931,-4.7731 3.4375,-5.875 4.78043,0 23.58929,-0.2187 34.84375,-0.2187 z" style="font-size:medium;font-style:normal;font-variant:normal;font-weight:normal;font-stretch:normal;text-indent:0;text-align:start;text-decoration:none;line-height:normal;letter-spacing:normal;word-spacing:normal;text-transform:none;direction:ltr;block-progression:tb;writing-mode:lr-tb;text-anchor:start;color:#000000;fill:#000000;fill-opacity:1;stroke:none;stroke-width:10;marker:none;visibility:visible;display:inline;overflow:visible;enable-background:accumulate;font-family:Bitstream Vera Sans;-inkscape-font-specification:Bitstream Vera Sans"/>
      <path id="rect3770-1-1-5-8-3-8-7-4" d="m 490.58173,1286.1278 c -9.10413,0.035 -16.55935,7.5208 -16.59375,16.625 l 0,8.3125 0,4.5313 0,24.9375 0,60.0625 24.9375,0 0,-60.0625 14.71875,0 0,-24.9375 -14.71875,0 0,-4.5313 14.71875,0 0,-24.9375 -14.71875,0 -8.34375,0 z" style="fill:#000000;fill-opacity:1;stroke:none"/>
      <path id="rect3770-1-1-5-2-1-1-3-4-7-7" d="m 543.36298,1315.5966 c -9.10413,0.035 -16.55935,7.5208 -16.59375,16.625 l 0,8.3125 20.71875,35.125 -20.71875,0 0,24.9375 33.28125,0 c 9.1041,-0.035 16.55975,-7.5208 16.59375,-16.625 l 0,-8.3125 -20.6875,-35.125 20.6875,0 0,-24.9375 -33.28125,0 z" style="fill:#000000;fill-opacity:1;stroke:none"/>
      <path id="rect3770-1-6-1-8-0-7-8" d="m 190.05048,1225.7216 c -9.1041,0.035 -16.55975,7.5208 -16.59375,16.625 l 0,12.8437 -12.46875,0 0,24.9375 12.46875,0 0,60.0938 24.9375,0 0,-60.0938 12.46875,0 0,-24.9375 -12.46875,0 0,-29.4687 -8.34375,0 z" style="fill:#000000;fill-opacity:1;stroke:none"/>
      <path id="rect3770-1-1-1-1-0-7-3-3" d="m 245.23798,1255.1903 c -9.10413,0.035 -16.55935,7.5208 -16.59375,16.625 l 0,8.3125 0,60.0938 24.9375,0 0,-60.0938 14.71875,0 0,-24.9375 -23.0625,0 z" style="fill:#000000;fill-opacity:1;stroke:none"/>
      <path id="rect3770-7-4-8-63-3-5" d="m 101.48798,1225.7216 c -9.104126,0.035 -16.559346,7.5208 -16.593746,16.625 l 0,97.875 17.156246,0 7.75,0 25.53125,0 c 9.1041,-0.035 16.55975,-7.5208 16.59375,-16.625 l 0,-8.3125 0,-44.2188 0,-15.875 -42.125,0 0,-29.4687 -8.3125,0 z m 8.3125,54.4062 17.1875,0 0,35.1563 -17.1875,0 0,-35.1563 z" style="fill:#000000;fill-opacity:1;stroke:none"/>
      <text xml:space="preserve" style="font-size:25.45700455px;font-style:normal;font-variant:normal;font-weight:normal;font-stretch:normal;text-align:start;line-height:125%;writing-mode:lr-tb;text-anchor:start;fill:#000000;fill-opacity:1;stroke:none;font-family:Arial;-inkscape-font-specification:Arial" x="-12.123324" y="1713.8512" id="text2867" sodipodi:linespacing="125%"><tspan sodipodi:role="line" id="tspan2869" x="-12.123324" y="1713.8512">This work by <tspan style="font-weight:bold;-inkscape-font-specification:Bitstream Vera Sans Bold" id="tspan2887">Daniel Lommes</tspan> is protected by copyright.</tspan><tspan sodipodi:role="line" x="-12.123324" y="1745.6725" id="tspan2871">Permission is herbey granted to display it in the Mediawiki</tspan><tspan sodipodi:role="line" x="-12.123324" y="1777.4937" id="tspan2883">installation at btrfs.wiki.kernel.org for an indefinite time.</tspan><tspan sodipodi:role="line" x="-12.123324" y="1809.3149" id="tspan2889">Licenses for further use may be given by the author.</tspan></text>
    </g>
  </g>
</svg>