<?xml version="1.0" encoding="UTF-8" standalone="no"?>
<!-- Created with Inkscape (http://www.inkscape.org/) -->
<svg xmlns="http://www.w3.org/2000/svg" xmlns:svg="http://www.w3.org/2000/svg" xmlns:rdf="http://www.w3.org/1999/02/22-rdf-syntax-ns#" xmlns:cc="http://creativecommons.org/ns#" xmlns:dc="http://purl.org/dc/elements/1.1/" version="1.1" viewBox="0 0 72 60" width="720px" height="600px">
  <title>帝都高速度交通営団の団章の規格（模写）</title>
  <metadata>
    <rdf:RDF>
      <cc:Work rdf:about="">
        <dc:title>帝都高速度交通営団の団章：補足図</dc:title>
        <dc:rights>
          <cc:Agent>
            <dc:title>団章は、東京地下鉄株式会社の登録商標である。</dc:title>
          </cc:Agent>
        </dc:rights>
        <dc:description>帝都高速度交通営団の団章の規格(1960年3月制定)を元にSVG画像に模写し、点S',Q',T,Uを追加して補足図としたもの</dc:description>
      </cc:Work>
    </rdf:RDF>
  </metadata>
  <defs>
    <filter id="filter9530" style="color-interpolation-filters:sRGB" x="-0.21777003" y="-0.085616438" width="1.4355401" height="1.1712329">
      <feMorphology operator="dilate" radius="0.125" result="result1"/>
      <feColorMatrix type="matrix" values="1.0000000 0.0000000 0.0000000 0.0000000 1.0000000 0.0000000 1.0000000 0.0000000 0.0000000 1.0000000 0.0000000 0.0000000 1.0000000 0.0000000 1.0000000 0.0000000 0.0000000 0.0000000 1.0000000 0.0000000 " result="result3"/>
      <feComposite in2="result3" result="result2" operator="" in="SourceGraphic"/>
    </filter>
  </defs>
  <g transform="translate(0,60) matrix(1,0,0,-1,12,-12)">
    <g style="fill:none;fill-rule:evenodd;stroke:#000000;stroke-width:0.125px;stroke-linecap:butt;stroke-linejoin:miter;stroke-dasharray:8, 4;stroke-dashoffset:6;stroke-opacity:0.5">
      <path d="M 0,0 H 54" style="stroke-dasharray:1.5, 0.5;stroke-dashoffset:0"/>
      <path d="M 0,2 H 54" style="stroke-dasharray:1.5, 0.5;stroke-dashoffset:0"/>
      <path d="M 0,4 H 54" style="stroke-dasharray:1.5, 0.5;stroke-dashoffset:0"/>
      <path d="M 0,6 H 54" style="stroke-dasharray:1.5, 0.5;stroke-dashoffset:0"/>
      <path d="M 0,8 H 54" style="stroke-dasharray:1.5, 0.5;stroke-dashoffset:0"/>
      <path d="M 0,10 H 54" style="stroke-dasharray:1.5, 0.5;stroke-dashoffset:0"/>
      <path d="M 0,12 H 54" style="stroke-dasharray:1.5, 0.5;stroke-dashoffset:0"/>
      <path d="M 0,14 H 54" style="stroke-dasharray:1.5, 0.5;stroke-dashoffset:0"/>
      <path d="M 0,16 H 54" style="stroke-dasharray:1.5, 0.5;stroke-dashoffset:0"/>
      <path d="M 0,18 H 54" style="stroke-dasharray:1.5, 0.5;stroke-dashoffset:0"/>
      <path d="M 0,24 H 54" style="stroke-dasharray:1.5, 0.5;stroke-dashoffset:0"/>
      <path d="M 0,26 H 54" style="stroke-dasharray:1.5, 0.5;stroke-dashoffset:0"/>
      <path d="M 0,30 H 54" style="stroke-dasharray:1.5, 0.5;stroke-dashoffset:0"/>
      <path d="M 0,32 H 54" style="stroke-dasharray:1.5, 0.5;stroke-dashoffset:0"/>
      <path d="M 0,34 H 54" style="stroke-dasharray:1.5, 0.5;stroke-dashoffset:0"/>
      <path d="M 0,36 H 54" style="stroke-dasharray:1.5, 0.5;stroke-dashoffset:0"/>
      <path d="M 0,38 H 54" style="stroke-dasharray:1.5, 0.5;stroke-dashoffset:0"/>
      <path d="M 0,40 H 54" style="stroke-dasharray:1.5, 0.5;stroke-dashoffset:0"/>
      <path d="M 0,42 H 54" style="stroke-dasharray:1.5, 0.5;stroke-dashoffset:0"/>
      <path d="M 0,0 V 42" style="stroke-dasharray:1.5, 0.5;stroke-dashoffset:0"/>
      <path d="M 6,0 V 42" style="stroke-dasharray:1.5, 0.5;stroke-dashoffset:0"/>
      <path d="M 12,0 V 42" style="stroke-dasharray:1.5, 0.5;stroke-dashoffset:0"/>
      <path d="M 18,0 V 42" style="stroke-dasharray:1.5, 0.5;stroke-dashoffset:0"/>
      <path d="M 24,0 V 42" style="stroke-dasharray:1.5, 0.5;stroke-dashoffset:0"/>
      <path d="M 30,0 V 42" style="stroke-dasharray:1.5, 0.5;stroke-dashoffset:0"/>
      <path d="M 36,0 V 42" style="stroke-dasharray:1.5, 0.5;stroke-dashoffset:0"/>
      <path d="M 42,0 V 42" style="stroke-dasharray:1.5, 0.5;stroke-dashoffset:0"/>
      <path d="M 48,0 V 42" style="stroke-dasharray:1.5, 0.5;stroke-dashoffset:0"/>
      <path d="M 54,0 V 42" style="stroke-dasharray:1.5, 0.5;stroke-dashoffset:0"/>
    </g>
    <g>
      <g>
        <g style="fill:none;fill-rule:evenodd;stroke:#000000;stroke-width:0.25px;stroke-linecap:butt">
          <path d="M 0,-6 H 54"/>
          <path d="m 0,-6 v 1.5"/>
          <path d="m 6,-6 v 1.5"/>
          <path d="m 12,-6 v 1.5"/>
          <path d="m 18,-6 v 1.5"/>
          <path d="m 24,-6 v 1.5"/>
          <path d="m 27,-6 v 3"/>
          <path d="m 30,-6 v 1.5"/>
          <path d="m 36,-6 v 1.5"/>
          <path d="m 42,-6 v 1.5"/>
          <path d="m 48,-6 v 1.5"/>
          <path d="m 54,-6 v 1.5"/>
        </g>
        <g>
          <text style="font-size:2px;font-family:sans-serif;text-align:center;text-anchor:middle;fill:#000000;stroke:none" x="0" y="8" transform="scale(1,-1)">0</text>
          <text style="font-size:2px;font-family:sans-serif;text-align:center;text-anchor:middle;fill:#000000;stroke:none" x="6" y="8" transform="scale(1,-1)">1</text>
          <text style="font-size:2px;font-family:sans-serif;text-align:center;text-anchor:middle;fill:#000000;stroke:none" x="12" y="8" transform="scale(1,-1)">2</text>
          <text style="font-size:2px;font-family:sans-serif;text-align:center;text-anchor:middle;fill:#000000;stroke:none" x="18" y="8" transform="scale(1,-1)">3</text>
          <text style="font-size:2px;font-family:sans-serif;text-align:center;text-anchor:middle;fill:#000000;stroke:none" x="24" y="8" transform="scale(1,-1)">4</text>
          <text style="font-size:2px;font-family:sans-serif;text-align:center;text-anchor:middle;fill:#000000;stroke:none" x="30" y="8" transform="scale(1,-1)">5</text>
          <text style="font-size:2px;font-family:sans-serif;text-align:center;text-anchor:middle;fill:#000000;stroke:none" x="36" y="8" transform="scale(1,-1)">6</text>
          <text style="font-size:2px;font-family:sans-serif;text-align:center;text-anchor:middle;fill:#000000;stroke:none" x="42" y="8" transform="scale(1,-1)">7</text>
          <text style="font-size:2px;font-family:sans-serif;text-align:center;text-anchor:middle;fill:#000000;stroke:none" x="48" y="8" transform="scale(1,-1)">8</text>
          <text style="font-size:2px;font-family:sans-serif;text-align:center;text-anchor:middle;fill:#000000;stroke:none" x="54" y="8" transform="scale(1,-1)">9</text>
        </g>
      </g>
      <g>
        <g style="fill:none;fill-rule:evenodd;stroke:#000000;stroke-width:0.25px;stroke-linecap:butt">
          <path d="M -9,0 V 42"/>
          <path d="m -9,0 h 1.5"/>
          <path d="m -9,6 h 1.5"/>
          <path d="m -9,12 h 1.5"/>
          <path d="m -9,18 h 1.5"/>
          <path d="m -9,21 h 3"/>
          <path d="m -9,24 h 1.5"/>
          <path d="m -9,30 h 1.5"/>
          <path d="m -9,36 h 1.5"/>
          <path d="m -9,42 h 1.5"/>
          <g style="stroke-width:0.125px">
            <path d="m -9,2 h 1"/>
            <path d="m -9,4 h 1"/>
            <path d="m -9,8 h 1"/>
            <path d="m -9,10 h 1"/>
            <path d="m -9,14 h 1"/>
            <path d="m -9,16 h 1"/>
            <path d="m -9,26 h 1"/>
            <path d="m -9,28 h 1"/>
            <path d="m -9,32 h 1"/>
            <path d="m -9,34 h 1"/>
            <path d="m -9,38 h 1"/>
            <path d="m -9,40 h 1"/>
          </g>
        </g>
        <g>
          <text style="font-size:2px;font-family:sans-serif;fill:#000000;stroke:none" x="-11" y="1" transform="scale(1,-1)">0</text>
          <text style="font-size:2px;font-family:sans-serif;fill:#000000;stroke:none" x="-11" y="-5" transform="scale(1,-1)">1</text>
          <text style="font-size:2px;font-family:sans-serif;fill:#000000;stroke:none" x="-11" y="-11" transform="scale(1,-1)">2</text>
          <text style="font-size:2px;font-family:sans-serif;fill:#000000;stroke:none" x="-11" y="-17" transform="scale(1,-1)">3</text>
          <text style="font-size:2px;font-family:sans-serif;fill:#000000;stroke:none" x="-11" y="-23" transform="scale(1,-1)">4</text>
          <text style="font-size:2px;font-family:sans-serif;fill:#000000;stroke:none" x="-11" y="-29" transform="scale(1,-1)">5</text>
          <text style="font-size:2px;font-family:sans-serif;fill:#000000;stroke:none" x="-11" y="-35" transform="scale(1,-1)">6</text>
          <text style="font-size:2px;font-family:sans-serif;fill:#000000;stroke:none" x="-11" y="-41" transform="scale(1,-1)">7</text>
        </g>
      </g>
    </g>
  </g>
  <g transform="translate(0,60) matrix(1,0,0,-1,12,-12)">
    <circle cx="27" r="17" cy="21" style="fill:none;fill-rule:evenodd;stroke:#000000;stroke-width:0.125px;stroke-linecap:butt;stroke-dasharray:0.75,0.25;stroke-dashoffset:0"/>
    <circle cx="27" r="11" cy="21" style="fill:none;fill-rule:evenodd;stroke:#000000;stroke-width:0.125px;stroke-linecap:butt;stroke-dasharray:0.75,0.25;stroke-dashoffset:0"/>
    <path style="fill:none;fill-rule:evenodd;stroke:#000000;stroke-width:0.125px;stroke-linecap:butt" d="M 27,38 v -34"/>
    <path style="fill:none;fill-rule:evenodd;stroke:#000000;stroke-width:0.125px;stroke-linecap:butt" d="M 14.97918471982869,33.02081528017131 l 24.04163056034261,-24.04163056034261"/>
    <path style="fill:none;fill-rule:evenodd;stroke:#000000;stroke-width:0.125px;stroke-linecap:butt" d="M 39.02081528017131,33.02081528017131 l -24.04163056034261,-24.04163056034261"/>
    <path style="fill:none;fill-rule:evenodd;stroke:#000000;stroke-width:0.125px;stroke-linecap:butt;stroke-opacity:1" d="M 10,21 h 34"/>
  </g>
  <g transform="matrix(1,0,0,-1,12,48)" style="display:inline">
    <path style="fill:#ff0000;fill-opacity:0.25;fill-rule:evenodd;stroke:none;stroke-width:0.25px" d="m 43.214715,26 a 17,17 0 0 1 -28.23553,7.020815 L -0.04163056,18 H 37.583005 A 11,11 0 0 0 17.202041,16 L 10.785285,15.892846 A 17,17 0 0 1 39.020815,8.9791842 L 54.041631,24 H 16.417015 a 11,11 0 0 0 20.380944,2 z"/>
  </g>
  <g transform="matrix(1,0,0,-1,12,47.999999)" style="display:inline">
     style="display:none"&gt;
    <g>
  <path style="fill:none;fill-rule:evenodd;stroke:#0000ff;stroke-width:0.25px;stroke-linecap:butt;stroke-opacity:1" d="M 43.214715,26.107155 A 17,17 0 0 1 31.043126,37.512211 17,17 0 0 1 14.979185,33.020815 L 27,21 Z"/>
  <path style="fill:none;fill-rule:evenodd;stroke:#0000ff;stroke-width:0.25px;stroke-linecap:butt;stroke-opacity:1" d="M 10.785285,15.892846 A 17,17 0 0 1 22.956873,4.4877887 17,17 0 0 1 39.020815,8.9791842 L 27,21 Z"/>
  <path style="fill:none;fill-rule:evenodd;stroke:#0000ff;stroke-width:0.25px;stroke-linecap:butt;stroke-opacity:1" d="M 36.797959,26 A 11,11 0 0 1 25.925758,31.94742 11,11 0 0 1 16.417015,24.00007 L 27,21 Z"/>
  <path style="fill:none;fill-rule:evenodd;stroke:#0000ff;stroke-width:0.25px;stroke-linecap:butt;stroke-opacity:1" d="M 17.202041,16 A 11,11 0 0 1 28.074279,10.052584 11,11 0 0 1 37.583005,18 L 27,21 Z"/>
  <path style="fill:none;fill-rule:evenodd;stroke:#0000ff;stroke-width:0.25px;stroke-linecap:butt;stroke-opacity:1" d="M 10,21 H 44"/>
</g>
</g>
  <g transform="translate(0,60) matrix(1,0,0,-1,12,-12)">
    <text style="font-size:2px;font-family:sans-serif;text-align:center;text-anchor:middle;fill:#000000;stroke:none;filter:url(#filter9530)" x="27" y="-22" transform="scale(1,-1)">O</text>
    <text style="font-size:2px;font-family:sans-serif;text-align:center;text-anchor:middle;fill:#000000;stroke:none;filter:url(#filter9530)" x="27" y="-38.933334" transform="scale(1,-1)">A</text>
    <text style="font-size:2px;font-family:sans-serif;text-align:center;text-anchor:middle;fill:#000000;stroke:none;filter:url(#filter9530)" x="27" y="-1.8916671" transform="scale(1,-1)">B</text>
    <text style="font-size:2px;font-family:sans-serif;text-align:center;text-anchor:middle;fill:#000000;stroke:none;filter:url(#filter9530)" x="13.241666" y="-33.112499" transform="scale(1,-1)">C</text>
    <text style="font-size:2px;font-family:sans-serif;text-align:center;text-anchor:middle;fill:#000000;stroke:none;filter:url(#filter9530)" x="39.700001" y="-7.1833363" transform="scale(1,-1)">D</text>
    <text style="font-size:2px;font-family:sans-serif;text-align:center;text-anchor:middle;fill:#000000;stroke:none;filter:url(#filter9530)" x="40.229168" y="-33.112499" transform="scale(1,-1)">E</text>
    <text style="font-size:2px;font-family:sans-serif;text-align:center;text-anchor:middle;fill:#000000;stroke:none;filter:url(#filter9530)" x="13.241666" y="-7.1833339" transform="scale(1,-1)">F</text>
    <text style="font-size:2px;font-family:sans-serif;text-align:center;text-anchor:middle;fill:#000000;stroke:none;filter:url(#filter9530)" x="7.9500041" y="-20.412498" transform="scale(1,-1)">G</text>
    <text style="font-size:2px;font-family:sans-serif;text-align:center;text-anchor:middle;fill:#000000;stroke:none;filter:url(#filter9530)" x="45.520836" y="-20.412498" transform="scale(1,-1)">H</text>
    <text style="font-size:2px;font-family:sans-serif;text-align:center;text-anchor:middle;fill:#000000;stroke:none;filter:url(#filter9530)" x="-1.5749989" y="-16.708334" transform="scale(1,-1)">I</text>
    <text style="font-size:2px;font-family:sans-serif;text-align:center;text-anchor:middle;fill:#000000;stroke:none;filter:url(#filter9530)" x="55.575008" y="-23.587502" transform="scale(1,-1)">J</text>
    <text style="font-size:2px;font-family:sans-serif;text-align:center;text-anchor:middle;fill:#000000;stroke:none;filter:url(#filter9530)" x="27" y="-32.583332" transform="scale(1,-1)">K</text>
    <text style="font-size:2px;font-family:sans-serif;text-align:center;text-anchor:middle;fill:#000000;stroke:none;filter:url(#filter9530)" x="27" y="-8.2416668" transform="scale(1,-1)">L</text>
    <text style="font-size:2px;font-family:sans-serif;text-align:center;text-anchor:middle;fill:#000000;stroke:none;filter:url(#filter9530)" x="27" y="-24.64583" transform="scale(1,-1)">M</text>
    <text style="font-size:2px;font-family:sans-serif;text-align:center;text-anchor:middle;fill:#000000;stroke:none;filter:url(#filter9530)" x="27" y="-16.179167" transform="scale(1,-1)">N</text>
    <text style="font-size:2px;font-family:sans-serif;text-align:center;text-anchor:middle;fill:#000000;stroke:none;filter:url(#filter9530)" x="9.008337" y="-14.062502" transform="scale(1,-1)">Q</text>
    <text style="font-size:2px;font-family:sans-serif;text-align:center;text-anchor:middle;fill:#000000;stroke:none;filter:url(#filter9530)" x="44.462505" y="-26.762499" transform="scale(1,-1)">S</text>
    <text style="font-size:2px;font-family:sans-serif;text-align:center;text-anchor:middle;fill:#000000;stroke:none;filter:url(#filter9530)" x="44.462505" y="-26.762499" transform="matrix(1,0,0,-1,-6.8791668,0)">S'</text>
    <text style="font-size:2px;font-family:sans-serif;text-align:center;text-anchor:middle;fill:#000000;stroke:none;filter:url(#filter9530)" x="9.008337" y="-14.062502" transform="matrix(1,0,0,-1,6.8791668,0)">Q'</text>
    <text style="font-size:2px;font-family:sans-serif;text-align:center;text-anchor:middle;fill:#000000;stroke:none;filter:url(#filter9530)" x="11.125001" y="-18.824997" transform="matrix(1,0,0,-1,3.7041666,4.7625002)">T</text>
    <text style="font-size:2px;font-family:sans-serif;text-align:center;text-anchor:middle;fill:#000000;stroke:none;filter:url(#filter9530)" x="11.125001" y="-18.824997" transform="matrix(1,0,0,-1,28.045833,-2.6458332)">U</text>
  </g>
</svg>
