<?xml version="1.0" encoding="UTF-8"?>
<svg width="92.495003mm" height="106.441mm" version="1.1" viewBox="-5 -5 92.495003 106.441" xmlns="http://www.w3.org/2000/svg" xmlns:xlink="http://www.w3.org/1999/xlink">
 <g transform="translate(-63.207931,-127.14951)">
  <g id="a" transform="translate(22.565111)">
   <path d="m88.71782 157.09951v-10" fill="none" stroke="#00509b" stroke-miterlimit="2" stroke-width=".2"/>
   <path d="m90.31546 157.09951v-1.05" fill="none" stroke="#00509b" stroke-miterlimit="2" stroke-width=".2"/>
   <path d="m90.31546 148.14951v-1.05" fill="none" stroke="#00509b" stroke-miterlimit="2" stroke-width=".2"/>
   <path d="m90.59783 149.27951v0.64" fill="none" stroke="#00509b" stroke-miterlimit="2" stroke-width=".2"/>
   <path d="m90.59783 151.77951v0.64" fill="none" stroke="#00509b" stroke-miterlimit="2" stroke-width=".2"/>
   <path d="m90.59783 154.27951v0.63999" fill="none" stroke="#00509b" stroke-miterlimit="2" stroke-width=".2"/>
   <path d="m90.71783 157.09951v-1.05" fill="none" stroke="#00509b" stroke-miterlimit="2" stroke-width=".2"/>
   <path d="m90.71783 148.14951v-1.05" fill="none" stroke="#00509b" stroke-miterlimit="2" stroke-width=".2"/>
   <path d="m91.23782 154.9195v-0.63999" fill="none" stroke="#00509b" stroke-miterlimit="2" stroke-width=".2"/>
   <path d="m91.23782 152.41951v-0.64" fill="none" stroke="#00509b" stroke-miterlimit="2" stroke-width=".2"/>
   <path d="m91.23782 149.91951v-0.64" fill="none" stroke="#00509b" stroke-miterlimit="2" stroke-width=".2"/>
   <path d="m91.41546 147.5495v0.60001" fill="none" stroke="#00509b" stroke-miterlimit="2" stroke-width=".2"/>
   <path d="m91.41546 156.04951v0.6" fill="none" stroke="#00509b" stroke-miterlimit="2" stroke-width=".2"/>
   <path d="m92.01547 147.6114v9.03811" fill="none" stroke="#00509b" stroke-miterlimit="2" stroke-width=".2"/>
   <path d="m88.71782 157.09951h3.40001" fill="none" stroke="#00509b" stroke-miterlimit="2" stroke-width=".2"/>
   <path d="m105.11783 157.09951h3.39999" fill="none" stroke="#00509b" stroke-miterlimit="2" stroke-width=".2"/>
   <path d="m92.51782 148.34951v7.5" fill="none" stroke="#00509b" stroke-miterlimit="2" stroke-width=".2"/>
   <path d="m106.51783 156.64951h-1.29764" fill="none" stroke="#00509b" stroke-miterlimit="2" stroke-width=".2"/>
   <path d="m92.01547 156.64951h-1.29764" fill="none" stroke="#00509b" stroke-miterlimit="2" stroke-width=".2"/>
   <path d="m108.51782 156.04951h-1.59762" fill="none" stroke="#00509b" stroke-miterlimit="2" stroke-width=".2"/>
   <path d="m90.31546 156.04951h-1.59764" fill="none" stroke="#00509b" stroke-miterlimit="2" stroke-width=".2"/>
   <path d="m90.71783 156.04951h0.69763" fill="none" stroke="#00509b" stroke-miterlimit="2" stroke-width=".2"/>
   <path d="m105.8202 156.04951h0.69763" fill="none" stroke="#00509b" stroke-miterlimit="2" stroke-width=".2"/>
   <path d="m90.59783 154.9195h0.63999" fill="none" stroke="#00509b" stroke-miterlimit="2" stroke-width=".2"/>
   <path d="m105.99782 154.9195h0.64001" fill="none" stroke="#00509b" stroke-miterlimit="2" stroke-width=".2"/>
   <path d="m106.63783 154.27951h-0.64001" fill="none" stroke="#00509b" stroke-miterlimit="2" stroke-width=".2"/>
   <path d="m91.23782 154.27951h-0.63999" fill="none" stroke="#00509b" stroke-miterlimit="2" stroke-width=".2"/>
   <path d="m90.59783 152.41951h0.63999" fill="none" stroke="#00509b" stroke-miterlimit="2" stroke-width=".2"/>
   <path d="m105.99782 152.41951h0.64001" fill="none" stroke="#00509b" stroke-miterlimit="2" stroke-width=".2"/>
   <path d="m106.63783 151.77951h-0.64001" fill="none" stroke="#00509b" stroke-miterlimit="2" stroke-width=".2"/>
   <path d="m91.23782 151.77951h-0.63999" fill="none" stroke="#00509b" stroke-miterlimit="2" stroke-width=".2"/>
   <path d="m90.59783 149.91951h0.63999" fill="none" stroke="#00509b" stroke-miterlimit="2" stroke-width=".2"/>
   <path d="m105.99782 149.91951h0.64001" fill="none" stroke="#00509b" stroke-miterlimit="2" stroke-width=".2"/>
   <path d="m106.63783 149.27951h-0.64001" fill="none" stroke="#00509b" stroke-miterlimit="2" stroke-width=".2"/>
   <path d="m91.23782 149.27951h-0.63999" fill="none" stroke="#00509b" stroke-miterlimit="2" stroke-width=".2"/>
   <path d="m106.51783 148.14951h-0.69763" fill="none" stroke="#00509b" stroke-miterlimit="2" stroke-width=".2"/>
   <path d="m91.41546 148.14951h-0.69763" fill="none" stroke="#00509b" stroke-miterlimit="2" stroke-width=".2"/>
   <path d="m88.71782 148.14951h1.59764" fill="none" stroke="#00509b" stroke-miterlimit="2" stroke-width=".2"/>
   <path d="m106.9202 148.14951h1.59762" fill="none" stroke="#00509b" stroke-miterlimit="2" stroke-width=".2"/>
   <path d="m90.71783 147.5495h1.25702" fill="none" stroke="#00509b" stroke-miterlimit="2" stroke-width=".2"/>
   <path d="m105.26078 147.5495h1.25705" fill="none" stroke="#00509b" stroke-miterlimit="2" stroke-width=".2"/>
   <path d="m108.51782 147.09951h-2.97654" fill="none" stroke="#00509b" stroke-miterlimit="2" stroke-width=".2"/>
   <path d="m88.71782 147.09951h2.97656" fill="none" stroke="#00509b" stroke-miterlimit="2" stroke-width=".2"/>
   <path d="m104.71783 155.84951v-7.5" fill="none" stroke="#00509b" stroke-miterlimit="2" stroke-width=".2"/>
   <path d="m105.22019 156.64951v-9.03811" fill="none" stroke="#00509b" stroke-miterlimit="2" stroke-width=".2"/>
   <path d="m105.8202 156.64951v-0.6" fill="none" stroke="#00509b" stroke-miterlimit="2" stroke-width=".2"/>
   <path d="m105.8202 148.14951v-0.60001" fill="none" stroke="#00509b" stroke-miterlimit="2" stroke-width=".2"/>
   <path d="m105.99782 149.27951v0.64" fill="none" stroke="#00509b" stroke-miterlimit="2" stroke-width=".2"/>
   <path d="m105.99782 151.77951v0.64" fill="none" stroke="#00509b" stroke-miterlimit="2" stroke-width=".2"/>
   <path d="m105.99782 154.27951v0.63999" fill="none" stroke="#00509b" stroke-miterlimit="2" stroke-width=".2"/>
   <path d="m106.51783 156.04951v1.05" fill="none" stroke="#00509b" stroke-miterlimit="2" stroke-width=".2"/>
   <path d="m106.51783 148.14951v-1.05" fill="none" stroke="#00509b" stroke-miterlimit="2" stroke-width=".2"/>
   <path d="m106.63783 154.9195v-0.63999" fill="none" stroke="#00509b" stroke-miterlimit="2" stroke-width=".2"/>
   <path d="m106.63783 152.41951v-0.64" fill="none" stroke="#00509b" stroke-miterlimit="2" stroke-width=".2"/>
   <path d="m106.63783 149.91951v-0.64" fill="none" stroke="#00509b" stroke-miterlimit="2" stroke-width=".2"/>
   <path d="m106.9202 147.09951v1.05" fill="none" stroke="#00509b" stroke-miterlimit="2" stroke-width=".2"/>
   <path d="m106.9202 156.04951v1.05" fill="none" stroke="#00509b" stroke-miterlimit="2" stroke-width=".2"/>
   <path d="m108.51782 147.09951v10" fill="none" stroke="#00509b" stroke-miterlimit="2" stroke-width=".2"/>
   <path d="m91.417825 165.5995c0-0.44183-0.358179-0.8-0.799994-0.8-0.441833 0-0.800015 0.35817-0.800015 0.8 0 0.44182 0.358182 0.8 0.800015 0.8 0.441815 0 0.799994-0.35818 0.799994-0.8" fill="none" stroke="#00509b" stroke-miterlimit="2" stroke-width=".2"/>
   <path d="m93.417835 143.0995c0-0.44183-0.358182-0.80001-0.800015-0.80001-0.441816 0-0.799994 0.35818-0.799994 0.80001 0 0.44182 0.358178 0.8 0.799994 0.8 0.441833 0 0.800015-0.35818 0.800015-0.8" fill="none" stroke="#00509b" stroke-miterlimit="2" stroke-width=".2"/>
   <path d="m91.417825 135.59949c0-0.44182-0.358179-0.79999-0.799994-0.79999-0.441833 0-0.800015 0.35817-0.800015 0.79999 0 0.44184 0.358182 0.80001 0.800015 0.80001 0.441815 0 0.799994-0.35817 0.799994-0.80001" fill="none" stroke="#00509b" stroke-miterlimit="2" stroke-width=".2"/>
   <path d="m107.41782 165.5995c0-0.44183-0.35816-0.8-0.8-0.8-0.44183 0-0.79999 0.35817-0.79999 0.8 0 0.44182 0.35816 0.8 0.79999 0.8 0.44184 0 0.8-0.35818 0.8-0.8" fill="none" stroke="#00509b" stroke-miterlimit="2" stroke-width=".2"/>
   <path d="m102.01783 143.0995c0-1.87777-1.52224-3.4-3.400012-3.4s-3.399987 1.52223-3.399987 3.4 1.522215 3.39999 3.399987 3.39999 3.400012-1.52222 3.400012-3.39999" fill="none" stroke="#00509b" stroke-miterlimit="2" stroke-width=".2"/>
   <path d="m99.417833 149.0995c0-0.44183-0.358182-0.8-0.800015-0.8-0.441812 0-0.799994 0.35817-0.799994 0.8s0.358182 0.8 0.799994 0.8c0.441833 0 0.800015-0.35817 0.800015-0.8" fill="none" stroke="#00509b" stroke-miterlimit="2" stroke-width=".2"/>
   <path d="m105.41783 143.0995c0-0.44183-0.35818-0.80001-0.80001-0.80001-0.44182 0-0.8 0.35818-0.8 0.80001 0 0.44182 0.35818 0.8 0.8 0.8 0.44183 0 0.80001-0.35818 0.80001-0.8" fill="none" stroke="#00509b" stroke-miterlimit="2" stroke-width=".2"/>
   <path d="m99.417833 137.0995c0-0.44182-0.358182-0.80001-0.800015-0.80001-0.441812 0-0.799994 0.35819-0.799994 0.80001s0.358182 0.8 0.799994 0.8c0.441833 0 0.800015-0.35818 0.800015-0.8" fill="none" stroke="#00509b" stroke-miterlimit="2" stroke-width=".2"/>
   <path d="m107.41782 135.59949c0-0.44182-0.35816-0.79999-0.8-0.79999-0.44183 0-0.79999 0.35817-0.79999 0.79999 0 0.44184 0.35816 0.80001 0.79999 0.80001 0.44184 0 0.8-0.35817 0.8-0.80001" fill="none" stroke="#00509b" stroke-miterlimit="2" stroke-width=".2"/>
   <path d="m101.36782 143.0995c0-1.51878-1.23121-2.75001-2.750002-2.75001-1.518772 0-2.750005 1.23123-2.750005 2.75001s1.231233 2.75 2.750005 2.75c1.518792 0 2.750002-1.23122 2.750002-2.75" fill="none" stroke="#00509b" stroke-miterlimit="2" stroke-width=".2"/>
   <path d="m89.617829 133.5995-1.000005 1" fill="none" stroke="#00509b" stroke-miterlimit="2" stroke-width=".2"/>
   <path d="m89.700662 133.79949-0.882848 0.88286" fill="none" stroke="#00509b" stroke-miterlimit="2" stroke-width=".2"/>
   <path d="m88.617824 166.5995 1.000005 1" fill="none" stroke="#00509b" stroke-miterlimit="2" stroke-width=".2"/>
   <path d="m88.817814 166.51665 0.882848 0.88285" fill="none" stroke="#00509b" stroke-miterlimit="2" stroke-width=".2"/>
   <path d="m89.617829 167.5995h18.000001" fill="none" stroke="#00509b" stroke-miterlimit="2" stroke-width=".2"/>
   <path d="m89.700662 167.3995h17.834308" fill="none" stroke="#00509b" stroke-miterlimit="2" stroke-width=".2"/>
   <path d="m96.017825 133.6995-0.09999 0.1" fill="none" stroke="#00509b" stroke-miterlimit="2" stroke-width=".2"/>
   <path d="m88.617824 157.3495 0.19999 0.2" fill="none" stroke="#00509b" stroke-miterlimit="2" stroke-width=".2"/>
   <path d="m108.41782 134.68235 0.20001-0.0829" fill="none" stroke="#00509b" stroke-miterlimit="2" stroke-width=".2"/>
   <path d="m108.61783 166.5995-0.20001-0.0829" fill="none" stroke="#00509b" stroke-miterlimit="2" stroke-width=".2"/>
   <path d="m88.617824 134.5995v32" fill="none" stroke="#00509b" stroke-miterlimit="2" stroke-width=".2"/>
   <path d="m88.817814 134.68235v11.96714" fill="none" stroke="#00509b" stroke-miterlimit="2" stroke-width=".2"/>
   <path d="m88.817814 157.5495v8.96715" fill="none" stroke="#00509b" stroke-miterlimit="2" stroke-width=".2"/>
   <path d="m101.11782 133.79949 0.2-0.19999" fill="none" stroke="#00509b" stroke-miterlimit="2" stroke-width=".2"/>
   <path d="m88.817814 146.64949-0.19999 0.20001" fill="none" stroke="#00509b" stroke-miterlimit="2" stroke-width=".2"/>
   <path d="m92.61782 157.0495 0.200007 0.0828" fill="none" stroke="#00509b" stroke-miterlimit="2" stroke-width=".2"/>
   <path d="m92.317814 157.3495 0.08286 0.2" fill="none" stroke="#00509b" stroke-miterlimit="2" stroke-width=".2"/>
   <path d="m92.117828 157.3495v-1.5" fill="none" stroke="#00509b" stroke-miterlimit="2" stroke-width=".2"/>
   <path d="m92.117828 148.3495v-0.5894" fill="none" stroke="#00509b" stroke-miterlimit="2" stroke-width=".2"/>
   <path d="m108.41782 157.5495h-3.58283" fill="none" stroke="#00509b" stroke-miterlimit="2" stroke-width=".2"/>
   <path d="m92.400671 157.5495h-3.582857" fill="none" stroke="#00509b" stroke-miterlimit="2" stroke-width=".2"/>
   <path d="m108.61783 157.3495h-3.70001" fill="none" stroke="#00509b" stroke-miterlimit="2" stroke-width=".2"/>
   <path d="m92.317814 157.3495h-3.69999" fill="none" stroke="#00509b" stroke-miterlimit="2" stroke-width=".2"/>
   <path d="m92.61782 148.3841v8.6654" fill="none" stroke="#00509b" stroke-miterlimit="2" stroke-width=".2"/>
   <path d="m92.817827 148.60661v8.52573" fill="none" stroke="#00509b" stroke-miterlimit="2" stroke-width=".2"/>
   <path d="m92.117828 155.8495h0.499992" fill="none" stroke="#00509b" stroke-miterlimit="2" stroke-width=".2"/>
   <path d="m104.61782 155.8495h0.50001" fill="none" stroke="#00509b" stroke-miterlimit="2" stroke-width=".2"/>
   <path d="m95.917834 133.79949v1.77019" fill="none" stroke="#00509b" stroke-miterlimit="2" stroke-width=".2"/>
   <path d="m96.11782 135.50459v-1.90509" fill="none" stroke="#00509b" stroke-miterlimit="2" stroke-width=".2"/>
   <path d="m89.617829 167.5995 0.08283-0.2" fill="none" stroke="#00509b" stroke-miterlimit="2" stroke-width=".2"/>
   <path d="m89.700662 133.79949-0.08283-0.19999" fill="none" stroke="#00509b" stroke-miterlimit="2" stroke-width=".2"/>
   <path d="m98.348585 144.62593v-0.60719" fill="none" stroke="#00509b" stroke-miterlimit="2" stroke-width=".2"/>
   <path d="m98.348585 142.18026v-0.6072" fill="none" stroke="#00509b" stroke-miterlimit="2" stroke-width=".2"/>
   <path d="m104.41783 157.13234 0.41716 0.41716" fill="none" stroke="#00509b" stroke-miterlimit="2" stroke-width=".2"/>
   <path d="m104.61782 157.0495 0.3 0.3" fill="none" stroke="#00509b" stroke-miterlimit="2" stroke-width=".2"/>
   <path d="m98.887051 141.57306v0.6072" fill="none" stroke="#00509b" stroke-miterlimit="2" stroke-width=".2"/>
   <path d="m98.887051 144.01874v0.60719" fill="none" stroke="#00509b" stroke-miterlimit="2" stroke-width=".2"/>
   <path d="m92.317814 157.3495 0.300006-0.3" fill="none" stroke="#00509b" stroke-miterlimit="2" stroke-width=".2"/>
   <path d="m92.400671 157.5495 0.417156-0.41716" fill="none" stroke="#00509b" stroke-miterlimit="2" stroke-width=".2"/>
   <path d="m101.11782 135.50459v-1.90509" fill="none" stroke="#00509b" stroke-miterlimit="2" stroke-width=".2"/>
   <path d="m101.31782 135.56968v-1.77019" fill="none" stroke="#00509b" stroke-miterlimit="2" stroke-width=".2"/>
   <path d="m107.61783 133.5995-0.0829 0.19999" fill="none" stroke="#00509b" stroke-miterlimit="2" stroke-width=".2"/>
   <path d="m105.11783 148.3495h-0.46985" fill="none" stroke="#00509b" stroke-miterlimit="2" stroke-width=".2"/>
   <path d="m92.587654 148.3495h-0.469826" fill="none" stroke="#00509b" stroke-miterlimit="2" stroke-width=".2"/>
   <path d="m107.53497 167.3995 0.0829 0.2" fill="none" stroke="#00509b" stroke-miterlimit="2" stroke-width=".2"/>
   <path d="m88.617824 146.8495h2.935976" fill="none" stroke="#00509b" stroke-miterlimit="2" stroke-width=".2"/>
   <path d="m105.68184 146.8495h2.93599" fill="none" stroke="#00509b" stroke-miterlimit="2" stroke-width=".2"/>
   <path d="m88.817814 146.64949h2.634851" fill="none" stroke="#00509b" stroke-miterlimit="2" stroke-width=".2"/>
   <path d="m105.78297 146.64949h2.63485" fill="none" stroke="#00509b" stroke-miterlimit="2" stroke-width=".2"/>
   <path d="m104.41783 157.13234v-8.52573" fill="none" stroke="#00509b" stroke-miterlimit="2" stroke-width=".2"/>
   <path d="m104.61782 157.0495v-8.6654" fill="none" stroke="#00509b" stroke-miterlimit="2" stroke-width=".2"/>
   <path d="m105.11783 147.7601v0.5894" fill="none" stroke="#00509b" stroke-miterlimit="2" stroke-width=".2"/>
   <path d="m105.11783 155.8495v1.5" fill="none" stroke="#00509b" stroke-miterlimit="2" stroke-width=".2"/>
   <path d="m100.14425 143.36873h-0.607195" fill="none" stroke="#00509b" stroke-miterlimit="2" stroke-width=".2"/>
   <path d="m97.698582 143.36873h-0.607202" fill="none" stroke="#00509b" stroke-miterlimit="2" stroke-width=".2"/>
   <path d="m97.09138 142.83026h0.607202" fill="none" stroke="#00509b" stroke-miterlimit="2" stroke-width=".2"/>
   <path d="m99.537055 142.83026h0.607195" fill="none" stroke="#00509b" stroke-miterlimit="2" stroke-width=".2"/>
   <path d="m104.91782 157.3495-0.0828 0.2" fill="none" stroke="#00509b" stroke-miterlimit="2" stroke-width=".2"/>
   <path d="m104.61782 157.0495-0.19999 0.0828" fill="none" stroke="#00509b" stroke-miterlimit="2" stroke-width=".2"/>
   <path d="m108.41782 166.51665v-8.96715" fill="none" stroke="#00509b" stroke-miterlimit="2" stroke-width=".2"/>
   <path d="m108.41782 146.64949v-11.96714" fill="none" stroke="#00509b" stroke-miterlimit="2" stroke-width=".2"/>
   <path d="m108.61783 166.5995v-32" fill="none" stroke="#00509b" stroke-miterlimit="2" stroke-width=".2"/>
   <path d="m108.61783 146.8495-0.20001-0.20001" fill="none" stroke="#00509b" stroke-miterlimit="2" stroke-width=".2"/>
   <path d="m95.917834 133.5995 0.199986 0.19999" fill="none" stroke="#00509b" stroke-miterlimit="2" stroke-width=".2"/>
   <path d="m108.41782 157.5495 0.20001-0.2" fill="none" stroke="#00509b" stroke-miterlimit="2" stroke-width=".2"/>
   <path d="m88.817814 166.51665-0.19999 0.0829" fill="none" stroke="#00509b" stroke-miterlimit="2" stroke-width=".2"/>
   <path d="m88.617824 134.5995 0.19999 0.0829" fill="none" stroke="#00509b" stroke-miterlimit="2" stroke-width=".2"/>
   <path d="m101.31782 133.79949-0.1-0.1" fill="none" stroke="#00509b" stroke-miterlimit="2" stroke-width=".2"/>
   <path d="m107.53497 133.79949h-6.21715" fill="none" stroke="#00509b" stroke-miterlimit="2" stroke-width=".2"/>
   <path d="m101.11782 133.79949h-5" fill="none" stroke="#00509b" stroke-miterlimit="2" stroke-width=".2"/>
   <path d="m95.917834 133.79949h-6.217172" fill="none" stroke="#00509b" stroke-miterlimit="2" stroke-width=".2"/>
   <path d="m89.617829 133.5995h18.000001" fill="none" stroke="#00509b" stroke-miterlimit="2" stroke-width=".2"/>
   <path d="m107.53497 167.3995 0.88285-0.88285" fill="none" stroke="#00509b" stroke-miterlimit="2" stroke-width=".2"/>
   <path d="m107.61783 167.5995 1-1" fill="none" stroke="#00509b" stroke-miterlimit="2" stroke-width=".2"/>
   <path d="m108.41782 134.68235-0.88285-0.88286" fill="none" stroke="#00509b" stroke-miterlimit="2" stroke-width=".2"/>
   <path d="m108.61783 134.5995-1-1" fill="none" stroke="#00509b" stroke-miterlimit="2" stroke-width=".2"/>
   <path d="m91.617815 165.5995c0-0.55229-0.44771-1-0.999984-1-0.552291 0-1.000002 0.44771-1.000002 1 0 0.55228 0.447711 1 1.000002 1 0.552274 0 0.999984-0.44772 0.999984-1" fill="none" stroke="#00509b" stroke-miterlimit="2" stroke-width=".2"/>
   <path d="m91.617815 135.59949c0-0.55228-0.44771-0.99999-0.999984-0.99999-0.552291 0-1.000002 0.44771-1.000002 0.99999 0 0.55229 0.447711 1.00001 1.000002 1.00001 0.552274 0 0.999984-0.44772 0.999984-1.00001" fill="none" stroke="#00509b" stroke-miterlimit="2" stroke-width=".2"/>
   <path d="m97.698582 142.83026c0.358976 0 0.650003-0.29102 0.650003-0.65" fill="none" stroke="#00509b" stroke-miterlimit="2" stroke-width=".2"/>
   <path d="m98.348585 144.01874c0-0.35898-0.291027-0.65001-0.650003-0.65001" fill="none" stroke="#00509b" stroke-miterlimit="2" stroke-width=".2"/>
   <path d="m107.61783 165.5995c0-0.55229-0.44771-1-1.00001-1-0.55229 0-1 0.44771-1 1 0 0.55228 0.44771 1 1 1 0.5523 0 1.00001-0.44772 1.00001-1" fill="none" stroke="#00509b" stroke-miterlimit="2" stroke-width=".2"/>
   <path d="m106.61782 143.0995c0-4.41828-3.58171-8-8.000002-8-4.41827 0-7.999987 3.58172-7.999987 8s3.581717 8 7.999987 8c4.418292 0 8.000002-3.58172 8.000002-8" fill="none" stroke="#00509b" stroke-miterlimit="2" stroke-width=".2"/>
   <path d="m106.41782 143.0995c0-4.30783-3.49217-7.8-7.800002-7.8-4.307811 0-7.799997 3.49217-7.799997 7.8 0 4.30782 3.492186 7.8 7.799997 7.8 4.307832 0 7.800002-3.49218 7.800002-7.8" fill="none" stroke="#00509b" stroke-miterlimit="2" stroke-width=".2"/>
   <path d="m102.41782 143.0995c0-2.09868-1.70132-3.80001-3.800002-3.80001-2.098668 0-3.800006 1.70133-3.800006 3.80001 0 2.09867 1.701338 3.8 3.800006 3.8 2.098682 0 3.800002-1.70133 3.800002-3.8" fill="none" stroke="#00509b" stroke-miterlimit="2" stroke-width=".2"/>
   <path d="m102.21781 143.0995c0-1.98823-1.61176-3.6-3.599992-3.6-1.988231 0-3.599995 1.61177-3.599995 3.6s1.611764 3.59999 3.599995 3.59999c1.988232 0 3.599992-1.61176 3.599992-3.59999" fill="none" stroke="#00509b" stroke-miterlimit="2" stroke-width=".2"/>
   <path d="m101.41782 143.0995c0-1.5464-1.25361-2.8-2.800002-2.8-1.546398 0-2.800001 1.2536-2.800001 2.8 0 1.54639 1.253603 2.8 2.800001 2.8 1.546392 0 2.800002-1.25361 2.800002-2.8" fill="none" stroke="#00509b" stroke-miterlimit="2" stroke-width=".2"/>
   <path d="m98.887051 141.57306c-0.17811-0.0314-0.360355-0.0314-0.538466 0" fill="none" stroke="#00509b" stroke-miterlimit="2" stroke-width=".2"/>
   <path d="m100.14425 142.83026c0.0314 0.17812 0.0314 0.36036 0 0.53847" fill="none" stroke="#00509b" stroke-miterlimit="2" stroke-width=".2"/>
   <path d="m97.09138 142.83026c-0.0314 0.17812-0.0314 0.36036 0 0.53847" fill="none" stroke="#00509b" stroke-miterlimit="2" stroke-width=".2"/>
   <path d="m98.348585 144.62593c0.178111 0.0314 0.360356 0.0314 0.538466 0" fill="none" stroke="#00509b" stroke-miterlimit="2" stroke-width=".2"/>
   <path d="m107.61783 135.59949c0-0.55228-0.44771-0.99999-1.00001-0.99999-0.55229 0-1 0.44771-1 0.99999 0 0.55229 0.44771 1.00001 1 1.00001 0.5523 0 1.00001-0.44772 1.00001-1.00001" fill="none" stroke="#00509b" stroke-miterlimit="2" stroke-width=".2"/>
   <path d="m98.887051 142.18026c0 0.17239 0.06849 0.33772 0.190387 0.45962 0.121913 0.1219 0.287232 0.19038 0.459617 0.19038" fill="none" stroke="#00509b" stroke-miterlimit="2" stroke-width=".2"/>
   <path d="m99.537055 143.36873c-0.172385 0-0.337704 0.0685-0.459617 0.19039-0.121892 0.1219-0.190387 0.28722-0.190387 0.45962" fill="none" stroke="#00509b" stroke-miterlimit="2" stroke-width=".2"/>
  </g>
  <use id="b" transform="translate(-42.333335)" xlink:href="#a"/>
  <g id="c">
   <path d="m121.18294 160.13947q-0.86 0-1.505-0.57-0.62-0.55-0.735-1.365-0.025-0.165-0.025-0.33 0-0.86 0.57-1.505 0.55-0.62 1.365-0.735 0.165-0.025 0.33-0.025 0.86 0 1.505 0.57 0.62 0.55 0.735 1.365 0.025 0.165 0.025 0.33 0 0.86-0.57 1.505-0.55 0.62-1.365 0.735-0.165 0.025-0.33 0.025z" fill="#0177d9"/>
   <path d="m121.05794 156.48947h0.4v2.77h-0.4v-2.345h-5e-3l-0.79 0.6v-0.43z"/>
  </g>
  <g id="d">
   <path d="m78.849602 160.13947q-0.86 0-1.505-0.57-0.62-0.55-0.735-1.365-0.025-0.165-0.025-0.33 0-0.86 0.57-1.505 0.55-0.62 1.365-0.735 0.165-0.025 0.33-0.025 0.86 0 1.505 0.57 0.62 0.55 0.735 1.365 0.025 0.165 0.025 0.33 0 0.86-0.57 1.505-0.55 0.62-1.365 0.735-0.165 0.025-0.33 0.025z" fill="#53cd76" stroke-width=".264583px"/>
   <path d="m78.489602 158.93447v5e-3h1.25v0.32h-1.775v-0.32q0.805-0.645 1.085-0.995 0.275-0.35 0.275-0.665 0-0.245-0.135-0.375-0.14-0.13-0.405-0.13-0.35 5e-3 -0.765 0.22v-0.365q0.38-0.18 0.815-0.18 0.425 0 0.66 0.21 0.23 0.21 0.23 0.585-5e-3 0.365-0.265 0.735-0.26 0.36-0.97 0.955z"/>
  </g>
  <use transform="translate(0,52.916669)" xlink:href="#a"/>
  <use transform="translate(0,52.916669)" xlink:href="#c"/>
  <g fill="#fff" stroke="#000" stroke-miterlimit="2" stroke-width=".3">
   <path d="m111.28291 156.04951v-7.9h2.69764v-0.60001h0.60001v9.10001h-0.60001v-0.6z"/>
   <path d="m113.80291 154.27951h-0.63999v0.63999h0.63999z"/>
   <path d="m113.80291 151.77951h-0.63999v0.64h0.63999z"/>
   <path d="m113.16292 149.91951h0.63999v-0.64h-0.63999z"/>
   <path d="m88.799606 156.04951v-7.9h-2.69764v-0.60001h-0.60001v9.10001h0.60001v-0.6z"/>
   <path d="m86.279606 154.27951h0.63999v0.63999h-0.63999z"/>
   <path d="m86.279606 151.77951h0.63999v0.64h-0.63999z"/>
   <path d="m86.919596 149.91951h-0.63999v-0.64h0.63999z"/>
   <path d="m131.13294 156.04951v-7.9h-2.69764v-0.60001h-0.60001v9.10001h0.60001v-0.6z"/>
   <path d="m128.61294 154.27951h0.63999v0.63999h-0.63999z"/>
   <path d="m128.61294 151.77951h0.63999v0.64h-0.63999z"/>
   <path d="m129.25293 149.91951h-0.63999v-0.64h0.63999z"/>
   <path d="m145.55293 154.27951h-0.63999v0.63999h0.63999z"/>
   <path d="m145.55293 151.77951h-0.63999v0.64h0.63999z"/>
   <path d="m144.91294 149.91951h0.63999v-0.64h-0.63999z"/>
  </g>
  <g fill="none" stroke="#000">
   <path d="m113.16292 152.09951h-26.243324"/>
   <path d="m129.25293 152.09951h15.66001"/>
   <path d="m86.919596 154.53999 26.243324-4.88096"/>
   <path d="m86.919596 149.65903 26.243324 4.88096"/>
   <path d="m129.25293 154.50135 15.66001-4.80368"/>
   <path d="m129.25293 149.69767 15.66001 4.80368"/>
  </g>
  <g fill="#fff" stroke="#000" stroke-miterlimit="2" stroke-width=".3">
   <path d="m111.28291 208.96621v-7.9h2.69764v-0.60001h0.60001v9.10001h-0.60001v-0.6z"/>
   <path d="m113.80291 207.19621h-0.63999v0.63999h0.63999z"/>
   <path d="m113.80291 204.69621h-0.63999v0.64h0.63999z"/>
   <path d="m113.16292 202.83621h0.63999v-0.64h-0.63999z"/>
  </g>
  <use transform="rotate(180,78.849602,178.54525)" xlink:href="#b"/>
  <use transform="rotate(180,78.849602,178.54525)" xlink:href="#d"/>
  <g fill="#fff" stroke="#000" stroke-miterlimit="2" stroke-width=".3">
   <path d="m88.749636 201.04095v7.9h-2.69764v0.60001h-0.60001v-9.10001h0.60001v0.6z"/>
   <path d="m86.229636 202.81095h0.63999v-0.63999h-0.63999z"/>
   <path d="m86.229636 205.31095h0.63999v-0.64h-0.63999z"/>
   <path d="m86.869626 207.17095h-0.63999v0.64h0.63999z"/>
   <path d="m131.13294 208.96621v-7.9h-2.69764v-0.60001h-0.60001v9.10001h0.60001v-0.6z"/>
   <path d="m128.61294 207.19621h0.63999v0.63999h-0.63999z"/>
   <path d="m128.61294 204.69621h0.63999v0.64h-0.63999z"/>
   <path d="m129.25293 202.83621h-0.63999v-0.64h0.63999z"/>
   <path d="m145.55293 207.19621h-0.63999v0.63999h0.63999z"/>
   <path d="m145.55293 204.69621h-0.63999v0.64h0.63999z"/>
   <path d="m144.91294 202.83621h0.63999v-0.64h-0.63999z"/>
  </g>
  <g fill="none" stroke="#000">
   <path d="m129.25293 205.01621h15.66001"/>
   <path d="m129.25293 207.41804 15.66001-4.80368"/>
   <path d="m129.25293 202.61436 15.66001 4.80368"/>
   <path d="m113.16292 205.01591-26.293294-0.0247"/>
   <path d="m113.16292 202.57532-26.293294 4.85652"/>
   <path d="m113.16292 207.4565-26.293294-4.90584"/>
  </g>
  <text x="63.062931" y="130.89951" fill="#000000" font-family="sans-serif" font-size="5px" font-weight="bold" letter-spacing="0px" word-spacing="0px" style="line-height:125%" xml:space="preserve">Recommended Connection</text>
  <text x="63.062931" y="183.81622" fill="#000000" font-family="sans-serif" font-size="5px" font-weight="bold" letter-spacing="0px" word-spacing="0px" style="line-height:125%" xml:space="preserve">Alternative Connection</text>
 </g>
</svg>
