<?xml version="1.0" encoding="UTF-8"?>
<svg width="838.29163" height="454.65524" version="1.1" viewBox="0 0 221.79799 120.2942" xmlns="http://www.w3.org/2000/svg">
 <g transform="translate(6.9502188,-84.31984)">
  <g transform="matrix(2.0010388,0,0,2.0025469,-106.01341,-153.10639)" stroke-width=".499552">
   <g fill="#ffffc2" fill-opacity=".5" stroke-width=".132173">
    <path d="m108.33001 129.06673h11.42979v17.14107h-11.42979z"/>
    <path d="m149.27945 172.86974h1.90479v5.71541h-1.90479z"/>
    <path d="m149.27945 159.53929h1.90479v5.71438h-1.90479z"/>
   </g>
   <path d="m108.33001 129.06673h11.42979v17.14107h-11.42979zm0 0" fill="none" stroke="#840000" stroke-linecap="round" stroke-linejoin="round" stroke-miterlimit="10" stroke-width=".0951647"/>
   <path d="m114.08263 139.44853c0 0.14882-0.11989 0.26871-0.26872 0.26871-0.1478 0-0.26768-0.11989-0.26768-0.26871 0-0.1478 0.11988-0.26769 0.26768-0.26769 0.14883 0 0.26872 0.11989 0.26872 0.26769zm0 0" fill="none" stroke="#840000" stroke-linecap="round" stroke-linejoin="round" stroke-miterlimit="10" stroke-width=".0951647"/>
   <path d="m114.08263 139.44852c0 0.14883-0.11989 0.26872-0.26872 0.26872-0.1478 0-0.26768-0.11989-0.26768-0.26872 0-0.14779 0.11988-0.26768 0.26768-0.26768 0.14883 0 0.26872 0.11989 0.26872 0.26768z" fill="#840000" stroke-width=".132173"/>
   <path d="m114.29244 135.56349c0 0.1478-0.1199 0.26769-0.26769 0.26769-0.1478 0-0.26768-0.11989-0.26768-0.26769 0-0.14779 0.11988-0.26768 0.26768-0.26768 0.14779 0 0.26769 0.11989 0.26769 0.26768zm0 0" fill="none" stroke="#840000" stroke-linecap="round" stroke-linejoin="round" stroke-miterlimit="10" stroke-width=".0951647"/>
   <path d="m114.29243 135.56349c0 0.14779-0.11989 0.26769-0.26768 0.26769-0.1478 0-0.26769-0.1199-0.26769-0.26769s0.11989-0.26768 0.26769-0.26768c0.14779 0 0.26768 0.11989 0.26768 0.26768z" fill="#840000" stroke-width=".132173"/>
   <g fill="none" stroke="#840000" stroke-linecap="round" stroke-linejoin="round" stroke-miterlimit="10">
    <g stroke-width=".0951647">
     <path d="m110.99651 140.49239h1.61954"/>
     <path d="m110.99651 134.78214h2.096"/>
     <path d="m113.09251 139.08369v0.19017"/>
     <path d="m113.56793 140.49239h4.47725"/>
     <path d="m110.99651 138.59173h2.096v0.47646"/>
     <path d="m114.04439 135.73402v0.95292h-3.04788"/>
     <path d="m114.9973 134.30569h1.90479v6.1867"/>
     <path d="m115.94918 135.25757v4.28707h-1.90479"/>
     <path d="m112.61605 139.06819v1.90066l1.90479-0.95188-1.90479-0.94878"/>
     <path d="m113.09251 134.78214 1.90479-0.95291v1.90479l-1.90479-0.95188"/>
     <path d="m115.47376 135.25757h1.90479v-0.47543h0.66663"/>
    </g>
    <path d="m114.99937 134.30775" stroke-width=".0574955"/>
    <path d="m115.55024 135.25757c0 0.14882-0.11989 0.26871-0.26769 0.26871-0.14779 0-0.26768-0.11989-0.26768-0.26871 0-0.1478 0.11989-0.26769 0.26768-0.26769 0.1478 0 0.26769 0.11989 0.26769 0.26769z" stroke-width=".0951647"/>
   </g>
   <path d="m115.55024 135.25757c0 0.14882-0.11989 0.26871-0.26769 0.26871-0.14779 0-0.26768-0.11989-0.26768-0.26871 0-0.1478 0.11989-0.26769 0.26768-0.26769 0.1478 0 0.26769 0.11989 0.26769 0.26769z" fill="#840000" stroke-width=".132173"/>
   <g fill="none" stroke-linecap="round" stroke-linejoin="round" stroke-miterlimit="10">
    <g stroke-width=".0574955">
     <path d="m108.33104 134.78421h-1.90479" stroke="#840000"/>
     <g stroke="#006464">
      <path d="m109.50203 135.21623-0.31729-0.45269"/>
      <path d="m108.95839 135.21623v-0.95292h0.36174l0.0909 0.0486 0.0475 0.0434 0.0434 0.0909v0.13539l-0.0434 0.091-0.0475 0.0475-0.0909 0.0434h-0.36174"/>
      <path d="m110.09321 134.26331h0.1788l0.092 0.0486 0.0909 0.0909 0.0434 0.1788v0.31729l-0.0434 0.18294-0.0909 0.0909-0.092 0.0434h-0.1788l-0.0909-0.0434-0.091-0.0909-0.0475-0.18294v-0.31729l0.0475-0.1788 0.091-0.0909 0.0909-0.0486"/>
     </g>
     <path d="m107.65305 134.47002h-0.54364" stroke="#a90000"/>
     <path d="m107.37916 134.47002v-0.95188l-0.0909 0.13436-0.0879 0.0909-0.091 0.0486" stroke="#a90000"/>
     <path d="m108.33104 136.689h-1.90479" stroke="#840000"/>
     <g stroke="#006464">
      <path d="m109.50203 137.12102-0.31729-0.45165"/>
      <path d="m108.95839 137.12102v-0.95188h0.36174l0.0909 0.0475 0.0475 0.0434 0.0434 0.091v0.13539l-0.0434 0.0909-0.0475 0.0476-0.0909 0.0444h-0.36174"/>
      <path d="m109.9113 136.62493h0.3173"/>
      <path d="m110.36399 137.12102h-0.45269v-0.95188h0.45269"/>
      <path d="m108.82713 135.90662h1.62368"/>
     </g>
     <path d="m107.10941 135.51388 0.0434-0.0475 0.0909-0.0434h0.22634l0.0909 0.0434 0.0444 0.0475 0.0475 0.0909v0.0879l-0.0475 0.1385-0.54363 0.54363h0.59118" stroke="#a90000"/>
     <path d="m108.33104 138.5938h-1.90479" stroke="#840000"/>
     <g stroke="#006464">
      <path d="m108.95839 139.02581v-0.95188h0.22635l0.13539 0.0475 0.0909 0.0868 0.0475 0.092 0.0434 0.18191v0.13539l-0.0434 0.18293-0.0475 0.0909-0.0909 0.091-0.13539 0.0434h-0.22635"/>
      <path d="m109.9113 138.52662h0.3173"/>
      <path d="m110.36399 139.02581h-0.45269v-0.95188h0.45269"/>
     </g>
     <path d="m107.06187 137.32772h0.59118l-0.3173 0.36071h0.13436l0.0909 0.0475 0.0444 0.0444 0.0475 0.091v0.22634l-0.0475 0.0909-0.0444 0.0434-0.0909 0.0486h-0.26975l-0.091-0.0486-0.0475-0.0434" stroke="#a90000"/>
     <path d="m108.33104 140.49446h-1.90479" stroke="#840000"/>
     <path d="m108.95839 140.93164v-0.95291h0.22635l0.13539 0.0434 0.0909 0.092 0.0475 0.0909 0.0434 0.18293v0.13436l-0.0434 0.18294-0.0475 0.0909-0.0909 0.091-0.13539 0.0444h-0.22635" stroke="#006464"/>
     <path d="m109.9113 140.93164v-0.95291" stroke="#006464"/>
     <path d="m107.56106 139.54981v0.63562" stroke="#a90000"/>
     <path d="m107.33575 139.18498-0.22634 0.68316h0.58705" stroke="#a90000"/>
     <path d="m114.04646 146.20987v1.90479" stroke="#840000"/>
     <g stroke="#006464">
      <path d="m113.57413 145.08642-0.0475 0.0909v0.1354l0.0475 0.13539 0.091 0.0909 0.092 0.0434 0.1788 0.0475h0.13849l0.1788-0.0475 0.091-0.0434 0.0909-0.0909 0.0444-0.13539v-0.0909l-0.0444-0.1354-0.0434-0.0475h-0.31729v0.18294"/>
      <path d="m114.4795 144.63374h-0.95291l0.95291-0.54777h-0.95291"/>
      <path d="m114.4795 143.63432h-0.95291v-0.22635l0.0475-0.13539 0.091-0.0909 0.092-0.0475 0.1788-0.0434h0.13849l0.1788 0.0434 0.091 0.0475 0.0909 0.0909 0.0444 0.13539v0.22635"/>
     </g>
     <path d="m112.78038 146.93644v0.45165l0.45269 0.0475-0.0434-0.0475-0.0475-0.0909v-0.22634l0.0475-0.0909 0.0434-0.0434 0.091-0.0475h0.22634l0.091 0.0475 0.0475 0.0434 0.0444 0.0909v0.22634l-0.0444 0.0909-0.0475 0.0475" stroke="#a90000"/>
     <path d="m119.76187 140.49446h1.90066" stroke="#840000"/>
     <path d="m118.72524 140.65775h0.45268" stroke="#006464"/>
     <path d="m118.63429 140.93164 0.31729-0.95291 0.31729 0.95291" stroke="#006464"/>
     <path d="m120.89255 139.23252h-0.18294l-0.0868 0.0434-0.0475 0.0444-0.091 0.13849-0.0444 0.1788v0.36484l0.0444 0.0909 0.0476 0.0444 0.0909 0.0475h0.1788l0.091-0.0475 0.0475-0.0444 0.0434-0.0909v-0.22635l-0.0434-0.0909-0.0475-0.0475-0.091-0.0434h-0.1788l-0.0909 0.0434-0.0476 0.0475-0.0444 0.0909" stroke="#a90000"/>
     <path d="m119.76187 134.78421h1.90066" stroke="#840000"/>
     <path d="m118.95158 134.72013 0.13539 0.0434 0.0476 0.0444 0.0434 0.091v0.1385l-0.0434 0.0878-0.0476 0.0476-0.0878 0.0434h-0.36483v-0.95292h0.31729l0.092 0.0486 0.0434 0.0434 0.0476 0.0909v0.091l-0.0476 0.092-0.0434 0.0434-0.092 0.0475h-0.31729" stroke="#006464"/>
     <path d="m120.39646 133.51814h0.63148l-0.40514 0.95188" stroke="#a90000"/>
     <path d="m114.04646 129.0688v-1.9048" stroke="#840000"/>
     <g stroke="#006464">
      <path d="m113.52659 132.09704 0.95291-0.3173-0.95291-0.31832"/>
      <path d="m114.39165 130.60049 0.0434 0.0475 0.0444 0.13539v0.0909l-0.0444 0.13539-0.0909 0.0909-0.091 0.0434-0.1788 0.0476h-0.13849l-0.1788-0.0476-0.092-0.0434-0.091-0.0909-0.0475-0.13539v-0.0909l0.0475-0.13539 0.0434-0.0475"/>
      <path d="m114.39165 129.64861 0.0434 0.0475 0.0444 0.13436v0.092l-0.0444 0.13436-0.0909 0.0909-0.091 0.0444-0.1788 0.0475h-0.13849l-0.1788-0.0475-0.092-0.0444-0.091-0.0909-0.0475-0.13436v-0.092l0.0475-0.13436 0.0434-0.0475"/>
     </g>
     <path d="m113.18966 128.20787-0.0475 0.0909-0.0445 0.0434-0.0909 0.0475h-0.0434l-0.092-0.0475-0.0434-0.0434-0.0475-0.0909v-0.18294l0.0475-0.091 0.0434-0.0444 0.092-0.0434h0.0434l0.0909 0.0434 0.0445 0.0444 0.0475 0.091v0.18294l0.0434 0.0909 0.0475 0.0434 0.091 0.0475h0.1788l0.091-0.0475 0.0475-0.0434 0.0444-0.0909v-0.18294l-0.0444-0.091-0.0475-0.0444-0.091-0.0434h-0.1788l-0.091 0.0434-0.0475 0.0444-0.0434 0.091" stroke="#a90000"/>
    </g>
    <g stroke="#840000">
     <g stroke-width=".0574955">
      <path d="m149.28151 177.53922h0.95188v0.19017h-0.95188z"/>
      <path d="m149.28151 175.63443h0.95188v0.19017h-0.95188z"/>
      <path d="m149.28151 173.7286h0.95188v0.1912h-0.95188z"/>
     </g>
     <path d="m149.27945 172.86974h1.90479v5.71541h-1.90479z" stroke-width=".0951647"/>
     <path d="m149.28151 173.82472h-2.85771" stroke-width=".0574955"/>
    </g>
    <g stroke-width=".0574955">
     <path d="m148.12189 173.51466h-0.54363" stroke="#a90000"/>
     <path d="m147.85214 173.51466v-0.95291l-0.0909 0.13539-0.0909 0.091-0.092 0.0444" stroke="#a90000"/>
     <path d="m149.28151 175.72951h-2.85771" stroke="#840000"/>
     <path d="m147.57826 174.55439 0.0475-0.0434 0.092-0.0476h0.22531l0.092 0.0476 0.0434 0.0434 0.0434 0.0909v0.092l-0.0434 0.13436-0.54364 0.54363h0.58704" stroke="#a90000"/>
     <path d="m149.28151 177.63431h-2.85771" stroke="#840000"/>
     <path d="m147.53485 176.36824h0.58704l-0.31729 0.36483h0.13849l0.092 0.0444 0.0434 0.0476 0.0434 0.0868v0.23048l-0.0434 0.0868-0.0434 0.0475-0.092 0.0444h-0.27285l-0.092-0.0444-0.0434-0.0475" stroke="#a90000"/>
    </g>
    <g stroke="#840000">
     <path d="m60.716376 158.77655h3.809587v1.52445h-3.809587z" stroke-width=".0951647"/>
     <path d="m64.52803 159.54032h0.952913" stroke-width=".0574955"/>
     <path d="m60.718443 159.54032h-0.952913" stroke-width=".0574955"/>
    </g>
    <g stroke="#0f0f0f" stroke-width=".0574955">
     <path d="m49.62558 158.20294h0.543636"/>
     <path d="m49.895331 159.15585v-0.95291"/>
     <path d="m50.395559 158.20294 0.63562 0.95291"/>
     <path d="m51.031179 158.20294-0.63562 0.95291"/>
     <path d="m51.391881 159.15585v-0.95291h0.226343l0.138492 0.0475 0.09198 0.092 0.04341 0.091 0.04341 0.1788v0.1385l-0.04341 0.1788-0.04341 0.091-0.09198 0.092-0.138492 0.0434h-0.226343"/>
     <path d="m52.300353 158.29492 0.04444-0.0444 0.09095-0.0475h0.226342l0.09095 0.0475 0.04754 0.0444 0.04341 0.091v0.0909l-0.04341 0.13539-0.54777 0.54364h0.591178"/>
    </g>
    <g stroke="#840000">
     <g stroke-width=".0574955">
      <path d="m78.24089 121.45272 0.571539-0.95291"/>
      <path d="m78.812429 122.40564v-1.90583"/>
      <path d="m78.812429 120.49981 0.570508 0.95291"/>
     </g>
     <path d="m131.18546 154.01818h3.80959v1.52445h-3.80959z" stroke-width=".0951647"/>
     <g stroke-width=".0574955">
      <path d="m134.99711 154.78196h0.95292"/>
      <path d="m131.18753 154.78196h-0.95292"/>
      <path d="m149.28151 164.20774h0.95188v0.1912h-0.95188z"/>
      <path d="m149.28151 162.30294h0.95188v0.19017h-0.95188z"/>
      <path d="m149.28151 160.39815h0.95188v0.19017h-0.95188z"/>
     </g>
     <path d="m149.27945 159.53929h1.90479v5.71438h-1.90479z" stroke-width=".0951647"/>
     <path d="m149.28151 160.49324h-2.85771" stroke-width=".0574955"/>
    </g>
    <g stroke-width=".0574955">
     <path d="m148.12189 160.18008h-0.54363" stroke="#a90000"/>
     <path d="m147.85214 160.18008v-0.95292l-0.0909 0.1385-0.0909 0.092-0.092 0.0434" stroke="#a90000"/>
     <path d="m149.28151 162.39803h-2.85771" stroke="#840000"/>
     <path d="m147.57826 161.22394 0.0475-0.0444 0.092-0.0475h0.22531l0.092 0.0475 0.0434 0.0444 0.0434 0.0909v0.091l-0.0434 0.13539-0.54364 0.54364h0.58704" stroke="#a90000"/>
     <path d="m149.28151 164.30282h-2.85771" stroke="#840000"/>
     <path d="m147.53485 163.03675h0.58704l-0.31729 0.36587h0.13849l0.092 0.0434 0.0434 0.0434 0.0434 0.092v0.22531l-0.0434 0.092-0.0434 0.0476-0.092 0.0434h-0.27285l-0.092-0.0434-0.0434-0.0476" stroke="#a90000"/>
    </g>
    <g stroke="#840000">
     <path d="m135.94796 135.54385h-3.80959v-1.52445h3.80959z" stroke-width=".0951647"/>
     <path d="m132.14044 134.78421h-0.95291" stroke-width=".0574955"/>
     <path d="m135.95003 134.78421h0.94877" stroke-width=".0574955"/>
     <path d="m60.716376 150.20859h3.809587v1.52343h-3.809587z" stroke-width=".0951647"/>
     <path d="m64.52803 150.97237h0.952913" stroke-width=".0574955"/>
     <path d="m60.718443 150.97237h-0.952913" stroke-width=".0574955"/>
    </g>
    <g stroke-width=".0574955">
     <g stroke="#0f0f0f">
      <path d="m121.82892 141.066h0.54364"/>
      <path d="m122.10281 142.01478v-0.94878"/>
      <path d="m122.5555 141.066h0.54363"/>
      <path d="m122.82938 142.01478v-0.94878"/>
      <path d="m123.86911 142.01478h-0.45269v-0.94878"/>
     </g>
     <g stroke="#840000">
      <path d="m113.47491 121.45272 0.57155-0.95291"/>
      <path d="m114.04646 122.40564v-1.90583"/>
      <path d="m114.04646 120.49981 0.57154 0.95291"/>
     </g>
     <g stroke="#0f0f0f">
      <path d="m50.078266 150.58686-0.317294-0.45165"/>
      <path d="m49.53463 150.58686v-0.95188h0.360701l0.09198 0.0434 0.04754 0.0476 0.04341 0.0909v0.1354l-0.04341 0.0909-0.04754 0.0444-0.09198 0.0475h-0.360701"/>
      <path d="m50.395559 149.63498 0.63562 0.95188"/>
      <path d="m51.031179 149.63498-0.63562 0.95188"/>
      <path d="m51.391881 150.58686v-0.95188h0.226343l0.138492 0.0434 0.09198 0.0909 0.04341 0.092 0.04341 0.1819v0.13539l-0.04341 0.18293-0.04341 0.091-0.09198 0.0909-0.138492 0.0434h-0.226343"/>
      <path d="m52.300353 149.72594 0.04444-0.0476 0.09095-0.0434h0.226342l0.09095 0.0434 0.04754 0.0476 0.04341 0.0909v0.092l-0.04341 0.13436-0.54777 0.54363h0.591178"/>
     </g>
    </g>
    <g stroke="#840000">
     <path d="m77.38306 132.40296 1.429369 1.42834" stroke-width=".0574955"/>
     <path d="m77.38306 131.45005 1.429369-1.42834" stroke-width=".0574955"/>
     <path d="m77.380992 133.35277v-2.8577" stroke-width=".190329"/>
     <path d="m78.621227 130.59222-0.380337-0.38034-0.381374 0.76171 0.761711-0.38137" stroke-width=".0574955"/>
    </g>
   </g>
   <path d="m78.61916 130.59118-0.380339-0.38137-0.381373 0.76171 0.761712-0.38034" fill="#840000" stroke-width=".132173"/>
   <g fill="none" stroke-linecap="round" stroke-linejoin="round" stroke-miterlimit="10">
    <path d="m79.97515 131.92444c0 0.75654-0.40411 1.4552-1.059367 1.83348-0.655256 0.37827-1.461408 0.37827-2.116669 0-0.655256-0.37828-1.059365-1.07694-1.059365-1.83348 0-0.75655 0.404109-1.45521 1.059365-1.83348 0.655261-0.37827 1.461413-0.37827 2.116669 0 0.655257 0.37827 1.059367 1.07693 1.059367 1.83348z" stroke="#840000" stroke-width=".0951647"/>
    <g stroke-width=".0574955">
     <path d="m77.38306 131.9265h-4.286044" stroke="#840000"/>
     <path d="m75.513406 131.61231h-0.543636" stroke="#a90000"/>
     <path d="m75.240554 131.61231v-0.95188l-0.09198 0.13436-0.08682 0.092-0.09198 0.0476" stroke="#a90000"/>
     <path d="m78.812429 130.02171v-1.90583" stroke="#840000"/>
     <path d="m77.637306 129.34268-0.04341-0.0475-0.04754-0.092v-0.22531l0.04754-0.092 0.04341-0.0434 0.09095-0.0434h0.09198l0.134358 0.0434 0.543635 0.54364v-0.58704" stroke="#a90000"/>
     <path d="m78.812429 133.8313v1.90479" stroke="#840000"/>
     <path d="m77.546358 135.1015v-0.59117l0.364836 0.31729v-0.13539l0.04341-0.0909 0.04341-0.0434 0.09198-0.0475h0.226341l0.09095 0.0475 0.04754 0.0434 0.04341 0.0909v0.26975l-0.04341 0.092-0.04754 0.0475" stroke="#a90000"/>
    </g>
    <g stroke="#840000">
     <path d="m135.94796 141.25513h-3.80959v-1.52445h3.80959z" stroke-width=".0951647"/>
     <g stroke-width=".0574955">
      <path d="m132.14044 140.49446h-0.95291"/>
      <path d="m135.95003 140.49446h0.94877"/>
      <path d="m140.13685 157.63553 0.57154-0.95188"/>
      <path d="m140.70839 158.58844v-1.90479"/>
      <path d="m140.70839 156.68365 0.57155 0.95188"/>
     </g>
     <path d="m127.37587 150.78013h-3.81062v-1.52445h3.81062z" stroke-width=".0951647"/>
     <g stroke-width=".0574955">
      <path d="m123.56732 150.01946h-0.95188"/>
      <path d="m127.37794 150.01946h0.95188"/>
      <path d="m114.04646 151.92425v0.95291h0.95291l-0.95291 0.95292-0.95292-0.95292h0.95292"/>
     </g>
     <path d="m136.13813 169.06429h1.52032v-3.81062h-1.52032z" stroke-width=".0951647"/>
     <path d="m136.8988 165.25574v-0.95292" stroke-width=".0574955"/>
     <path d="m136.8988 169.06532v0.95292" stroke-width=".0574955"/>
     <path d="m93.283897 131.92444h1.524456v-3.81062h-1.524456z" stroke-width=".0951647"/>
     <path d="m94.047675 128.11588v-0.95188" stroke-width=".0574955"/>
     <path d="m94.047675 131.9265v0.95188" stroke-width=".0574955"/>
    </g>
    <g stroke-width=".0574955">
     <g stroke="#0f0f0f">
      <path d="m102.94946 141.066h0.54777"/>
      <path d="m103.22334 142.01478v-0.94878"/>
      <path d="m103.72357 141.066 0.63562 0.94878"/>
      <path d="m104.35919 141.066-0.63562 0.94878"/>
      <path d="m104.71989 142.01478v-0.94878h0.22635l0.13849 0.0434 0.0879 0.092 0.0475 0.0909 0.0434 0.1788v0.13849l-0.0434 0.1788-0.0475 0.0909-0.0879 0.092-0.13849 0.0434h-0.22635"/>
      <path d="m105.62836 141.15385 0.0444-0.0444 0.0909-0.0434h0.22635l0.091 0.0434 0.0434 0.0444 0.0475 0.0909v0.0909l-0.0475 0.13539-0.54364 0.54364h0.59118"/>
     </g>
     <g stroke="#840000">
      <path d="m146.4238 160.49324h-0.95291v0.95291l-0.95188-0.95291 0.95188-0.95292v0.95292"/>
      <path d="m140.13685 170.97115 0.57154-0.95291"/>
      <path d="m140.70839 171.92303v-1.90479"/>
      <path d="m140.70839 170.01824 0.57155 0.95291"/>
     </g>
     <g stroke="#0f0f0f">
      <path d="m102.45336 133.44579-0.31729-0.45165"/>
      <path d="m101.90973 133.44579v-0.95188h0.36173l0.0909 0.0434 0.0434 0.0475 0.0475 0.091v0.13539l-0.0475 0.0909-0.0434 0.0444-0.0909 0.0475h-0.36173"/>
      <path d="m102.77169 132.49391 0.63459 0.95188"/>
      <path d="m103.40628 132.49391-0.63459 0.95188"/>
      <path d="m103.76698 133.44579v-0.95188h0.22634l0.13953 0.0434 0.0868 0.0909 0.0476 0.092 0.0444 0.1819v0.1354l-0.0444 0.18293-0.0476 0.0909-0.0868 0.0909-0.13953 0.0434h-0.22634"/>
      <path d="m104.67648 132.58486 0.0434-0.0475 0.0909-0.0434h0.22634l0.092 0.0434 0.0434 0.0475 0.0475 0.091v0.092l-0.0475 0.13435-0.54364 0.54364h0.59118"/>
     </g>
    </g>
    <g stroke="#840000">
     <path d="m146.4238 173.82472h-0.95291v0.95188l-0.95188-0.95188 0.95188-0.95291v0.95291" stroke-width=".0574955"/>
     <path d="m72.333238 143.3501h1.523421v-3.80546h-1.523421z" stroke-width=".0951647"/>
     <g stroke-width=".0574955">
      <path d="m73.097016 139.54671v-0.95291"/>
      <path d="m73.097016 143.35216v0.95292"/>
      <path d="m94.047675 122.40564v-0.95292h-0.951881l0.951881-0.95291 0.952912 0.95291h-0.952912"/>
     </g>
    </g>
    <g stroke="#009600" stroke-width=".0574955">
     <path d="m94.047675 132.87838v3.81062"/>
     <path d="m53.102371 159.54032h6.663159"/>
     <path d="m114.04646 125.25921v1.90479"/>
     <path d="m78.812429 122.40564v5.71024"/>
     <path d="m114.04646 122.40564v2.85357"/>
     <path d="m98.810175 159.54032v-19.04586"/>
     <path d="m136.8988 125.25921v9.525"/>
     <path d="m104.52146 136.689h1.90479"/>
     <path d="m101.66788 134.78421h4.75837"/>
     <path d="m129.28273 140.49446v14.2875"/>
     <path d="m104.52146 136.689v1.9048"/>
     <path d="m98.810175 140.49446h7.616075"/>
     <path d="m121.66253 134.78421h6.66729"/>
     <path d="m53.102371 150.97237h6.663159"/>
     <path d="m114.04646 148.11466v1.9048"/>
     <path d="m78.812429 136.689h15.235246"/>
     <path d="m128.32982 134.78421h2.85771"/>
     <path d="m73.097016 131.9265v6.6673"/>
     <path d="m136.8988 177.63431h9.525"/>
     <path d="m140.70839 162.39803v-3.80959"/>
     <path d="m136.8988 164.30282h9.525"/>
     <path d="m136.8988 164.30282v-9.52086"/>
     <path d="m104.52146 138.5938h1.90479"/>
     <path d="m135.95003 154.78196h0.94877"/>
     <path d="m78.812429 135.73609v0.95291"/>
     <path d="m94.047675 136.689h10.473785"/>
     <path d="m129.28273 140.49446h1.9048"/>
     <path d="m114.04646 150.01946h8.56898"/>
     <path d="m136.8988 134.78421v5.71025"/>
     <path d="m140.70839 175.72951v-3.80648"/>
     <path d="m94.047675 122.40564v4.75836"/>
     <path d="m121.66253 140.49446h7.6202"/>
     <path d="m114.04646 125.25921h22.85234"/>
     <path d="m128.32982 134.78421v15.23525"/>
     <path d="m146.4238 162.39803h-5.71541"/>
     <path d="m65.480943 159.54032h33.329232"/>
     <path d="m101.66788 150.97237v-16.18816"/>
     <path d="m65.480943 150.97237h7.616073"/>
     <path d="m129.28273 154.78196h0.95188"/>
     <path d="m114.04646 150.01946v1.90479"/>
     <path d="m73.097016 144.30508v6.66729"/>
     <path d="m146.4238 175.72951h-5.71541"/>
     <path d="m73.097016 150.97237h28.570864"/>
     <path d="m136.8988 170.01824v7.61607"/>
    </g>
   </g>
   <g fill="#009600" stroke-width=".132173">
    <path d="m114.38752 125.25714c0 0.18914-0.15296 0.34313-0.34313 0.34313-0.18914 0-0.34313-0.15399-0.34313-0.34313 0-0.19017 0.15399-0.34416 0.34313-0.34416 0.19017 0 0.34313 0.15399 0.34313 0.34416z"/>
    <path d="m73.438078 150.9703c0 0.18914-0.153995 0.34313-0.34313 0.34313-0.189134 0-0.343133-0.15399-0.343133-0.34313 0-0.18913 0.153999-0.34313 0.343133-0.34313 0.189135 0 0.34313 0.154 0.34313 0.34313z"/>
    <path d="m94.389771 136.68694c0 0.18913-0.153996 0.34313-0.344165 0.34313-0.189135 0-0.34313-0.154-0.34313-0.34313 0-0.19017 0.153995-0.34313 0.34313-0.34313 0.190169 0 0.344165 0.15296 0.344165 0.34313z"/>
    <path d="m137.23987 134.78214c0 0.18914-0.154 0.34314-0.34313 0.34314-0.19017 0-0.34313-0.154-0.34313-0.34314 0-0.19017 0.15296-0.34416 0.34313-0.34416 0.18913 0 0.34313 0.15399 0.34313 0.34416z"/>
    <path d="m137.23987 164.30179c0 0.18913-0.154 0.34313-0.34313 0.34313-0.19017 0-0.34313-0.154-0.34313-0.34313 0-0.19017 0.15296-0.34417 0.34313-0.34417 0.18913 0 0.34313 0.154 0.34313 0.34417z"/>
    <path d="m128.67088 134.78214c0 0.18914-0.15296 0.34314-0.34313 0.34314-0.18913 0-0.34313-0.154-0.34313-0.34314 0-0.19017 0.154-0.34416 0.34313-0.34416 0.19017 0 0.34313 0.15399 0.34313 0.34416z"/>
    <path d="m104.86252 136.68694c0 0.18913-0.15296 0.34313-0.34313 0.34313-0.18914 0-0.34313-0.154-0.34313-0.34313 0-0.19017 0.15399-0.34313 0.34313-0.34313 0.19017 0 0.34313 0.15296 0.34313 0.34313z"/>
    <path d="m129.6238 140.49239c0 0.19017-0.154 0.34416-0.34313 0.34416-0.19017 0-0.34314-0.15399-0.34314-0.34416 0-0.18914 0.15297-0.34313 0.34314-0.34313 0.18913 0 0.34313 0.15399 0.34313 0.34313z"/>
    <path d="m114.38752 150.01739c0 0.19017-0.15296 0.34416-0.34313 0.34416-0.18914 0-0.34313-0.15399-0.34313-0.34416 0-0.18914 0.15399-0.34313 0.34313-0.34313 0.19017 0 0.34313 0.15399 0.34313 0.34313z"/>
   </g>
   <g fill="none" stroke="#006464" stroke-linecap="round" stroke-linejoin="round" stroke-miterlimit="10" stroke-width=".0574955">
    <path d="m116.01946 127.60015 0.63459 0.95292"/>
    <path d="m116.65405 127.60015-0.63459 0.95292"/>
    <path d="m116.9238 127.60015h0.59118l-0.3173 0.36174h0.1354l0.0909 0.0475 0.0476 0.0434 0.0434 0.0909v0.22634l-0.0434 0.091-0.0476 0.0444-0.0909 0.0476h-0.27079l-0.091-0.0476-0.0475-0.0444"/>
    <path d="m118.3325 127.91745v0.63562"/>
    <path d="m118.10615 127.55261-0.22944 0.68316h0.59118"/>
    <path d="m118.96812 128.00943-0.092-0.0475-0.0475-0.0444-0.0434-0.091v-0.0476l0.0434-0.0878 0.0475-0.0475 0.092-0.0434h0.17776l0.092 0.0434 0.0475 0.0475 0.0434 0.0878v0.0476l-0.0434 0.091-0.0475 0.0444-0.092 0.0475h-0.17776l-0.092 0.0434-0.0475 0.0434-0.0434 0.0909v0.18293l0.0434 0.091 0.0475 0.0444 0.092 0.0476h0.17776l0.092-0.0476 0.0475-0.0444 0.0434-0.091v-0.18293l-0.0434-0.0909-0.0475-0.0434-0.092-0.0434"/>
    <path d="m120.18975 127.60015h-0.45165l-0.0476 0.45269 0.0476-0.0434 0.0909-0.0475h0.22634l0.0909 0.0475 0.0434 0.0434 0.0475 0.0909v0.22634l-0.0475 0.091-0.0434 0.0444-0.0909 0.0476h-0.22634l-0.0909-0.0476-0.0476-0.0444"/>
    <path d="m120.64244 128.05284h0.31729"/>
    <path d="m121.09925 128.55307h-0.45681v-0.95292h0.45681"/>
    <path d="m121.50336 128.55307v-0.95292"/>
    <path d="m152.61051 177.00696-0.0476 0.0475-0.13435 0.0444h-0.092l-0.13436-0.0444-0.092-0.0909-0.0434-0.0909-0.0475-0.18294v-0.13436l0.0475-0.18293 0.0434-0.0909 0.092-0.092 0.13436-0.0434h0.092l0.13435 0.0434 0.0476 0.0476"/>
    <path d="m153.15415 177.09894-0.091-0.0444-0.0434-0.0475-0.0476-0.091v-0.26974l0.0476-0.091 0.0434-0.0486 0.091-0.0434h0.13539l0.091 0.0434 0.0444 0.0486 0.0475 0.091v0.26974l-0.0475 0.091-0.0444 0.0475-0.091 0.0444h-0.13539"/>
    <path d="m153.88072 176.46332v0.63562"/>
    <path d="m153.88072 176.5553 0.0434-0.0486 0.092-0.0434h0.13435l0.092 0.0434 0.0475 0.092v0.50023"/>
    <path d="m154.74165 176.46332v0.63562"/>
    <path d="m154.74165 176.5553 0.0444-0.0486 0.0909-0.0434h0.13539l0.0909 0.0434 0.0475 0.092v0.50023"/>
    <path d="m155.37726 177.18989h0.72658"/>
    <path d="m156.50795 176.14603h0.092l0.0909 0.0434 0.0475 0.0476 0.0434 0.092 0.0434 0.17777v0.23047l-0.0434 0.1788-0.0434 0.091-0.0475 0.0475-0.0909 0.0444h-0.092l-0.0868-0.0444-0.0475-0.0475-0.0444-0.091-0.0476-0.1788v-0.23047l0.0476-0.17777 0.0444-0.092 0.0475-0.0476 0.0868-0.0434"/>
    <path d="m157.73474 177.09894h-0.54363"/>
    <path d="m157.46086 177.09894v-0.95291l-0.0879 0.13539-0.0909 0.0909-0.0909 0.0475"/>
    <path d="m158.05204 177.09894 0.50022-0.63562"/>
    <path d="m158.05204 176.46332 0.50022 0.63562"/>
    <path d="m159.0959 176.14603h0.0909l0.0879 0.0434 0.0475 0.0476 0.0434 0.092 0.0475 0.17777v0.23047l-0.0475 0.1788-0.0434 0.091-0.0475 0.0475-0.0879 0.0444h-0.0909l-0.0909-0.0444-0.0486-0.0475-0.0434-0.091-0.0434-0.1788v-0.23047l0.0434-0.17777 0.0434-0.092 0.0486-0.0476 0.0909-0.0434"/>
    <path d="m159.73049 176.14603h0.58807l-0.31832 0.3607h0.13539l0.091 0.0486 0.0475 0.0434 0.0444 0.0909v0.22634l-0.0444 0.091-0.0475 0.0475-0.091 0.0444h-0.26975l-0.0909-0.0444-0.0444-0.0475"/>
    <path d="m62.579828 156.81387h0.08682l0.09198 0.0475 0.04754 0.0444 0.04341 0.091 0.04754 0.18293v0.22635l-0.04754 0.17776-0.04341 0.092-0.04754 0.0475-0.09198 0.0434h-0.08682l-0.09095-0.0434-0.04754-0.0475-0.04444-0.092-0.04754-0.17776v-0.22635l0.04754-0.18293 0.04444-0.091 0.04754-0.0444 0.09095-0.0475"/>
    <path d="m79.990652 123.42883h0.726571"/>
    <path d="m80.355487 123.79057v-0.72657"/>
    <path d="m81.077923 122.83765h0.591181l-0.317294 0.36174h0.13539l0.09095 0.0475 0.04341 0.0434 0.04754 0.091v0.22634l-0.04754 0.091-0.04341 0.0475-0.09095 0.0444h-0.269748l-0.09198-0.0444-0.04754-0.0475"/>
    <path d="m81.938852 122.83765 0.318329 0.95292 0.317294-0.95292"/>
    <path d="m82.804952 122.83765h0.587042l-0.317294 0.36174h0.134362l0.09198 0.0475 0.04754 0.0434 0.04341 0.091v0.22634l-0.04341 0.091-0.04754 0.0475-0.09198 0.0444h-0.269752l-0.09095-0.0444-0.04341-0.0475"/>
    <path d="m133.04478 152.05137h0.0909l0.092 0.0475 0.0434 0.0445 0.0475 0.0909 0.0434 0.18293v0.22635l-0.0434 0.1819-0.0475 0.0909-0.0434 0.0444-0.092 0.0434h-0.0909l-0.0909-0.0434-0.0434-0.0444-0.0444-0.0909-0.0476-0.1819v-0.22635l0.0476-0.18293 0.0444-0.0909 0.0434-0.0445 0.0909-0.0475"/>
    <path d="m152.61051 163.6765-0.0476 0.0434-0.13435 0.0476h-0.092l-0.13436-0.0476-0.092-0.0909-0.0434-0.0879-0.0475-0.1819v-0.13539l0.0475-0.18294 0.0434-0.0909 0.092-0.0909 0.13436-0.0444h0.092l0.13435 0.0444 0.0476 0.0476"/>
    <path d="m153.15415 163.76746-0.091-0.0476-0.0434-0.0434-0.0476-0.092v-0.26975l0.0476-0.091 0.0434-0.0476 0.091-0.0434h0.13539l0.091 0.0434 0.0444 0.0476 0.0475 0.091v0.26975l-0.0475 0.092-0.0444 0.0434-0.091 0.0476h-0.13539"/>
    <path d="m153.88072 163.13287v0.63459"/>
    <path d="m153.88072 163.22382 0.0434-0.0476 0.092-0.0434h0.13435l0.092 0.0434 0.0475 0.091v0.50023"/>
    <path d="m154.74165 163.13287v0.63459"/>
    <path d="m154.74165 163.22382 0.0444-0.0476 0.0909-0.0434h0.13539l0.0909 0.0434 0.0475 0.091v0.50023"/>
    <path d="m155.37726 163.8584h0.72658"/>
    <path d="m156.50795 162.81454h0.092l0.0909 0.0444 0.0475 0.0476 0.0434 0.0909 0.0434 0.1788v0.22635l-0.0434 0.1819-0.0434 0.092-0.0475 0.0434-0.0909 0.0476h-0.092l-0.0868-0.0476-0.0475-0.0434-0.0444-0.092-0.0476-0.1819v-0.22635l0.0476-0.1788 0.0444-0.0909 0.0475-0.0476 0.0868-0.0444"/>
    <path d="m157.73474 163.76746h-0.54363"/>
    <path d="m157.46086 163.76746v-0.95292l-0.0879 0.13539-0.0909 0.0909-0.0909 0.0445"/>
    <path d="m158.05204 163.76746 0.50022-0.63459"/>
    <path d="m158.05204 163.13287 0.50022 0.63459"/>
    <path d="m159.0959 162.81454h0.0909l0.0879 0.0444 0.0475 0.0476 0.0434 0.0909 0.0475 0.1788v0.22635l-0.0475 0.1819-0.0434 0.092-0.0475 0.0434-0.0879 0.0476h-0.0909l-0.0909-0.0476-0.0486-0.0434-0.0434-0.092-0.0434-0.1819v-0.22635l0.0434-0.1788 0.0434-0.0909 0.0486-0.0476 0.0909-0.0444"/>
    <path d="m159.73049 162.81454h0.58807l-0.31832 0.36173h0.13539l0.091 0.0476 0.0475 0.0434 0.0444 0.092v0.22531l-0.0444 0.092-0.0475 0.0434-0.091 0.0476h-0.26975l-0.0909-0.0476-0.0444-0.0434"/>
    <path d="m62.579828 148.24592h0.08682l0.09198 0.0434 0.04754 0.0475 0.04341 0.0879 0.04754 0.1819v0.22635l-0.04754 0.18293-0.04341 0.091-0.04754 0.0434-0.09198 0.0475h-0.08682l-0.09095-0.0475-0.04754-0.0434-0.04444-0.091-0.04754-0.18293v-0.22635l0.04754-0.1819 0.04444-0.0879 0.04754-0.0475 0.09095-0.0434"/>
    <path d="m112.65326 119.17896h0.72657"/>
    <path d="m113.01809 119.5438v-0.72657"/>
    <path d="m113.74053 118.59088h0.59221l-0.31832 0.36174h0.13539l0.0909 0.0475 0.0434 0.0434 0.0486 0.0909v0.22634l-0.0486 0.092-0.0434 0.0434-0.0909 0.0476h-0.26976l-0.092-0.0476-0.0475-0.0434"/>
    <path d="m114.60249 118.59088 0.3173 0.95292 0.31729-0.95292"/>
    <path d="m115.46755 118.59088h0.58705l-0.31729 0.36174h0.13435l0.092 0.0475 0.0475 0.0434 0.0434 0.0909v0.22634l-0.0434 0.092-0.0475 0.0434-0.092 0.0476h-0.26974l-0.091-0.0476-0.0434-0.0434"/>
    <path d="m81.16164 133.22358 0.04754 0.0444-0.04754 0.0434-0.04341-0.0434 0.04341-0.0444v0.0879"/>
    <path d="m80.982839 132.40606 0.08682-0.0475h0.230477l0.08785 0.0475 0.04755 0.092v0.091l-0.04755 0.0868-0.04444 0.0486-0.09095 0.0434-0.04341 0.0475-0.04754 0.091v0.0434"/>
    <path d="m81.979162 133.22358 0.04341 0.0444-0.04341 0.0434-0.04341-0.0434 0.04341-0.0444v0.0879"/>
    <path d="m81.796227 132.40606 0.09198-0.0475h0.22531l0.09198 0.0475 0.04754 0.092v0.091l-0.04754 0.0868-0.04444 0.0486-0.09095 0.0434-0.04754 0.0475-0.04341 0.091v0.0434"/>
    <path d="m82.796681 133.22358 0.04341 0.0444-0.04341 0.0434-0.04754-0.0434 0.04754-0.0444v0.0879"/>
    <path d="m82.61375 132.40606 0.09198-0.0475h0.225306l0.09199 0.0475 0.04341 0.092v0.091l-0.04341 0.0868-0.04755 0.0486-0.08785 0.0434-0.04754 0.0475-0.04341 0.091v0.0434"/>
    <path d="m141.39156 158.65975h0.72243"/>
    <path d="m141.75226 159.02459v-0.72554"/>
    <path d="m143.02246 158.07271h-0.45268l-0.0475 0.45165 0.0475-0.0434 0.0909-0.0475h0.22634l0.092 0.0475 0.0434 0.0434 0.0434 0.092v0.22634l-0.0434 0.0909-0.0434 0.0434-0.092 0.0475h-0.22634l-0.0909-0.0475-0.0475-0.0434"/>
    <path d="m143.33976 158.07271 0.31729 0.95188 0.31729-0.95188"/>
    <path d="m113.41497 154.74682-0.0909-0.0445h-0.13436l-0.13539 0.0445-0.091 0.0909-0.0476 0.0909-0.0444 0.1788v0.13953l0.0444 0.17776 0.0476 0.092 0.091 0.091 0.13539 0.0434h0.0909l0.13436-0.0434 0.0486-0.0434v-0.31729h-0.18294"/>
    <path d="m113.86765 155.65116v-0.94879l0.54364 0.94879v-0.94879"/>
    <path d="m114.86811 155.65116v-0.94879h0.22634l0.13436 0.0445 0.092 0.0909 0.0434 0.0909 0.0476 0.1788v0.13953l-0.0476 0.17776-0.0434 0.092-0.092 0.091-0.13436 0.0434h-0.22634"/>
    <path d="m134.64468 166.64066h0.0909l0.091 0.0476 0.0475 0.0444 0.0444 0.0909 0.0434 0.1819v0.22634l-0.0434 0.18294-0.0444 0.0868-0.0475 0.0486-0.091 0.0434h-0.0909l-0.0879-0.0434-0.0475-0.0486-0.0434-0.0868-0.0475-0.18294v-0.22634l0.0475-0.1819 0.0434-0.0909 0.0475-0.0444 0.0879-0.0476"/>
    <path d="m142.40338 160.116-0.0909-0.0434h-0.13539l-0.13539 0.0434-0.091 0.092-0.0475 0.091-0.0434 0.18294v0.13435l0.0434 0.18294 0.0475 0.0868 0.091 0.092 0.13539 0.0475h0.0909l0.13539-0.0475 0.0434-0.0444v-0.3173h-0.1788"/>
    <path d="m142.85606 161.0255v-0.95291l0.54364 0.95291v-0.95291"/>
    <path d="m143.85549 161.0255v-0.95291h0.22634l0.13539 0.0434 0.0909 0.092 0.0434 0.091 0.0475 0.18294v0.13435l-0.0475 0.18294-0.0434 0.0868-0.0909 0.092-0.13539 0.0475h-0.22634"/>
    <path d="m141.39156 171.99434h0.72243"/>
    <path d="m141.75226 172.35608v-0.72657"/>
    <path d="m143.02246 171.40316h-0.45268l-0.0475 0.45269 0.0475-0.0434 0.0909-0.0444h0.22634l0.092 0.0444 0.0434 0.0434 0.0434 0.0909v0.22634l-0.0434 0.091-0.0434 0.0486-0.092 0.0434h-0.22634l-0.0909-0.0434-0.0475-0.0486"/>
    <path d="m143.33976 171.40316 0.31729 0.95292 0.31729-0.95292"/>
    <path d="m142.40338 173.44748-0.0909-0.0434h-0.13539l-0.13539 0.0434-0.091 0.091-0.0475 0.0909-0.0434 0.18294v0.13539l0.0434 0.1819 0.0475 0.092 0.091 0.0868 0.13539 0.0475h0.0909l0.13539-0.0475 0.0434-0.0434v-0.3173h-0.1788"/>
    <path d="m142.85606 174.35595v-0.95187l0.54364 0.95187v-0.95187"/>
    <path d="m143.85549 174.35595v-0.95187h0.22634l0.13539 0.0434 0.0909 0.091 0.0434 0.0909 0.0475 0.18294v0.13539l-0.0475 0.1819-0.0434 0.092-0.0909 0.0868-0.13539 0.0475h-0.22634"/>
    <path d="m93.22602 118.63533-0.09095-0.0444h-0.13436l-0.135393 0.0444-0.09095 0.091-0.04444 0.0909-0.04754 0.18293v0.13436l0.04754 0.18293 0.04444 0.091 0.09095 0.0878 0.135393 0.0476h0.09095l0.134358-0.0476 0.04754-0.0434v-0.31833h-0.1819"/>
    <path d="m93.682839 119.5438v-0.95292l0.543636 0.95292v-0.95292"/>
    <path d="m94.679162 119.5438v-0.95292h0.226342l0.134358 0.0444 0.09198 0.091 0.04754 0.0909 0.04341 0.18293v0.13436l-0.04341 0.18293-0.04754 0.091-0.09198 0.0878-0.134358 0.0476h-0.226342"/>
    <path d="m115.22571 125.69536v0.76998l0.0434 0.091 0.0475 0.0434 0.091 0.0486h0.1788l0.0909-0.0486 0.0475-0.0434 0.0444-0.091v-0.76998"/>
    <path d="m116.72123 126.64827h-0.54364"/>
    <path d="m116.44734 126.64827v-0.95291l-0.0868 0.13436-0.092 0.092-0.091 0.0434"/>
    <path d="m152.33662 174.41177v0.68213l-0.0434 0.13539-0.091 0.091-0.13539 0.0444h-0.0909"/>
    <path d="m152.70249 174.41177h0.58705l-0.3173 0.36483h0.1385l0.0879 0.0434 0.0475 0.0486 0.0434 0.0868v0.23048l-0.0434 0.0868-0.0475 0.0475-0.0879 0.0444h-0.27389l-0.0909-0.0444-0.0434-0.0475"/>
    <path d="m62.012421 156.03252-0.317293-0.45268"/>
    <path d="m61.468785 156.03252v-0.95291h0.360701l0.09095 0.0475 0.04444 0.0445 0.04754 0.0909v0.13436l-0.04754 0.092-0.04444 0.0475-0.09095 0.0434h-0.360701"/>
    <path d="m62.916759 156.03252h-0.543636"/>
    <path d="m62.647008 156.03252v-0.95291l-0.09095 0.13953-0.09095 0.0909-0.09198 0.0434"/>
    <path d="m63.282628 155.1716 0.04341-0.0445 0.09095-0.0475h0.226343l0.09095 0.0475 0.04444 0.0445 0.04754 0.0909v0.0909l-0.04754 0.13539-0.543637 0.54363h0.591179"/>
    <path d="m130.57671 153.31021-0.31833-0.45269"/>
    <path d="m130.02894 153.31021v-0.95291h0.36484l0.091 0.0475 0.0444 0.0434 0.0475 0.092v0.13436l-0.0475 0.092-0.0444 0.0475-0.091 0.0434h-0.36484"/>
    <path d="m131.48105 153.31021h-0.54364"/>
    <path d="m131.2113 153.31021v-0.95291l-0.0909 0.13849-0.092 0.0879-0.0909 0.0475"/>
    <path d="m132.29857 152.67459v0.63562"/>
    <path d="m132.07223 152.31389-0.22635 0.67799h0.58808"/>
    <path d="m152.33662 161.08028v0.68316l-0.0434 0.13436-0.091 0.092-0.13539 0.0434h-0.0909"/>
    <path d="m152.70249 161.08028h0.58705l-0.3173 0.36587h0.1385l0.0879 0.0434 0.0475 0.0434 0.0434 0.0909v0.22635l-0.0434 0.092-0.0475 0.0476-0.0879 0.0434h-0.27389l-0.0909-0.0434-0.0434-0.0476"/>
    <path d="m132.1084 133.12126-0.31316-0.45268"/>
    <path d="m131.56476 133.12126v-0.95291h0.36484l0.0909 0.0475 0.0444 0.0434 0.0434 0.092v0.13436l-0.0434 0.091-0.0444 0.0486-0.0909 0.0434h-0.36484"/>
    <path d="m132.92592 132.16835h-0.18293l-0.0868 0.0475-0.0475 0.0434-0.092 0.13953-0.0434 0.17776v0.36587l0.0434 0.0909 0.0475 0.0434 0.092 0.0444h0.1788l0.0909-0.0444 0.0475-0.0434 0.0434-0.0909v-0.22634l-0.0434-0.0909-0.0475-0.0486-0.0909-0.0434h-0.1788l-0.092 0.0434-0.0475 0.0486-0.0434 0.0909"/>
    <path d="m62.012421 147.46354-0.317293-0.45165"/>
    <path d="m61.468785 147.46354v-0.95188h0.360701l0.09095 0.0434 0.04444 0.0475 0.04754 0.0909v0.13539l-0.04754 0.091-0.04444 0.0434-0.09095 0.0486h-0.360701"/>
    <path d="m62.916759 147.46354h-0.543636"/>
    <path d="m62.647008 147.46354v-0.95188l-0.09095 0.13436-0.09095 0.092-0.09198 0.0475"/>
    <path d="m63.507937 146.51166h0.09198l0.09095 0.0434 0.04341 0.0475 0.04444 0.0909 0.04754 0.1788v0.23048l-0.04754 0.1788-0.04444 0.0909-0.04341 0.0475-0.09095 0.0434h-0.09198l-0.09095-0.0434-0.04341-0.0475-0.04754-0.0909-0.04341-0.1788v-0.23048l0.04341-0.1788 0.04754-0.0909 0.04341-0.0475 0.09095-0.0434"/>
    <path d="m81.661869 131.49759-0.09198-0.0434-0.09095-0.092-0.135394-0.13436-0.09095-0.0475h-0.09095"/>
    <path d="m81.209181 131.40664-0.09095-0.0444-0.09198-0.0909-0.04341-0.1788v-0.3173l0.04341-0.18293 0.09198-0.0909 0.09095-0.0434h0.1788l0.09095 0.0434 0.09095 0.0909 0.04754 0.18293v0.3173l-0.04754 0.1788-0.09095 0.0909-0.09095 0.0444h-0.1788"/>
    <path d="m81.979162 130.54468 0.04341-0.0434 0.09095-0.0434h0.226342l0.09198 0.0434 0.04754 0.0434 0.04341 0.092v0.0909l-0.04341 0.13539-0.543636 0.54364h0.587046"/>
    <path d="m132.17145 139.02581-0.3173-0.45165"/>
    <path d="m131.62781 139.02581v-0.95188h0.36173l0.091 0.0475 0.0434 0.0434 0.0476 0.092v0.13436l-0.0476 0.0909-0.0434 0.0444-0.091 0.0475h-0.36173"/>
    <path d="m133.03341 138.07393h-0.45269l-0.0475 0.45269 0.0475-0.0444 0.0868-0.0434h0.23048l0.0879 0.0434 0.0475 0.0444 0.0434 0.0909v0.22634l-0.0434 0.0909-0.0475 0.0475-0.0879 0.0434h-0.23048l-0.0868-0.0434-0.0475-0.0475"/>
    <path d="m123.39265 148.35651-0.31729-0.45165"/>
    <path d="m122.84902 148.35651v-0.94775h0.36483l0.092 0.0434 0.0434 0.0434 0.0434 0.091v0.13953l-0.0434 0.0868-0.0434 0.0476-0.092 0.0444h-0.36483"/>
    <path d="m124.30216 148.35651h-0.54364"/>
    <path d="m124.02827 148.35651v-0.94775l-0.0879 0.13436-0.091 0.091-0.0909 0.0444"/>
    <path d="m125.16309 147.40876h-0.45269l-0.0475 0.45166 0.0475-0.0476 0.0909-0.0434h0.22635l0.092 0.0434 0.0434 0.0476 0.0434 0.092v0.22634l-0.0434 0.0909-0.0434 0.0434-0.092 0.0434h-0.22635l-0.0909-0.0434-0.0475-0.0434"/>
    <path d="m134.38216 169.49837-0.31729-0.45268"/>
    <path d="m133.83853 169.49837v-0.95291h0.36483l0.092 0.0475 0.0434 0.0444 0.0434 0.0909v0.13539l-0.0434 0.091-0.0434 0.0475-0.092 0.0434h-0.36483"/>
    <path d="m135.29167 169.49837h-0.54467"/>
    <path d="m135.01778 169.49837v-0.95291l-0.092 0.13952-0.0868 0.0868-0.092 0.0475"/>
    <path d="m135.60896 168.54546h0.58705l-0.3173 0.36587h0.1385l0.092 0.0434 0.0434 0.0475 0.0434 0.0868v0.23048l-0.0434 0.0879-0.0434 0.0475-0.092 0.0434h-0.27389l-0.091-0.0434-0.0434-0.0475"/>
    <path d="m96.234623 129.58039-0.317294-0.45165"/>
    <path d="m95.690987 129.58039v-0.95188h0.364835l0.08785 0.0434 0.04754 0.0475 0.04341 0.091v0.13539l-0.04341 0.0909-0.04754 0.0434-0.08785 0.0486h-0.364835"/>
    <path d="m96.551916 128.62851h0.635619l-0.409277 0.95188"/>
    <path d="m75.288097 141.00709-0.318327-0.45269"/>
    <path d="m74.740326 141.00709v-0.95292h0.364836l0.09095 0.0476 0.04444 0.0434 0.04754 0.092v0.13436l-0.04754 0.092-0.04444 0.0434-0.09095 0.0475h-0.364836"/>
    <path d="m76.192434 141.00709h-0.543636"/>
    <path d="m75.922683 141.00709v-0.95292l-0.09095 0.1354-0.09198 0.0909-0.09095 0.0475"/>
   </g>
  </g>
 </g>
</svg>
