<?xml version="1.0" encoding="UTF-8" standalone="no"?>
<!-- Created with Inkscape (http://www.inkscape.org/) -->

<svg
   xmlns:dc="http://purl.org/dc/elements/1.1/"
   xmlns:cc="http://creativecommons.org/ns#"
   xmlns:rdf="http://www.w3.org/1999/02/22-rdf-syntax-ns#"
   xmlns:svg="http://www.w3.org/2000/svg"
   xmlns="http://www.w3.org/2000/svg"
   xmlns:xlink="http://www.w3.org/1999/xlink"
   version="1.1"
   width="139"
   height="133"
   id="svg2">
  <defs
     id="defs4">
    <linearGradient
       id="linearGradient3948">
      <stop
         id="stop3950"
         style="stop-color:#ff0000;stop-opacity:1"
         offset="0" />
      <stop
         id="stop3952"
         style="stop-color:#ff0000;stop-opacity:0"
         offset="1" />
    </linearGradient>
    <radialGradient
       cx="82.75"
       cy="125.75"
       r="10.25"
       fx="82.75"
       fy="125.75"
       id="radialGradient3954"
       xlink:href="#linearGradient3948"
       gradientUnits="userSpaceOnUse" />
    <radialGradient
       cx="82.75"
       cy="125.75"
       r="10.25"
       fx="82.75"
       fy="125.75"
       id="radialGradient3969"
       xlink:href="#linearGradient3948"
       gradientUnits="userSpaceOnUse" />
    <radialGradient
       cx="82.75"
       cy="125.75"
       r="10.25"
       fx="82.75"
       fy="125.75"
       id="radialGradient3973"
       xlink:href="#linearGradient3948"
       gradientUnits="userSpaceOnUse" />
  </defs>
  <path
     d="m 81.344,110.6 c 8.399917,-1.67999 15.03591,-4.82999 19.908,-9.45 4.8719,-4.703981 7.3079,-10.163975 7.308,-16.379997 -1e-4,-9.407962 -4.1581,-16.001956 -12.474,-19.782 -5.628084,15.708032 -13.650076,28.09802 -24.066,37.169997 -10.332055,8.988 -20.832045,13.482 -31.5,13.482 -6.888027,0 -12.390022,-2.058 -16.506,-6.174 -4.116013,-4.19999 -6.174011,-9.911984 -6.174,-17.135997 -1.1e-5,-8.567971 2.729986,-16.169963 8.19,-22.806 5.459975,-6.71995 13.019967,-11.759945 22.68,-15.12 l 0,-16.884 -25.83,0 0,-10.71 25.83,0 0,-15.12 12.6,0 0,15.12 54.81,0 0,10.71 -54.81,0 0,13.734 c 4.78794,-0.755938 9.827935,-1.133937 15.12,-1.134 14.111916,6.3e-5 25.0739,3.10806 32.886,9.324 7.89589,6.216047 11.84389,14.658039 11.844,25.326 -1.1e-4,9.408019 -3.23411,17.430007 -9.702,24.065997 -6.4681,6.552 -15.37209,10.92 -26.712,13.104 L 81.344,110.6 M 84.62,61.964003 c -2.268076,-0.335949 -4.998073,-0.503949 -8.19,-0.504 -5.460064,5.1e-5 -10.500059,0.504051 -15.12,1.512 l 0,33.138 c 10.079935,-8.063975 17.849927,-19.445964 23.31,-34.146 m -35.91,5.04 c -5.712036,2.688043 -10.206032,6.17404 -13.482,10.458 -3.192026,4.200031 -4.788024,8.736027 -4.788,13.608 -2.4e-5,4.284018 0.965975,7.560014 2.898,9.827997 2.015971,2.26801 4.829968,3.40201 8.442,3.402 2.183963,1e-5 4.49396,-0.37799 6.93,-1.134 l 0,-36.161997"
     id="path3976"
     style="fill:#000000" />
  <path
     d="m 93,125.75 a 10.25,10.25 0 1 1 -20.5,0 10.25,10.25 0 1 1 20.5,0 z"
     transform="matrix(0.73170732,0,0,0.73170732,35.951219,2.4878049)"
     id="path3946"
     style="fill:url(#radialGradient3954);fill-opacity:1" />
  <path
     d="m 93,125.75 a 10.25,10.25 0 1 1 -20.5,0 10.25,10.25 0 1 1 20.5,0 z"
     transform="matrix(0.73170732,0,0,0.73170732,8.9512193,-15.512195)"
     id="path3967"
     style="fill:url(#radialGradient3969);fill-opacity:1" />
  <path
     d="m 93,125.75 a 10.25,10.25 0 1 1 -20.5,0 10.25,10.25 0 1 1 20.5,0 z"
     transform="matrix(0.73170732,0,0,0.73170732,-20.048781,0.487805)"
     id="path3971"
     style="fill:url(#radialGradient3973);fill-opacity:1" />
</svg>
