<?xml version="1.0" encoding="UTF-8" standalone="no"?>
<!-- Created with Inkscape (http://www.inkscape.org/) -->

<svg
   xmlns:dc="http://purl.org/dc/elements/1.1/"
   xmlns:cc="http://creativecommons.org/ns#"
   xmlns:rdf="http://www.w3.org/1999/02/22-rdf-syntax-ns#"
   xmlns:svg="http://www.w3.org/2000/svg"
   xmlns="http://www.w3.org/2000/svg"
   version="1.1"
   width="247"
   height="111"
   id="svg2">
  <defs
     id="defs4" />
  <g
     id="layer1">
    <path
       d="m 64.512,99.480001 c 8.533248,-1.706662 15.274575,-4.906659 20.224,-9.6 4.949232,-4.77865 7.423896,-10.325311 7.424,-16.64 -1.04e-4,-9.557295 -4.2241,-16.255955 -12.672,-20.096 -5.717419,15.957366 -13.866744,28.54402 -24.448,37.76 C 44.543943,100.03467 33.877287,104.6 23.04,104.6 16.042639,104.6 10.453311,102.50933 6.2719995,98.328001 2.0906526,94.061342 -1.1977764e-5,88.258681 -4.5776367e-7,80.920001 -1.1977764e-5,72.216031 2.7733186,64.493372 8.3199995,57.752001 13.866641,50.925385 21.546633,45.80539 31.36,42.392001 l 0,-17.152 -26.2400005,0 0,-10.88 26.2400005,0 0,-15.36000008 12.8,0 0,15.36000008 55.68,0 0,10.88 -55.68,0 0,13.952 c 4.863939,-0.767936 9.983934,-1.151936 15.36,-1.152 14.335914,6.4e-5 25.471903,3.157394 33.408,9.472 8.02122,6.314715 12.03188,14.890706 12.032,25.728 -1.2e-4,9.557352 -3.28545,17.706678 -9.856,24.448 C 88.533233,104.344 79.487909,108.78133 67.968,111 L 64.512,99.480001 m 3.328,-49.408 c -2.304078,-0.341281 -5.077408,-0.511948 -8.32,-0.512 -5.546733,5.2e-5 -10.666727,0.512052 -15.36,1.536 l 0,33.664 c 10.239934,-8.191975 18.133259,-19.75463 23.68,-34.688 m -36.48,5.12 c -5.802704,2.730711 -10.368033,6.27204 -13.696,10.624 -3.242693,4.266699 -4.864025,8.874694 -4.864,13.824 -2.5e-5,4.352018 0.981308,7.680015 2.944,9.984 2.04797,2.30401 4.906634,3.456009 8.576,3.456 2.218628,9e-6 4.565292,-0.383991 7.04,-1.152 l 0,-36.736"
       id="path3793"
       style="fill:#000000" />
    <path
       d="m 152.25,18.3125 c 3.49998,0.250082 6.95831,0.375082 10.375,0.375 5.12497,8.2e-5 10.04163,-0.166584 14.75,-0.5 l 0.25,-2.8125 0.375,-4 c 0.20829,-2.1249083 0.49995,-4.708239 0.875,-7.75 0.20829,-1.9165674 0.33329,-3.1248995 0.375,-3.625 l 9.5,0.625 c -0.79172,6.2917608 -1.43755,11.895922 -1.9375,16.8125 12.1666,-1.291582 24.33326,-3.604079 36.5,-6.9375 l 1,8.8125 c -11.75008,2.958412 -24.54173,5.14591 -38.375,6.5625 -0.54172,5.041737 -0.89589,10.541731 -1.0625,16.5 5.70828,-2.041606 12.4166,-3.416605 20.125,-4.125 0.70826,-2.249935 1.47909,-5.020766 2.3125,-8.3125 l 9.4375,2.1875 c -0.29175,1.333401 -0.95842,3.437565 -2,6.3125 8.87491,1.125061 15.91657,3.708392 21.125,7.75 7.41656,5.916716 11.12489,13.645874 11.125,23.1875 -1.1e-4,10.500021 -4.43761,19.041679 -13.3125,25.625 -6.91676,5.125 -16.39592,8.54166 -28.4375,10.25 l -5.5,-8.5 c 10.54159,-1.124995 18.95825,-3.666659 25.25,-7.625 7.9999,-4.999983 11.9999,-11.624977 12,-19.875 -1e-4,-8.416627 -3.70843,-14.85412 -11.125,-19.3125 -3.75009,-2.291613 -8.31258,-3.749945 -13.6875,-4.375 -6.58341,15.50004 -15.25006,28.312527 -26,38.4375 0.37495,3.833347 1.10411,7.791676 2.1875,11.875 l -9.25,3.4375 c -0.20838,-1.166664 -0.66671,-3.979161 -1.375,-8.4375 -7.12504,5.041672 -13.83336,7.562503 -20.125,7.5625 -7.58335,3e-6 -11.37501,-4.437493 -11.375,-13.3125 -1e-5,-12.041639 6.43748,-22.916628 19.3125,-32.625 2.4583,-1.791616 5.79163,-3.833281 10,-6.125 0.12496,-5.708273 0.49996,-12.2916 1.125,-19.75 -6.37504,0.500074 -12.45836,0.750074 -18.25,0.75 -2.25002,7.4e-5 -4.04169,-0.04159 -5.375,-0.125 L 152.25,18.3125 m 23.1875,36.875 c -2.91671,1.750044 -5.93754,4.270875 -9.0625,7.5625 -6.66669,6.750032 -10.25002,13.354192 -10.75,19.8125 -2e-5,0.583351 -0.0625,1.020851 -0.1875,1.3125 0.12498,0.416683 0.18748,0.916683 0.1875,1.5 -2e-5,2.750013 1.22914,4.125011 3.6875,4.125 5.37497,1.1e-5 11.12496,-2.812486 17.25,-8.4375 -0.62504,-6.66664 -1.00004,-15.291631 -1.125,-25.875 m 26.75,-9.625 c -6.2084,0.875055 -12.10422,2.458386 -17.6875,4.75 -5e-5,9.625041 0.18745,17.2292 0.5625,22.8125 6.91661,-7.708298 12.62494,-16.895789 17.125,-27.5625"
       id="path3796"
       style="fill:#000000" />
    <rect
       width="71.847099"
       height="8.8388348"
       x="152.2805"
       y="18.318502"
       id="rect3020"
       style="fill:#ff0000;fill-opacity:0.25098039" />
    <rect
       width="9.4810696"
       height="98.074081"
       x="179.20012"
       y="0.55154711"
       id="rect3022"
       style="fill:#ff0000;fill-opacity:0.25098039" />
  </g>
</svg>
