<?xml version="1.0" encoding="UTF-8" standalone="no"?>
<!-- Created with Inkscape (http://www.inkscape.org/) -->

<svg
   xmlns:dc="http://purl.org/dc/elements/1.1/"
   xmlns:cc="http://creativecommons.org/ns#"
   xmlns:rdf="http://www.w3.org/1999/02/22-rdf-syntax-ns#"
   xmlns:svg="http://www.w3.org/2000/svg"
   xmlns="http://www.w3.org/2000/svg"
   version="1.1"
   width="256"
   height="145"
   id="svg2">
  <defs
     id="defs4" />
  <path
     d="m 100.37598,73.945801 c -3.199312,11.771519 -8.182706,21.676783 -14.950199,29.715819 14.027252,6.15236 25.901259,11.66895 35.622069,16.54981 l -7.50586,7.56738 c -12.22275,-6.76758 -23.91219,-12.6123 -35.068357,-17.53418 -11.976622,9.59766 -30.208049,15.7705 -54.694336,18.51855 l -5.660156,-8.55175 c 22.599576,-1.76367 39.662059,-6.39843 51.1875,-13.9043 -6.890681,-2.95311 -14.929735,-6.0908 -24.117188,-9.413087 -0.820349,1.271507 -2.543004,3.793967 -5.167969,7.567387 l -7.936523,-4.30664 C 37.663056,92.279814 43.09762,83.543494 48.388672,73.945801 l -32.915039,0 0,-7.936524 36.791015,0 c 3.650342,-7.915953 6.45991,-14.765555 8.428711,-20.548828 l 8.982422,2.399414 c -2.584044,6.931707 -5.065487,12.981506 -7.444336,18.149414 l 62.876955,0 0,7.936524 -24.73242,0 m -9.536136,0 -32.361328,0 c -1.845753,3.732465 -4.409227,8.469765 -7.69043,14.211914 l -1.168945,1.907226 c 7.874949,2.666044 15.852481,5.619166 23.932617,8.859375 l 3.137695,1.230474 C 83.169846,93.305203 87.886638,84.568884 90.839844,73.945801 m -16.242188,-40.297852 45.958004,0 0,24.916992 -9.35156,0 0,-16.980468 -81.949217,0 0,16.980468 -9.351563,0 0,-24.916992 45.09668,0 0,-17.411133 9.597656,0 0,17.411133"
     id="path3909"
     style="fill:#000000" />
  <path
     d="m 147.25684,39.431152 c 3.44529,0.246175 6.84958,0.369222 10.21289,0.369141 5.04489,8.1e-5 9.88473,-0.163981 14.51953,-0.492188 l 0.24609,-2.768554 0.36914,-3.9375 c 0.20504,-2.091707 0.49215,-4.634673 0.86133,-7.628906 0.20504,-1.886621 0.32808,-3.076073 0.36914,-3.56836 l 9.35156,0.615235 c -0.77934,6.193452 -1.41508,11.710048 -1.90722,16.549804 11.9765,-1.271401 23.95305,-3.547766 35.92968,-6.829101 l 0.98438,8.674804 c -11.56648,2.912187 -24.15826,5.065505 -37.77539,6.459961 -0.53325,4.96296 -0.88188,10.377017 -1.0459,16.242188 5.61909,-2.009706 12.2226,-3.36322 19.81055,-4.060547 0.6972,-2.21478 1.45598,-4.942316 2.27636,-8.182617 l 9.29004,2.15332 c -0.28718,1.312567 -0.94343,3.383854 -1.96875,6.213867 8.73625,1.107483 15.66788,3.650449 20.79493,7.628906 7.30067,5.824267 10.95106,13.432658 10.95117,22.825196 -1.1e-4,10.335959 -4.36827,18.744149 -13.1045,25.224609 -6.80868,5.04492 -16.13972,8.4082 -27.99316,10.08984 l -5.41406,-8.36718 c 10.37688,-1.10742 18.66203,-3.60937 24.85547,-7.50586 7.8749,-4.92186 11.8124,-11.443339 11.8125,-19.564456 -10e-5,-8.285117 -3.65049,-14.622025 -10.95117,-19.010742 -3.69149,-2.255807 -8.1827,-3.691353 -13.47364,-4.306641 -6.48053,15.257852 -15.01177,27.870144 -25.59375,37.836919 0.3691,3.77345 1.08687,7.66993 2.15332,11.68945 l -9.10547,3.38379 c -0.20511,-1.14844 -0.65629,-3.91699 -1.35351,-8.30567 -7.01371,4.9629 -13.61721,7.44434 -19.81055,7.44434 -7.46485,0 -11.19727,-4.36816 -11.19726,-13.10449 -1e-5,-11.853491 6.3369,-22.558559 19.01074,-32.115237 2.41989,-1.763623 5.70114,-3.773386 9.84375,-6.029297 0.12301,-5.619081 0.49215,-12.099544 1.10742,-19.441406 -6.27542,0.49226 -12.2637,0.738353 -17.96484,0.738281 -2.21487,7.2e-5 -3.97854,-0.04094 -5.29102,-0.123047 l -0.7998,-8.797852 m 22.82519,36.298828 c -2.87113,1.7227 -5.84476,4.204143 -8.9209,7.444336 -6.56252,6.644563 -10.08986,13.145533 -10.58203,19.502934 -2e-5,0.57423 -0.0615,1.0049 -0.18457,1.29199 0.12303,0.41017 0.18455,0.90236 0.18457,1.47656 -2e-5,2.70704 1.20994,4.06056 3.62988,4.06055 5.29099,1e-5 10.95114,-2.76854 16.98047,-8.30567 -0.61527,-6.56247 -0.98441,-15.052696 -1.10742,-25.4707 m 26.33203,-9.474609 c -6.11138,0.861382 -11.91509,2.419974 -17.41113,4.675781 -5e-5,9.47465 0.18452,16.959994 0.55371,22.456055 6.80854,-7.587856 12.42768,-16.631792 16.85742,-27.131836"
     id="path3911"
     style="fill:#000000" />
  <path
     d="m 65,16.25 0,17.40625 c -0.46875,2.645833 -1.375,5.354167 -2.71875,7.9375 l 9.875,0 c 1.1875,-2.583333 2,-5.104167 2.4375,-7.9375 l 0,-17.40625 z M 60.6875,45.46875 C 58.718699,51.252023 55.900342,58.084047 52.25,66 l -3.875,7.9375 c -5.291052,9.597693 -10.703155,18.343774 -16.28125,26.21875 l 7.9375,4.3125 c 2.624965,-3.77342 4.335901,-6.290993 5.15625,-7.5625 9.187453,3.32229 17.234319,6.45314 24.125,9.40625 l 9.15625,3.9375 c 11.156167,4.92188 22.83975,10.76367 35.0625,17.53125 l 7.53125,-7.5625 c -9.72081,-4.88086 -21.597748,-10.41014 -35.625,-16.5625 -3.95222,-1.58857 -7.906622,-3.17108 -11.875,-4.71875 -8.080136,-3.240209 -16.062551,-6.208956 -23.9375,-8.875 l 1.15625,-1.90625 c 3.281203,-5.742149 5.841747,-10.486285 7.6875,-14.21875 L 62.21875,66 c 2.378849,-5.167908 4.884706,-11.193293 7.46875,-18.125 z"
     id="path3882"
     style="fill:#cc0000" />
  <path
     d="m 173.84375,21.40625 c -0.0411,0.492287 -0.16996,1.675879 -0.375,3.5625 -0.36918,2.994233 -0.66996,5.533293 -0.875,7.625 L 172.25,36.53125 172,39.3125 171.3125,47.625 c -0.61527,7.341862 -0.97074,13.818419 -1.09375,19.4375 l -0.125,8.65625 c 0.12301,10.418004 0.47848,18.90628 1.09375,25.46875 l 1.15625,9.6875 c 0.69722,4.38868 1.16989,7.13281 1.375,8.28125 l 9.09375,-3.375 c -1.06645,-4.01952 -1.78715,-7.91405 -2.15625,-11.6875 L 179.5625,93.375 C 179.19331,87.878939 178.99995,80.41215 179,70.9375 l 0.375,-7.8125 c 0.16402,-5.865171 0.498,-11.28704 1.03125,-16.25 l 0.875,-8.3125 c 0.49214,-4.839756 1.12691,-10.337798 1.90625,-16.53125 z"
     id="path3884"
     style="fill:#cc0000" />
</svg>
