<?xml version="1.0" encoding="UTF-8" standalone="no"?>
<!-- Created with Inkscape (http://www.inkscape.org/) -->
<svg xmlns:dc="http://purl.org/dc/elements/1.1/" xmlns:cc="http://creativecommons.org/ns#" xmlns:rdf="http://www.w3.org/1999/02/22-rdf-syntax-ns#" xmlns:svg="http://www.w3.org/2000/svg" xmlns="http://www.w3.org/2000/svg" version="1.1" width="255" height="163">
  <title>Anonymous_is_Guy_Fawkes</title>
  
  <metadata>
    <rdf:RDF>
      <cc:Work rdf:about="">
        <dc:format>image/svg+xml</dc:format>
        <dc:type rdf:resource="http://purl.org/dc/dcmitype/StillImage"/>
        <dc:title>Anonymous_is_Guy_Fawkes</dc:title>
        <cc:license rdf:resource="http://creativecommons.org/licenses/publicdomain/"/>
        <dc:description>Based on http://commons.wikimedia.org/wiki/File:Anonymous.svg</dc:description>
        <dc:contributor>
          <cc:Agent>
            <dc:title>Original Author is  	Clipart Guru &lt;http://www.clipart-rahmen.de/author/clipart/&gt;</dc:title>
          </cc:Agent>
        </dc:contributor>
      </cc:Work>
      <cc:License rdf:about="http://creativecommons.org/licenses/publicdomain/">
        <cc:permits rdf:resource="http://creativecommons.org/ns#Reproduction"/>
        <cc:permits rdf:resource="http://creativecommons.org/ns#Distribution"/>
        <cc:permits rdf:resource="http://creativecommons.org/ns#DerivativeWorks"/>
      </cc:License>
    </rdf:RDF>
  </metadata>
  <path d="m 134.36688,162.4013 c 2.37547,-0.74144 4.3,-1.79242 6.47827,-3.53772 4.88291,-3.91238 8.26591,-8.47961 20.89592,-28.21055 9.4954,-14.83394 13.05876,-21.46407 15.70846,-29.22777 1.22003,-3.574775 2.61922,-9.724065 2.61932,-11.511655 2e-5,-0.71661 -0.0763,-0.86886 -0.40432,-0.80644 -0.58615,0.11154 -1.81381,2.06255 -2.25687,3.58667 -0.4749,1.63356 -2.23318,6.05629 -3.95092,9.937995 -2.20911,4.99213 -6.0731,11.53348 -11.98002,20.28104 -11.26314,16.67959 -10.92897,16.21648 -11.53381,15.98438 -0.3198,-0.12272 -0.3225,-0.24135 -0.0247,-1.08553 0.41221,-1.16835 2.24587,-4.30126 4.66323,-7.96736 1.00548,-1.52493 2.48634,-4.01191 3.29079,-5.52661 0.80444,-1.51471 1.96887,-3.52952 2.58762,-4.47735 0.78279,-1.19911 1.125,-1.96031 1.125,-2.50237 0,-0.42846 -0.11319,-0.77902 -0.25152,-0.77902 -0.13835,0 -0.7864,0.46787 -1.44009,1.03972 -1.07687,0.94202 -2.0245,1.40069 -1.65343,0.80031 0.0814,-0.13168 1.8178,-2.13315 3.85869,-4.44771 5.83067,-6.61248 7.71962,-9.38007 8.8647,-12.98817 0.65228,-2.055245 1.03092,-5.660715 0.59449,-5.660715 -0.53682,0 -2.32186,2.67188 -5.34947,8.007115 -1.71422,3.02082 -3.4906,5.96408 -3.94748,6.54057 -4.65838,5.87793 -13.35271,9.9658 -22.85665,10.74667 -0.95308,0.0783 -3.12862,0.40813 -4.83451,0.73293 -3.04389,0.57956 -3.1816,0.58551 -7.39359,0.31943 -4.92983,-0.31143 -7.27051,-0.71861 -7.98396,-1.38887 -0.42294,-0.39732 -0.80794,-0.46659 -2.59347,-0.46659 -2.55649,0 -4.95911,-0.43713 -8.41889,-1.53175 -6.00214,-1.89899 -10.920795,-4.41558 -14.61715,-7.47875 -2.83849,-2.35227 -3.856842,-3.81244 -7.163485,-10.27136 -2.227711,-4.351475 -3.444534,-6.364645 -3.846977,-6.364645 -0.653246,0 0.914818,5.15819 2.442449,8.034595 2.395037,4.50957 4.767201,7.45487 10.796579,13.40506 8.604724,8.49172 10.368904,9.75229 16.515984,11.80126 5.18397,1.72796 8.00795,2.10918 15.62672,2.10948 4.81558,1.9e-4 4.81912,4.6e-4 5.51208,0.58366 0.55916,0.4705 0.8452,0.55499 1.47742,0.43639 0.50727,-0.0952 0.784,-0.0569 0.784,0.10838 0,0.14051 -0.6391,1.11383 -1.42024,2.16293 -1.9675,2.64244 -2.38143,3.62062 -2.37142,5.60425 0.007,1.32539 0.17238,2.03441 0.91796,3.92784 0.90717,2.30382 0.90971,2.3195 0.88577,5.42966 -0.0224,2.92112 -0.0911,3.37591 -1.08103,7.16254 -1.50815,5.76917 -1.69022,8.08674 -0.63534,8.08674 0.24517,0 1.30889,-0.26941 2.36384,-0.59868 z m -12.6879,-1.48077 c -0.0274,-0.826 -0.47647,-3.21736 -0.99788,-5.31414 -1.54769,-6.22358 -1.87238,-8.86048 -1.3631,-11.06987 0.12922,-0.56056 0.75052,-2.12868 1.38066,-3.4847 1.03291,-2.22275 1.14476,-2.62287 1.13609,-4.06388 -0.0111,-1.83786 -0.48294,-3.32657 -1.51492,-4.77922 -0.85269,-1.20025 -1.6261,-1.59795 -4.62076,-2.37603 -1.24148,-0.32256 -3.45983,-1.09472 -4.9297,-1.7159 -1.46985,-0.62119 -3.4315,-1.36653 -4.35922,-1.65632 -2.02928,-0.63388 -2.535,-0.47151 -2.36472,0.75922 0.11442,0.82681 0.1094,2.8491 -0.0146,5.85936 -0.065,1.57847 0.0324,2.18447 0.66642,4.14971 0.74876,2.32072 0.89984,3.44658 0.5389,4.01609 -0.53576,0.8453 -1.8637,-1.0059 -3.37148,-4.70005 -1.14134,-2.79628 -4.644767,-9.57095 -7.290562,-14.09793 -2.091369,-3.57836 -5.852972,-9.57269 -10.944289,-17.44035 -2.86771,-4.4315 -4.572497,-7.662395 -6.057342,-11.479815 -1.816218,-4.66935 -3.674661,-7.69729 -4.724322,-7.69729 -0.832518,0 -0.750687,0.96608 0.37375,4.41247 3.762108,11.530835 9.38984,22.670455 20.882641,41.335345 4.55244,7.39337 6.059574,9.62239 7.911164,11.70046 0.77669,0.87169 3.02911,4.02824 5.00534,7.01456 2.93403,4.43363 3.99803,5.8368 5.80022,7.64908 1.21387,1.22068 2.7016,2.50463 3.30607,2.85322 1.52402,0.8789 4.07735,1.75604 4.90825,1.68613 l 0.69315,-0.0583 -0.0499,-1.50183 z m 6.26918,-13.56869 c -0.0206,-1.04051 -0.48411,-1.84748 -0.85072,-1.48089 -0.12565,0.12565 -0.14944,0.72707 -0.0557,1.40853 0.12847,0.93409 0.24531,1.17265 0.54452,1.11191 0.28447,-0.0577 0.37612,-0.32101 0.36191,-1.03955 z m 5.44716,-27.84695 c 0,-0.15885 -0.20656,-0.60073 -0.45715,-0.98196 -0.62007,-0.94325 -4.78331,-5.41894 -5.76063,-6.19297 -0.75629,-0.59896 -0.81486,-0.60947 -1.38629,-0.24873 -0.69112,0.43628 -0.59329,0.32687 -3.57584,3.9993 -1.56257,1.92401 -2.21101,2.88982 -2.04897,3.05185 0.23652,0.23654 5.70791,0.55863 10.6311,0.62584 1.94504,0.0265 2.59894,-0.0372 2.59778,-0.25333 z m 13.29587,-8.82257 c 6.60504,-1.60023 10.1217,-3.77569 13.8764,-8.58412 1.7584,-2.251875 3.55886,-5.120905 3.55886,-5.671015 0,-0.43453 -0.23378,-0.47679 -4.96635,-0.89777 -4.76486,-0.42384 -6.93271,-1.14735 -6.93271,-2.31377 0,-0.55886 0.0324,-0.56883 1.61735,-0.49843 0.88954,0.0395 2.88197,0.22147 4.42765,0.40434 3.72595,0.44083 5.14094,0.42046 9.29492,-0.13377 3.74425,-0.49956 5.18306,-0.946 7.04745,-2.18671 1.76395,-1.17388 5.68523,-4.74319 6.76277,-6.15576 1.19897,-1.57177 1.51825,-2.21711 2.15762,-4.3611 0.4632,-1.55327 0.52857,-2.38334 0.63085,-8.00907 l 0.11412,-6.27621 -1.35471,-0.15051 c -0.74509,-0.0828 -2.58942,-0.35166 -4.0985,-0.59752 -3.33467,-0.54327 -4.08745,-0.55144 -5.574,-0.0604 -0.97478,0.32196 -2.8878,0.40908 -12.24563,0.55765 -6.09971,0.0968 -11.97415,0.24798 -13.05431,0.33586 -2.725,0.2217 -3.66666,-0.0741 -5.35104,-1.68068 -0.74218,-0.7079 -1.3494,-1.4094 -1.3494,-1.55889 0,-0.60383 1.43216,-2.35837 2.47307,-3.02972 2.77601,-1.79048 6.79671,-4.07708 7.93955,-4.51529 3.103,-1.18983 8.55039,-1.47659 12.4613,-0.656 3.93796,0.82626 7.59547,2.92622 9.35744,5.37257 1.1353,1.57629 1.34191,1.70837 3.32434,2.12539 0.87203,0.18344 1.93642,0.53663 2.36532,0.78487 0.92903,0.53771 3.72025,1.41556 4.50094,1.41556 0.54867,0 0.55327,-0.0203 0.55327,-2.43496 0,-2.76943 -0.34946,-11.78771 -0.70248,-18.128456 -0.71803,-12.896462 -2.67257,-22.77175 -5.68276,-28.71207 C 174.71138,8.8873139 167.83202,5.2275499 154.30684,2.5455489 144.15438,0.53234492 134.06719,-0.30537208 124.84801,0.09906692 102.76615,1.0677789 88.45307,4.3991639 81.675275,10.147563 c -3.608922,3.060806 -5.754994,7.616895 -7.515606,15.95555 -2.298875,10.888003 -3.111562,19.607548 -3.305544,35.466112 l -0.134242,10.97486 0.74782,2.19497 c 1.837318,5.39281 5.095074,10.94041 8.007155,13.6353 1.603986,1.48435 4.155374,2.95117 5.614637,3.22792 1.79521,0.34045 7.257893,0.27881 10.992833,-0.12404 1.779082,-0.19189 4.300412,-0.41261 5.602952,-0.49048 2.30364,-0.13772 2.36826,-0.12821 2.36826,0.34837 0,0.70757 -0.75315,1.08521 -3.23469,1.62189 -5.037834,1.08954 -6.12178,1.23653 -8.944675,1.21293 -3.386771,-0.0283 -3.468055,0.0402 -2.368166,1.99516 1.894722,3.36777 4.339666,6.162005 6.932205,7.922565 2.967162,2.01497 10.023736,5.0297 12.976646,5.54393 1.95004,0.33958 3.51018,-0.069 5.07797,-1.32997 1.57876,-1.26976 2.13097,-2.0685 2.10373,-3.04288 -0.0192,-0.68841 -0.22315,-1.01473 -1.18949,-1.90378 -0.64142,-0.59013 -1.22766,-1.31793 -1.30273,-1.61735 -0.0751,-0.29941 0.0237,-1.53212 0.21957,-2.739355 0.6074,-3.74432 0.33913,-6.33865 -0.64026,-6.19142 -0.25104,0.0377 -0.57104,0.27655 -0.71108,0.53071 -0.14007,0.25415 -0.58902,0.93907 -0.9977,1.52204 -1.16308,1.65917 -1.68299,3.08497 -1.68299,4.61553 0,1.265085 -0.0419,1.373245 -0.58437,1.509405 -0.42561,0.10682 -0.83538,-0.0273 -1.50817,-0.49353 -1.8588,-1.288135 -2.99194,-3.555865 -2.98926,-5.982375 0.003,-2.59002 0.99243,-4.07929 3.69493,-5.56069 1.94125,-1.06413 3.27252,-2.46055 3.81213,-3.99875 0.46709,-1.3314 1.6393,-7.91915 2.10473,-11.82847 0.2133,-1.79152 0.35611,-5.25976 0.37614,-9.13431 l 0.0323,-6.24618 -1.83381,-3.54713 c -1.64186,-3.1758 -1.98869,-3.68292 -3.31312,-4.8442 -0.81359,-0.71339 -2.68509,-2.371481 -4.15889,-3.684654 -4.5907,-4.090403 -6.666269,-5.344846 -10.037468,-6.066547 -3.262721,-0.69848 -4.772261,-1.431441 -4.772261,-2.317197 0,-0.851809 1.403835,-1.205663 4.158894,-1.048312 5.491145,0.313618 8.771825,2.062211 16.461755,8.774108 5.53362,4.829822 6.80518,6.388052 8.42442,10.323602 0.39214,0.95307 0.92651,2.61663 1.18752,3.69679 0.92804,3.84063 1.00128,5.6794 0.73962,18.56795 -0.13549,6.67347 -0.2933,12.26987 -0.35071,12.43643 -0.41996,1.21834 -1.74836,11.121535 -1.76005,13.121175 -0.0132,2.26329 0.0141,2.39969 0.60337,3.01481 1.52037,1.58693 5.29004,2.53982 8.23814,2.0824 1.82187,-0.28267 2.6497,-0.6447 4.03036,-1.76263 0.52418,-0.42443 1.23764,-0.90135 1.58549,-1.05983 0.70624,-0.32179 0.31561,-0.65354 3.62454,3.07833 2.46768,2.78311 4.26129,3.2352 8.63308,2.17603 z m -2.64377,-13.704765 c -0.34712,-1.63361 -1.42837,-3.93763 -2.17865,-4.64248 -0.30739,-0.2888 -1.09754,-0.66717 -1.75584,-0.84083 -0.65833,-0.17366 -1.34705,-0.44031 -1.5305,-0.59256 -0.83277,-0.69114 0.0403,-2.48791 1.08187,-2.22649 0.95206,0.23895 3.29733,1.87939 4.05545,2.83666 1.82032,2.29844 2.44441,4.91962 1.46643,6.15885 -0.27579,0.34946 -0.58133,0.63539 -0.67894,0.63539 -0.0977,0 -0.30455,-0.59785 -0.45982,-1.32854 z m -67.488779,-27.4555 c 0,-0.32779 0.275005,-1.28338 0.611119,-2.12354 0.608793,-1.52174 0.609558,-1.53157 0.200609,-2.58095 -0.225784,-0.57937 -0.459588,-1.3324 -0.519566,-1.67342 -0.117659,-0.66897 -0.322453,-0.56772 2.765751,-1.36741 0.576083,-0.14918 1.075318,-0.50871 1.501822,-1.08154 1.116559,-1.49963 2.914044,-3.16466 4.227977,-3.91642 3.281367,-1.8774 7.973685,-2.73313 12.930947,-2.35817 2.92842,0.22149 4.68853,0.7468 7.74016,2.31007 5.19287,2.66015 7.335,4.19684 7.66466,5.49829 0.31961,1.26181 -1.25573,3.01859 -3.24317,3.61673 -1.5464,0.46539 -5.35763,0.76384 -14.889907,1.16601 -4.741,0.20002 -9.419755,0.50044 -10.397233,0.6676 -3.514187,0.60096 -7.087185,1.54138 -7.568337,1.992 -0.655051,0.6135 -1.024832,0.55964 -1.024832,-0.14925 z m 59.533789,-12.72788 c -0.30558,-0.30558 -0.14831,-2.65262 0.22655,-3.38095 1.60431,-3.11709 4.66329,-6.475055 9.67007,-10.615266 5.788,-4.786214 9.95147,-6.644218 14.88856,-6.644218 2.05311,0 3.01779,0.334563 3.01779,1.046593 0,0.951305 -1.44515,1.687501 -5.4454,2.774019 -2.8436,0.772355 -3.51307,1.109481 -5.79249,2.916941 -4.90005,3.885474 -12.62099,11.008971 -14.69743,13.560141 -0.38821,0.47696 -1.52484,0.68555 -1.86765,0.34274 z M 115.40527,46.721057 c -0.55519,-0.284161 -2.26905,-1.69897 -3.80856,-3.144022 -3.33374,-3.129204 -4.69851,-4.08961 -8.09961,-5.699888 -4.856382,-2.299295 -7.917697,-2.998321 -12.357616,-2.821779 -4.620739,0.183731 -6.822803,1.181242 -10.4173,4.718914 -1.204677,1.185636 -2.270394,2.1557 -2.36826,2.1557 -0.642902,0 0.646105,-2.548098 2.3984,-4.741131 2.376946,-2.974815 6.280022,-5.554549 9.784813,-6.467269 2.594664,-0.675704 6.097492,-0.918073 8.958441,-0.619853 6.767142,0.705392 12.434332,3.245113 17.103452,7.664813 2.86016,2.707381 3.79767,4.820806 3.17097,7.148222 -0.58985,2.190496 -2.26202,2.882511 -4.36473,1.806293 z m 21.25268,0.145878 c -1.34815,-0.944284 -1.8203,-3.843813 -0.93321,-5.731013 0.60181,-1.280304 4.13935,-4.725847 6.36512,-6.199586 7.4367,-4.924053 15.24222,-6.534889 22.12626,-4.566227 3.8981,1.114753 8.10942,4.064704 10.6749,7.477559 1.16396,1.548383 2.24472,3.524197 2.12471,3.884256 -0.0417,0.125109 -1.15797,-0.763792 -2.48057,-1.975336 -4.15651,-3.80746 -7.04976,-4.893744 -12.48816,-4.688715 -6.47517,0.244115 -10.95219,2.327836 -18.94607,8.817988 -4.28897,3.482179 -5.15529,3.883008 -6.44298,2.981074 z" style="fill:#000000;fill-opacity:1"/>
</svg>