<?xml version="1.0" encoding="UTF-8" standalone="no"?>
<!-- Created with Inkscape (http://www.inkscape.org/) --><svg xmlns:cc="http://creativecommons.org/ns#" xmlns:dc="http://purl.org/dc/elements/1.1/" height="222.54672" xmlns:rdf="http://www.w3.org/1999/02/22-rdf-syntax-ns#" xml:space="preserve" xmlns:svg="http://www.w3.org/2000/svg" version="1.1" width="252" xmlns:xlink="http://www.w3.org/1999/xlink" xmlns="http://www.w3.org/2000/svg"><metadata><rdf:RDF><cc:Work rdf:about=""><dc:format>image/svg+xml</dc:format><dc:type rdf:resource="http://purl.org/dc/dcmitype/StillImage"/><dc:title>Floor Numbering</dc:title><dc:creator><cc:Agent><dc:title>@cat_in_136</dc:title></cc:Agent></dc:creator><cc:license rdf:resource="http://creativecommons.org/licenses/by/3.0/"/></cc:Work><cc:License rdf:about="http://creativecommons.org/licenses/by/3.0/"><cc:permits rdf:resource="http://creativecommons.org/ns#Reproduction"/><cc:permits rdf:resource="http://creativecommons.org/ns#Distribution"/><cc:requires rdf:resource="http://creativecommons.org/ns#Notice"/><cc:requires rdf:resource="http://creativecommons.org/ns#Attribution"/><cc:permits rdf:resource="http://creativecommons.org/ns#DerivativeWorks"/></cc:License></rdf:RDF></metadata><defs><linearGradient id="linearGradient4710"><stop offset="0" style="stop-color:#a2d5ff;stop-opacity:1"/><stop offset="1" style="stop-color:#ffffff;stop-opacity:1"/></linearGradient><linearGradient id="linearGradient3977"><stop offset="0" style="stop-color:#404040;stop-opacity:1"/><stop offset="0.1" style="stop-color:#404040;stop-opacity:1"/><stop offset="0.1" style="stop-color:#692717;stop-opacity:1"/><stop offset="1" style="stop-color:#34130c;stop-opacity:1"/></linearGradient><linearGradient id="linearGradient3925" x2="0" y2="1"><stop offset="0" style="stop-color:#3f7010;stop-opacity:1"/><stop offset="1" style="stop-color:#7fd828;stop-opacity:0"/></linearGradient><linearGradient id="linearGradient3879" x2="0" y2="1"><stop offset="0" style="stop-color:#b1f172;stop-opacity:1"/><stop offset="1" style="stop-color:#e4fdcc;stop-opacity:1"/></linearGradient><linearGradient gradientTransform="matrix(1.4142136,0,0,0.70710678,-20,0)" gradientUnits="userSpaceOnUse" xlink:href="#linearGradient3925" id="linearGradient3923" x1="97.967361" x2="81.186569" y1="905.284" y2="911.84668"/><linearGradient gradientUnits="userSpaceOnUse" xlink:href="#linearGradient3977" id="linearGradient3983" x1="36" x2="36" y1="715.76685" y2="804.67676"/><linearGradient gradientTransform="matrix(1.7320508,0,0,0.57735027,-20,0)" gradientUnits="userSpaceOnUse" xlink:href="#linearGradient3879" id="linearGradient4315" x1="41.569218" x2="41.569218" y1="1053.1562" y2="1115.51"/><linearGradient gradientTransform="matrix(1,0,0,1.6060664,0,-566.51456)" gradientUnits="userSpaceOnUse" xlink:href="#linearGradient4710" id="linearGradient4708" x1="36" x2="36" y1="715.76685" y2="800.49146"/></defs><g transform="translate(-36,-583.49327)"><path d="m 36,728.03925 252,0 0,-144.54598 -252,0 0,144.54598 z" style="fill:url(#linearGradient4708);fill-opacity:1;stroke:none"/><path d="m 36,806.04 252,0 0,-90 -252,0 0,90 z" style="fill:url(#linearGradient3983);stroke:none"/><g id="g3316"><path d="m 52,644.04 108,0 0,-36 -108,0 0,36 z" style="fill:url(#linearGradient4315);fill-opacity:1;stroke:none"/><path d="m 124,644.04 0,-4.5 -4.5,0 0,-4.5 -4.5,0 0,-4.5 -4.5,0 0,-4.5 -4.5,0 0,-4.5 -4.5,0 0,-4.5 -4.5,0 0,-4.5 -4.5,0 0,-4.5 -40.5,0 0,36 72,0" style="opacity:0.2;fill:url(#linearGradient3923);fill-opacity:1;stroke:none"/></g><text xml:space="preserve" style="font-size:18px;font-weight:200;text-align:end;writing-mode:lr-tb;text-anchor:end;fill:#000000" x="155.27414" y="632.52002">3F</text><use height="222.54672" xlink:href="#use3320" transform="translate(0,36)" width="252" x="0" y="0"/><text xml:space="preserve" style="font-size:18px;font-weight:200;text-align:end;writing-mode:lr-tb;text-anchor:end;fill:#000000" x="155.27414" y="704.60999">1F</text><use height="222.54672" xlink:href="#g3316" id="use3320" transform="translate(0,36)" width="252" x="0" y="0"/><text xml:space="preserve" style="font-size:18px;font-weight:200;text-align:end;writing-mode:lr-tb;text-anchor:end;fill:#000000" x="155.27414" y="668.70001">2F</text><use height="222.54672" xlink:href="#use3320" transform="translate(0,72)" width="252" x="0" y="0"/><text xml:space="preserve" style="font-size:18px;font-weight:200;text-align:end;writing-mode:lr-tb;text-anchor:end;fill:#000000" x="155.27414" y="740.60999">-1F</text><use height="222.54672" xlink:href="#use3320" transform="translate(0,108)" width="252" x="0" y="0"/><text xml:space="preserve" style="font-size:18px;font-weight:200;text-align:end;writing-mode:lr-tb;text-anchor:end;fill:#000000" x="155.27414" y="776.60999">-2F</text><g transform="matrix(0.09194134,0,0,0.09194134,205.49977,676.04)"><path d="M 179.237,0 C 138.982,0 83.388,11.502 60.384,21.087 37.38,30.672 22.044,40.257 17.252,64.219 L 0,197.06 l 0,183.045 29.712,0 0,28.705 c 0,35 51.218,35 51.218,0 l 0,-28.705 94.557,0 0.3,0 98.307,0 0,28.705 c 0,35 51.218,35 51.218,0 l 0,-28.705 29.712,0 0,-183.045 L 337.772,64.219 C 332.98,40.257 317.644,30.672 294.64,21.087 271.636,11.502 216.042,0 175.787,0" style="fill:#c0c0c0;fill-opacity:1;stroke:none"/><g><path d="m 299.682,322.723 c 13.568,0 24.568,-11.002 24.568,-24.57 0,-13.568 -11,-24.57 -24.568,-24.57 -13.568,0 -24.569,11.002 -24.569,24.57 0,13.568 11.001,24.57 24.569,24.57 z" style="fill:#ffffff;stroke:none"/><path d="" style="fill:#ffffff;stroke:none"/></g><g><path d="m 55.342,322.723 c -13.568,0 -24.568,-11.002 -24.568,-24.57 0,-13.568 11,-24.57 24.568,-24.57 13.568,0 24.569,11.002 24.569,24.57 0,13.568 -11.001,24.57 -24.569,24.57 z" style="fill:#ffffff;stroke:none"/><path d="" style="fill:#ffffff;stroke:none"/></g><path d="m 175.612,55.113 -71.136,0 c -14.378,0 -14.378,-21.566 0,-21.566 l 71.311,0 74.761,0 c 14.378,0 14.378,21.566 0,21.566 l -74.936,0 z" style="fill:#ffffff;stroke:none"/><path d="m 175.612,76.887 -109.897,0 c -15.188,0 -19.156,7.717 -21,19.423 l -13.428,96.348 c -1.252,9.235 1.419,18.402 14.178,18.402 l 130.322,0 133.772,0 c 12.759,0 15.43,-9.167 14.178,-18.402 L 310.309,96.31 c -1.844,-11.706 -5.812,-19.423 -21,-19.423 l -113.697,0 z" style="fill:#ffffff;stroke:none"/></g><g style="fill:#c0c0c0;fill-opacity:1" transform="matrix(0.06197737,0,0,0.06197737,160.82072,684.81569)"><g style="fill:#c0c0c0;fill-opacity:1"><path d="m 173.073,169.594 c 17.902,0 32.414,-14.512 32.414,-32.414 0,-17.901 -14.512,-32.414 -32.414,-32.414 -17.899,0 -32.414,14.513 -32.414,32.414 0,17.902 14.515,32.414 32.414,32.414 z" style="fill:#c0c0c0;fill-opacity:1;stroke:none"/><path d="" style="fill:#c0c0c0;fill-opacity:1;stroke:none"/></g><path d="m 168.28,375.116 0.013,113.385 c 0,20.401 -30.564,20.401 -30.564,0 l -0.013,-113.385 -40.5042,0 43.3392,-150.343 -6.812,0 -25.523,85.882 c -6.075,18.731 -31.7932,11.036 -25.9092,-9.022 L 110.646,208.33 c 3.037,-10.64 16.494,-29.502 39.785,-29.502 l 21.477,0 0,0 23.115,0 c 23.085,0 36.601,19.021 40.095,29.502 l 28.35,93.212 c 5.67,20.048 -19.845,28.35 -25.92,8.809 l -25.515,-85.578 -7.376,0 43.805,150.343 -40.681,0 0,113.536 c 0,20.25 -30.438,20.149 -30.438,0 l 0,-113.536 -9.063,0 z" style="fill:#c0c0c0;fill-opacity:1;stroke:none"/></g><g style="fill:#c0c0c0;fill-opacity:1" transform="matrix(0.06197737,0,0,0.06197737,154.18801,684.86003)"><path d="m 404.386,178.706 c -22.808,0 -41.151,18.867 -41.151,42.4 l 0,100.301 c 0,19.5 28.137,19.5 28.137,0 l 0,-91.714 6.661,0 0,254.126 c 0,26.072 37.467,25.305 37.467,0 l 0,-148.775 6.454,0 0,148.775 c 0,25.305 37.673,26.072 37.673,0 l 0,-254.126 6.504,0 0,91.714 c 0,19.65 27.99,19.649 27.94,0 l 0,-99.701 c 0,-21.7 -16.614,-42.955 -41.657,-42.955 l -68.028,-0.045 z" style="fill:#c0c0c0;fill-opacity:1;stroke:none"/><g style="fill:#c0c0c0;fill-opacity:1"><path d="m 438.573,169.594 c 17.902,0 32.414,-14.512 32.414,-32.414 0,-17.901 -14.512,-32.414 -32.414,-32.414 -17.899,0 -32.414,14.513 -32.414,32.414 0,17.902 14.515,32.414 32.414,32.414 z" style="fill:#c0c0c0;fill-opacity:1;stroke:none"/><path d="" style="fill:#c0c0c0;fill-opacity:1;stroke:none"/></g></g><g transform="matrix(0.06754805,0,0,0.06754805,245.17078,692.04)"><path d="m 194.026,291.861 -0.058,0 -104.733,0 0,33.069 c 0,40.257 -58.238,40.736 -58.238,0 l 0,-33.069 -30.997,0 0,-103.56 C 0,160.505 22.358,145.816 34.984,144.213 L 66.858,62.816 c 6,-15.5 19,-28.748 43.5,-28.748 l 167.252,0 c 24.5,0 37.5,13.248 43.5,28.748 l 31.874,81.397 c 12.626,1.603 35.007,16.292 35.007,44.088 l 0,103.56 -30.997,0 0,33.069 c 0,40.736 -58.238,40.257 -58.238,0 l 0,-33.069 -104.733,0 -0.059,0 z" style="fill:#c0c0c0;fill-opacity:1;stroke:none"/><g><path d="m 193.964,142.296 -0.059,0 -125.921,0 23.998,-62.98 c 3,-9 7.502,-15.5 18.002,-15.597 l 83.921,0 0.059,0 0.059,0 83.963,0 c 10.5,0.097 15,6.597 18,15.597 l 23.998,62.98 -125.961,0 -0.059,0 z" style="fill:#ffffff;stroke:none"/><g><g><path d="m 61.043,228.552 c -14.856,0 -26.901,-12.291 -26.901,-27.45 0,-15.159 12.045,-27.449 26.901,-27.449 14.856,0 26.9,12.29 26.9,27.449 0,15.159 -12.044,27.45 -26.9,27.45 z" style="fill:#ffffff;stroke:none"/><path d="" style="fill:#ffffff;stroke:none"/></g><g><path d="m 326.926,228.552 c 14.856,0 26.9,-12.291 26.9,-27.45 0,-15.159 -12.044,-27.449 -26.9,-27.449 -14.856,0 -26.901,12.29 -26.901,27.449 0,15.159 12.045,27.45 26.901,27.45 z" style="fill:#ffffff;stroke:none"/><path d="" style="fill:#ffffff;stroke:none"/></g></g></g></g></g></svg>
