<?xml version="1.0" encoding="UTF-8" standalone="no"?>
<!-- Created with Inkscape (http://www.inkscape.org/) -->
<svg xmlns:cc="http://creativecommons.org/ns#" xmlns:dc="http://purl.org/dc/elements/1.1/" height="771.34204" xmlns:rdf="http://www.w3.org/1999/02/22-rdf-syntax-ns#" xmlns:svg="http://www.w3.org/2000/svg" version="1.2" width="420.37" xmlns:xlink="http://www.w3.org/1999/xlink" xmlns="http://www.w3.org/2000/svg"><title>次世代型飲料自販機のカメラを隠して商品を買う方法（未検証）</title><metadata><rdf:RDF><cc:Work rdf:about=""><dc:format>image/svg+xml</dc:format><dc:type rdf:resource="http://purl.org/dc/dcmitype/StillImage"/><dc:title>次世代型飲料自販機のカメラを隠して商品を買う方法（未検証）</dc:title><dc:creator><cc:Agent><dc:title>@cat_in_136</dc:title></cc:Agent></dc:creator><cc:license rdf:resource="http://creativecommons.org/licenses/by-nd/3.0/"/></cc:Work><cc:License rdf:about="http://creativecommons.org/licenses/by-nd/3.0/"><cc:permits rdf:resource="http://creativecommons.org/ns#Reproduction"/><cc:permits rdf:resource="http://creativecommons.org/ns#Distribution"/><cc:requires rdf:resource="http://creativecommons.org/ns#Notice"/><cc:requires rdf:resource="http://creativecommons.org/ns#Attribution"/></cc:License></rdf:RDF></metadata><g transform="translate(-107.80454,-281.56017)"><use height="771.34204" xlink:href="#use3850" transform="translate(0,519.68629)" width="420.37" x="0" y="0"/><use height="771.34204" xlink:href="#g3225" transform="translate(-123,519.68629)" width="420.37" x="0" y="0"/><use height="771.34204" xlink:href="#g3225" transform="translate(-123,263.68629)" width="420.37" x="0" y="0"/><g id="g3225"><path d="m 463.58578,340.30836 c 1.70288,0.88347 -15,15.19673 -15,24 0,1.55675 11.42199,1.15602 8,8 -0.95816,1.91632 -8.45594,15.54406 -6,18 1.32261,1.32261 5.6233,-1 7,-1 5.91826,0 23.66412,2.33588 27,-1 2.08645,-2.08644 3,-18.10272 3,-21 -6.66381,-11.10634 -3,-2.5122 -3,-12 0,-2.19345 -6.43388,3.56612 -8,2 -0.28403,-0.28403 0.21494,-5 0,-5 -0.0553,0 -3.40136,4.59865 -5,3 -2.4608,-2.4608 6.4801,-10 3,-10 -8.6282,0 -12.77351,15.00635 -11,-5 z" style="fill:none;stroke:#000000;stroke-width:1px;stroke-linecap:butt;stroke-linejoin:miter;stroke-opacity:1"/><path d="m 461.58578,341.30836 c 1.47172,-6.90196 10.13534,-32 15,-32 1.45741,0 -2.19826,15.80174 -2,16 2.87424,2.87425 14.42504,-10.57496 16,-9 3.02628,3.02628 -6.19127,14.80873 -4,17 1.95154,1.95154 8.00923,-6 10,-6 0.87428,0 -4.30441,10.69559 -4,11 1.91705,1.91705 7.96819,-4 10,-4 3.8799,0 -4,8.87389 -4,9 0,2.53859 7,-0.46141 7,-3 0,-1.45681 -9.52987,10.47013 -9,11 1.80739,1.80739 5.90625,-3 6,-3 2.68742,0 -2.09971,5.09971 -4,7 -1.16482,1.16482 -6.35231,17.70463 -9,23" style="fill:none;stroke:#000000;stroke-width:1px;stroke-linecap:butt;stroke-linejoin:miter;stroke-opacity:1"/><path d="m 461.58578,389.30836 c -5.79874,7.6384 -29.63514,60.36487 -21,69 0.86128,0.86128 6.74837,0 8,0 5.07601,0 31.34388,-1.65612 35,2 0.53897,0.53897 1.34221,3 3,3 1.67419,0 1,-14.54673 1,-16 0,-18.76573 0,-36.84192 0,-56" style="fill:none;stroke:#000000;stroke-width:1px;stroke-linecap:butt;stroke-linejoin:miter;stroke-opacity:1"/><path d="m 448.58578,459.30836 c -3.17929,2.57159 -3.51137,6.02275 -5,9 -5.81659,11.63318 -8.02014,25.06043 -12,37 -0.56765,1.70294 -3.2693,3.73071 -2,5 1.02682,1.02683 8.59902,0 10,0 1.77738,0 9.82911,1.17089 11,0 1.24859,-1.24858 -0.62707,-9.49173 0,-12 3.54476,-14.17902 13,-29.67231 13,-41" style="fill:none;stroke:#000000;stroke-width:1px;stroke-linecap:butt;stroke-linejoin:miter;stroke-opacity:1"/><path d="m 475.58578,457.30836 c -1.00043,9.18653 -6.60055,29.7989 -2,39 0.32038,0.64077 3.60504,12 3,12 -2.02759,0 4.18647,0.0932 6,1 0.62836,0.31418 2.96438,2.03562 4,1 1.10196,-1.10196 1,-44.59541 1,-47" style="fill:none;stroke:#000000;stroke-width:1px;stroke-linecap:butt;stroke-linejoin:miter;stroke-opacity:1"/><path d="m 431.58578,507.30836 c -24.74244,2.47983 -3.08213,18.54107 16,9 4.13269,-2.06634 0.78946,-5.21054 -1,-7" style="fill:none;stroke:#000000;stroke-width:1px;stroke-linecap:butt;stroke-linejoin:miter;stroke-opacity:1"/><path d="m 473.58578,507.30836 c -2.44678,1.16795 -5.04814,2.50236 -6.55921,4.85128 -0.90911,1.36942 -0.78558,3.27647 0.3102,4.50971 1.7871,2.10614 4.54843,3.06311 7.18138,3.58249 3.79156,0.6664 7.99652,0.34996 11.24163,-1.89064 2.473,-1.67886 3.79126,-4.66847 3.81894,-7.60766 -0.0213,-1.45002 0.0901,-3.06977 -0.77907,-4.31838 -0.5413,-0.67681 -1.4385,-0.85641 -2.21387,-1.1268" style="fill:none;stroke:#000000;stroke-width:1px;stroke-linecap:butt;stroke-linejoin:miter;stroke-opacity:1"/></g><path d="m 471.58578,410.30836 c -6.97097,1.16386 -35.5012,24.4996 -49,20 0.66066,0.28591 2.76681,20 2,20 -0.74536,0 1.33333,-0.66666 2,-1 4.69336,-2.34668 8.08958,-6.54479 13,-9 5.59193,-2.79596 31.09001,-15.09 33,-17" style="fill:#ffffff;fill-opacity:1;stroke:#000000;stroke-width:1px;stroke-linecap:butt;stroke-linejoin:miter;stroke-opacity:1"/><path d="m 422.58578,431.30836 c -22.39725,-5.92204 -16.04036,31.04036 1,14" style="fill:none;stroke:#000000;stroke-width:1px;stroke-linecap:butt;stroke-linejoin:miter;stroke-opacity:1"/><g id="use3850" transform="translate(-2.4142136,196.21642)"><rect height="237.23851" style="fill:#ffffff;fill-opacity:1;stroke:#000000;stroke-width:1;stroke-miterlimit:4;stroke-opacity:1;stroke-dasharray:none" width="177.35143" x="110.71381" y="85.851631"/><rect height="132.66544" style="fill:#000000;fill-opacity:1;stroke:#000000;stroke-width:1;stroke-miterlimit:4;stroke-opacity:1;stroke-dasharray:none" width="169.54178" x="114.61864" y="90.756454"/><rect height="76.248787" style="fill:#ffffff;fill-opacity:1;stroke:#000000;stroke-width:1;stroke-miterlimit:4;stroke-opacity:1;stroke-dasharray:none" width="142.00366" x="128.3877" y="111.55003"/><rect height="19.51964" style="fill:#dcdcdc;fill-opacity:1;stroke:#000000;stroke-width:1;stroke-miterlimit:4;stroke-opacity:1;stroke-dasharray:none" width="114.28844" x="142.2453" y="250.27917"/><rect height="15.221916" style="fill:#dcdcdc;fill-opacity:1;stroke:#000000;stroke-width:1;stroke-miterlimit:4;stroke-opacity:1;stroke-dasharray:none" width="12.990713" x="260.89417" y="276.92804"/><rect height="16.123604" rx="6.0084162" ry="8.0618019" style="fill:none;stroke:#0080ff;stroke-width:1;stroke-miterlimit:4;stroke-opacity:1;stroke-dasharray:none" width="20.67169" x="201.41647" y="201.62624"/><rect height="19.51964" style="fill:#404040;fill-opacity:1;stroke:none" width="50.338142" x="226.34813" y="199.92822"/><rect height="10.32725" style="fill:#dcdcdc;fill-opacity:1;stroke:#000000;stroke-width:0.84270877;stroke-miterlimit:4;stroke-opacity:1;stroke-dasharray:none" width="12.869424" x="230.9364" y="204.52441"/><path d="m 270.46836,208.7838 a 4.596195,4.596195 0 1 1 -9.19239,0 4.596195,4.596195 0 1 1 9.19239,0 z" style="fill:#ffffff;fill-opacity:1;stroke:#000000;stroke-width:1;stroke-miterlimit:4;stroke-opacity:1;stroke-dasharray:none" transform="translate(5.1819806,-2.7380793e-8)"/><path d="m 270.46836,208.7838 a 4.596195,4.596195 0 1 1 -9.19239,0 4.596195,4.596195 0 1 1 9.19239,0 z" style="fill:#000000;fill-opacity:1;stroke:none" transform="matrix(1.4283025,0,0,1.4283025,-121.94997,-87.954061)"/><text x="128.69344" y="211.68803" style="font-size:8px;font-style:italic;font-variant:normal;font-weight:normal;font-stretch:normal;text-align:start;line-height:125%;letter-spacing:0px;word-spacing:0px;writing-mode:lr-tb;text-anchor:start;fill:#dcdcdc;fill-opacity:1;stroke:none;font-family:&quot;Segoe UI&quot;, sans-serif">a c u r e</text><rect height="13.705956" style="fill:none;stroke:#404040;stroke-width:1;stroke-miterlimit:4;stroke-opacity:1;stroke-dasharray:none" width="6.7380314" x="191.24001" y="204.08505"/><path d="m 268.22005,208.7838 5.66818,0" style="fill:none;stroke:#000000;stroke-width:1px;stroke-linecap:butt;stroke-linejoin:miter;stroke-opacity:1"/></g><use height="771.34204" xlink:href="#use3850" transform="translate(0,263.68629)" width="420.37" x="0" y="0"/><path d="m 345.58578,658.99465 c -6.67923,-10.04045 -18.16144,-19.16143 -25,-26 -3.62007,-3.62006 -10,-37.83852 -10,-43 -2.46392,1.1246 -10.01482,1.01482 -12,3 -1.19361,1.19361 4.96249,16.9625 6,18 5.27043,5.27043 0.27858,21.27859 6,27 1.27969,1.2797 5.1149,1.11491 7,3 9.13783,9.13784 14.01349,18.52024 21,29" style="fill:#ffffff;fill-opacity:1;stroke:#000000;stroke-width:1px;stroke-linecap:butt;stroke-linejoin:miter;stroke-opacity:1"/><path d="m 294.58578,593.99465 c -17.27647,-35.92264 38.53244,-25.53244 15,-2" style="fill:none;stroke:#000000;stroke-width:1px;stroke-linecap:butt;stroke-linejoin:miter;stroke-opacity:1"/><path d="m 228.93331,556.56367 c 3.58535,1.61883 -15.44042,-18.12388 -24.98105,-16.76148 -20.33745,2.90417 -34.38039,30.7022 -12.65125,37.94661 11.48,3.82739 18.34519,8.85094 27.51183,-0.31467 2.39088,-2.39062 4.50563,-2.60787 6.9573,-5.05925 0.35203,-0.352 1.73858,-5.74504 1.89768,-5.69199 1.65564,0.55198 64.35606,21.96663 64.19297,22.45579 -0.71969,2.15868 6.4505,-17.18414 -3.16138,-15.81156 -8.0302,1.14671 -21.88672,-7.29695 -30.3573,-10.12101 -11.02501,-3.67569 -17.82693,-2.78109 -29.4088,-6.64244 z" style="fill:#ff0000;fill-opacity:1;stroke:#000000;stroke-width:1px;stroke-linecap:butt;stroke-linejoin:miter;stroke-opacity:1"/><path d="m 388.11164,371.45946 c 1.33511,3.70038 2.25373,-23.70237 -5.36815,-29.60039 -16.24731,-12.57263 -45.97609,-3.29176 -36.04269,17.34715 5.24803,10.90401 6.42386,19.32923 19.38525,19.52465 3.38065,0.051 5.00928,1.41731 8.47587,1.46959 0.49777,0.007 5.33367,-2.7532 5.4064,-2.60208 0.75687,1.57257 29.05372,61.48265 28.5891,61.70626 -2.05037,0.98684 16.82432,-7.33797 9.14551,-13.28003 -6.41522,-4.96427 -10.00543,-20.78859 -13.87772,-28.83417 -5.04005,-10.47184 -10.41896,-14.73022 -15.71357,-25.73098 z" style="fill:#ff0000;fill-opacity:1;stroke:#000000;stroke-width:1px;stroke-linecap:butt;stroke-linejoin:miter;stroke-opacity:1"/><path d="m 405.9048,495.42734 c -2.35108,-0.59196 -4.70449,-0.61887 -7.09656,-0.38124 -2.53918,0.2919 -5.09311,0.43317 -7.64644,0.52518 -2.70761,0.0484 -5.41576,0.0387 -8.12362,0.0235 -3.20021,-0.0189 -6.37603,0.5042 -9.51032,1.10516 -3.15642,0.58981 -6.36381,0.74773 -9.56631,0.83839 -2.63134,0.0789 -5.26398,0.0726 -7.89598,0.1062 -1.94397,0.0189 -3.88778,-0.0125 -5.83173,-0.0175 -2.77105,0.0752 -5.52898,0.51598 -8.29696,0.74779 -2.50619,0.17517 -5.02074,0.22339 -7.53238,0.26351 -1.89154,0.017 -3.78321,0.007 -5.67479,0.002 -2.20899,-0.0179 -4.41797,-0.0202 -6.62704,-0.0165 -1.30657,0.14344 -2.68464,-0.17347 -3.9856,0.0207 -0.46582,0.0695 -0.89471,0.2947 -1.34425,0.4352 -1.09405,0.31252 -2.19861,0.49423 -3.32622,0.61683 -0.57621,-0.008 -1.152,0.0239 -1.72818,0.0185 -0.57294,-0.0247 -0.44074,-0.40573 -0.81068,-1.11554 -0.0251,-0.20286 -0.11347,-0.40778 -0.0752,-0.60858 0.15047,-0.79002 2.80045,-2.54845 3.41106,-3.02688 2.53255,-1.78001 4.85436,-3.80398 7.16126,-5.85979 1.80295,-1.61137 3.62406,-3.20729 5.55644,-4.66242 1.71669,-1.04718 3.01642,-2.56997 4.39497,-3.99801 1.31256,-1.32956 2.67694,-2.60701 3.98461,-3.94124 0.96536,-1.02987 1.80577,-2.15729 2.64862,-3.28694 0.23261,-0.31859 0.47512,-0.63042 0.69642,-0.95708 16.34873,-8.24265 14.2602,-10.01335 12.91516,-2.88795 -0.39054,2.60558 -0.38509,5.24031 -0.72098,7.85231 -0.28627,1.94594 -0.52751,3.89699 -0.64948,5.8603 -0.12857,1.78148 -8.4e-4,3.56921 -0.14535,5.34783 -0.45492,2.21426 -0.70695,4.45433 -0.84249,6.70831 -0.0932,1.86146 -0.077,3.72582 -0.0743,5.58884 -0.12807,1.18886 0.19452,2.24685 0.53406,3.36033 0.26332,0.7375 0.38631,1.50735 0.494,2.27947 0.0208,0.19692 0.0508,0.39167 0.0957,0.58364 -17.71905,11.38197 -9.24322,9.54987 -14.82814,5.56699 -1.20036,-1.20868 -2.70935,-2.02283 -4.08065,-3.01542 -1.63569,-0.96035 -3.4157,-1.67211 -5.17692,-2.3813 -1.13777,-0.18725 -2.06037,-0.82732 -3.07787,-1.32676 -0.61676,-0.10358 -0.998,-1.16439 -1.61546,-1.11491 -0.86119,0.11535 -1.49159,-0.42319 -2.27969,-0.67706 -1.03817,-0.0961 -1.81956,-0.58095 -2.73284,-1.02956 -0.64253,-0.36485 -0.94044,-0.98923 -1.60677,-1.34396 -0.6815,-0.41783 -1.14064,-1.11226 -1.84481,-1.50874 -0.76937,-0.67615 -1.43252,-1.45596 -2.13905,-2.19396 -4.21105,-4.04296 4.2793,-3.31478 12.40431,-7.76215 0.20841,0.008 0.30347,0.004 0.38794,-0.19525 0.90709,-0.21888 1.82291,-0.75151 2.63411,-1.27571 -3.95133,2.27019 -7.90266,4.54038 -11.854,6.81057 1.3292,-0.73857 2.48333,-1.72089 3.46638,-2.87417 1.38416,-1.83571 3.07142,-3.3926 4.54699,-5.15508 1.16652,-1.4514 2.17622,-3.02196 3.07225,-4.65235 2.65653,-4.14479 2.28658,-1.47113 13.33707,-7.94409 0.76963,-0.0609 0.95766,0.4556 1.21793,1.15512 0.14614,1.6006 -0.44416,3.25987 -0.89264,4.78576 -0.80715,2.26203 -1.54643,4.54857 -2.22527,6.85273 -0.2799,1.0494 -0.51365,2.11159 -0.6814,3.18477 -0.77408,4.8929 -11.48293,5.21663 -13.42154,6.05133 -0.1427,0.0614 0.2459,-0.19014 0.36408,-0.29098 0.62619,-0.53432 0.39567,-0.31753 0.89855,-1.14993 1.29346,-2.36382 2.7137,-4.64933 4.26799,-6.8497 3.98708,-5.20636 5.63602,-3.67713 15.17581,-7.69512 -0.98063,1.80855 -1.89742,3.64462 -2.5741,5.59055 -0.48153,1.39696 -1.02981,2.76879 -1.50507,4.1682 -0.042,0.14328 -0.12198,0.37002 -0.16831,0.48982 0,0 -13.58386,6.35743 -13.58386,6.35743 l 0,0 c 0.0591,-0.19419 0.16018,-0.38453 0.23716,-0.5752 0.59558,-1.39292 1.13564,-2.80876 1.75758,-4.18998 0.58202,-1.99672 1.45237,-3.84806 2.26332,-5.74539 14.94172,-6.92451 17.09211,-9.81561 11.86054,-4.17526 -1.70353,1.99699 -3.09065,4.25517 -4.25915,6.6032 -0.12964,0.25281 -0.25927,0.50561 -0.3889,0.75842 -0.0771,0.25009 -0.11745,0.51465 -0.23137,0.75027 -2.1413,4.42867 -15.22551,11.79054 -14.13343,6.43542 0.25207,-1.1504 0.5799,-2.28296 0.87562,-3.42241 0.62785,-2.30821 1.36728,-4.60066 2.18137,-6.84476 0.38265,-1.32273 0.73139,-2.65885 1.02714,-3.98622 0.50936,0.67567 0.43874,0.4797 -0.15407,0.50721 2.60599,-1.58371 14.8241,-12.28128 12.34762,-6.88703 -1.00258,1.7275 -2.13033,3.37931 -3.27505,5.01472 -1.38828,1.73771 -2.8293,3.37359 -4.32009,5.00206 -0.91196,1.33016 -1.98869,2.50149 -3.32226,3.42725 -4.46424,2.57553 -8.9112,5.18125 -13.39273,7.72659 -0.64019,0.3636 -1.59074,0.70397 -2.33336,0.7897 -0.15864,0.0183 -0.75185,-0.0338 -0.97649,-0.0516 -0.46176,-0.25166 -0.85386,-0.57833 -1.14946,-1.02225 -2.76223,-4.93846 10.154,-12.16228 13.24308,-7.43799 0.59773,0.68191 1.20543,1.37562 1.93073,1.92362 0.63208,0.49072 1.2105,1.05226 1.90067,1.46075 0.50408,0.40115 0.85604,0.95663 1.45782,1.20382 0.84486,0.4227 1.73831,0.57579 2.62529,0.90481 0.81,0.32677 1.65872,0.37059 2.42863,0.79329 0.52224,0.40427 0.99133,0.8747 1.6055,1.14214 0.94116,0.52549 1.90564,0.94719 2.92747,1.29633 1.78469,0.8314 3.63932,1.54791 5.27004,2.66677 1.44244,0.95492 2.94235,1.83561 4.21353,3.02378 5.39561,4.44385 0.3261,2.9916 -11.1038,9.05652 0.0309,-0.0804 0.0925,-0.28638 0.0583,-0.42367 -0.0125,-0.6929 -0.0795,-1.3813 -0.279,-2.04846 -0.34939,-1.24226 -0.85836,-2.44793 -0.67957,-3.76752 0.015,-1.90713 0.0726,-3.81329 0.16109,-5.71842 0.11447,-2.26935 0.24519,-4.54053 0.68078,-6.77602 0.38994,-1.70536 0.0806,-3.49744 0.22759,-5.2341 0.0838,-2.02806 0.31294,-4.03425 0.69071,-6.03002 0.41258,-2.60063 0.47862,-5.2017 0.63662,-7.82797 0.85722,-7.08955 2.83017,-4.52424 14.08084,-9.47602 -0.29229,0.3167 -0.55939,0.65569 -0.83387,0.98771 -0.90581,1.12378 -1.69026,2.35445 -2.70987,3.37187 -1.11299,1.54497 -2.66994,2.69669 -3.97662,4.07337 -1.44609,1.41727 -2.66631,3.03666 -4.29077,4.26963 -2.10323,1.25255 -3.88659,2.96439 -5.75442,4.52921 -2.30218,2.03792 -4.49814,4.19291 -7.07018,5.90172 -0.2223,0.1828 -3.16014,2.57046 -3.28558,2.54899 -0.13819,-0.0236 -0.21085,-0.18485 -0.31627,-0.27728 -0.24359,-0.36309 -0.89302,-0.85203 -0.40852,-0.86504 0.52244,-0.01 1.04822,-0.0205 1.56214,-0.12509 1.06544,-0.15831 2.1044,-0.4532 3.15555,-0.68441 1.79492,-0.29982 3.63202,-0.0327 5.44353,-0.11285 2.22146,0.005 4.44286,0.004 6.66427,-0.009 1.88444,3.3e-4 3.76889,10e-4 5.65331,-0.01 2.46053,-0.0165 4.9218,-0.0586 7.37403,-0.28363 2.81335,-0.25189 5.615,-0.71673 8.44517,-0.69794 1.95114,-10e-4 3.90224,-0.0265 5.8533,0.002 2.57472,0.0382 5.15084,0.0256 7.72479,-0.0492 3.16656,-0.1434 6.32971,-0.38367 9.44413,-1.00701 3.19539,-0.54957 6.43121,-0.96323 9.68019,-0.9067 2.72501,-0.0199 5.45115,-0.0208 8.17447,-0.12902 2.53236,-0.10508 5.0572,-0.29913 7.58035,-0.53768 2.52194,-0.11691 5.01053,0.13504 7.49393,0.58504 0,0 -12.16579,8.47719 -12.16579,8.47719 z" style="fill:#ff0000;fill-opacity:1;stroke:none"/><text xml:space="preserve" style="font-size:14px;font-style:normal;font-variant:normal;font-weight:normal;font-stretch:normal;text-align:start;line-height:125%;letter-spacing:0px;word-spacing:0px;writing-mode:lr-tb;text-anchor:start;fill:#000000;fill-opacity:1;stroke:none;font-family:sans-serif" x="330.9259" y="397.58133"><tspan x="330.9259" y="397.58133">何か↑</tspan></text><path d="m 345.58578,914.99465 c -6.67923,-10.04045 -18.16144,-19.16143 -25,-26 -3.62007,-3.62006 -10,-37.83852 -10,-43 -2.46392,1.1246 -10.01482,1.01482 -12,3 -1.19361,1.19361 4.96249,16.9625 6,18 5.27043,5.27043 0.27858,21.27859 6,27 1.27969,1.2797 5.1149,1.11491 7,3 9.13783,9.13784 14.01349,18.52024 21,29" style="fill:#ffffff;fill-opacity:1;stroke:#000000;stroke-width:1px;stroke-linecap:butt;stroke-linejoin:miter;stroke-opacity:1"/><path d="m 294.58578,849.99465 c -17.27647,-35.92264 38.53244,-25.53244 15,-2" style="fill:none;stroke:#000000;stroke-width:1px;stroke-linecap:butt;stroke-linejoin:miter;stroke-opacity:1"/><path d="m 228.93331,812.56367 c 3.58535,1.61883 -15.44042,-18.12388 -24.98105,-16.76148 -20.33745,2.90417 -34.38039,30.7022 -12.65125,37.94661 11.48,3.82739 18.34519,8.85094 27.51183,-0.31467 2.39088,-2.39062 4.50563,-2.60787 6.9573,-5.05925 0.35203,-0.352 1.73858,-5.74504 1.89768,-5.69199 1.65564,0.55198 64.35606,21.96663 64.19297,22.45579 -0.71969,2.15868 6.4505,-17.18414 -3.16138,-15.81156 -8.0302,1.14671 -21.88672,-7.29695 -30.3573,-10.12101 -11.02501,-3.67569 -17.82693,-2.78109 -29.4088,-6.64244 z" style="fill:#ff0000;fill-opacity:1;stroke:#000000;stroke-width:1px;stroke-linecap:butt;stroke-linejoin:miter;stroke-opacity:1"/><path d="m 178.89802,998.62207 c -1.05979,7.00323 -0.70711,13.57963 -0.70711,20.50603 0,3.7713 0,7.5425 0,11.3138 0,7.3634 -1.54982,16.2634 -1.41421,16.2634 2.88378,0 6.29994,-2.8284 9.19238,-2.8284 1.13992,0 6.38872,2.0965 7.77818,0.7071 0.54009,-0.5401 0.12796,-48.6624 -0.70711,-49.49747 -2.20553,-2.20554 -12.53292,2.57001 -14.14213,3.53554 z" style="fill:#ffffff;fill-opacity:1;stroke:#000000;stroke-width:1px;stroke-linecap:butt;stroke-linejoin:miter;stroke-opacity:1"/><path d="m 200.81833,992.96521 c 0.22282,7.86969 0.7071,15.36139 0.7071,23.33449 0,3.7713 0,7.5425 0,11.3137 0,2.4466 -1.57289,16.1048 -0.7071,16.9706 0.88822,0.8882 5.00997,-1.4142 6.36396,-1.4142 0.98446,0 8.65009,-1.5791 9.19239,-2.1213 0.38609,-0.3861 -4.10011,-46.52654 -4.94975,-47.37618 -3.04246,-3.04246 -7.05902,-2.83566 -10.6066,-0.70711 z" style="fill:#ffffff;fill-opacity:1;stroke:#000000;stroke-width:1px;stroke-linecap:butt;stroke-linejoin:miter;stroke-opacity:1"/><path d="m 176.7767,1047.4124 c -0.94281,0.2357 -2.59273,1.6499 -2.82843,0.7071 -0.2357,-0.9428 2.59272,-1.6499 2.82843,-0.7071 0.33333,1.3333 -1.68671,2.2317 -2.12132,3.5355 -0.93058,2.7918 27.61164,2.1559 18.38477,-7.071" style="fill:none;stroke:#000000;stroke-width:1px;stroke-linecap:butt;stroke-linejoin:miter;stroke-opacity:1"/><path d="m 201.52543,1043.8769 c -6.16569,11.5309 26.75832,9.0806 14.84925,-2.8284" style="fill:none;stroke:#000000;stroke-width:1px;stroke-linecap:butt;stroke-linejoin:miter;stroke-opacity:1"/><path d="m 176.06959,916.59768 c -2.14471,3.58962 -8.38554,45.35458 -7.07107,46.66905 2.4114,2.4114 2.12132,12.08601 2.12132,16.26345 0,8.0343 2.12132,15.42068 2.12132,22.62742 0,0.7071 0.70711,2.1213 0,2.1213 -2.848,0 4.93018,-3.5355 7.77818,-3.5355 5.72335,0 12.13839,-6.36398 18.38477,-6.36398 1.59263,0 15.80051,-2.36548 16.97057,-3.53553 2.72759,-2.7276 0,-20.30623 0,-24.74874 0,-7.95675 -2.54841,-42.85349 -7.07107,-47.37615 -4.82445,-4.82445 -18.85752,3.06279 -23.33453,-1.41421 -0.40324,-0.40324 -5.18721,-2.51357 -6.36396,-2.12133 -1.20416,0.40139 -3.53553,2.68351 -3.53553,1.41422 0,-9.95694 2.6072,-1.73814 4.24264,-2.82843" style="fill:#ffffff;fill-opacity:1;stroke:#000000;stroke-width:1px;stroke-linecap:butt;stroke-linejoin:miter;stroke-opacity:1"/><path d="m 175.72226,917.0901 c -3.70097,-11.53943 -16.21659,-45.78341 -5,-57 2.10819,-2.10818 6.98142,8 4,8 -4.63081,0 3.72552,-8.72552 7,-12 5.2643,-5.2643 6.65181,7.1741 9,6 3.93663,-1.96831 7.3377,-10 12,-10 2.46047,0 2.10791,10.10791 3,11 1.71391,1.71391 4.32614,-4.67385 6,-3 0.80025,0.80025 2.16209,9 3,9 1.01203,0 6.51492,1.54476 8,6 4.44377,13.33132 -6.06506,40.06507 -14,48 -1.48126,1.48126 -4.66807,-2.66807 -5,-3 -0.79162,-0.79161 -3.83608,3 -5,3 -1.33987,0 -4.18062,-6.81938 -7,-4 -1.41522,1.41523 -5.52033,5 -8,5 -1.05409,0 -0.25464,-2.25464 -1,-3 -1.90029,-1.90029 -4.90148,-2.32118 -7,-4 z" style="fill:#ffffff;fill-opacity:1;stroke:#000000;stroke-width:1px;stroke-linecap:butt;stroke-linejoin:miter;stroke-opacity:1"/><path d="m 174.65538,925.08296 c -3.12967,0.26134 -10.72303,26.98649 -17.67767,33.94113 -0.23437,0.23436 -2.12132,32.02848 -2.12132,33.23401 2.15865,-2.13783 7.88489,0.60039 9.89949,-1.41421 5.73373,-5.73372 -4.71112,-26.40157 0.70711,-31.8198 4.81534,-4.81535 7.85739,-17.91532 9.19239,-21.92031" style="fill:#ffffff;fill-opacity:1;stroke:#000000;stroke-width:1px;stroke-linecap:butt;stroke-linejoin:miter;stroke-opacity:1"/><path d="m 155.56349,990.13678 c -17.89315,8.10921 18.22956,26.40442 9.8995,1.41422" style="fill:none;stroke:#000000;stroke-width:1px;stroke-linecap:butt;stroke-linejoin:miter;stroke-opacity:1"/><path d="m 261.07281,926.50063 c -0.48094,-0.65652 -0.42765,-1.63757 -0.2697,-2.42733 0.17227,-0.86134 0.21256,-1.93972 1.07881,-2.51723 1.12971,-0.75314 1.83191,-0.62931 3.14654,-0.62931 3.84601,0 7.81976,2.0743 6.65268,6.74259 -0.48661,1.94647 -3.52132,2.89202 -4.22535,3.59604" style="fill:#ffffff;fill-opacity:1;stroke:#000000;stroke-width:1px;stroke-linecap:butt;stroke-linejoin:miter;stroke-opacity:1"/><path d="m 206.47518,926.49718 c 6.47386,4.05519 23.49299,15.55634 28.99138,15.55634 2.63977,0 22.42129,-19.298 25.45584,-16.26345 0.54519,0.54519 7.00034,5.02048 6.36396,5.65685 -2.72197,2.72198 -27.41154,21.37883 -28.99137,19.79899 -3.17514,-3.17514 -13.93222,0.20992 -17.67767,-3.53553 -2.84013,-2.84013 -10.05326,-6.88662 -12.72793,-7.77818" style="fill:#ffffff;fill-opacity:1;stroke:#000000;stroke-width:1px;stroke-linecap:butt;stroke-linejoin:miter;stroke-opacity:1"/><text xml:space="preserve" style="font-size:14.66666698px;font-style:normal;font-variant:normal;font-weight:normal;font-stretch:normal;text-align:start;line-height:125%;letter-spacing:0px;word-spacing:0px;writing-mode:lr-tb;text-anchor:start;fill:#000000;fill-opacity:1;stroke:none;font-family:sans-serif" x="400.43854" y="539.48712"><tspan x="400.43854" y="539.48712">カメラ隠し係</tspan></text><text xml:space="preserve" style="font-size:14.66666698px;font-style:normal;font-variant:normal;font-weight:normal;font-stretch:normal;text-align:start;line-height:125%;letter-spacing:0px;word-spacing:0px;writing-mode:lr-tb;text-anchor:start;fill:#000000;fill-opacity:1;stroke:none;font-family:sans-serif" x="368.78226" y="670.16669"><tspan x="368.78226" y="670.16669">カメラに写らないよう</tspan><tspan x="368.78226" y="688.5">横から接近して</tspan><tspan x="368.78226" y="706.83337">カメラを何かで隠す</tspan></text><text xml:space="preserve" style="font-size:14.66666698px;font-style:normal;font-variant:normal;font-weight:normal;font-stretch:normal;text-align:start;line-height:125%;letter-spacing:0px;word-spacing:0px;writing-mode:lr-tb;text-anchor:start;fill:#000000;fill-opacity:1;stroke:none;font-family:sans-serif" x="365.95645" y="937.22119"><tspan x="365.95645" y="937.22119">その後購入係が硬貨で</tspan><tspan x="365.95645" y="955.5545">商品を購入する</tspan></text></g></svg>