<?xml version="1.0" encoding="UTF-8" standalone="no"?>
<svg xmlns="http://www.w3.org/2000/svg" xmlns:xlink="http://www.w3.org/1999/xlink" width="645" height="465" viewBox="391 61 445 303">
  <defs>
    <linearGradient id="gradYellow" gradientUnits="objectBoundingBox" x1="0" y1="0" x2="1" y2="0">
      <stop style="stop-color:#ffffff;stop-opacity:1" offset="0"/>
      <stop style="stop-color:#ffffcc;stop-opacity:1" offset="1"/>
    </linearGradient>
    <linearGradient id="gradRed" gradientUnits="objectBoundingBox" x1="0" y1="0" x2="1" y2="0">
      <stop style="stop-color:#ffffff;stop-opacity:1" offset="0"/>
      <stop style="stop-color:#ffcccc;stop-opacity:1" offset="1"/>
    </linearGradient>
  </defs>
  <g>
    <rect style="fill: url(#gradYellow)" x="411.8" y="63" width="99" height="28"/>
    <rect style="fill: none; fill-opacity:0; stroke-width: 2; stroke: #000000" x="411.8" y="63" width="99" height="28"/>
    <text font-size="16" style="fill: #000000; text-anchor: middle; font-family: sans-serif; font-style: italic;" x="461.3" y="83">LookAndFeel</text>
    <rect style="fill: url(#gradYellow)" x="411.8" y="91" width="99" height="8"/>
    <rect style="fill: none; fill-opacity:0; stroke-width: 2; stroke: #000000" x="411.8" y="91" width="99" height="8"/>
    <rect style="fill: url(#gradYellow)" x="411.8" y="99" width="99" height="8"/>
    <rect style="fill: none; fill-opacity:0; stroke-width: 2; stroke: #000000" x="411.8" y="99" width="99" height="8"/>
  </g>
  <g>
    <rect style="fill: url(#gradYellow)" x="392.8" y="162.2" width="137" height="28"/>
    <rect style="fill: none; fill-opacity:0; stroke-width: 2; stroke: #000000" x="392.8" y="162.2" width="137" height="28"/>
    <text font-size="16" style="fill: #000000; text-anchor: middle; font-family: sans-serif; font-style: italic;" x="461.3" y="182.2">BasicLookAndFeel</text>
    <rect style="fill: url(#gradYellow)" x="392.8" y="190.2" width="137" height="8"/>
    <rect style="fill: none; fill-opacity:0; stroke-width: 2; stroke: #000000" x="392.8" y="190.2" width="137" height="8"/>
    <rect style="fill: url(#gradYellow)" x="392.8" y="198.2" width="137" height="8"/>
    <rect style="fill: none; fill-opacity:0; stroke-width: 2; stroke: #000000" x="392.8" y="198.2" width="137" height="8"/>
  </g>
  <g>
    <rect style="fill: url(#gradYellow)" x="393.35" y="318.2" width="138.65" height="28"/>
    <rect style="fill: none; fill-opacity:0; stroke-width: 2; stroke: #000000" x="393.35" y="318.2" width="138.65" height="28"/>
    <text font-size="16" style="fill: #000000; text-anchor: middle; font-family: sans-serif; font-style: normal;" x="462.675" y="338.2">MetalLookAndFeel</text>
    <rect style="fill: url(#gradYellow)" x="393.35" y="346.2" width="138.65" height="8"/>
    <rect style="fill: none; fill-opacity:0; stroke-width: 2; stroke: #000000" x="393.35" y="346.2" width="138.65" height="8"/>
    <rect style="fill: url(#gradYellow)" x="393.35" y="354.2" width="138.65" height="8"/>
    <rect style="fill: none; fill-opacity:0; stroke-width: 2; stroke: #000000" x="393.35" y="354.2" width="138.65" height="8"/>
  </g>
  <g>
    <rect style="fill: url(#gradRed)" x="502.5" y="234" width="177.75" height="28"/>
    <rect style="fill: none; fill-opacity:0; stroke-width: 2; stroke: #000000" x="502.5" y="234" width="177.75" height="28"/>
    <text font-size="16" style="fill: #000000; text-anchor: middle; font-family: sans-serif; font-style: normal;" x="591.375" y="254">VerySimpleLookAndFeel</text>
    <rect style="fill: url(#gradRed)" x="502.5" y="262" width="177.75" height="8"/>
    <rect style="fill: none; fill-opacity:0; stroke-width: 2; stroke: #000000" x="502.5" y="262" width="177.75" height="8"/>
    <rect style="fill: url(#gradRed)" x="502.5" y="270" width="177.75" height="8"/>
    <rect style="fill: none; fill-opacity:0; stroke-width: 2; stroke: #000000" x="502.5" y="270" width="177.75" height="8"/>
  </g>
  <g>
    <rect style="fill: url(#gradYellow)" x="745.95" y="62" width="69.05" height="28"/>
    <rect style="fill: none; fill-opacity:0; stroke-width: 2; stroke: #000000" x="745.95" y="62" width="69.05" height="28"/>
    <text font-size="16" style="fill: #000000; text-anchor: middle; font-family: sans-serif; font-style: italic;" x="780.475" y="82">ButtonUI</text>
    <rect style="fill: url(#gradYellow)" x="745.95" y="90" width="69.05" height="8"/>
    <rect style="fill: none; fill-opacity:0; stroke-width: 2; stroke: #000000" x="745.95" y="90" width="69.05" height="8"/>
    <rect style="fill: url(#gradYellow)" x="745.95" y="98" width="69.05" height="8"/>
    <rect style="fill: none; fill-opacity:0; stroke-width: 2; stroke: #000000" x="745.95" y="98" width="69.05" height="8"/>
  </g>
  <g>
    <rect style="fill: url(#gradYellow)" x="726.95" y="161.2" width="108.4" height="28"/>
    <rect style="fill: none; fill-opacity:0; stroke-width: 2; stroke: #000000" x="726.95" y="161.2" width="108.4" height="28"/>
    <text font-size="16" style="fill: #000000; text-anchor: middle; font-family: sans-serif; font-style: normal;" x="781.15" y="181.2">BasicButtonUI</text>
    <rect style="fill: url(#gradYellow)" x="726.95" y="189.2" width="108.4" height="8"/>
    <rect style="fill: none; fill-opacity:0; stroke-width: 2; stroke: #000000" x="726.95" y="189.2" width="108.4" height="8"/>
    <rect style="fill: url(#gradYellow)" x="726.95" y="197.2" width="108.4" height="8"/>
    <rect style="fill: none; fill-opacity:0; stroke-width: 2; stroke: #000000" x="726.95" y="197.2" width="108.4" height="8"/>
  </g>
  <g>
    <rect style="fill: url(#gradYellow)" x="727.5" y="317.2" width="107.95" height="28"/>
    <rect style="fill: none; fill-opacity:0; stroke-width: 2; stroke: #000000" x="727.5" y="317.2" width="107.95" height="28"/>
    <text font-size="16" style="fill: #000000; text-anchor: middle; font-family: sans-serif; font-style: normal;" x="781.475" y="337.2">MetalButtonUI</text>
    <rect style="fill: url(#gradYellow)" x="727.5" y="345.2" width="107.95" height="8"/>
    <rect style="fill: none; fill-opacity:0; stroke-width: 2; stroke: #000000" x="727.5" y="345.2" width="107.95" height="8"/>
    <rect style="fill: url(#gradYellow)" x="727.5" y="353.2" width="107.95" height="8"/>
    <rect style="fill: none; fill-opacity:0; stroke-width: 2; stroke: #000000" x="727.5" y="353.2" width="107.95" height="8"/>
  </g>
  <g>
    <polyline style="fill: none; fill-opacity:0; stroke-width: 2; stroke-dasharray: 8; stroke: #000000" points="461.3,126.242 461.3,125.006 461.3,161.2 461.3,162.2 "/>
    <polygon style="fill: #ffffff" points="469.3,126.242 461.3,110.242 453.3,126.242 "/>
    <polygon style="fill: none; fill-opacity:0; stroke-width: 2; stroke: #000000" points="469.3,126.242 461.3,110.242 453.3,126.242 "/>
  </g>
  <g>
    <polyline style="fill: none; fill-opacity:0; stroke-width: 2; stroke-dasharray: 8; stroke: #000000" points="461.3,224.436 461.3,269.697 462.675,269.697 462.675,317.194 "/>
    <polygon style="fill: #ffffff" points="469.3,224.436 461.3,208.436 453.3,224.436 "/>
    <polygon style="fill: none; fill-opacity:0; stroke-width: 2; stroke: #000000" points="469.3,224.436 461.3,208.436 453.3,224.436 "/>
  </g>
  <g>
    <polyline style="fill: none; fill-opacity:0; stroke-width: 2; stroke-dasharray: 8; stroke: #000000" points="461.3,224.436 461.3,256 501.495,256 "/>
    <polygon style="fill: #ffffff" points="469.3,224.436 461.3,208.436 453.3,224.436 "/>
    <polygon style="fill: none; fill-opacity:0; stroke-width: 2; stroke: #000000" points="469.3,224.436 461.3,208.436 453.3,224.436 "/>
  </g>
  <g>
    <polyline style="fill: none; fill-opacity:0; stroke-width: 2; stroke-dasharray: 8; stroke: #000000" points="781.15,223.436 781.15,268.697 781.475,268.697 781.475,316.194 "/>
    <polygon style="fill: #ffffff" points="789.15,223.436 781.15,207.436 773.15,223.436 "/>
    <polygon style="fill: none; fill-opacity:0; stroke-width: 2; stroke: #000000" points="789.15,223.436 781.15,207.436 773.15,223.436 "/>
  </g>
  <g>
    <polyline style="fill: none; fill-opacity:0; stroke-width: 2; stroke-dasharray: 8; stroke: #000000" points="779,128.236 779,143.097 781.15,143.097 781.15,160.194 "/>
    <polygon style="fill: #ffffff" points="787,128.236 779,112.236 771,128.236 "/>
    <polygon style="fill: none; fill-opacity:0; stroke-width: 2; stroke: #000000" points="787,128.236 779,112.236 771,128.236 "/>
  </g>
  <g>
    <polyline style="fill: none; fill-opacity:0; stroke-width: 2; stroke-dasharray: 8; stroke: #000000" points="530.808,184.2 624.376,184.2 624.376,183.2 719.238,183.2 "/>
    <polyline style="fill: none; fill-opacity:0; stroke-width: 2; stroke: #000000" points="706.591,188.2 722.591,183.2 706.591,178.2 "/>
  </g>
  <g>
    <polyline style="fill: none; fill-opacity:0; stroke-width: 2; stroke-dasharray: 8; stroke: #000000" points="681.244,256 697,256 697,205.2 720.245,205.2 "/>
    <polyline style="fill: none; fill-opacity:0; stroke-width: 2; stroke: #000000" points="707.597,210.2 723.597,205.2 707.597,200.2 "/>
  </g>
  <g>
    <polyline style="fill: none; fill-opacity:0; stroke-width: 2; stroke-dasharray: 8; stroke: #000000" points="533.009,340.2 625.751,340.2 625.751,339.2 719.788,339.2 "/>
    <polyline style="fill: none; fill-opacity:0; stroke-width: 2; stroke: #000000" points="707.141,344.2 723.141,339.2 707.141,334.2 "/>
  </g>
  <g>
    <polygon style="fill: url(#gradYellow)" points="614,83 699.4,83 711.4,95 711.4,117 614,117 "/>
    <polygon style="fill: none; fill-opacity:0; stroke-width: 2; stroke: #000000" points="614,83 699.4,83 711.4,95 711.4,117 614,117 "/>
    <polyline style="fill: none; fill-opacity:0; stroke-width: 1; stroke: #000000" points="699.4,83 699.4,95 711.4,95 "/>
    <text font-size="12.8" style="fill: #000000; text-anchor: start; font-family: sans-serif; font-style: normal; font-weight: normal;" x="621" y="108.6">
      具象クラス!!
    </text>
  </g>
  <line style="fill: none; fill-opacity:0; stroke-width: 2; stroke-dasharray: 4; stroke: #000000" x1="688.336" y1="118.007" x2="748.4" y2="160.196"/>
</svg>
