<?xml version="1.0" encoding="UTF-8" standalone="no"?>
<!-- Created with Inkscape (http://www.inkscape.org/) -->
<svg xmlns:svg="http://www.w3.org/2000/svg" xmlns="http://www.w3.org/2000/svg" version="1.1" width="688" height="355" xml:space="preserve"><g transform="matrix(1.249,0,0,-1.249,0.6777,354.5)"><path d="m 542.99284,74.888089 -375.75104,0 0,-24.790431 375.75104,0 0,24.790431 z m -375.75104,0 z" style="fill:none;stroke:#000000;stroke-width:0.58418542;stroke-linecap:round;stroke-linejoin:miter;stroke-miterlimit:8;stroke-opacity:1;stroke-dasharray:none"/><text x="335.04904" y="-59.038612" transform="scale(0.99920646,-1.0007942)" style="font-size:7.86px;font-family:'HGSSoeiKakugothicUB, sans-serif'">MPEG-2TS</text>
<path d="m 542.99284,46.053297 -375.75104,0 0,-41.0427688 375.75104,0 0,41.0427688 z m -375.75104,0 z" style="fill:none;stroke:#000000;stroke-width:0.58418542;stroke-linecap:round;stroke-linejoin:miter;stroke-miterlimit:8;stroke-opacity:1;stroke-dasharray:none"/><text x="355.39935" y="-26.859076" transform="scale(0.99920645,-1.0007942)" style="font-size:7.86px;font-style:normal;font-variant:normal;font-weight:normal;font-stretch:normal;text-align:center;line-height:125%;text-anchor:middle;font-family:'HGSSoeiKakugothicUB, sans-serif'"><tspan x="355.39935" y="-26.859076">ISDB-Tmm物理層</tspan><tspan x="355.39935" y="-16.254433">(ARIB STD-B31/B29準拠)</tspan></text>
<path d="m 542.99284,174.57409 -82.98428,0 0,-94.068833 82.98428,0 0,94.068833 z m -82.98428,0 z" style="fill:none;stroke:#000000;stroke-width:0.58418542;stroke-linecap:round;stroke-linejoin:miter;stroke-miterlimit:8;stroke-opacity:1;stroke-dasharray:none"/><text x="487.5076" y="-123.9965" transform="scale(0.99920646,-1.0007942)" style="font-size:7.86px;font-family:'HGSSoeiKakugothicUB, sans-serif'">PES形式</text>
<path d="m 379.9452,174.57409 -80.13826,0 0,-94.068833 80.13826,0 0,94.068833 z m -80.13826,0 z" style="fill:none;stroke:#000000;stroke-width:0.58418542;stroke-linecap:round;stroke-linejoin:miter;stroke-miterlimit:8;stroke-opacity:1;stroke-dasharray:none"/><text x="340.06918" y="-130.05759" transform="scale(0.99920644,-1.0007942)" style="font-size:7.86px;font-style:normal;font-variant:normal;font-weight:normal;font-stretch:normal;text-align:center;line-height:125%;text-anchor:middle;font-family:'HGSSoeiKakugothicUB, sans-serif'"><tspan x="340.06918" y="-130.05759">セクション形式</tspan><tspan x="340.06918" y="-119.45294">（DSM-CC）</tspan></text>
<path d="m 476.63537,252.09099 -113.31699,0 0,-69.2035 113.31699,0 0,69.2035 z m -113.31699,0 z" style="fill:none;stroke:#000000;stroke-width:0.58418542;stroke-linecap:round;stroke-linejoin:miter;stroke-miterlimit:8;stroke-opacity:1;stroke-dasharray:none"/><text x="365.29041" y="-213.87457" transform="scale(0.99920644,-1.0007942)" style="font-size:7.86px;font-family:'HGSSoeiKakugothicUB, sans-serif'">メタデータ・番組配列情報など</text>
<path d="m 360.62214,252.09099 -60.8152,0 0,-69.2035 60.8152,0 0,69.2035 z m -60.8152,0 z" style="fill:none;stroke:#000000;stroke-width:0.58418542;stroke-linecap:round;stroke-linejoin:miter;stroke-miterlimit:8;stroke-opacity:1;stroke-dasharray:none"/><text x="306.04144" y="-213.87457" transform="scale(0.99920646,-1.0007942)" style="font-size:7.86px;font-family:'HGSSoeiKakugothicUB, sans-serif'">伝送制御信号</text>
<path d="m 165.96857,111.58692 124.25174,0 0,27.56156 -124.25174,0 0,-27.56156 z" style="fill:none;stroke:none"/><path d="m 290.22031,139.14848 -124.25174,0 0,-27.56156 124.25174,0 0,27.56156 z m -124.25174,0 z" style="fill:none;stroke:#000000;stroke-width:0.58418542;stroke-linecap:round;stroke-linejoin:miter;stroke-miterlimit:8;stroke-opacity:1;stroke-dasharray:none"/><text x="203.5779" y="-121.9758" transform="scale(0.99920646,-1.0007942)" style="font-size:7.86px;font-family:'HGSSoeiKakugothicUB, sans-serif'">UDP/IP/ROHC</text>
<path d="m 165.96857,141.99451 124.25174,0 0,32.57958 -124.25174,0 0,-32.57958 z" style="fill:none;stroke:none"/><path d="m 290.22031,174.57409 -124.25174,0 0,-32.57958 124.25174,0 0,32.57958 z m -124.25174,0 z" style="fill:none;stroke:#000000;stroke-width:0.58418542;stroke-linecap:round;stroke-linejoin:miter;stroke-miterlimit:8;stroke-opacity:1;stroke-dasharray:none"/><text x="202.82835" y="-154.75403" transform="scale(0.99920646,-1.0007942)" style="font-size:7.86px;font-family:'HGSSoeiKakugothicUB, sans-serif'">FLUTE/AL FEC</text>
<path d="m 165.96857,80.505257 124.25174,0 0,28.235623 -124.25174,0 0,-28.235623 z" style="fill:none;stroke:none"/><path d="m 290.22031,108.74088 -124.25174,0 0,-28.235623 124.25174,0 0,28.235623 z m -124.25174,0 z" style="fill:none;stroke:#000000;stroke-width:0.58418542;stroke-linecap:round;stroke-linejoin:miter;stroke-miterlimit:8;stroke-opacity:1;stroke-dasharray:none"/><text x="221.71703" y="-91.292984" transform="scale(0.99920646,-1.0007942)" style="font-size:7.86px;font-family:'HGSSoeiKakugothicUB, sans-serif'">ULE</text>
<path d="m 152.41247,46.952044 -146.6455099,0 0,-41.042769 146.6455099,0 0,41.042769 z m -146.6455099,0 z" style="fill:none;stroke:#000000;stroke-width:0.58418542;stroke-linecap:round;stroke-linejoin:miter;stroke-miterlimit:8;stroke-opacity:1;stroke-dasharray:none"/><text x="56.366196" y="-22.967722" transform="scale(0.99920646,-1.0007942)" style="font-size:7.86px;font-family:'HGSSoeiKakugothicUB, sans-serif'">UMTS Layer1</text>
<path d="m 152.41247,76.460896 -146.6455099,0 0,-24.790431 146.6455099,0 0,24.790431 z m -146.6455099,0 z" style="fill:none;stroke:#000000;stroke-width:0.58418542;stroke-linecap:round;stroke-linejoin:miter;stroke-miterlimit:8;stroke-opacity:1;stroke-dasharray:none"/><text x="56.366196" y="-60.535336" transform="scale(0.99920646,-1.0007942)" style="font-size:7.86px;font-family:'HGSSoeiKakugothicUB, sans-serif'">UMTS Layer2</text>
<path d="m 152.41247,141.39535 -146.6455099,0 0,-60.740302 146.6455099,0 0,60.740302 z m -146.6455099,0 z" style="fill:none;stroke:#000000;stroke-width:0.58418542;stroke-linecap:round;stroke-linejoin:miter;stroke-miterlimit:8;stroke-opacity:1;stroke-dasharray:none"/><text x="66.859901" y="-107.53243" transform="scale(0.99920646,-1.0007942)" style="font-size:7.86px;font-family:'HGSSoeiKakugothicUB, sans-serif'">TCP/IP</text>
<path d="m 152.11289,174.57409 -146.5706166,0 0,-30.70719 146.5706166,0 0,30.70719 z m -146.5706166,0 z" style="fill:none;stroke:#000000;stroke-width:0.58418542;stroke-linecap:round;stroke-linejoin:miter;stroke-miterlimit:8;stroke-opacity:1;stroke-dasharray:none"/><text x="56.366196" y="-155.65205" transform="scale(0.99920646,-1.0007942)" style="font-size:7.86px;font-family:'HGSSoeiKakugothicUB, sans-serif'">HTTP/HTTPS</text>
<g transform="matrix(1.2482594,0,0,1.2482594,-88.526555,-642.78617)"><g><g><g transform="translate(77.7,721.34)"><path d="m 0,0 c -3.66,0 -6.66,-3 -6.66,-6.66 l 0,-192.84 c 0,-3.66 3,-6.66 6.66,-6.66 l 110.7,0 c 3.66,0 6.66,3 6.66,6.66 l 0,192.84 c 0,3.66 -3,6.66 -6.66,6.66 L 0,0 z" style="fill:none;stroke:#000000;stroke-width:0.46799999;stroke-linecap:round;stroke-linejoin:round;stroke-miterlimit:10;stroke-opacity:1;stroke-dasharray:1.4055, 1.874;stroke-dashoffset:0"/></g></g></g></g><text x="50.392815" y="-261.62012" transform="scale(0.9992068,-1.0007938)" style="font-size:7.86px;font-family:'HGSSoeiKakugothicUB, sans-serif'">双方向網を使用</text>
<path d="m 454.46628,174.57409 -69.1286,0 0,-94.068833 69.1286,0 0,94.068833 z m -69.1286,0 z" style="fill:none;stroke:#000000;stroke-width:0.58418542;stroke-linecap:round;stroke-linejoin:miter;stroke-miterlimit:8;stroke-opacity:1;stroke-dasharray:none"/><text x="420.01147" y="-130.28159" transform="scale(0.99920644,-1.0007942)" style="font-size:7.86px;font-style:normal;font-variant:normal;font-weight:normal;font-stretch:normal;text-align:center;line-height:125%;text-anchor:middle;font-family:'HGSSoeiKakugothicUB, sans-serif'"><tspan x="420.01147" y="-130.28159">イベント</tspan><tspan x="420.01147" y="-120.45659">メッセージ形式</tspan></text>
<g transform="matrix(1.2482594,0,0,1.2482594,164.99493,257.63327)"><path d="m 0,0 c -3.24,0 -5.88,-2.64 -5.88,-5.88 l 0,-194.4 c 0,-3.24 2.64,-5.88 5.88,-5.88 l 302.64,0 c 3.24,0 5.88,2.64 5.88,5.88 l 0,194.4 c 0,3.24 -2.64,5.88 -5.88,5.88 L 0,0 z" style="fill:none;stroke:#000000;stroke-width:0.46799999;stroke-linecap:round;stroke-linejoin:round;stroke-miterlimit:10;stroke-opacity:1;stroke-dasharray:1.4055, 1.874;stroke-dashoffset:0"/></g><text x="330.87723" y="-261.62012" transform="scale(0.9992068,-1.0007938)" style="font-size:7.86px;font-family:'HGSSoeiKakugothicUB, sans-serif'">放送網を使用</text>
<path d="m 479.40651,182.88749 63.58633,0 0,69.2035 -63.58633,0 0,-69.2035 z" style="fill:none;stroke:none"/><path d="m 542.99284,252.09099 -63.58633,0 0,-69.2035 63.58633,0 0,69.2035 z m -63.58633,0 z" style="fill:none;stroke:#000000;stroke-width:0.58418542;stroke-linecap:round;stroke-linejoin:miter;stroke-miterlimit:8;stroke-opacity:1;stroke-dasharray:none"/><text x="495.90256" y="-218.58925" transform="scale(0.99920646,-1.0007942)" style="font-size:7.86px;font-style:normal;font-variant:normal;font-weight:normal;font-stretch:normal;text-align:start;line-height:125%;text-anchor:start;font-family:'HGSSoeiKakugothicUB, sans-serif'"><tspan x="495.90256" y="-218.58925">映像信号</tspan><tspan x="495.90256" y="-208.76425">音声信号</tspan></text>
<g transform="matrix(1.2482594,0,0,1.2482594,-88.526555,-642.78617)"><g><g><g transform="matrix(55.92,0,0,55.92,75.3,661.22)"><rect width="1" height="1" x="0" y="0" transform="matrix(1,0,0,-1,0,1)" style="fill:none"/></g><g transform="matrix(0.96,0,0,-0.96,130.14,662.3)"><rect width="1" height="1" x="0" y="0" transform="matrix(1,0,0,-1,0,1)" style="fill:none"/></g></g></g></g><path d="m 74.82067,252.09099 -69.0537099,0 0,-69.2035 69.0537099,0 0,69.2035 z m -69.0537099,0 z" style="fill:none;stroke:#000000;stroke-width:0.58418542;stroke-linecap:round;stroke-linejoin:miter;stroke-miterlimit:8;stroke-opacity:1;stroke-dasharray:none"/><text x="11.767943" y="-218.58925" transform="scale(0.99920646,-1.0007942)" style="font-size:7.86px;text-align:start;line-height:125%;text-anchor:start;font-family:'HGSSoeiKakugothicUB, sans-serif'"><tspan x="11.767943" y="-218.58925">個別アクセス制</tspan><tspan x="11.767943" y="-208.76425">御情報</tspan></text>
<g transform="matrix(1.2482594,0,0,1.2482594,-88.526555,-642.78617)"><g><g><g transform="matrix(169.2,0,0,55.92,137.28,661.22)"><rect width="1" height="1" x="0" y="0" transform="matrix(1,0,0,-1,0,1)" style="fill:none"/></g><g transform="matrix(0.96,0,0,-0.96,305.4,662.3)"><rect width="1" height="1" x="0" y="0" transform="matrix(1,0,0,-1,0,1)" style="fill:none"/></g></g></g></g><path d="m 293.06634,252.09099 -209.932262,0 0,-69.2035 209.932262,0 0,69.2035 z m -209.932262,0 z" style="fill:none;stroke:#000000;stroke-width:0.58418542;stroke-linecap:round;stroke-linejoin:miter;stroke-miterlimit:8;stroke-opacity:1;stroke-dasharray:none"/><text x="89.121552" y="-218.58925" transform="scale(0.99920646,-1.0007942)" style="font-size:7.86px;font-style:normal;font-variant:normal;font-weight:normal;font-stretch:normal;text-align:start;line-height:125%;text-anchor:start;font-family:'HGSSoeiKakugothicUB, sans-serif'"><tspan x="89.121552" y="-218.58925">任意ファイル(メタデータ・アクセス制御情報・番組配</tspan><tspan x="89.121552" y="-208.76425">列情報などを含む）</tspan></text>
<g transform="matrix(1.2482594,0,0,1.2482594,163.27233,263.10064)"><path d="m 0,0 c 0,1.8 3.78,3.3 8.46,3.3 l 33.96,0 c 4.68,0 8.46,1.5 8.46,3.36 0,-1.86 3.78,-3.36 8.46,-3.36 l 33.96,0 c 4.68,0 8.52,-1.5 8.52,-3.3" style="fill:none;stroke:#000000;stroke-width:0.46799999;stroke-linecap:round;stroke-linejoin:round;stroke-miterlimit:10;stroke-opacity:1;stroke-dasharray:none"/></g><text x="211.22232" y="-275.83899" transform="scale(0.9992068,-1.0007938)" style="font-size:7.86px;font-family:'HGSSoeiKakugothicUB, sans-serif'">拡張部分</text>
<text x="377.99792" y="-193.89752" transform="scale(1,-1)" style="font-size:7.48px;font-family:'MS Gothic', sans-serif;">データ信号</text>
</g></svg>
