<?xml version="1.0" encoding="UTF-8" standalone="no"?>
<!-- Created with Inkscape (http://www.inkscape.org/) -->
<svg xmlns:svg="http://www.w3.org/2000/svg" xmlns="http://www.w3.org/2000/svg" version="1.1" width="245" height="81" xml:space="preserve"><g transform="matrix(1.25,0,0,-1.25,0,81)"><path d="m 27.85106,53.32407 -1.02,0 -1.2,-0.24 -0.96,-0.66 -1.44,-1.44 -0.72,-0.96 -0.24,-1.2 0,-2.1 0.24,-1.2 0.72,-0.96 1.44,-1.44 0.96,-0.48 1.2,-0.18 1.02,-0.24 c 3.723,0.297 5.351,1.942 5.76,5.64 -0.251,3.051 -2.557,5.923 -5.76,5.46" style="fill:#808080;fill-opacity:1;fill-rule:evenodd;stroke:none"/><path d="m 27.85106,42.22407 -5.58,-16.86 11.34,0" style="fill:#808080;fill-opacity:1;fill-rule:evenodd;stroke:none"/><text x="8.3510599" y="-10.18437" transform="scale(1,-1)" style="font-size:10.9139px; font-variant:normal; font-weight:normal; font-stretch:normal; fill:rgb(0, 0, 0); fill-opacity:1; fill-rule:nonzero; stroke:none; font-family:&quot;MS Gothic&quot;,sans-serif;">消費者</text>
<g transform="matrix(1.0059204,0,0,-0.9941101,-203.62894,-528.57593)"><path d="m 346.606,-579.857 -0.716,0 -0.716,0.181 -0.716,0.483 -0.954,0.966 -0.716,2.172 0,15.029 0.716,2.173 0.477,0.422 0.477,0.483 0.716,0.483 0.716,0.241 39.188,0 0.715,-0.241 0.716,-0.483 0.477,-0.483 0.477,-0.422 0.478,-1.449 0,-16.477 -0.478,-1.448 -0.954,-0.966 -0.716,-0.483 -0.715,-0.181 -38.472,0" style="fill:none;stroke:#000000;stroke-width:0.71600002;stroke-linecap:round;stroke-linejoin:round;stroke-miterlimit:10;stroke-opacity:1;stroke-dasharray:none"/></g><text x="152.95107" y="-31.78447" transform="scale(1,-1)" style="font-size:10.9139px; font-variant:normal; font-weight:normal; font-stretch:normal; fill:rgb(0, 0, 0); fill-opacity:1; fill-rule:nonzero; stroke:none; font-family:&quot;MS Gothic&quot;,sans-serif;">企業</text>
<g transform="matrix(1.0059204,0,0,-0.9941101,-203.62894,-528.57593)"><path d="m 331.813,-573.701 -79.986,0 -0.238,-0.241 0,-0.483 0.238,-0.181 79.986,0 0.239,0.181 0.238,0.241 -0.477,0.483 z m -78.793,2.414 -5.964,-2.897 5.964,-3.078 0,5.975 z" style="fill:#000000;fill-opacity:1;fill-rule:nonzero;stroke:#000000;stroke-width:0.23899999;stroke-linecap:round;stroke-linejoin:round;stroke-miterlimit:10;stroke-opacity:1;stroke-dasharray:none"/></g><g transform="matrix(1.0059204,0,0,-0.9941101,-203.62894,-528.57593)"><path d="m 314.874,-556.741 -0.239,0 -0.239,-0.241 0,-0.725 0.716,0 0.239,0.242 0,0.483 -0.239,0 0,0.241 -0.238,0 z m -2.148,0 -0.238,-0.241 -0.239,0 0,-0.483 0.239,-0.242 0.716,0 0,0.725 -0.239,0.241 -0.239,0 z m -1.908,0 -0.239,0 0,-0.241 -0.239,0 0,-0.483 0.239,-0.242 0.716,0 0,0.725 -0.239,0.241 -0.238,0 z m -1.909,0 -0.239,0 -0.238,-0.241 0,-0.725 0.716,0 0.238,0.242 0,0.483 -0.238,0 0,0.241 -0.239,0 z m -2.147,0 -0.239,-0.241 -0.238,0 0,-0.483 0.238,-0.242 0.716,0 0,0.725 -0.239,0.241 -0.238,0 z m -1.909,0 -0.239,0 0,-0.241 -0.238,0 0,-0.483 0.238,-0.242 0.716,0 0,0.725 -0.238,0.241 -0.239,0 z m -1.909,0 -0.238,0 -0.239,-0.241 0,-0.725 0.716,0 0.239,0.242 0,0.483 -0.239,0 0,0.241 -0.239,0 z m -2.147,0 -0.239,-0.241 -0.238,0 0,-0.483 0.238,-0.242 0.716,0 0,0.725 -0.238,0.241 -0.239,0 z m -1.909,0 -0.238,0 0,-0.241 -0.239,0 0,-0.483 0.239,-0.242 0.477,0 0.239,0.242 0,0.483 -0.239,0 0,0.241 -0.239,0 z m -1.908,0 -0.239,0 -0.238,-0.241 0,-0.725 0.715,0 0.239,0.242 0,0.483 -0.239,0 0,0.241 -0.238,0 z m -2.148,0 -0.238,-0.241 -0.239,0 0,-0.483 0.239,-0.242 0.716,0 0,0.725 -0.239,0.241 -0.239,0 z m -1.908,0 -0.239,0 0,-0.241 -0.238,0 0,-0.483 0.238,-0.242 0.477,0 0.239,0.242 0,0.483 -0.239,0 0,0.241 -0.238,0 z m -1.969,0 -0.238,0 -0.239,-0.241 0,-0.725 0.716,0 0.239,0.242 0,0.483 -0.239,0 -0.239,0.241 z m -2.147,0 -0.238,-0.241 -0.239,0 0,-0.483 0.239,-0.242 0.715,0 0,0.725 -0.238,0.241 -0.239,0 z m -1.909,0 -0.238,0 0,-0.241 -0.239,0 0,-0.483 0.239,-0.242 0.477,0 0.239,0.242 0,0.483 -0.239,0 0,0.241 -0.239,0 z m -1.908,0 -0.239,0 -0.238,-0.241 0,-0.725 0.715,0 0.239,0.242 0,0.483 -0.239,0 -0.238,0.241 z m -2.148,0 -0.238,-0.241 -0.239,0 0,-0.483 0.239,-0.242 0.716,0 0,0.725 -0.239,0.241 -0.239,0 z m -1.908,0 -0.239,0 0,-0.241 -0.238,0 0,-0.483 0.238,-0.242 0.477,0 0.239,0.242 0,0.483 -0.239,0 0,0.241 -0.238,0 z m -1.909,0 -0.238,0 -0.239,-0.241 0,-0.725 0.716,0 0.238,0.242 0,0.483 -0.238,0 -0.239,0.241 z m -2.147,0 -0.239,0 0,-0.241 -0.238,0 0,-0.483 0.238,-0.242 0.716,0 0,0.725 -0.239,0.241 -0.238,0 z m -1.909,0 -0.238,0 0,-0.241 -0.239,0 0,-0.483 0.239,-0.242 0.477,0 0.238,0.242 0,0.483 -0.238,0 0,0.241 -0.239,0 z m -1.909,0 -0.238,0 -0.239,-0.241 0,-0.725 0.716,0 0.239,0.242 0,0.483 -0.239,0 -0.239,0.241 z m -2.147,0 -0.238,0 0,-0.241 -0.239,0 0,-0.483 0.239,-0.242 0.715,0 0,0.725 -0.238,0.241 -0.239,0 z m -1.909,0 -0.238,0 -0.239,-0.241 0,-0.725 0.716,0 0.239,0.242 0,0.483 -0.239,0 0,0.241 -0.239,0 z m -1.908,0 -0.239,0 -0.238,-0.241 0,-0.725 0.715,0 0.239,0.242 0,0.483 -0.239,0 -0.238,0.241 z m -2.147,0 -0.239,0 0,-0.241 -0.239,0 0,-0.483 0.239,-0.242 0.716,0 0,0.725 -0.239,0.241 -0.238,0 z m -1.909,0 -0.239,0 -0.238,-0.241 0,-0.725 0.715,0 0.239,0.242 0,0.483 -0.239,0 0,0.241 -0.238,0 z m -1.909,0 -0.238,0 -0.239,-0.241 0,-0.725 0.716,0 0.238,0.242 0,0.483 -0.238,0 -0.239,0.241 z m -2.147,0 -0.239,0 0,-0.241 -0.238,0 0,-0.483 0.238,-0.242 0.716,0 0,0.725 -0.239,0.241 -0.238,0 z m -1.909,0 -0.238,0 -0.239,-0.241 0,-0.725 0.716,0 0.238,0.242 0,0.483 -0.238,0 0,0.241 -0.239,0 z m -1.908,0 -0.239,0 -0.239,-0.241 0,-0.725 0.716,0 0,0.242 0.239,0.241 -0.477,0.483 z m -2.148,0 -0.238,0 0,-0.241 -0.239,0 0,-0.483 0.239,-0.242 0.715,0 0,0.725 -0.238,0.241 -0.239,0 z m 0,2.414 -5.964,-2.897 5.964,-3.078 0,5.975 z" style="fill:#000000;fill-opacity:1;fill-rule:nonzero;stroke:#000000;stroke-width:0.23899999;stroke-linecap:round;stroke-linejoin:round;stroke-miterlimit:10;stroke-opacity:1;stroke-dasharray:none"/></g><text x="114.31106" y="-22.724369" transform="scale(1,-1)" style="font-size:9.9649px; font-variant:normal; font-weight:normal; font-stretch:normal; fill:rgb(0, 0, 0); fill-opacity:1; fill-rule:nonzero; stroke:rgb(0, 0, 0); stroke-width:0.199; stroke-linecap:butt; stroke-linejoin:miter; stroke-miterlimit:1; stroke-opacity:1; stroke-dasharray:none; font-family:&quot;MS Gothic&quot;,sans-serif;">付随</text>
<path d="m 87.37106,31.06407 c -4.236,0.187 -8.902,-3.913 -8.4,-8.34 -0.285,-2.468 0.818,-4.188 2.4,-5.94 1.499,-1.65 3.809,-2.436 6,-2.58 4.64,0.084 8.739,3.73 8.7,8.52 -0.197,2.182 -0.744,4.575 -2.64,5.94 l -0.48,0.48 -1.44,0.96 -0.72,0.24 -0.78,0.48 -0.96,0 -0.72,0.24 -0.96,0" style="fill:#dddddd;fill-opacity:1;fill-rule:evenodd;stroke:none"/><g transform="matrix(1.0059204,0,0,-0.9941101,-203.62894,-528.57593)"><path d="m 289.285,-562.958 c -4.25,-0.183 -8.852,3.974 -8.35,8.39 -0.283,2.473 0.807,4.209 2.386,5.975 1.483,1.654 3.781,2.452 5.964,2.595 4.623,-0.062 8.716,-3.823 8.649,-8.57 -0.196,-2.186 -0.734,-4.596 -2.624,-5.975 l -0.478,-0.483 -1.431,-0.966 -0.716,-0.241 -0.775,-0.483 -0.955,0 -0.715,-0.242 -0.955,0" style="fill:none;stroke:#000000;stroke-width:0.71600002;stroke-linecap:round;stroke-linejoin:round;stroke-miterlimit:10;stroke-opacity:1;stroke-dasharray:none"/></g><text x="81.611061" y="-17.50437" transform="scale(1,-1)" style="font-size:11.8629px; font-variant:normal; font-weight:normal; font-stretch:normal; fill:rgb(0, 0, 0); fill-opacity:1; fill-rule:nonzero; stroke:none; font-family:&quot;MS Gothic&quot;,sans-serif;">Ｐ</text>
<path d="m 77.53106,55.48407 -4.32,-4.26 0,-12.6 29.82,0 4.32,4.5 0,12.36" style="fill:#dddddd;fill-opacity:1;fill-rule:evenodd;stroke:none"/><path d="m 73.21106,51.22407 29.82,0 4.32,4.26 -29.82,0" style="fill:#e4e4e4;fill-opacity:1;fill-rule:evenodd;stroke:none"/><path d="m 103.03106,51.22407 4.32,4.26 0,-12.36 -4.32,-4.5" style="fill:#b2b2b2;fill-opacity:1;fill-rule:evenodd;stroke:none"/><g transform="translate(-203.62894,-528.57593)"><g transform="scale(1.0059204,-0.9941101)"><path d="m 279.503,-587.522 -4.294,4.285 0,12.675 29.644,0 4.295,-4.527 0,-12.433 -29.645,0 z" style="fill:none;stroke:#000000;stroke-width:0.71600002;stroke-linecap:round;stroke-linejoin:round;stroke-miterlimit:10;stroke-opacity:1;stroke-dasharray:none"/></g></g><g transform="translate(-203.62894,-528.57593)"><g transform="scale(1.0059204,-0.9941101)"><path d="m 275.209,-583.237 29.644,0 4.295,-4.285" style="fill:none;stroke:#000000;stroke-width:0.71600002;stroke-linecap:round;stroke-linejoin:round;stroke-miterlimit:10;stroke-opacity:1;stroke-dasharray:none"/></g></g><g transform="matrix(1.0059204,0,0,-0.9941101,-203.62894,-528.57593)"><path d="m 304.853,-583.237 0,12.675" style="fill:none;stroke:#000000;stroke-width:0.71600002;stroke-linecap:round;stroke-linejoin:round;stroke-miterlimit:10;stroke-opacity:1;stroke-dasharray:none"/></g><text x="79.21106" y="-41.504372" transform="scale(1,-1)" style="font-size:9.9649px; font-variant:normal; font-weight:normal; font-stretch:normal; line-height:125%; fill:rgb(0, 0, 0); fill-opacity:1; fill-rule:nonzero; stroke:none; font-family:&quot;MS Gothic&quot;,sans-serif;">商品</text>
</g></svg>
