<?xml version="1.0" encoding="UTF-8" standalone="no"?>
<!-- Created with Inkscape (http://www.inkscape.org/) -->
<svg xmlns:dc="http://purl.org/dc/elements/1.1/" xmlns:cc="http://creativecommons.org/ns#" xmlns:rdf="http://www.w3.org/1999/02/22-rdf-syntax-ns#" xmlns:svg="http://www.w3.org/2000/svg" xmlns="http://www.w3.org/2000/svg" xmlns:xlink="http://www.w3.org/1999/xlink" version="1.1" xml:space="preserve" width="524" height="383"><defs><linearGradient x1="0" y1="0" x2="1" y2="0" id="gradYellow" gradientUnits="objectBoundingBox"><stop style="stop-color:#ffffff;stop-opacity:1" offset="0"/><stop style="stop-color:#ffffcc;stop-opacity:1" offset="1"/></linearGradient><linearGradient id="gradRed" gradientunits="objectBoundingBox" x1="0" y1="0" x2="1" y2="0"><stop style="stop-color:#ffffff;stop-opacity:1" offset="0"/><stop style="stop-color:#ffcccc;stop-opacity:1" offset="1"/></linearGradient><linearGradient x1="0" y1="0" x2="0" y2="1" id="gradLifelineRed" gradientUnits="objectBoundingBox"><stop style="stop-color:#ff4488;stop-opacity:1" offset="0"/><stop style="stop-color:#ffffff;stop-opacity:1" offset="1"/></linearGradient></defs><g transform="matrix(0.12987453,0,0,-0.12987453,-70.8354,1031.983)"><path d="m 2772,6854 0,-72 -6,0 0,72 6,0 z m 0,-108 0,-72 -6,0 0,72 6,0 z m 0,-108 0,-72 -6,0 0,72 6,0 z m 0,-108 0,-72 -6,0 0,72 6,0 z m 0,-108 0,-72 -6,0 0,72 6,0 z m 0,-108 0,-72 -6,0 0,72 6,0 z m 0,-108 0,-72 -6,0 0,72 6,0 z m 0,-108 0,-72 -6,0 0,72 6,0 z m 0,-108 0,-72 -6,0 0,72 6,0 z m 0,-108 0,-72 -6,0 0,72 6,0 z m 0,-108 0,-72 -6,0 0,72 6,0 z m 0,-108 0,-72 -6,0 0,72 6,0 z m 0,-108 0,-72 -6,0 0,72 6,0 z m 0,-108 0,-72 -6,0 0,72 6,0 z m 0,-108 0,-15 -6,0 0,15 6,0 z m 0,1620 0,-72 -6,0 0,72" style="fill:#000000;fill-opacity:1;fill-rule:nonzero;stroke:none"/><path d="m 2286,6962 966,0 0,180 -966,0 0,-180 z" style="fill:url(&quot;#gradYellow&quot;) none; fill-opacity:1; fill-rule:nonzero; stroke:none;"/><path d="m 2286,7148 972,0 0,-192 -978,0 0,192 6,0 m 0,-12 0,6 6,0 0,-180 -6,0 0,6 966,0 0,-6 -6,0 0,180 6,0 0,-6 -966,0" style="fill:#000000;fill-opacity:1;fill-rule:nonzero;stroke:none"/><g transform="matrix(10,0,0,10,-48.266573,0)"><text transform="matrix(1,0,0,-1,234.6,704.6)"><tspan x="0" y="0" style="font-size:7.19999981px;font-variant:normal;font-weight:normal;fill:#000000;fill-opacity:1;fill-rule:nonzero;stroke:none;font-family:'Helvetica, Arial, sans-serif'">document : DOMDocument</tspan></text>
</g><path d="m 3753,7652 0,-72 -6,0 0,72 6,0 z m 0,-108 0,-72 -6,0 0,72 6,0 z m 0,-108 0,-72 -6,0 0,72 6,0 z m 0,-108 0,-72 -6,0 0,72 6,0 z m 0,-108 0,-72 -6,0 0,72 6,0 z m 0,-108 0,-72 -6,0 0,72 6,0 z m 0,-108 0,-72 -6,0 0,72 6,0 z m 0,-108 0,-72 -6,0 0,72 6,0 z m 0,-108 0,-72 -6,0 0,72 6,0 z m 0,-108 0,-72 -6,0 0,72 6,0 z m 0,-108 0,-72 -6,0 0,72 6,0 z m 0,-108 0,-72 -6,0 0,72 6,0 z m 0,-108 0,-72 -6,0 0,72 6,0 z m 0,-108 0,-72 -6,0 0,72 6,0 z m 0,-108 0,-72 -6,0 0,72 6,0 z m 0,-108 0,-72 -6,0 0,72 6,0 z m 0,-108 0,-72 -6,0 0,72 6,0 z m 0,-108 0,-72 -6,0 0,72 6,0 z m 0,-108 0,-72 -6,0 0,72 6,0 z m 0,-108 0,-72 -6,0 0,72 6,0 z m 0,-108 0,-72 -6,0 0,72 6,0 z m 0,-108 0,-72 -6,0 0,72 6,0 z m 0,-108 0,-72 -6,0 0,72 6,0 z m 0,2484 0,-72 -6,0 0,72" style="fill:#000000;fill-opacity:1;fill-rule:nonzero;stroke:none"/><path d="m 2994,7760 1512,0 0,180 -1512,0 0,-180 z" style="fill:url(&quot;#gradYellow&quot;) none; stroke:none;"/><path d="m 2994,7946 1518,0 0,-192 -1524,0 0,192 6,0 m 0,-12 0,6 6,0 0,-180 -6,0 0,6 1512,0 0,-6 -6,0 0,180 6,0 0,-6 -1512,0" style="fill:#000000;fill-opacity:1;fill-rule:nonzero;stroke:none"/><g transform="matrix(10,0,0,10,-40.222144,0)"><text transform="matrix(1,0,0,-1,305.4,784.4)"><tspan x="0" y="0" style="font-size:7.19999981px;font-variant:normal;font-weight:normal;fill:#000000;fill-opacity:1;fill-rule:nonzero;stroke:none;font-family:'Helvetica, Arial, sans-serif'">_gWindowListener : BrowserWindowObserver</tspan></text>
</g><path d="m 1866,7262 0,-72 -6,0 0,72 6,0 z m 0,-108 0,-72 -6,0 0,72 6,0 z m 0,-108 0,-72 -6,0 0,72 6,0 z m 0,-108 0,-72 -6,0 0,72 6,0 z m 0,-108 0,-72 -6,0 0,72 6,0 z m 0,-108 0,-72 -6,0 0,72 6,0 z m 0,-108 0,-72 -6,0 0,72 6,0 z m 0,-108 0,-72 -6,0 0,72 6,0 z m 0,-108 0,-72 -6,0 0,72 6,0 z m 0,-108 0,-72 -6,0 0,72 6,0 z m 0,-108 0,-72 -6,0 0,72 6,0 z m 0,-108 0,-72 -6,0 0,72 6,0 z m 0,-108 0,-72 -6,0 0,72 6,0 z m 0,-108 0,-72 -6,0 0,72 6,0 z m 0,-108 0,-72 -6,0 0,72 6,0 z m 0,-108 0,-72 -6,0 0,72 6,0 z m 0,-108 0,-72 -6,0 0,72 6,0 z m 0,-108 0,-72 -6,0 0,72 6,0 z m 0,-108 0,-72 -6,0 0,72 6,0 z m 0,-108 0,-3 -6,0 0,3 6,0 z m 0,2160 0,-72 -6,0 0,72" style="fill:#000000;fill-opacity:1;fill-rule:nonzero;stroke:none"/><path d="m 1428,7370 870,0 0,180 -870,0 0,-180 z" style="fill:url(&quot;#gradYellow&quot;) none; stroke:none;"/><path d="m 1428,7556 876,0 0,-192 -882,0 0,192 6,0 m 0,-12 0,6 6,0 0,-180 -6,0 0,6 870,0 0,-6 -6,0 0,180 6,0 0,-6 -870,0" style="fill:#000000;fill-opacity:1;fill-rule:nonzero;stroke:none"/><g transform="matrix(10,0,0,10,-40.222144,0)"><text transform="matrix(1,0,0,-1,148.8,745.4)"><tspan x="0" y="0" style="font-size:7.19999981px;font-variant:normal;font-weight:normal;fill:#000000;fill-opacity:1;fill-rule:nonzero;stroke:none;font-family:'Helvetica, Arial, sans-serif'">Window : nsIXULWindow</tspan></text>
</g><path d="m 723,7595.69 0,-72 -6,0 0,72 6,0 z m 0,-108 0,-72 -6,0 0,72 6,0 z m 0,-108 0,-72 -6,0 0,72 6,0 z m 0,-108 0,-72 -6,0 0,72 6,0 z m 0,-108 0,-72 -6,0 0,72 6,0 z m 0,-108 0,-72 -6,0 0,72 6,0 z m 0,-108 0,-72 -6,0 0,72 6,0 z m 0,-108 0,-72 -6,0 0,72 6,0 z m 0,-108 0,-72 -6,0 0,72 6,0 z m 0,-108 0,-72 -6,0 0,72 6,0 z m 0,-108 0,-72 -6,0 0,72 6,0 z m 0,-108 0,-72 -6,0 0,72 6,0 z m 0,-108 0,-72 -6,0 0,72 6,0 z m 0,-108 0,-72 -6,0 0,72 6,0 z m 0,-108 0,-72 -6,0 0,72 6,0 z m 0,-108 0,-72 -6,0 0,72 6,0 z m 0,-108 0,-72 -6,0 0,72 6,0 z m 0,-108 0,-72 -6,0 0,72 6,0 z m 0,-108 0,-72 -6,0 0,72 6,0 z m 0,-108 0,-72 -6,0 0,72 6,0 z m 0,-108 0,-72 -6,0 0,72 6,0 z m 0,-108 0,-72 -6,0 0,72 6,0 z m 0,-108 0,-72 -6,0 0,72 6,0 z m 0,-108 0,-72 -6,0 0,72 6,0 z m 0,-108 0,-6.69 -6,0 0,6.69 6,0 z m 0,2700 0,-72 -6,0 0,72" style="fill:#000000;fill-opacity:1;fill-rule:nonzero;stroke:none"/><path d="m 744,7916 c 0,-13.25 -10.746,-24 -24,-24 -13.254,0 -24,10.75 -24,24 0,13.25 10.746,24 24,24 13.254,0 24,-10.75 24,-24" style="fill:url(&quot;#gradYellow&quot;) none; stroke:none;"/><path d="m 750,7916 0,0 c 0,-16.57 -13.434,-30 -30,-30 l 0,6 0,-6 c -16.566,0 -30,13.43 -30,30 l 6,0 -6,0 c 0,16.57 13.434,30 30,30 l 0,-6 0,6 c 16.566,0 30,-13.43 30,-30 l -6,0 6,0 m -12,0 0,0 c 0,9.94 -8.059,18 -18,18 l 0,0 c -9.941,0 -18,-8.06 -18,-18 l 0,0 c 0,-9.94 8.059,-18 18,-18 l 0,0 c 9.941,0 18,8.06 18,18" style="fill:#000000;fill-opacity:1;fill-rule:nonzero;stroke:none"/><path d="m 726,7892 0,-54 -12,0 0,60 12,0" style="fill:#000000;fill-opacity:1;fill-rule:nonzero;stroke:none"/><path d="m 678,7878.5 90,0 0,-12 -96,0 0,12" style="fill:#000000;fill-opacity:1;fill-rule:nonzero;stroke:none"/><path d="m 724.734,7840.32 0,0 -42,-54 -3.683,-4.74 -9.469,7.37 3.684,4.73 42,54 3.683,4.74 9.469,-7.37" style="fill:#000000;fill-opacity:1;fill-rule:nonzero;stroke:none"/><path d="m 724.734,7847.68 0,0 42,-54 3.684,-4.73 -9.469,-7.37 -3.683,4.74 -42,54 -3.684,4.73 9.469,7.37" style="fill:#000000;fill-opacity:1;fill-rule:nonzero;stroke:none"/><g transform="scale(10,10)"><text transform="matrix(1,0,0,-1,54,771.8)"><tspan x="0" y="0" style="font-size:7.19999981px;font-variant:normal;font-weight:normal;fill:#000000;fill-opacity:1;fill-rule:nonzero;stroke:none;font-family:'Helvetica, Arial, sans-serif'">User : Actor</tspan></text>
</g><path d="m 2833.24,5382.76 0,0 -120,-120 -4.24,-4.24 -8.48,8.48 4.24,4.24 120,120 4.24,4.24 8.48,-8.48" style="fill:#000000;fill-opacity:1;fill-rule:nonzero;stroke:none"/><path d="m 2713.24,5391.24 0,0 120,-120 4.24,-4.24 -8.48,-8.48 -4.24,4.24 -120,120 -4.24,4.24 8.48,8.48" style="fill:#000000;fill-opacity:1;fill-rule:nonzero;stroke:none"/><path d="m 1927.24,5262.76 0,0 -120,-120 -4.24,-4.24 -8.48,8.48 4.24,4.24 120,120 4.24,4.24 8.48,-8.48" style="fill:#000000;fill-opacity:1;fill-rule:nonzero;stroke:none"/><path d="m 1807.24,5271.24 0,0 120,-120 4.24,-4.24 -8.48,-8.48 -4.24,4.24 -120,120 -4.24,4.24 8.48,8.48" style="fill:#000000;fill-opacity:1;fill-rule:nonzero;stroke:none"/><path d="m 2649.6,6611 -60,0 0,6 60,0 0,-6 z m -90,0 -60,0 0,6 60,0 0,-6 z m -90,0 -60,0 0,6 60,0 0,-6 z m -90,0 -60,0 0,6 60,0 0,-6 z m -90,0 -60,0 0,6 60,0 0,-6 z m -90,0 -60,0 0,6 60,0 0,-6 z m -90,0 -60,0 0,6 60,0 0,-6 z m -90,0 -60,0 0,6 60,0 0,-6 z m -90,0 -36.6,0 0,6 36.6,0 0,-6 z m 810,0 -60,0 0,6 60,0" style="fill:#000000;fill-opacity:1;fill-rule:nonzero;stroke:none"/><path d="m 1891.5,6616.6 0,0 62.35,36 2.6,1.5 3,-5.2 -2.6,-1.5 -62.35,-36 -2.6,-1.5 -3,5.2" style="fill:#000000;fill-opacity:1;fill-rule:nonzero;stroke:none"/><path d="m 1894.5,6616.6 0,0 62.35,-36 2.6,-1.5 -3,-5.2 -2.6,1.5 -62.35,36 -2.6,1.5 3,5.2" style="fill:#000000;fill-opacity:1;fill-rule:nonzero;stroke:none"/><path d="m 1833,5996 60,0 0,1374 -60,0 0,-1374 z" style="fill:url(&quot;#gradLifelineRed&quot;) none; fill-opacity:1; fill-rule:nonzero; stroke:none;"/><path d="m 1833,7373 63,0 0,-1380 -66,0 0,1380 3,0 m 0,-6 0,3 3,0 0,-1374 -3,0 0,3 60,0 0,-3 -3,0 0,1374 3,0 0,-3 -60,0" style="fill:#000000; fill-opacity:1; fill-rule:nonzero; stroke:none;"/><path d="m 690,5774 60,0 0,1686 -60,0 0,-1686 z" style="fill:url(#gradLifelineRed);fill-opacity:1;fill-rule:nonzero;stroke:none"/><path d="m 690,7463 63,0 0,-1692 -66,0 0,1692 3,0 m 0,-6 0,3 3,0 0,-1686 -3,0 0,3 60,0 0,-3 -3,0 0,1686 3,0 0,-3 -60,0" style="fill:#000000;fill-opacity:1;fill-rule:nonzero;stroke:none"/><g transform="scale(10,10)"><text transform="matrix(1,0,0,-1,87.5699,758.231)"><tspan x="0" y="0" style="font-size:7.19999981px;font-variant:normal;font-weight:normal;fill:#000000;fill-opacity:1;fill-rule:nonzero;stroke:none;font-family:'Helvetica, Arial, sans-serif'">&lt;&lt;create&gt;&gt;</tspan></text>
</g><g transform="scale(10,10)"><text transform="matrix(1,0,0,-1,95.0699,748.516)"><tspan x="0" y="0" style="font-size:7.19999981px;font-variant:normal;font-weight:normal;fill:#000000;fill-opacity:1;fill-rule:nonzero;stroke:none;font-family:'Helvetica, Arial, sans-serif'">1: open()</tspan></text>
</g><path d="m 839.398,7463 60,0 0,-6 -60,0 0,6 z m 90,0 60,0 0,-6 -60,0 0,6 z m 90.002,0 60,0 0,-6 -60,0 0,6 z m 90,0 60,0 0,-6 -60,0 0,6 z m 90,0 60,0 0,-6 -60,0 0,6 z m 90,0 60,0 0,-6 -60,0 0,6 z m 90,0 48.6,0 0,-6 -48.6,0 0,6 z m -630.002,0 60,0 0,-6 -60,0" style="fill:#000000;fill-opacity:1;fill-rule:nonzero;stroke:none"/><path d="m 1429.5,7457.4 0,0 -62.35,-36 -2.6,-1.5 -3,5.2 2.6,1.5 62.35,36 2.6,1.5 3,-5.2" style="fill:#000000;fill-opacity:1;fill-rule:nonzero;stroke:none"/><path d="m 1426.5,7457.4 0,0 -62.35,36 -2.6,1.5 3,5.2 2.6,-1.5 62.35,-36 2.6,-1.5 -3,-5.2" style="fill:#000000;fill-opacity:1;fill-rule:nonzero;stroke:none"/><path d="m 3720,7190 60,0 0,150 -60,0 0,-150 z" style="fill:url(&quot;#gradLifelineRed&quot;) none; fill-opacity:1; fill-rule:nonzero; stroke:none;"/><path d="m 3720,7343 63,0 0,-156 -66,0 0,156 3,0 m 0,-6 0,3 3,0 0,-150 -3,0 0,3 60,0 0,-3 -3,0 0,150 3,0 0,-3 -60,0" style="fill:#000000;fill-opacity:1;fill-rule:nonzero;stroke:none"/><g transform="translate(64.355431,0)"><g transform="scale(10,10)"><text transform="matrix(1,0,0,-1,229.08,736.516)"><tspan x="0" y="0" style="font-size:7.19999981px;font-variant:normal;font-weight:normal;fill:#000000;fill-opacity:1;fill-rule:nonzero;stroke:none;font-family:'Helvetica, Arial, sans-serif'">1.1: observe(domwindowopened)</tspan></text>
</g></g><path d="m 1893,7343 1830.6,0 0,-6 -1833.6,0 0,6" style="fill:#000000;fill-opacity:1;fill-rule:nonzero;stroke:none"/><path d="m 3722.1,7337.4 0,0 -62.35,-36 -2.6,-1.5 -3,5.2 2.6,1.5 62.35,36 2.6,1.5 3,-5.2" style="fill:#000000;fill-opacity:1;fill-rule:nonzero;stroke:none"/><path d="m 3719.1,7337.4 0,0 -62.35,36 -2.6,1.5 3,5.2 2.6,-1.5 62.35,-36 2.6,-1.5 -3,-5.2" style="fill:#000000;fill-opacity:1;fill-rule:nonzero;stroke:none"/><path d="m 3576,7076 0,-306 768,0 0,246 -60,60" style="fill:url(&quot;#gradRed&quot;) none; fill-opacity:1; fill-rule:evenodd; stroke:none;"/><path d="m 3579,7076 0,-306 -3,0 0,3 768,0 0,-3 -3,0 0,246 3,0 -2.12,-2.12 -60,60 2.12,2.12 0,-3 -708,0 0,3 3,0 m -6,0 0,3 712.24,0 0.89,-0.87 60,-60 0.87,-0.89 0,-250.24 -774,0 0,309" style="fill:#000000;fill-opacity:1;fill-rule:nonzero;stroke:none"/><path d="m 4341,7013 -63,0 0,6 66,0 0,-6" style="fill:#000000;fill-opacity:1;fill-rule:nonzero;stroke:none"/><path d="m 4278,7016 0,63 6,0 0,-66 -6,0" style="fill:#000000;fill-opacity:1;fill-rule:nonzero;stroke:none"/><g transform="scale(10,10)"><text transform="matrix(1,0,0,-1,358.8,699.467)"><tspan x="0" y="0" style="font-size:7.19999981px;font-variant:normal;font-weight:normal;fill:#000000;fill-opacity:1;fill-rule:nonzero;stroke:none;font-family:'Helvetica, Arial, sans-serif'">the DOM tree have </tspan><tspan x="0" y="9" style="font-size:7.19999981px;font-variant:normal;font-weight:normal;fill:#000000;fill-opacity:1;fill-rule:nonzero;stroke:none;font-family:'Helvetica, Arial, sans-serif'">not been generated </tspan><tspan x="0" y="18" style="font-size:7.19999981px;font-variant:normal;font-weight:normal;fill:#000000;fill-opacity:1;fill-rule:nonzero;stroke:none;font-family:'Helvetica, Arial, sans-serif'">yet</tspan></text>
</g><path d="m 2739,6614 60,0 0,348 -60,0 0,-348 z" style="fill:url(&quot;#gradLifelineRed&quot;) none; fill-opacity:1; fill-rule:nonzero; stroke:none;"/><path d="m 2739,6965 63,0 0,-354 -66,0 0,354 3,0 m 0,-6 0,3 3,0 0,-348 -3,0 0,3 60,0 0,-3 -3,0 0,348 3,0 0,-3 -60,0" style="fill:#000000;fill-opacity:1;fill-rule:nonzero;stroke:none"/><g transform="scale(10,10)"><text transform="matrix(1,0,0,-1,187.65,717.431)"><tspan x="0" y="0" style="font-size:7.19999981px;font-variant:normal;font-weight:normal;fill:#000000;fill-opacity:1;fill-rule:nonzero;stroke:none;font-family:'Helvetica, Arial, sans-serif'">&lt;&lt;create&gt;&gt;</tspan></text>
</g><g transform="scale(10,10)"><text transform="matrix(1,0,0,-1,202.65,707.716)"><tspan x="0" y="0" style="font-size:7.19999981px;font-variant:normal;font-weight:normal;fill:#000000;fill-opacity:1;fill-rule:nonzero;stroke:none;font-family:'Helvetica, Arial, sans-serif'">1.2: </tspan></text>
</g><path d="m 1983,7055 60,0 0,-6 -60,0 0,6 z m 90,0 60,0 0,-6 -60,0 0,6 z m 90,0 60,0 0,-6 -60,0 0,6 z m 90,0 33,0 0,-6 -33,0 0,6 z m -360,0 60,0 0,-6 -60,0" style="fill:#000000;fill-opacity:1;fill-rule:nonzero;stroke:none"/><path d="m 2287.5,7049.4 0,0 -62.35,-36 -2.6,-1.5 -3,5.2 2.6,1.5 62.35,36 2.6,1.5 3,-5.2" style="fill:#000000;fill-opacity:1;fill-rule:nonzero;stroke:none"/><path d="m 2284.5,7049.4 0,0 -62.35,36 -2.6,1.5 3,5.2 2.6,-1.5 62.35,-36 2.6,-1.5 -3,-5.2" style="fill:#000000;fill-opacity:1;fill-rule:nonzero;stroke:none"/><path d="m 2372.25,6818 0,0 c 0,-39.76 26.86,-72 60,-72 l 673.5,0 c 33.14,0 60,32.24 60,72 l 0,0 c 0,39.76 -26.86,72 -60,72 l -673.5,0 c -33.14,0 -60,-32.24 -60,-72" style="fill:url(&quot;#gradYellow&quot;) none; stroke:none;"/><path d="m 2372.25,6824 6,0 0,-6 c 0,-37.52 25.15,-66 54,-66 l 0,-6 0,6 673.5,0 0,-6 0,6 c 28.84,0 54,28.48 54,66 l 0,6 6,0 0,-6 -6,0 c 0,37.52 -25.16,66 -54,66 l 0,6 0,-6 -673.5,0 0,6 0,-6 c -28.85,0 -54,-28.48 -54,-66 l -6,0 0,6 m 0,-12 -6,0 0,6 c 0,42.01 28.57,78 66,78 l 673.5,0 0,0 c 37.43,0 66,-35.99 66,-78 l 0,-6 -6,0 0,6 6,0 c 0,-42 -28.57,-78 -66,-78 l -673.5,0 0,0 c -37.43,0 -66,36 -66,78 l 6,0 0,-6" style="fill:#000000;fill-opacity:1;fill-rule:nonzero;stroke:none"/><g transform="scale(10,10)"><text transform="matrix(1,0,0,-1,252.6,680.362)"><tspan x="0" y="0" style="font-size:7.19999981px;font-variant:normal;font-weight:normal;fill:#000000;fill-opacity:1;fill-rule:nonzero;stroke:none;font-family:'Helvetica, Arial, sans-serif'">Build DOM Tree</tspan></text>
</g><path d="m 3780,6200 60,0 0,150 -60,0 0,-150 z" style="fill:url(#linearGradient6590);fill-opacity:1;fill-rule:nonzero;stroke:none"/><path d="m 3780,6353 63,0 0,-156 -66,0 0,156 3,0 m 0,-6 0,3 3,0 0,-150 -3,0 0,3 60,0 0,-3 -3,0 0,150 3,0 0,-3 -60,0" style="fill:#000000;fill-opacity:1;fill-rule:nonzero;stroke:none"/><path d="m 3720,6080 60,0 0,420 -60,0 0,-420 z" style="fill:url(&quot;#gradLifelineRed&quot;) none; fill-opacity:1; fill-rule:nonzero; stroke:none;"/><path d="m 3720,6503 63,0 0,-426 -66,0 0,426 3,0 m 0,-6 0,3 3,0 0,-420 -3,0 0,3 60,0 0,-3 -3,0 0,420 3,0 0,-3 -60,0" style="fill:#000000;fill-opacity:1;fill-rule:nonzero;stroke:none"/><g transform="scale(10,10)"><text transform="matrix(1,0,0,-1,221.28,639.916)"><tspan x="0" y="0" style="font-size:7.19999981px;font-variant:normal;font-weight:normal;fill:#000000;fill-opacity:1;fill-rule:nonzero;stroke:none;font-family:'Helvetica, Arial, sans-serif'">1.3: handleEvent(DOMContentLoaded)</tspan></text>
</g><path d="m 1893,6503 1830.6,0 0,-6 -1833.6,0 0,6" style="fill:#000000;fill-opacity:1;fill-rule:nonzero;stroke:none"/><path d="m 3722.1,6497.4 0,0 -62.35,-36 -2.6,-1.5 -3,5.2 2.6,1.5 62.35,36 2.6,1.5 3,-5.2" style="fill:#000000;fill-opacity:1;fill-rule:nonzero;stroke:none"/><path d="m 3719.1,6497.4 0,0 -62.35,36 -2.6,1.5 3,5.2 2.6,-1.5 62.35,-36 2.6,-1.5 -3,-5.2" style="fill:#000000;fill-opacity:1;fill-rule:nonzero;stroke:none"/><g transform="scale(10,10)"><text transform="matrix(1,0,0,-1,381.6,651.286)"><tspan x="0" y="0" style="font-size:7.19999981px;font-variant:normal;font-weight:normal;fill:#000000;fill-opacity:1;fill-rule:nonzero;stroke:none;font-family:'Helvetica, Arial, sans-serif'">1.3.1: onStartup()</tspan></text>
</g><path d="m 3780,6473 363,0 0,-6 -366,0 0,6" style="fill:#000000;fill-opacity:1;fill-rule:nonzero;stroke:none"/><path d="m 4143,6470 0,-123 -6,0 0,126 6,0" style="fill:#000000;fill-opacity:1;fill-rule:nonzero;stroke:none"/><path d="m 4140,6347 -236.05,0 0,6 239.05,0 0,-6" style="fill:#000000;fill-opacity:1;fill-rule:nonzero;stroke:none"/><path d="m 3840,6350 66,-42 0,78" style="fill:#000000;fill-opacity:1;fill-rule:evenodd;stroke:none"/><path d="m 3841.61,6352.53 0,0 66,-42 -1.61,-2.53 -3,0 0,78 3,0 1.43,-2.63 -66,-36 -1.43,2.63 1.61,2.53 m -3.22,-5.06 -4.29,2.73 4.47,2.43 66,36 4.43,2.42 0,-88.51 -4.61,2.93 -66,42" style="fill:#000000;fill-opacity:1;fill-rule:nonzero;stroke:none"/><path d="m 1497.75,6290 0,0 c 0,-39.76 26.86,-72 60,-72 l 610.5,0 c 33.14,0 60,32.24 60,72 l 0,0 c 0,39.76 -26.86,72 -60,72 l -610.5,0 c -33.14,0 -60,-32.24 -60,-72" style="fill:url(&quot;#gradYellow&quot;) none; stroke:none;"/><path d="m 1497.75,6296 6,0 0,-6 c 0,-37.52 25.15,-66 54,-66 l 0,-6 0,6 610.5,0 0,-6 0,6 c 28.85,0 54,28.48 54,66 l 0,6 6,0 0,-6 -6,0 c 0,37.52 -25.15,66 -54,66 l 0,6 0,-6 -610.5,0 0,6 0,-6 c -28.85,0 -54,-28.48 -54,-66 l -6,0 0,6 m 0,-12 -6,0 0,6 c 0,42.01 28.57,78 66,78 l 610.5,0 0,0 c 37.43,0 66,-35.99 66,-78 l 0,-6 -6,0 0,6 6,0 c 0,-42 -28.57,-78 -66,-78 l -610.5,0 0,0 c -37.43,0 -66,36 -66,78 l 6,0 0,-6" style="fill:#000000;fill-opacity:1;fill-rule:nonzero;stroke:none"/><g transform="scale(10,10)"><text transform="matrix(1,0,0,-1,159,627.562)"><tspan x="0" y="0" style="font-size:7.19999981px;font-variant:normal;font-weight:normal;fill:#000000;fill-opacity:1;fill-rule:nonzero;stroke:none;font-family:'Helvetica, Arial, sans-serif'">Show this window</tspan></text>
</g><path d="m 1833,5207 60,0 0,567 -60,0 0,-567 z" style="fill:url(&quot;#gradLifelineRed&quot;) none; fill-opacity:1; fill-rule:nonzero; stroke:none;"/><path d="m 1833,5777 63,0 0,-573 -66,0 0,573 3,0 m 0,-6 0,3 3,0 0,-567 -3,0 0,3 60,0 0,-3 -3,0 0,567 3,0 0,-3 -60,0" style="fill:#000000;fill-opacity:1;fill-rule:nonzero;stroke:none"/><g transform="scale(10,10)"><text transform="matrix(1,0,0,-1,105.45,589.631)"><tspan x="0" y="0" style="font-size:7.19999981px;font-variant:normal;font-weight:normal;fill:#000000;fill-opacity:1;fill-rule:nonzero;stroke:none;font-family:'Helvetica, Arial, sans-serif'">&lt;&lt;destroy&gt;&gt;</tspan></text>
</g><g transform="scale(10,10)"><text transform="matrix(1,0,0,-1,115.05,579.916)"><tspan x="0" y="0" style="font-size:7.19999981px;font-variant:normal;font-weight:normal;fill:#000000;fill-opacity:1;fill-rule:nonzero;stroke:none;font-family:'Helvetica, Arial, sans-serif'">2: close()</tspan></text>
</g><path d="m 749.398,5777 1087.202,0 0,-6 -1090.202,0 0,6" style="fill:#000000;fill-opacity:1;fill-rule:nonzero;stroke:none"/><path d="m 1835.1,5771.4 0,0 -62.35,-36 -2.6,-1.5 -3,5.2 2.6,1.5 62.35,36 2.6,1.5 3,-5.2" style="fill:#000000;fill-opacity:1;fill-rule:nonzero;stroke:none"/><path d="m 1832.1,5771.4 0,0 -62.35,36 -2.6,1.5 3,5.2 2.6,-1.5 62.35,-36 2.6,-1.5 -3,-5.2" style="fill:#000000;fill-opacity:1;fill-rule:nonzero;stroke:none"/><path d="m 3780,5390 60,0 0,150 -60,0 0,-150 z" style="fill:url(&quot;#gradLifelineRed&quot;) none; fill-opacity:1; fill-rule:nonzero; stroke:none;"/><path d="m 3780,5543 63,0 0,-156 -66,0 0,156 3,0 m 0,-6 0,3 3,0 0,-150 -3,0 0,3 60,0 0,-3 -3,0 0,150 3,0 0,-3 -60,0" style="fill:#000000;fill-opacity:1;fill-rule:nonzero;stroke:none"/><path d="m 3720,5270 60,0 0,492 -60,0 0,-492 z" style="fill:url(&quot;#gradLifelineRed&quot;) none; fill-opacity:1; fill-rule:nonzero; stroke:none;"/><path d="m 3720,5765 63,0 0,-498 -66,0 0,498 3,0 m 0,-6 0,3 3,0 0,-492 -3,0 0,3 60,0 0,-3 -3,0 0,492 3,0 0,-3 -60,0" style="fill:#000000;fill-opacity:1;fill-rule:nonzero;stroke:none"/><g transform="scale(10,10)"><text transform="matrix(1,0,0,-1,230.58,578.716)"><tspan x="0" y="0" style="font-size:7.19999981px;font-variant:normal;font-weight:normal;fill:#000000;fill-opacity:1;fill-rule:nonzero;stroke:none;font-family:'Helvetica, Arial, sans-serif'">2.1: observe(domwindowclosed)</tspan></text>
</g><path d="m 1893,5765 1830.6,0 0,-6 -1833.6,0 0,6" style="fill:#000000;fill-opacity:1;fill-rule:nonzero;stroke:none;filter:url(#filter5871)"/><path d="m 3722.1,5759.4 0,0 -62.35,-36 -2.6,-1.5 -3,5.2 2.6,1.5 62.35,36 2.6,1.5 3,-5.2" style="fill:#000000;fill-opacity:1;fill-rule:nonzero;stroke:none;filter:url(#filter5871)"/><path d="m 3719.1,5759.4 0,0 -62.35,36 -2.6,1.5 3,5.2 2.6,-1.5 62.35,-36 2.6,-1.5 -3,-5.2" style="fill:#000000;fill-opacity:1;fill-rule:nonzero;stroke:none;filter:url(#filter5871)"/><g transform="scale(10,10)"><text transform="matrix(1,0,0,-1,378.9,569.686)"><tspan x="0" y="0" style="font-size:7.19999981px;font-variant:normal;font-weight:normal;fill:#000000;fill-opacity:1;fill-rule:nonzero;stroke:none;font-family:'Helvetica, Arial, sans-serif'">2.1.1: onShutdown()</tspan></text>
</g><path d="m 3780,5663 363,0 0,-6 -366,0 0,6" style="fill:#000000;fill-opacity:1;fill-rule:nonzero;stroke:none"/><path d="m 4143,5660 0,-123 -6,0 0,126 6,0" style="fill:#000000;fill-opacity:1;fill-rule:nonzero;stroke:none"/><path d="m 4140,5537 -236.05,0 0,6 239.05,0 0,-6" style="fill:#000000;fill-opacity:1;fill-rule:nonzero;stroke:none"/><path d="m 3840,5540 66,-42 0,78" style="fill:#000000;fill-opacity:1;fill-rule:evenodd;stroke:none"/><path d="m 3841.61,5542.53 0,0 66,-42 -1.61,-2.53 -3,0 0,78 3,0 1.43,-2.63 -66,-36 -1.43,2.63 1.61,2.53 m -3.22,-5.06 -4.29,2.73 4.47,2.43 66,36 4.43,2.42 0,-88.51 -4.61,2.93 -66,42" style="fill:#000000;fill-opacity:1;fill-rule:nonzero;stroke:none"/><path d="m 2739,5327 60,0 0,150 -60,0 0,-150 z" style="fill:url(&quot;#gradLifelineRed&quot;) none; fill-opacity:1; fill-rule:nonzero; stroke:none;"/><path d="m 2739,5480 63,0 0,-156 -66,0 0,156 3,0 m 0,-6 0,3 3,0 0,-150 -3,0 0,3 60,0 0,-3 -3,0 0,150 3,0 0,-3 -60,0" style="fill:#000000;fill-opacity:1;fill-rule:nonzero;stroke:none"/><g transform="scale(10,10)"><text transform="matrix(1,0,0,-1,207.93,559.931)"><tspan x="0" y="0" style="font-size:7.19999981px;font-variant:normal;font-weight:normal;fill:#000000;fill-opacity:1;fill-rule:nonzero;stroke:none;font-family:'Helvetica, Arial, sans-serif'">&lt;&lt;destroy&gt;&gt;</tspan></text>
</g><g transform="scale(10,10)"><text transform="matrix(1,0,0,-1,225.33,550.216)"><tspan x="0" y="0" style="font-size:7.19999981px;font-variant:normal;font-weight:normal;fill:#000000;fill-opacity:1;fill-rule:nonzero;stroke:none;font-family:'Helvetica, Arial, sans-serif'">2.2: </tspan></text>
</g><path d="m 1893,5480 782.05,0 0,-6 -785.05,0 0,6" style="fill:#000000;fill-opacity:1;fill-rule:nonzero;stroke:none"/><path d="m 2742,5474 -72,42 0,-78" style="fill:#000000;fill-opacity:1;fill-rule:evenodd;stroke:none"/><path d="m 2740.49,5471.41 0,0 -72,42 1.51,2.59 3,0 0,-78 -3,0 -1.34,2.68 72,36 1.34,-2.68 -1.51,-2.59 m 3.02,5.18 4.79,-2.79 -4.96,-2.48 -72,-36 -4.34,-2.17 0,88.07 4.51,-2.63 72,-42" style="fill:#000000;fill-opacity:1;fill-rule:nonzero;stroke:none"/></g></svg>