<?xml version="1.0" encoding="UTF-8" standalone="no"?>
<!-- Created with Inkscape (http://www.inkscape.org/) -->
<svg xmlns:cc="http://creativecommons.org/ns#" xmlns:dc="http://purl.org/dc/elements/1.1/" height="263.10635" xmlns:rdf="http://www.w3.org/1999/02/22-rdf-syntax-ns#" xmlns:svg="http://www.w3.org/2000/svg" version="1.1" width="635.75659" xmlns:xlink="http://www.w3.org/1999/xlink" xmlns="http://www.w3.org/2000/svg"><defs><marker id="Arrow1Lend" orient="auto" refX="0" refY="0" style="overflow:visible"><path d="M 0,0 5,-5 -12.5,0 5,5 0,0 z" style="fill:#ff0000;fill-rule:evenodd;stroke-width:1pt;marker-start:none" transform="matrix(-0.8,0,0,-0.8,-10,0)"/></marker></defs><metadata><rdf:RDF><cc:Work rdf:about=""><dc:format>image/svg+xml</dc:format><dc:type rdf:resource="http://purl.org/dc/dcmitype/StillImage"/><dc:title/></cc:Work></rdf:RDF></metadata><g transform="translate(-69.770376,-336.64608)"><path d="m 113.13709,449.30111 c 0,0 143.44166,33.33504 187.88837,35.35534 44.44671,2.02031 127.27922,-7.07107 157.5838,-17.17259 30.30457,-10.10153 56.56854,-24.24366 56.56854,-24.24366 0,0 16.16244,19.1929 33.33503,27.27412 17.1726,8.08122 59.599,22.22335 59.599,22.22335" style="fill:none;stroke:#00ffff;stroke-width:5;stroke-linecap:round;stroke-linejoin:miter;stroke-miterlimit:4;stroke-opacity:1;stroke-dasharray:none"/><path d="m 513.15749,339.19449 c 0,0 -7.07106,15.15228 -10.10152,41.41625 -3.03046,26.26397 -1.01015,51.51778 10.10152,60.60915 11.11168,9.09138 12.12183,11.11168 12.12183,11.11168" style="fill:none;stroke:#00ffff;stroke-width:5;stroke-linecap:round;stroke-linejoin:miter;stroke-miterlimit:4;stroke-opacity:1;stroke-dasharray:none"/><path d="m 222.23356,473.54477 40.4061,26.26397 c 0,0 66.67007,7.07107 78.7919,15.15229 12.12183,8.08122 18.18275,19.1929 30.30458,14.14213 12.12183,-5.05076 24.24366,-9.09137 36.36549,-1.01015 12.12183,8.08122 1.01015,2.02031 1.01015,2.02031" style="fill:none;stroke:#0080ff;stroke-width:5;stroke-linecap:round;stroke-linejoin:miter;stroke-miterlimit:4;stroke-opacity:1;stroke-dasharray:none"/><path d="m 262.63966,498.79859 45.45687,64.64976" style="fill:none;stroke:#0080ff;stroke-width:5;stroke-linecap:round;stroke-linejoin:miter;stroke-miterlimit:4;stroke-opacity:1;stroke-dasharray:none"/><path d="m 524.26917,594.76308 c 0,0 -16.16244,-20.20305 -29.29442,-21.2132 -13.13199,-1.01016 -17.1726,-2.02031 -32.32488,-1.01016 -15.15229,1.01016 -51.51778,-43.43656 -51.51778,-43.43656 l -18.18275,-20.20305" style="fill:none;stroke:#0000ff;stroke-width:10;stroke-linecap:round;stroke-linejoin:miter;stroke-miterlimit:4;stroke-opacity:1;stroke-dasharray:none"/><path d="m 399.01027,507.38489 a 9.5964489,9.5964489 0 1 1 -19.1929,0 9.5964489,9.5964489 0 1 1 19.1929,0 z" style="fill:#0000ff;fill-opacity:1;stroke:none" transform="matrix(1.3684211,0,0,1.3684211,-136.90226,-185.41605)"/><text xml:space="preserve" style="font-size:18px; font-style:normal; font-variant:normal; font-weight:normal; font-stretch:normal; text-align:start; line-height:125%; letter-spacing:0px; word-spacing:0px; text-anchor:start; fill:rgb(0, 0, 0); fill-opacity:1; stroke:none; font-family:sans-serif;" x="413.1524" y="382.63104"><tspan x="413.1524" y="382.63104">野川旧河道</tspan><tspan x="413.1524" y="405.13104">（現緑道）</tspan></text><text xml:space="preserve" style="font-size:18px; font-style:normal; font-variant:normal; font-weight:normal; font-stretch:normal; text-align:start; line-height:125%; letter-spacing:0px; word-spacing:0px; text-anchor:start; fill:rgb(0, 0, 0); fill-opacity:1; stroke:none; font-family:sans-serif;" x="159.60411" y="454.3519"><tspan x="159.60411" y="454.3519">旧六郷用水（現福祉会館通り）</tspan></text><text xml:space="preserve" style="font-size:18px; font-style:normal; font-variant:normal; font-weight:normal; font-stretch:normal; text-align:start; line-height:125%; letter-spacing:0px; word-spacing:0px; text-anchor:start; fill:rgb(0, 0, 0); fill-opacity:1; stroke:none; font-family:sans-serif;" x="201.02037" y="533.1438"><tspan x="201.02037" y="533.1438">猪方用水</tspan><tspan x="201.02037" y="557.42926">（廃止?）</tspan></text><text xml:space="preserve" style="font-size:18px; font-style:normal; font-variant:normal; font-weight:normal; font-stretch:normal; text-align:start; line-height:125%; letter-spacing:0px; word-spacing:0px; text-anchor:start; fill:rgb(0, 0, 0); fill-opacity:1; stroke:none; font-family:sans-serif;" x="459.61942" y="563.44836"><tspan x="459.61942" y="563.44836">清水川（たぶん暗渠）</tspan></text><text xml:space="preserve" style="font-size:18px; font-style:normal; font-variant:normal; font-weight:normal; font-stretch:normal; text-align:start; line-height:125%; letter-spacing:0px; word-spacing:0px; text-anchor:start; fill:rgb(0, 0, 0); fill-opacity:1; stroke:none; font-family:sans-serif;" x="411.13208" y="501.82904"><tspan x="411.13208" y="501.82904">弁財天池</tspan><tspan x="411.13208" y="524.32904">・ひょうたん池</tspan></text><text xml:space="preserve" style="font-size:18px; font-style:normal; font-variant:normal; font-weight:normal; font-stretch:normal; text-align:start; line-height:125%; letter-spacing:0px; word-spacing:0px; text-anchor:start; fill:rgb(0, 0, 0); fill-opacity:1; stroke:none; font-family:sans-serif;" x="68.690376" y="447.28082"><tspan x="68.690376" y="447.28082">至多摩川</tspan></text><text xml:space="preserve" style="font-size:18px; font-style:normal; font-variant:normal; font-weight:normal; font-stretch:normal; text-align:start; line-height:125%; letter-spacing:0px; word-spacing:0px; text-anchor:start; fill:rgb(0, 0, 0); fill-opacity:1; stroke:none; font-family:sans-serif;" x="616.19299" y="502.83923"><tspan x="616.19299" y="502.83923">至野川下流</tspan></text><path d="M 391.93919,502.8392 C 364.52663,451.96619 351.60231,429.35565 322.23866,379.60059" style="fill:none;stroke:#ff0000;stroke-width:5;stroke-linecap:butt;stroke-linejoin:miter;stroke-miterlimit:4;stroke-opacity:1;stroke-dasharray:none;marker-end:url(#Arrow1Lend)"/><text xml:space="preserve" style="font-size:18px; font-style:normal; font-variant:normal; font-weight:normal; font-stretch:normal; text-align:start; line-height:125%; letter-spacing:0px; word-spacing:0px; text-anchor:start; fill:rgb(255, 0, 0); fill-opacity:1; stroke:none; font-family:sans-serif;" x="301.02548" y="372.52954"><tspan style="font-size:28px;font-style:normal;font-variant:normal;font-weight:normal;font-stretch:normal;text-align:start;line-height:125%;writing-mode:lr-tb;text-anchor:start;fill:#ff0000;fill-opacity:1;font-family:sans-serif;-inkscape-font-specification:sans-serif" x="301.02548" y="372.52954">?</tspan></text><text xml:space="preserve" style="font-size:18px; font-style:normal; font-variant:normal; font-weight:normal; font-stretch:normal; text-align:start; line-height:125%; letter-spacing:0px; word-spacing:0px; text-anchor:start; fill:rgb(0, 0, 0); fill-opacity:1; stroke:none; font-family:sans-serif;" x="324.25897" y="542.23517"><tspan x="324.25897" y="542.23517">余水吐?</tspan></text></g></svg>